<?xml version="1.0" encoding="utf-8"?>
<!-- Generator: Adobe Illustrator 19.2.1, SVG Export Plug-In . SVG Version: 6.00 Build 0)  -->
<svg version="1.1" id="Layer_1" xmlns="http://www.w3.org/2000/svg" xmlns:xlink="http://www.w3.org/1999/xlink" x="0px" y="0px"
	 viewBox="0 0 511 345.9" style="enable-background:new 0 0 511 345.9;" xml:space="preserve">
<style type="text/css">
	.st0{fill:#5D2C1C;}
	.st1{fill:#D55C27;}
	.st2{fill:#CC5127;}
	.st3{fill:#B03524;}
	.st4{fill:#FEFEFD;}
	.st5{fill:#E37825;}
</style>
<g id="_x37_MkQDr.tif">
	<g>
		<path class="st0" d="M511,107.1c-3.1,4.4-4.6,9.8-9.2,13.2c-2,1.5,0,3.7,0.4,5.5c1.8,8.6,1.3,16.6-5.7,23
			c-7.8,7.1-21.3,6.5-30.1-1.5c-2.3-2.1-3.6-2.2-6-0.1c-6.7,6-14.7,10.2-21.2,16.6c-3.8,3.7-5.4,7.5-5.5,12.7
			c-0.5,25.4-5.4,49.9-17.7,72.5c-10.7,19.6-26,34.3-46,44.3c-1.9,1-3.8,1.8-5.3,3.5c-22.2,25.4-50.8,38.9-83.4,45.2
			c-25.1,4.8-50.3,4.4-75.7,3.3c-23.5-1.1-46.9-2.8-69.7-9.1c-16.3-4.5-31.1-12.5-46-20.2c-21.4-11.1-42.3-23.2-65.3-30.6
			c-22.1-7.2-26.6-25.1-24.1-43c1.9-13.7,9.1-24.7,18.7-34.4c13.5-13.7,21.9-30.8,30.8-47.6c1.2-2.2,0.5-4.6,0.5-6.9
			c0-20,4.3-38.9,13.5-56.7C69.6,86,76.7,76.4,87.2,70.1c10.4-6.3,21.4-6.9,32.3-1.3c3.3,1.7,5.3,1.4,8.4-0.6
			c39.9-26.2,83.5-37.1,131-31.8c21.7,2.4,42.2,9.1,61.5,19.3c3.4,1.8,5.8,1.1,8.6-0.5c8.2-4.8,13.5-12.8,21.1-18.2
			c3.8-2.8,5-5.3,3.1-10.2c-3.5-9.2-0.5-17.7,7-22.9c7.4-5.2,17.4-5.1,24.7,0.5c2.1,1.6,3.6,1.8,6.2,1.1c10.5-3,21.9,0.9,28.5,9.5
			c6.1,7.9,7,19.3,2.2,27.8c-3.9,6.9-4.2,7.8-3.9,14.9c0.3,8.2-2.3,14.7-9.9,18.6c-8.3,4.2-16.7,4-23.9-1.7c-3.4-2.6-5-1.7-7.3,0.5
			c-3.3,3.1-7.8,4.4-11.6,6.8c-2.6,1.6-2.6,2.8-0.1,4.7c8.3,6.3,17.7,9.7,28,10.8c11.2,1.2,21.5,4.7,29.7,12.7
			c1.5,1.5,2.6,1.5,4.1,0.1c1.8-1.7,3.7-3.3,5.7-4.7c2.2-1.5,1-3.1,0.4-4.8c-2.8-8.1-3.4-16,1.9-23.3c7.7-10.6,22-12.4,33.2-4.3
			c1.7,1.2,2.9,1.9,5.2,1.2c16.4-5,31.6,3.5,36.5,20c0.1,0.4,0.6,0.7,0.9,1C511,99.1,511,103.1,511,107.1z M344.7,69.3
			c1.5,2.9,4.5,4.2,7,6.1c1.9,1.5,3.3,0.2,4.7-1.1c1.9-1.7-0.1-2.6-0.7-3.7c-1-1.7-1.7-3.7-3.7-4.5c-1-3.1-3.8-4.5-6.2-6.1
			c-3.7-2.5-7.1-2.1-9.6,2c-2.1,3.5,2.4,3.2,3.8,4.8C341.2,68,342.6,69.4,344.7,69.3z M88.7,102.1c7.2-7.2,14.3-14.4,21.5-21.6
			c1.8-0.8,3.9-1.4,4.5-3.5c0.4-1.1-0.9-1.6-1.8-2c-6.7-3.3-18.1-1.7-23.8,3.4c-13.8,12.2-19.8,28.3-23.3,45.8
			c-1.6,4.1-2.3,7.7-2.1,11.6C71.3,123.6,79.5,112.5,88.7,102.1z M250,263.1c-1.4,0.9-3.6,0.6-4.3,2.7
			c-14.1,8.2-25.4,19.5-35.9,32.2c-1.2-2.7-0.3-4.4,0.5-6c5.1-10.2,11-19.9,20.6-26.4c5.9-4,7.7-9,7.2-15.5c0.5-4,1-8,1.6-12
			c0.6-7.1,0.8-14.3-0.6-21.3c-2.8-13.7-8.4-25.3-22.8-30.1c-8.8-2.9-17.8-2-26.5,0.3c-23.1,6.2-42.6,18.2-57.8,36.8
			c-8.5,10.4-15.3,21.7-17.3,35.3c-2.6,7.2-2,14.6-0.7,22c0.5,3,1,6.3,4,8.2c2,6.3,8,9.3,15.6,7.5c6-1.4,11.6-3.9,17.1-6.5
			c8.9-4.2,14.9-10.4,13.6-21.2c0.1-0.6,0.1-1.1,0.2-1.7c1.1-0.4,1.8-1,1.5-2.3c1.5-4.6,2.9-9.3,4.4-13.9c2.5-7.4,7.1-13.6,11.3-20
			c2-3,3.4-6.5,6.4-8.7c1.3-0.9,2.9-3.2,4.7-1.5c1.6,1.6-1.1,2.7-1.4,4.2c-8.4,11.7-13.5,24.7-16.2,38.7c-0.2,0.4-0.5,0.8-0.7,1.2
			c-0.1,2-0.2,4-0.2,5.9c-1.9,16.6-3,33.2,8,47.4c6.5,8.3,15.8,10.8,26.2,9.1c7.1-1.2,13.6-3.9,19.8-7.3c6.5-3.6,13.5-6.7,18.2-13
			c4.8-4.2,10.9-6.8,13.9-13c1.1-0.1,1.6-0.9,2.3-1.7c12.2-13,19.6-28.9,26.9-44.8c0.6-1.3,2-2.7,1-4.1c-1.2-1.5-2.8-0.1-4.1,0.4
			C273.2,248.8,261,254.7,250,263.1z M434.1,143c-1.6-3.2-4-5.6-6.7-7.9c-3.7-3.2-6.1-2.8-9.6,0.5c-4.8,4.7-10.7,7.8-17.5,8.9
			c-10.1,1.6-20.2,0.6-30.4,1.4c-20.9,1.7-40.1,7.1-57,20.1c-15.3,11.7-25.4,26.9-31.1,45.1c-4.4,8.9-6,18.4-5.9,28.5
			c5.4-1.7,10.3-3,15.4-3.3c5.3-0.4,6.8,1.4,6.7,6.7c-0.1,6.5-3.9,11.9-5.1,18.1c-2.2,3.9-5,7.5-6.4,11.6c-0.8,2.3-3.8,4.6-2.1,7.2
			c3.9,6.1,9.1,11.4,16.3,12.9c15,3.1,29.9,2.2,44.6-2.2c22.8-6.9,41.2-20,55.5-38.9c12.5-16.4,18.9-35.2,21-55.6
			c1.1-5.5,1.7-11.2,1.1-16.8c-1-10.6,2.4-18.9,10.6-25.7C439.1,149,438.8,148.6,434.1,143z M12.2,258c1,6.9,5.4,11,11.2,14.2
			c8.6,4.7,18.3,6.4,27,10.7c19.8,9.9,39.4,20.1,59.1,30.2c14.6,7.4,29.8,13.3,46.1,15.6c6.6,0.9,13.2,2.4,20.9,0.6
			c-9.3-8.3-11.9-18.9-14.3-29.6c-0.6-2.6-1.3-3.1-3.6-1.8c-5,2.8-10.1,5.5-15.7,7.1c-9.2,2.6-18.3,2.8-26.6-2.3
			c-10.1-6.3-12.3-16.7-13.2-27.6c0-6.5,0.2-13,1.9-19.2c6.5-24.2,20.6-43.1,40.5-57.9c2.4-1.8,5.2-3.1,6.9-5.6
			c7.2-3.3,13.8-7.6,21.4-10.2c15.2-5.2,30.5-7.2,46.4-3.6c0.9,0.5,1.7,1.1,2.6,1.4c12,4.5,19.5,13.1,23.7,25.1
			c4.2,12.1,3.9,24.5,3.8,37c0,2.9-1.2,5.7-0.2,8.6c2.7-1,5.5-2.1,8.2-3.1c3-1.1,4.6-2.7,5.2-6.3c0.8-5.4,0.1-10.9,1.9-16.3
			c4.5-13.8,9.6-27.2,17-39.7c0.7-0.9,1.6-1.7,2.2-2.7c8.8-12.2,19.2-22.6,32-30.8c8.6-5.5,17.9-8.9,27.5-11.4
			c16.2-4.3,32.9-4.3,49.6-4c8.7,0.2,15-4.1,20-10.3c5.9-7.3,4.8-10.6-4-14.7c-5.4-2.5-11.2-3.7-16.9-4
			c-15.1-0.8-27.9-7.3-39.2-16.3c-10.6-8.4-20.8-17.4-32.4-24.3c-20.4-12.2-42.1-20.6-65.9-22.4c-27.2-2-53.7,1.3-79.5,10.7
			c-26.5,9.6-50,23.9-70.1,43.6c-15.5,15.2-27.6,33.1-38.1,52c-6.8,12.3-14,24.5-19.8,37.4c-3.1,2-2.9,5.9-5.1,8.7
			c-7,9.3-15.9,16.9-22.7,26.2C12.2,233.3,9,245.1,12.2,258z M480.6,143.2c4.5-0.1,8.5-2.5,10.8-7.2c2.5-5.3,1.8-10.3-2-14.9
			c-3.7-4.4-3.6-4.9,1.8-6.8c4.4-1.5,7.6-4.1,8.8-8.6c1.8-6.9-0.4-12.9-5.1-17.8c-6.9-7.5-14.8-7.5-21.8-0.4
			c-3.1,3.1-5.3,2.8-7.1-1.4c-1.3-3-2.5-5.7-5.9-6.9c-6.3-2.2-12.8-0.1-16.9,6c-3.9,5.7-3.5,11.1,2.2,17c3.5,3.5,2.3,5.4-0.7,7.9
			c-4.7,3.7-9.2,7.7-13.8,11.4c-2,1.6-1.8,2.5,0.1,4.1c6.1,5,11.3,10.8,15,17.8c1.5,2.8,3.1,2.8,5,0.9c3.5-3.5,6.9-7.2,10.4-10.8
			c4.7-4.9,6-4.6,7.9,1.8C470.8,140.6,474.2,143.2,480.6,143.2z M415,29.3c-0.2-0.8-0.4-2.8-1-4.7c-4.1-11.6-15.6-14.5-24.4-6.3
			c-2.7,2.5-5.3,1.9-6.9-1.9c-1-2.3-2-4.5-4.5-5.7c-4-2-9.8-1.4-13.1,1.7c-3.6,3.5-5.3,7.6-3.2,12.6c0.8,1.8,1.5,3.8,2.6,5.4
			c2.8,4,2.6,7.1-1.7,10.1c-3.4,2.4-6.3,5.4-9.5,8.1c-2.2,1.8-2.8,3.1,0.1,5.2c4.7,3.4,9,7.5,11.6,12.9c1.5,3,3.2,3.1,5.4,1.2
			c3.1-2.7,6.1-5.7,9.1-8.5c3.9-3.6,5.2-3.4,6.6,1.8c1.2,4,3.3,6.9,7.6,7.6c4.9,0.9,8.9-1,11.9-4.8c3.2-4.1,2.9-9.9-0.2-14.5
			c-3.5-5.1-3.4-5.1,2.3-7.5C412.7,39.9,415,36.1,415,29.3z M334.7,307.1c-4.4-1-4.3-0.9-6.4-0.7c-17.9,1.7-34.7-0.9-48.7-13.3
			c-2.7-2.4-4.1-2.4-6.2,0.6c-7.5,10.8-16.5,20.2-27.3,27.8c-5.1,3.6-10.4,7.1-15.6,10.6C266.9,332.1,302.1,327.4,334.7,307.1z"/>
		<path class="st1" d="M219.9,178.4c-15.8-3.6-31.2-1.6-46.4,3.6c-7.5,2.6-14.2,6.9-21.4,10.2c-1.6-1.9-2.1-3.7,1.2-4
			c2.3-0.2,4-1.6,6.1-2.1c1.1-0.3,1.8-1,1.8-2.1c0-1.2-1.2-1.1-1.9-1.2c-3.5-0.4-7.3-4.7-10.5,1c-0.5,0.9-2.7,1.1-4.2,1.2
			c-1.7,0.1-3.2,0.8-3.3,2.4c-0.3,3.9-2.8,3.7-5.6,3.7c-21.9-0.1-43.9,0-65.8,0l0,0c-0.1-1.6,0.1-3.9-2.6-1.8c-1.3,1-2.1,2.6-4,2.6
			C69,181,75,170.3,83.9,161.6c1.1-1,3.2-2.3,1.4-4.1c-1.2-1.2-2.8,0.2-4,1c-4.4,3.1-7.9,7-11.1,11.3c-5.1,6.7-10,13.6-14.9,20.4
			c-1-6.1-5.2-1.7-7.8-2.4c5.8-12.9,12.9-25,19.8-37.4c10.5-18.9,22.6-36.8,38.1-52c20-19.7,43.6-34,70.1-43.6
			c25.8-9.3,52.3-12.6,79.5-10.7c23.9,1.7,45.5,10.2,65.9,22.4c11.7,7,21.8,15.9,32.4,24.3c11.3,9,24.1,15.5,39.2,16.3
			c5.7,0.3,11.6,1.5,16.9,4c8.8,4.1,9.9,7.4,4,14.7c-5,6.2-11.3,10.5-20,10.3c-16.6-0.3-33.3-0.2-49.6,4
			c-9.6,2.5-18.9,5.9-27.5,11.4c-12.8,8.2-23.2,18.6-32,30.8c-0.7,0.9-1.5,1.8-2.2,2.7c-2.8,0.1-3.6-3.4-6.9-3.2
			c-11,0.6-22.2-0.8-33.1,1.3c-2.6,0.5-3.3,0-3.2-2.5c0.1-2.8-1.3-5.7-3.9-5.4c-4.4,0.6-8.8-0.7-13.1,0.6
			C220.6,176.5,220,177.1,219.9,178.4z M119.4,160c13.7,0.3,24.5-0.9,35-2.4c16.5-2.4,33.1-5.5,49.1-10.6c9.9-3.1,20-5.6,29.9-8.8
			c9.5-3.2,18.9-6.9,28.2-10.5c11.3-4.4,22.5-9,33.2-14.9c3.8-2.1,6.7-5.3,10.6-6.9c4.5-1.9,8.2-5.2,11.4-8.6
			c3.3-3.6,7-7.6,6.2-13.4c-1.1-8.1-6.6-13.2-12.9-17.1c-17.9-11.2-38.1-16.2-58.8-17.5c-24.1-1.6-48,0.8-70.8,9.8
			c-15.9,6.3-31.1,13.9-44.6,24.5c-7,5.5-13.9,10.8-19.8,17.6c-5.1,6-10.4,11.8-14.8,18.4c-3.5,5.2-6.3,10.5-8.6,16.3
			c-3.8,9.4-1.7,18.6,8.6,21.4C108.1,159.2,115.2,159.7,119.4,160z M283.6,177.6c0-1.1-0.6-1.6-1.5-1.3c-1.5,0.4-2.6,1.4-2.9,3
			c-0.2,1,0.4,1.7,1.3,1.7C282.5,180.9,282.9,179.1,283.6,177.6z"/>
		<path class="st2" d="M63.3,191.8c1.9,0.1,2.7-1.6,4-2.6c2.8-2.1,2.5,0.2,2.6,1.8c-0.1,0.1-0.2,0.3-0.2,0.4
			c0.1-0.1,0.2-0.3,0.2-0.4c21.9,0,43.9,0,65.8,0c2.8,0,5.3,0.2,5.6-3.7c0.1-1.6,1.5-2.3,3.3-2.4c1.5-0.1,3.7-0.3,4.2-1.2
			c3.1-5.7,6.9-1.4,10.5-1c0.7,0.1,1.9,0,1.9,1.2c0,1.1-0.7,1.8-1.8,2.1c-2.1,0.5-3.8,1.9-6.1,2.1c-3.3,0.3-2.8,2.1-1.2,4
			c-1.7,2.6-4.5,3.9-6.9,5.6c-19.9,14.9-34,33.8-40.5,57.9c-1.7,6.3-1.9,12.8-1.9,19.2c-1.6-0.1-3.3-0.2-4.9-0.5
			c-7.9-1.5-15.8-3.1-23.8-4.5c-13.8-2.4-27.6-4.8-41.5-6.8c-7.1-1-13.4-4.9-20.6-5.3c-3.2-12.9,0-24.7,7.6-35.1
			c6.8-9.4,15.7-17,22.7-26.2c2.1-2.8,2-6.7,5-8.7c2.6,0.7,6.8-3.7,7.8,2.4c0,0-0.1-0.1-0.1-0.1c-1.9-0.2-3.5,1.4-4,2.3
			c-1.2,1.9-3.7,4.5,0,6.6c-0.7,4.6-5,7.4-6.8,12.1c5.1-0.3,7.6-3.2,9.8-6.6C57.1,200.3,59.2,195.3,63.3,191.8z M72.7,247.1
			c-0.3,0-1.5-0.1-2.6,0.2c-3,0.6-5.2,2.2-6,5.2c-0.8,3.1,0.6,5.4,3,7.3c3.7,2.9,14,3.2,17.5,0.5c1.1-0.8,1.2-1.8,1.3-3
			C86.5,251.6,81.1,247.1,72.7,247.1z M94.3,240.1c-4.2-0.2-6.3,1.1-6.3,5c-0.1,4.3,3.2,5.1,6.2,5.7c2.8,0.5,6.8-3.3,6.8-6
			C100.9,239.8,96.5,241,94.3,240.1z"/>
		<path class="st2" d="M292.9,261.1c1.2-6.2,5-11.6,5.1-18.1c0.1-5.3-1.4-7-6.7-6.7c-5.1,0.3-10,1.6-15.4,3.3
			c-0.1-10.1,1.5-19.6,5.9-28.5c0.8,0,1.5-0.3,2-1c4.5-6.1,5.7-6.4,12.2-2.9c-0.1,10.4,3.9,16.2,12.4,16.9
			c6.1,0.5,12.3,0.1,18.2-1.7c13.3-4.1,25.7-10,36.4-19.2c6.5-2.5,13.2-2,20-1.9c2.7,0,5.7,0.5,5.9,3.9c0.2,3.4,2.1,3.6,4.8,4.3
			c3.2,0.8,5.7-0.1,8.4-1.2c-1.4,5.7-4.8,10.4-7.7,15.4C382,244,366.6,261.1,342.8,268c-12.2,3.6-24.7,3.6-37-1.2
			C301.4,265.1,298,261.1,292.9,261.1z"/>
		<path class="st2" d="M174.8,263.9c2.7-14,7.8-27,16.2-38.7c2.2,0.8,4.1,3.2,7.2,0.7c-2.2,5.5,0.4,7.1,5,7.3c0.9,0,1.7,0.9,2.6,1.2
			c3.9,1.4,7,5.3,10.2,6c8.1,1.9,14.2,7.5,22,9.6c0.5,6.5-1.3,11.5-7.2,15.5c-9.5,6.5-15.4,16.3-20.6,26.4c-0.8,1.5-1.7,3.3-0.5,6
			c10.5-12.7,21.8-24,35.9-32.2c0,0,0.3,0.3,0.3,0.3c0.5,3-0.8,4.9-3.2,6.7c-3.7,2.8-7.4,5.7-10.8,8.7c-4.8,4.2-10.2,8-12.6,14.4
			c-0.4,1.2-1.9,2.1-0.5,3.4c1.2,1.1,2.4,0.4,3.7,0c4.5-1.4,8.4-3.9,12.2-6.6c5.3-3.7,10.7-7.1,16-10.7c0.5,5.3,3.2,8.8,8.3,10.5
			c0.4,0.1,0.5,1.1,0.8,1.6c-3,6.1-9.1,8.8-13.9,13c-3.7,0.7-7.1,1.6-10.4,4.3c-4.7,3.9-11.3,4.3-17.1,6.4c-8.8,3.1-23-0.6-29.2-7.6
			c-6.6-7.5-10.2-16.3-12.8-25.8c-1.2-4.4-0.7-9.2-2.8-13.4c0.1-2,0.2-4,0.2-5.9C174.4,264.7,174.6,264.3,174.8,263.9z"/>
		<path class="st3" d="M292.9,261.1c5.1,0.1,8.5,4,12.9,5.8c12.3,4.8,24.7,4.7,37,1.2c23.8-6.9,39.2-24,51.5-44.5
			c3-4.9,6.4-9.6,7.7-15.4c3.8-3.9,3.5-9.9,6.9-14.1c2.5-0.5,4.1,4.3,5.8,2.2c2.8-3.6,4.8-0.6,7.2-0.2c-2.1,20.4-8.5,39.2-21,55.6
			c-14.3,18.9-32.7,32-55.5,38.9c-14.8,4.5-29.7,5.4-44.6,2.2c-7.2-1.5-12.4-6.8-16.3-12.9c-1.7-2.7,1.3-4.9,2.1-7.2
			C288,268.6,290.7,264.9,292.9,261.1z"/>
		<path class="st1" d="M408.9,194.1c-3.5,4.1-3.1,10.1-6.9,14.1c-2.7,1-5.2,2-8.4,1.2c-2.7-0.7-4.5-0.9-4.8-4.3
			c-0.2-3.4-3.2-3.9-5.9-3.9c-6.7-0.1-13.5-0.6-20,1.9c7.4-8.4,15.7-16,20.9-26.2c2.8-5.6,1.9-16.9-2.7-19.4
			c-7.3-4-15.2-4.1-23.2-2.8c-14.3,2.3-26,10.3-37.7,18c-9.4,6.1-17.2,13.7-21.6,24.4c-1.4,3.3-1,6.9-2.6,10.1
			c-6.5-3.4-7.7-3.2-12.2,2.9c-0.6,0.8-1.2,1-2,1c5.7-18.2,15.9-33.4,31.1-45.1c16.9-13,36.2-18.3,57-20.1
			c10.1-0.8,20.3,0.2,30.4-1.4c6.8-1.1,12.7-4.2,17.5-8.9c3.4-3.3,5.9-3.7,9.6-0.5c2.7,2.3,5.1,4.7,6.7,7.9c-0.9,1.5-2.8,1.4-4,2.7
			c-8,8.5-14.4,17.8-16.4,29.7C412.6,181.7,410.5,187.9,408.9,194.1z"/>
		<path class="st3" d="M12.2,258c7.2,0.4,13.5,4.3,20.6,5.3c13.9,2,27.7,4.4,41.5,6.8c8,1.4,15.9,3,23.8,4.5
			c1.6,0.3,3.3,0.3,4.9,0.5c1,10.9,3.2,21.3,13.2,27.6c8.3,5.2,17.4,5,26.6,2.3c5.6-1.6,10.7-4.3,15.7-7.1c2.3-1.3,3-0.8,3.6,1.8
			c2.4,10.7,5.1,21.3,14.3,29.6c-7.7,1.8-14.3,0.3-20.9-0.6c-16.3-2.3-31.5-8.2-46.1-15.6c-19.7-10-39.4-20.3-59.1-30.2
			c-8.7-4.3-18.4-6-27-10.7C17.5,269,13.1,264.9,12.2,258z"/>
		<path class="st4" d="M480.6,143.2c-6.4,0-9.8-2.5-11.5-7.9c-2-6.4-3.3-6.7-7.9-1.8c-3.5,3.6-6.8,7.3-10.4,10.8
			c-1.9,1.9-3.5,1.9-5-0.9c-3.7-7-8.9-12.8-15-17.8c-1.9-1.6-2.1-2.5-0.1-4.1c4.7-3.7,9.2-7.7,13.8-11.4c3.1-2.5,4.2-4.4,0.7-7.9
			c-5.8-5.9-6.1-11.3-2.2-17c4.1-6,10.6-8.2,16.9-6c3.4,1.2,4.6,3.9,5.9,6.9c1.8,4.2,4,4.5,7.1,1.4c7-7.1,14.9-7.1,21.8,0.4
			c4.6,5,6.9,10.9,5.1,17.8c-1.2,4.6-4.3,7.1-8.8,8.6c-5.4,1.9-5.5,2.4-1.8,6.8c3.8,4.6,4.5,9.6,2,14.9
			C489.2,140.7,485.1,143,480.6,143.2z"/>
		<path class="st1" d="M238,250.1c-7.7-2.1-13.9-7.7-22-9.6c-3.1-0.7-6.3-4.6-10.2-6c-0.9-0.3-1.7-1.2-2.6-1.2
			c-4.6-0.2-7.2-1.8-5-7.3c-3.1,2.5-5,0.1-7.2-0.7c0.3-1.5,3-2.7,1.4-4.2c-1.8-1.7-3.3,0.6-4.7,1.5c-3.1,2.1-4.5,5.6-6.4,8.7
			c-4.1,6.5-8.8,12.6-11.3,20c-2.6-0.8-3.6-1.8-1.4-4.5c3-3.7,2.2-5.2-1.8-7.3c-2.2-1.1-5.7,0-6.6-2.6c-2.2-6.6-7.2-7.2-12.8-6.6
			c-3.4,0.4-4.8-1.4-5.5-4.2c0-1.2,0.7-1.9,1.9-1.9c4.1-0.6,4.5-1,4-4c2-3.9,5.9-5.6,9.2-7.9c12.1-8.5,25.4-13.4,40.2-15.6
			c9.9-1.5,25.8,5.6,31.1,14.2c4.9,8,8.9,16.2,9.6,25.7c0.1,1,0.7,1.4,1.6,1.6C239.1,242.1,238.5,246.1,238,250.1z"/>
		<path class="st4" d="M415,29.3c0.1,6.8-2.3,10.6-7.2,12.6c-5.8,2.4-5.8,2.5-2.3,7.5c3.1,4.6,3.4,10.4,0.2,14.5
			c-2.9,3.8-6.9,5.6-11.9,4.8c-4.3-0.8-6.4-3.6-7.6-7.6c-1.5-5.1-2.7-5.4-6.6-1.8c-3.1,2.8-6,5.7-9.1,8.5c-2.2,1.9-3.9,1.8-5.4-1.2
			c-2.6-5.3-6.8-9.5-11.6-12.9c-2.9-2.1-2.3-3.3-0.1-5.2c3.2-2.6,6.1-5.7,9.5-8.1c4.2-3,4.5-6.1,1.7-10.1c-1.1-1.6-1.8-3.5-2.6-5.4
			c-2.2-5-0.4-9.1,3.2-12.6c3.2-3.1,9.1-3.7,13.1-1.7c2.4,1.2,3.4,3.3,4.5,5.7c1.7,3.8,4.2,4.4,6.9,1.9c8.8-8.2,20.3-5.2,24.4,6.3
			C414.6,26.5,414.8,28.5,415,29.3z"/>
		<path class="st2" d="M141.9,226c0.8,2.8,2.1,4.5,5.5,4.2c5.6-0.6,10.6,0,12.8,6.6c0.8,2.5,4.4,1.4,6.6,2.6c4,2.1,4.8,3.6,1.8,7.3
			c-2.2,2.6-1.2,3.7,1.4,4.5c-1.5,4.6-2.9,9.3-4.3,13.9c-1.3,0.3-1.8,1.1-1.5,2.3c-0.1,0.6-0.1,1.1-0.2,1.7c-3.7,0.2-6.4,2.5-9,4.6
			c-10.9,8.9-22.5,15.9-37.2,15.5c-3-1.9-3.5-5.2-4-8.2c-1.3-7.3-1.9-14.7,0.7-22c3.9-6.6,8.6-12.8,13.5-18.7
			C132.2,235.3,135.8,229.3,141.9,226z"/>
		<path class="st3" d="M334.7,307.1c-32.6,20.3-67.8,25-104.1,25.1c5.2-3.5,10.4-7,15.6-10.6c10.8-7.6,19.8-17,27.3-27.8
			c2.1-3,3.5-3,6.2-0.6c14,12.5,30.8,15,48.7,13.3C330.3,306.3,330.3,306.1,334.7,307.1z"/>
		<path class="st2" d="M219.9,178.4c0.1-1.3,0.7-2,2.1-2.4c4.3-1.3,8.7,0,13.1-0.6c2.6-0.4,4,2.6,3.9,5.4c-0.1,2.4,0.6,3,3.2,2.5
			c11-2.2,22.1-0.7,33.1-1.3c3.3-0.2,4.1,3.3,6.9,3.2c-7.4,12.5-12.6,25.9-17,39.7c-1.7,5.3-1.1,10.9-1.9,16.3
			c-0.5,3.7-2.2,5.2-5.2,6.3c-2.8,1-5.5,2.1-8.2,3.1c-1-2.9,0.2-5.8,0.2-8.6c0-12.5,0.4-24.9-3.8-37c-4.2-12.1-11.7-20.6-23.7-25.1
			C221.6,179.5,220.8,178.9,219.9,178.4z"/>
		<path class="st5" d="M141.9,226c-6.2,3.3-9.8,9.3-14,14.4c-4.9,5.9-9.5,12-13.5,18.7c2.1-13.6,8.8-24.9,17.3-35.3
			c15.2-18.6,34.7-30.7,57.8-36.8c8.7-2.3,17.7-3.3,26.5-0.3c14.4,4.8,20.1,16.4,22.8,30.1c1.4,7.1,1.2,14.2,0.6,21.3
			c-0.9-0.2-1.5-0.6-1.6-1.6c-0.7-9.5-4.7-17.7-9.6-25.7c-5.2-8.6-21.1-15.7-31.1-14.2c-14.8,2.2-28.1,7.1-40.2,15.6
			c-3.3,2.3-7.2,4.1-9.2,7.9c-1.7,1-3,2.4-4,4C142.6,224.1,142,224.8,141.9,226z"/>
		<path class="st3" d="M173.9,271.1c2,4.2,1.5,8.9,2.8,13.4c2.6,9.5,6.2,18.3,12.8,25.8c6.2,7,20.4,10.7,29.2,7.6
			c5.8-2,12.3-2.4,17.1-6.4c3.2-2.7,6.6-3.6,10.4-4.3c-4.7,6.3-11.7,9.4-18.2,13c-6.2,3.4-12.8,6.1-19.8,7.3
			c-10.4,1.8-19.7-0.7-26.2-9.1C170.9,304.3,172,287.7,173.9,271.1z"/>
		<path class="st1" d="M260,294.2c-0.3-0.6-0.4-1.5-0.8-1.6c-5.1-1.7-7.8-5.2-8.3-10.5c4.7-5.8,10-10.5,18.3-9.1
			c0.5,0.1,1.1-0.6,1.7-0.9c0.7,0,1.4,0,2,0c0.3-0.7,1-1.5,0.9-2.2c-1.3-6.8,1.9-11.7,6.7-16c0.5-0.4,1.1-1,1.2-1.6
			c0.3-1.4,2.8-2.3,1.4-3.8c-1.4-1.4-3.1-0.1-4.5,0.8c-5.1,3.1-10.2,6.2-15.2,9.5c-3.6,2.3-7,4.8-10.5,7.2c0.2-2.2-0.8-3.2-3-3
			c11-8.4,23.3-14.3,36.2-19.1c1.3-0.5,2.9-1.9,4.1-0.4c1.1,1.4-0.4,2.8-1,4.1c-7.3,15.9-14.8,31.8-26.9,44.8
			C261.6,293.3,261.1,294.1,260,294.2z"/>
		<path class="st2" d="M408.9,194.1c1.6-6.2,3.6-12.3,4.7-18.6c2-11.9,8.4-21.2,16.4-29.7c1.2-1.3,3.1-1.2,4-2.7
			c4.7,5.6,5.1,6-0.4,10.6c-8.3,6.8-11.7,15.1-10.6,25.7c0.5,5.6,0,11.2-1.1,16.8c-2.3-0.3-4.3-3.3-7.2,0.2
			C413,198.4,411.4,193.6,408.9,194.1z"/>
		<path class="st3" d="M117.7,289.3c14.7,0.4,26.3-6.6,37.2-15.5c2.6-2.1,5.3-4.5,9-4.6c1.4,10.8-4.7,17-13.6,21.2
			c-5.5,2.6-11.2,5.1-17.1,6.5C125.7,298.6,119.7,295.6,117.7,289.3z"/>
		<path class="st5" d="M65.7,124.1c3.5-17.4,9.5-33.6,23.3-45.8c5.7-5,17.1-6.7,23.8-3.4c0.9,0.4,2.2,0.8,1.8,2
			c-0.7,2.1-2.7,2.7-4.5,3.5c-0.8-1.6-2.1-0.9-3.4-0.8c-6.7,0.2-11.7,4.2-16.3,8c-3.9,3.2-8.7,6.1-10.4,11.5c1.5,4.2,1.2,7.5-4,9
			c-2.3,0.7-3,3-4,5.2C70.2,117,68.9,121.1,65.7,124.1z"/>
		<path class="st1" d="M80,99.1c1.7-5.4,6.5-8.3,10.4-11.5c4.7-3.8,9.7-7.7,16.3-8c1.3,0,2.6-0.7,3.4,0.8
			c-7.2,7.2-14.3,14.4-21.5,21.6C85.2,102.8,82.4,101.4,80,99.1z"/>
		<path class="st2" d="M80,99.1c2.4,2.3,5.2,3.6,8.7,3c-9.2,10.4-17.4,21.5-25,33.6c-0.3-3.9,0.4-7.5,2.1-11.6
			c3.1-3,4.5-7.1,6.2-10.9c1-2.1,1.7-4.5,4-5.2C81.2,106.7,81.5,103.3,80,99.1z"/>
		<path class="st1" d="M344.7,69.3c-2.1,0.1-3.5-1.3-4.6-2.6c-1.4-1.5-6-1.2-3.8-4.8c2.4-4.1,5.9-4.5,9.6-2c2.4,1.7,5.2,3,6.2,6.1
			C348.8,65.3,347,67.9,344.7,69.3z"/>
		<path class="st2" d="M344.7,69.3c2.3-1.4,4.1-4,7.3-3.2c2,0.8,2.7,2.8,3.7,4.5c0.6,1,2.6,2,0.7,3.7c-1.4,1.3-2.8,2.6-4.7,1.1
			C349.2,73.5,346.2,72.2,344.7,69.3z"/>
		<path class="st2" d="M250,263.1c2.2-0.2,3.2,0.8,3,3c-2.3,0.5-4.6,6.9-7,0.1c0,0-0.3-0.3-0.3-0.3C246.3,263.7,248.5,264,250,263.1
			z"/>
		<path class="st3" d="M164.2,267.4c-0.3-1.3,0.2-2.1,1.5-2.3C166,266.4,165.3,267,164.2,267.4z"/>
		<path class="st3" d="M174.8,263.9c-0.2,0.4-0.5,0.8-0.7,1.2C174.4,264.7,174.6,264.3,174.8,263.9z"/>
		<path class="st5" d="M119.4,160c-4.1-0.3-11.2-0.9-18.1-2.7c-10.4-2.8-12.4-12-8.6-21.4c2.3-5.8,5.1-11.1,8.6-16.3
			c4.5-6.6,9.7-12.4,14.8-18.4c5.8-6.9,12.8-12.2,19.8-17.6c13.5-10.6,28.7-18.2,44.6-24.5c22.8-9,46.7-11.3,70.8-9.8
			c20.8,1.3,40.9,6.3,58.8,17.5c6.3,3.9,11.8,9,12.9,17.1c0.8,5.8-2.9,9.9-6.2,13.4c-3.2,3.4-6.8,6.7-11.4,8.6
			c-3.9,1.7-6.8,4.8-10.6,6.9c-10.7,5.9-21.9,10.5-33.2,14.9c-9.4,3.6-18.7,7.4-28.2,10.5c-9.9,3.3-20,5.7-29.9,8.8
			c-16,5.1-32.6,8.2-49.1,10.6C143.9,159.2,133.1,160.3,119.4,160z M283.5,71.8c-0.5-1.6-1.9-2.2-3.2-2.8c-7.7-3.1-15.7-5.6-24-6.7
			c-25.9-3.4-50.5,1.1-74.3,12.1c-18.6,8.6-35.6,19.4-51.1,32.7c-6.8,5.9-14.2,11.4-18.6,19.7c-0.6,1.2-2.1,2.9-0.6,4
			c1.6,1.2,2.6-0.8,3.6-1.8c9.3-9,18.6-17.9,29.2-25.5c19.4-13.7,39.8-25.4,62.9-31.7c16.9-4.6,34.1-7.9,51.7-4.6
			c6.9,1.3,13.7,3.3,20.4,5.2C281.2,72.8,282.4,73.6,283.5,71.8z"/>
		<path class="st0" d="M63.3,191.8c-4.2,3.5-6.2,8.5-9.2,12.8c-2.3,3.3-4.8,6.3-9.8,6.6c1.8-4.6,6-7.5,6.8-12.1
			c1.4-2.9,3.7-5.5,4-8.9c0,0,0.1,0.1,0.1,0.1c5-6.8,9.9-13.7,14.9-20.4c3.2-4.3,6.8-8.2,11.1-11.3c1.1-0.8,2.7-2.3,4-1
			c1.7,1.7-0.4,3-1.4,4.1C75,170.3,69,181,63.3,191.8z"/>
		<path class="st2" d="M283.6,177.6c-0.7,1.4-1.1,3.2-3.1,3.3c-0.9,0-1.5-0.7-1.3-1.7c0.3-1.6,1.4-2.6,2.9-3
			C283,176.1,283.6,176.5,283.6,177.6z"/>
		<path class="st3" d="M72.7,247.1c8.4,0,13.9,4.5,13.3,10.2c-0.1,1.2-0.2,2.2-1.3,3c-3.6,2.7-13.9,2.4-17.5-0.5
			c-2.4-1.9-3.9-4.2-3-7.3c0.8-3,3-4.6,6-5.2C71.2,247,72.4,247.1,72.7,247.1z"/>
		<path class="st3" d="M94.3,240.1c2.2,0.9,6.6-0.4,6.7,4.7c0,2.8-4,6.5-6.8,6c-3.1-0.6-6.3-1.3-6.2-5.7
			C88,241.3,90.1,239.9,94.3,240.1z"/>
		<path class="st1" d="M55.1,190.2c-0.4,3.4-2.6,6-4,8.9c-3.7-2.2-1.1-4.7,0-6.6C51.7,191.6,53.2,190,55.1,190.2z"/>
		<path class="st1" d="M70,191.1c-0.1,0.1-0.2,0.3-0.2,0.4C69.8,191.4,69.9,191.2,70,191.1C70,191.1,70,191.1,70,191.1z"/>
		<path class="st5" d="M296,207.1c1.6-3.1,1.2-6.7,2.6-10.1c4.5-10.7,12.3-18.3,21.6-24.4c11.8-7.7,23.4-15.7,37.7-18
			c8-1.3,15.9-1.2,23.2,2.8c4.6,2.5,5.5,13.8,2.7,19.4c-5.2,10.3-13.5,17.8-20.9,26.2c-10.7,9.2-23,15.1-36.4,19.2
			c-5.9,1.8-12.1,2.3-18.2,1.7C299.9,223.3,295.9,217.5,296,207.1z"/>
		<path class="st5" d="M246,266.1c2.4,6.8,4.6,0.5,7-0.1c3.5-2.4,6.9-4.9,10.5-7.2c5-3.2,10.1-6.3,15.2-9.5c1.4-0.9,3.1-2.2,4.5-0.8
			c1.5,1.5-1,2.4-1.4,3.8c-0.1,0.6-0.7,1.1-1.2,1.6c-4.8,4.2-8,9.1-6.7,16c0.1,0.6-0.6,1.4-0.9,2.2c-0.3-3.2,0.8-6.5-0.8-9.7
			c-3.9,2.7-6.4,6.2-10.2,9.7c3.7,0,6.4,0,9,0c-0.6,0.3-1.2,0.9-1.7,0.9c-8.3-1.4-13.6,3.3-18.3,9.1c-5.4,3.5-10.8,7-16,10.7
			c-3.8,2.7-7.7,5.2-12.2,6.6c-1.3,0.4-2.5,1.2-3.7,0c-1.5-1.4,0-2.3,0.5-3.4c2.4-6.4,7.7-10.2,12.6-14.4c3.5-3.1,7.1-6,10.8-8.7
			C245.2,271.1,246.5,269.1,246,266.1z"/>
		<path class="st2" d="M143.9,224.1c1-1.7,2.4-3,4-4C148.4,223.1,148,223.5,143.9,224.1z"/>
		<path class="st2" d="M270.9,272.1c-2.7,0-5.3,0-9,0c3.8-3.6,6.3-7.1,10.2-9.7c1.7,3.2,0.5,6.6,0.8,9.7
			C272.3,272.1,271.6,272.1,270.9,272.1z"/>
		<path class="st0" d="M283.5,71.8c-1.1,1.8-2.3,1-3.9,0.6c-6.8-1.9-13.5-3.9-20.4-5.2c-17.6-3.3-34.8,0-51.7,4.6
			c-23.1,6.3-43.5,18-62.9,31.7c-10.6,7.5-19.9,16.5-29.2,25.5c-1,1-2,3-3.6,1.8c-1.5-1.1-0.1-2.8,0.6-4
			c4.4-8.3,11.8-13.8,18.6-19.7c15.4-13.3,32.5-24.1,51.1-32.7c23.7-10.9,48.4-15.4,74.3-12.1c8.2,1.1,16.2,3.6,24,6.7
			C281.6,69.6,283,70.2,283.5,71.8z"/>
	</g>
</g>
</svg>
