<?xml version="1.0" encoding="utf-8"?>
<!-- Generator: Adobe Illustrator 19.2.1, SVG Export Plug-In . SVG Version: 6.00 Build 0)  -->
<svg version="1.1" id="Layer_1" xmlns="http://www.w3.org/2000/svg" xmlns:xlink="http://www.w3.org/1999/xlink" x="0px" y="0px"
	 viewBox="0 0 459.6 215.7" style="enable-background:new 0 0 459.6 215.7;" xml:space="preserve">
<style type="text/css">
	.st0{fill:#62301B;}
	.st1{fill:#F0A860;}
	.st2{fill:#EA883B;}
	.st3{fill:#E26B26;}
	.st4{fill:#F7C67F;}
</style>
<g id="khqpeT.tif">
	<g>
		<path class="st0" d="M366.1,197.7c-9.6-1.5-19.6,2.4-30,3.9c-22.6,3.3-45.2,3.1-67.2-4c-11.2-3.6-22.8-4.2-34.4-5.7
			c-8.6-1.1-16.4-4.3-23.4-9.3c-1.9-1.4-3.4-2-5.8-0.5c-21.8,13.8-45.1,23.4-71.4,24.4c-8.1,0.3-15.7,3-23.2,5.6
			c-16.3,5.7-32,4.4-47.4-3c-8.4-4.1-17-7.4-26.1-9.8c-25.3-6.9-39.4-27.7-37-54c0.6-6.8,2.2-13.5,5.5-19.6
			c3.1-5.7,4.3-11.9,5.2-18.1c2.4-16.2,9.1-30.1,21.8-40.8c5.7-4.9,10.8-10.3,15.6-16.2C56.9,40,68.6,34.1,81.1,29.8
			c8.4-2.8,16.5-5.6,23.8-11c9.9-7.2,21.3-10.8,33.7-10.9c9.1-0.1,17.7-2.9,26.3-5.5c12.1-3.6,23.9-3.4,35.6,1.4
			c5.1,2.1,10.5,3.2,16,3.7c13.3,1.1,24.8,6,34.6,15c4.2,3.8,8.4,4.6,13.9,4.1c12.6-1,25.5,0.1,37.9-2c24.2-4,46.9,3.3,70.2,6.4
			c3.1,0.4,6.3,1.5,8.9,3.1c14.8,8.9,30,17.3,43.7,27.9c7.6,5.9,13,13.7,16.3,22.9c1.5,4.3,4.3,7.9,7.1,11.4c16.9,21.1,13,48.8-9,64
			c-2.2,1.6-4.1,3.4-5.6,5.6c-15,21.8-36.4,31.2-62.3,31.6C370.5,197.7,368.9,197.7,366.1,197.7z M343.1,188.9
			c2.8-0.5,5.5-1,8.3-1.4c11.5-1.6,23.2,0.4,34.8-1.7c10.9-2,21.8-4.3,29.5-12.9c8.1-9.1,14.4-19.3,24.5-27
			c10.4-7.9,11.5-28.5,4.7-40.1c-0.8-3.1-2.9-5.6-4.7-8.2c-2.5-3.7-5.8-7.2-7-11.3c-3.1-10.7-9.7-18-19.4-22.8
			c-7.1-3.5-13.7-7.6-19.4-13c-8-7.5-17.6-11.4-28.3-12.4c-12.6-1.2-25-3.8-37.4-5.9c-5.5-0.9-11-1.2-16.4-0.1
			c-8.1,1.6-16.1,1.9-24.3,1.1c-6.6-0.6-13.2-0.8-20.1,0.3c2,4,5.4,5.7,7.8,8.3c2.9,3.1,4.8,7.5,9.9,8.1c1,0.1,1.5,1.4,1.1,1.9
			c-2.4,3.4,0.4,5.9,1.4,8.6c4.7,13,6.1,26.1-1.6,38.4c-2.7,4.3-4.7,8.7-5.8,13.6c-2.5,11.6-7.2,22.1-15,31.2c-1.9,2.1-1.9,3,0.9,4
			c8.3,2.8,16.5,5.1,25.4,4.3c5.8-0.5,11.6,0,17.5,0.5c13.7,1.3,27.5,3,41.2-0.3c1.4-0.3,3-0.8,4,0.9c-1.7,2.2-3.9,3.3-6.6,4.1
			c-7.3,2.1-14.7,2-22.2,2c-10.4,0.1-20.8-2.2-31.2-0.9c-11.5-0.4-22.9-1.7-33.4-7.1c-1.9-1-3-0.1-4.3,1.1
			c-7.7,7.3-16.9,12.3-26.7,16.1c-3.9,1.5-7.8,3.2-11.7,6.4c4.5,2,8.2,3.9,12.3,5.2c8.6,2.8,17.8,1.8,26.5,4.5
			c16.5,5.1,32.8,10.6,50.5,10.2C320.1,194.3,332,194.1,343.1,188.9z M182.1,183.2c4.9-1.7,9.2-4.6,13.6-7.3
			c7.8-4.8,14.9-10.5,23.5-14c12.4-4.9,25-8.8,35-18.8c9-9,16.2-18.4,17.8-31.2c0.8-6.5,2.1-12.8,5.9-18.3
			c4.9-6.9,6.2-14.6,4.9-22.8c-1.8-10.8-5.4-20.7-15.1-27c-7.3-4.6-14.7-8.9-20.9-15.1c-8.2-8.3-18.5-12.1-30-13.1
			c-6.3-0.6-12.5-1.7-18.3-4.6c-10.2-5.3-21-4.7-31.6-2c-10.5,2.6-20.6,6.2-31.5,7.1c-9.2,0.8-18.1,3.5-25.1,10.1
			c-3.9,3.7-8.5,5.8-13.6,6.7C79.6,36,65.3,44.3,53.2,56.6C46.4,63.5,39.6,70.3,33,77.3c-5,5.4-8.8,11.7-10.8,18.9
			c-3.3,12-3.9,24.6-8.4,36.3c-1.5,0.8-1.7,2.3-2.2,3.7c-2.1,6.1-2.3,12.4-1.7,18.8c1.4,15.5,8.3,27.5,23.7,32.4
			c12.9,4.1,25.1,9.6,37.4,14.9c8.4,3.7,17.5,5.5,26.3,2.6c20-6.5,41.1-7.1,61.2-12.6C166.8,189.9,174.7,187.4,182.1,183.2z"/>
		<path class="st1" d="M13.9,132.5c4.5-11.7,5.1-24.3,8.4-36.3C24.2,89,28,82.7,33,77.3c6.6-7,13.4-13.8,20.2-20.7
			C65.3,44.3,79.6,36,96.7,32.9c5.2-0.9,9.7-3,13.6-6.7c7-6.6,15.8-9.3,25.1-10.1c10.9-0.9,21.1-4.5,31.5-7.1
			c10.6-2.7,21.4-3.2,31.6,2c5.7,2.9,12,4.1,18.3,4.6c11.5,1,21.7,4.8,30,13.1c6.2,6.2,13.6,10.5,20.9,15.1
			c-1.7,2.8-0.4,5.8-0.8,8.8c-0.7,5.5-2.4,10.5-6.5,14.4c-1.9-0.8-2.9,0.5-3.5,1.9c-2.7,6.5-7.8,11.1-12.7,15.7
			c-7.8,7.5-11.7,18.1-20.2,25c-1.2,1-1.5,2.5-1,4.1c-7.1,5.5-13.8,11.5-21.6,16c-1.3-2.9-2.5-0.9-3.7,0.1
			c-6.1,5.1-13.2,8.2-20.6,10.9c-11,3.9-22.8,5.5-33.1,11c-12,6.4-24.5,9.2-38,8.2c-1.7-0.1-3.8-0.8-4.5,1.8
			c-9.3-2-18.6-2.6-27.6,1.2c-4.3-0.4-8.6-1.1-12.1-4c-5-4.1-10.9-5.8-17.2-5.2c-7.1,0.7-13.6,0.7-17.4-6.7
			c-0.1-0.2-0.6-0.2-0.9-0.2c-0.2-1.2-0.9-2.2-2-2.7C19.2,141.5,16.2,137.3,13.9,132.5z M146.8,111.4l-0.3,0.3
			c-0.3,0.3-0.5,0.6-0.8,0.9l0,0c-5.3,2-9.1,11.6-6.8,17c0.6,1.3,1.1,2.8,2.4,3.7c5.5,3.4,16.9,3.9,21.7-1c5.1-3.2,7.5-8.2,8.9-13.8
			c2-7.9-1.8-12.6-10.1-12.4c-5.2,0.2-10.1,1.6-14.4,4.8C147.1,110.9,146.9,111.1,146.8,111.4z M61.9,117.8L61.9,117.8
			c1.5,0.1,2.9-0.2,3.7-1.7c2.3-4.2,3.5-8.6,3-13.3c-0.5-4.8-3.1-7.4-8.3-7c-3.1,0.2-6.3,0-9.4,0.3c-3.1,0.3-6.1,1-7.1,4.7
			c0,0,0,0,0,0c-0.3,0.3-0.6,0.6-0.9,1c-2.8,2.8-3.3,6.2-3.1,9.9c-1,0.9-1.4,2.1-0.8,3.1c2.5,4.2,6.4,7,11.2,7.4
			C54.6,122.5,59.3,122.4,61.9,117.8z M156.1,23.5c-0.2-0.8-0.7-1.5-1.6-1.4c-3.1-0.5-5.4-2.9-8.5-3.3c-9-1.3-15.8,1.9-21,9.2
			c-5.5,2.6-6.1,8.3-8,13.1c-1.6,3.9,0.5,5.7,4,6.8c6,1.8,11.9,0.7,17.7-0.3c9.1-1.6,16.4-6.2,20.2-15.1
			C160.4,29,161.2,25.3,156.1,23.5L156.1,23.5z M216.1,50.2c-0.2,4.3,3.3,9.1,7.9,11c5.7,2.3,16-0.3,20.5-5.3
			c4.5-4.9,4-8.9-1.6-12.6c-4.5-3-9.7-4.3-15.1-4.2C220.5,39.2,216.4,43.4,216.1,50.2z M77.9,48.1c0.1-3.1-2.3-4.8-5.3-3.4
			c-7.2,3.4-12.6,8.8-16.5,15.6c-1.6,2.8-3.6,5.1-5.8,7.3c-6,6.1-14.4,9.6-18.3,17.9c-1.3,2.7-2,5.7-0.4,7.3c2,2,5.2,1.5,7.5-0.9
			c2.3-2.4,4.8-4.5,5.8-7.9c2.8-9.2,8.2-16.8,17.1-20.7c5.1-2.3,8.4-6.2,12.5-9.4C76.4,52.5,77.9,50.7,77.9,48.1z M112.8,53.7
			c-5.3,1.7-11.9,2.5-18.1,6.4c-4.3,2.7-7.4,5.8-10.1,9.6c-1.5,2.1-1.4,5-0.2,7.1c1,1.7,3.8,1.4,5.1,0.7c3.6-2,7.7-1.4,11.4-2.6
			c1.5-0.5,2.8-1.2,3.7-2.4c3.7-4.7,7.9-8.9,12.1-13.1c1.1-1.1,2.8-2.3,1.8-4.2C117.5,53.4,115.7,53.9,112.8,53.7z M148.8,81.8
			c8.1,0.2,15.3-1,19.2-9.2c2.2-4.6,0-8.3-5-8.8c-6.3-0.7-11.7,2-16.9,4.9c-2.9,1.6-6.3,9.7-5,11.7C143,83.3,146.3,81.2,148.8,81.8z
			 M197.1,91.8c-0.6,0-1.7-0.3-2.3,0.1c-2.6,1.6-6.9,1-7.8,5c-0.6,2.5-0.3,4.9,1.8,6.8c5.3,4.8,15.3,3.8,19.5-2
			c2.1-2.9,1.6-5.6-1.4-7C204,93.3,201,91.3,197.1,91.8z M159.1,57.9c-6.3-2-12-0.1-16.5,3.2c-5.8,4.3-11.7,8.1-18.2,11.3
			c-3.2,1.5-6.2,4.4-5.1,9.7c3-3.7,6-6.3,9.6-8.3c2.6-1.5,4.3-2,4.9,3.5C139.2,65.1,149.7,62.5,159.1,57.9z M113.9,101.8
			c0,3.3,1.7,4.9,4.7,3.9c4.4-1.6,8.2-4.2,9.6-9.2c1.1-3.8-0.9-6.1-4.8-5.6C117.9,91.6,113.9,96.2,113.9,101.8z M95.8,56
			c-8.2-3.2-19.4,6.3-20.2,17.3C80.8,64.6,87.5,59.4,95.8,56z M198.7,30.8c-4.9-5.2-14.4-7.7-19.4-5.9c-1,0.4-1.3,0.9-1.2,1.8
			c0,0.9,0.4,1.8,1.3,1.8C185.7,28.1,191.5,31.5,198.7,30.8z M190.8,86.1c5.8,0.3,11.3,0.7,16.2,3.2c0.7,0.3,1.3,0.2,1.7-0.4
			c0.5-0.9-0.1-1.6-0.7-2.2c-2.6-2.4-6-3.3-9.3-4.5C194.7,80.8,192.7,82.1,190.8,86.1z M86.6,125.7c0,1-0.3,2.2,0.9,2.6
			c1.6,0.6,1.9-1.1,2.3-2c1.5-3.2,3-6.3,5.7-8.7c0.7-0.6,1.9-1.3,1.1-2.3c-0.6-0.9-1.8-0.5-2.8-0.2
			C90.1,116.4,86.7,121.4,86.6,125.7z"/>
		<path class="st1" d="M354.8,152.9c-1-1.7-2.6-1.2-4-0.9c-13.7,3.3-27.5,1.6-41.2,0.3c-5.8-0.5-11.6-1-17.5-0.5
			c-8.9,0.8-17.1-1.5-25.4-4.3c-2.8-0.9-2.8-1.8-0.9-4c7.8-9,12.5-19.5,15-31.2c1-4.9,3.1-9.3,5.8-13.6c7.7-12.3,6.3-25.3,1.6-38.4
			c-1-2.7-3.8-5.2-1.4-8.6c0.4-0.5-0.1-1.8-1.1-1.9c-5.1-0.6-7-4.9-9.9-8.1c-2.4-2.6-5.8-4.4-7.8-8.3c6.9-1.1,13.6-0.9,20.1-0.3
			c8.2,0.8,16.2,0.5,24.3-1.1c5.4-1.1,11-0.8,16.4,0.1c12.5,2.1,24.8,4.7,37.4,5.9c10.7,1,20.3,4.9,28.3,12.4
			c5.8,5.4,12.4,9.5,19.4,13c9.7,4.8,16.2,12.1,19.4,22.8c1.2,4.1,4.5,7.6,7,11.3c1.7,2.6,3.8,5,4.7,8.2c-1.6,0.7-2.3,2.2-3.4,3.4
			c-3.2,3.7-6.3,7.6-10.9,9.7c-2.2-0.5-3.3,1.1-4.6,2.4c-2.5,2.5-5.2,4.8-8.7,5.6c-14.4,3.3-24,15.8-38,19.8c-0.4,0.1-0.7,0.7-1,1.1
			C370.7,149.9,362.8,151.5,354.8,152.9z M309.9,120.8c-0.3-3.4-2.8-3-5.1-3c-5.8-1.7-11.5-1.3-17,1.2c-5.3,2.4-6.6,7.5-3.2,12.3
			c7.1,10,16.2,11.3,25.9,3.5c0.2-0.2,0.4-0.4,0.5-0.6c0.1-0.3,0.3-0.4,0.6-0.6c4.1-1.4,3.5-5.3,3.5-8.2
			C315.1,123.2,313.4,120.4,309.9,120.8L309.9,120.8z M350.4,119.8c-8.4,0-8.4,0-14,3.7c-6.2,4.1-5.9,8.1,0.4,12.3
			c10.1,6.7,19.9,4.4,29.5-1c5.2-3,5.2-8.1,0.3-11.6C361.7,119.6,356,119.7,350.4,119.8z M410.3,106.9c2.8-0.1,6.5-0.7,9.9-2.8
			c4.5-2.7,5.2-5.9,2.6-10.4c-2.9-4.9-13.1-9.6-18.6-8.6c-3,0.6-6,1.8-7.2,4.7C394.6,95.5,402.9,106.9,410.3,106.9z M311.2,38.8
			c-3.6-0.1-10.2,3.6-12.3,7c-0.9,1.4-0.5,2.4,0.4,3.5c4.7,6.3,18.2,6.5,23.1,0.4c1.6-2,1.8-4,0-5.7
			C319.4,41.2,316.3,38.7,311.2,38.8z M322.4,88.8c-3-0.5-5.6,0.8-8,2.3c-2.2,1.5-5.5,2.5-4.5,6.2c0.9,3,3.1,4.5,6.3,4.6
			c1.1,0,2.2,0.7,3.3,0.9c5.6,1.1,10.7-0.4,15.3-3.6c2.7-1.9,2.4-4.2-0.1-6.1C331.1,90.5,327,89,322.4,88.8z M353,85.6
			c1.9-0.4,3.8-0.5,5.5-1.1c4.6-1.5,6.3-6.3,3.8-9.9c-3.4-4.9-12.9-6.7-18.1-3.4c-4.2,2.7-4.3,8.1-0.4,11.2
			C346.7,84.6,349.9,85,353,85.6z M361,40.9c-2,0-4.8-0.1-7.7,0c-1.4,0.1-2.6,1.1-2.9,2.4c-0.4,1.5,1.2,1.7,2.1,2.3
			c7.1,5.1,15.5,5.1,23.6,6.1c1.8,0.2,4.5,0.9,5.2-1.5c0.6-2-1.4-3.6-2.8-5C373.9,40.8,367.9,40.5,361,40.9z M343.8,61.7
			c2.5,0.3,4.8-0.5,6.8-2.2c1.9-1.6,2.8-3.3,0.8-5.4c-2.9-3-11.2-4.4-15-2.6c-1.9,0.9-3.5,2-3.4,4.4c0.1,2.3,1.7,3.8,3.5,4.4
			C338.8,61.1,341.2,62.1,343.8,61.7z M374.1,56.4c-1,0.2-2.1,0-2.7,1c-0.4,0.7-0.1,1.4,0.5,1.6c5.2,1.9,9.2,5.9,14.1,8.3
			c0.5,0.3,1.3,0.6,1.8-0.1c0.5-0.8,0.4-1.7-0.2-2.3C384.1,60.4,379.9,57,374.1,56.4z M376.1,122c0-6.6-7.3-12.8-12.6-11.2
			c-0.6,0.2-1.3,0.5-1.5,1c-0.4,0.9,0.3,1.6,1.1,1.8C367.9,115.2,371.2,119.2,376.1,122z M298.1,83.7c5.9-3.9,12-4.2,18.7-5.2
			C309.5,74.1,300.7,76.3,298.1,83.7z"/>
		<path class="st2" d="M260.4,67c4.1-3.9,5.9-8.9,6.5-14.4c0.3-2.9-0.9-6,0.8-8.8c9.7,6.4,13.4,16.3,15.1,27
			c1.3,8.1-0.1,15.8-4.9,22.8c-3.8,5.4-5.1,11.8-5.9,18.3c-1.6,12.8-8.8,22.2-17.8,31.2c-10,10-22.7,13.9-35,18.8
			c-8.6,3.4-15.7,9.2-23.5,14c-4.4,2.7-8.6,5.7-13.6,7.3c-0.5-1-1.4-1.6-2.4-1.2c-9.7,3.8-19.8,3.1-29.8,2.7
			c-9.2-0.4-17.6-3.5-25.4-8.6c-5.8-3.8-8.3-11.8-16.5-12.2c6.6-0.2,13.3-0.1,19.9-0.6c8.4-0.7,15.3-5.1,22.9-8
			c9.9-3.8,20.1-6.8,30-10.8c8-3.2,16-6.7,20.7-14.7c7.8-4.5,14.5-10.6,21.6-16c6.8-1.4,11.1-6.4,15.3-11.2c3.1-3.5,5-8.2,8.2-11.5
			c3.7-3.8,7-7.9,10.3-12C259.5,75.6,261.6,71.7,260.4,67z M270.4,102.4c0,3.1,0,6.2,0,7.8C269.7,108.6,272.5,105.6,270.4,102.4z"/>
		<path class="st2" d="M354.8,152.9c8-1.4,15.9-3,23.6-5.1c6.6,1.6,12.8,0,18.1-3.6c8.6-5.8,18-9.7,27.1-14.4
			c4.2-2.2,7.2-5.6,7.1-10.9c4.6-2.1,7.7-6,10.9-9.7c1.1-1.2,1.8-2.7,3.4-3.4c6.8,11.7,5.7,32.3-4.7,40.1c-10.1,7.7-16.4,18-24.5,27
			c-7.7,8.6-18.6,10.9-29.5,12.9c-11.5,2.2-23.3,0.1-34.8,1.7c-2.8,0.4-5.6,0.9-8.3,1.4c-5.7-1.7-11.5-3.4-17.2-5.1
			c-11.7-3.4-21.3-10-28.9-19.4c-1.3-1.6-4.1-3.4-2.1-6.4c10.5-1.3,20.8,1,31.2,0.9c7.5,0,14.9,0.1,22.2-2
			C350.9,156.2,353.2,155.1,354.8,152.9z"/>
		<path class="st3" d="M108,163.9c8.1,0.4,10.7,8.4,16.5,12.2c7.9,5.1,16.2,8.2,25.4,8.6c10,0.5,20.1,1.2,29.8-2.7
			c1.1-0.4,1.9,0.1,2.4,1.2c-7.4,4.2-15.3,6.7-23.5,9c-20.2,5.5-41.3,6.1-61.2,12.6c-8.8,2.9-17.9,1.1-26.3-2.6
			c-12.3-5.4-24.6-10.8-37.4-14.9c-15.4-4.9-22.3-16.9-23.7-32.4c-0.6-6.3-0.4-12.6,1.7-18.8c0.5-1.4,0.7-2.9,2.2-3.7
			c2.4,4.8,5.3,9,10.4,11.4c1.1,0.5,1.8,1.5,2,2.7c-0.7,2.6,0.2,4.8,1.5,7c3,4.9,7.7,6.2,12.8,5.9c7.6-0.4,14.7,1.2,21.6,4.3
			c1.9,0.9,4.1,1.5,6.2,1.7c2.2,0.2,4.8,0.4,5.6-2.7c9.1-3.7,18.3-3.1,27.6-1.2C103.6,162.4,105.8,163.1,108,163.9z"/>
		<path class="st3" d="M294.9,158c-2,3,0.8,4.8,2.1,6.4c7.6,9.4,17.3,15.9,28.9,19.4c5.7,1.7,11.5,3.4,17.2,5.1
			c-11.1,5.2-23,5.4-35,5.7c-17.7,0.4-34-5.1-50.5-10.2c-8.6-2.7-17.8-1.7-26.5-4.5c-4.1-1.3-7.9-3.2-12.3-5.2
			c3.9-3.2,7.8-4.9,11.7-6.4c9.8-3.9,19-8.9,26.7-16.1c1.3-1.2,2.4-2.1,4.3-1.1C272,156.3,283.3,157.6,294.9,158z"/>
		<path class="st0" d="M125,27.9c5.1-7.3,12-10.5,21-9.2c3.2,0.5,5.5,2.8,8.6,3.3c0.3,0.8,0.7,1.4,1.6,1.4c0,0,0.1,0.1,0.1,0.1
			c1.2,3,0.5,5.8-0.9,8.6c-5.7,11-13.5,14.1-28.1,11.9c-4.9-0.7-6.4-3.5-5.1-8.2C122.8,33.1,124,30.5,125,27.9z"/>
		<path class="st0" d="M147.4,110.8c4.2-3.2,9.1-4.7,14.4-4.8c8.3-0.2,12.1,4.5,10.1,12.4c-1.4,5.6-3.7,10.6-8.9,13.8
			c-1.1,0.2-2.3,0.5-3.4,0.7c-6.4,1.4-12.5,0.7-16.5-4.9c-3.8-5.2-0.9-10,2.2-14.6c0.2-0.3,0.2-0.6,0.3-0.9c0,0,0,0,0,0
			c0.3-0.3,0.5-0.6,0.8-0.9c0,0,0.3-0.3,0.3-0.3C147,111.2,147.2,111,147.4,110.8z"/>
		<path class="st0" d="M216.1,50.2c0.3-6.9,4.4-11,11.7-11.1c5.4-0.1,10.5,1.2,15.1,4.2c5.6,3.7,6,7.7,1.6,12.6
			c-4.5,4.9-14.8,7.6-20.5,5.3C219.5,59.4,216,54.5,216.1,50.2z"/>
		<path class="st0" d="M108,163.9c-2.2-0.8-4.3-1.5-6.5-2.3c0.7-2.6,2.8-1.9,4.5-1.8c13.5,1,26-1.8,38-8.2
			c10.3-5.5,22.1-7.1,33.1-11c7.5-2.6,14.5-5.8,20.6-10.9c1.2-1,2.4-3,3.7-0.1c-4.7,8-12.7,11.5-20.7,14.7c-9.8,4-20.1,6.9-30,10.8
			c-7.5,2.9-14.5,7.3-22.9,8C121.2,163.8,114.6,163.7,108,163.9z"/>
		<path class="st4" d="M77.9,48.1c-0.1,2.5-1.5,4.3-3.3,5.8c-4.1,3.2-7.4,7.2-12.5,9.4C53.2,67.3,47.8,74.8,45,84.1
			c-1,3.4-3.5,5.6-5.8,7.9c-2.3,2.4-5.6,2.9-7.5,0.9c-1.6-1.6-0.9-4.6,0.4-7.3c3.9-8.3,12.4-11.8,18.3-17.9c2.2-2.3,4.2-4.5,5.8-7.3
			c3.9-6.8,9.3-12.3,16.5-15.6C75.6,43.3,78,45,77.9,48.1z"/>
		<path class="st0" d="M39.9,111.6c-0.2-3.7,0.2-7.2,3.1-9.9c0.3-0.3,0.6-0.6,0.9-1c0,0,0,0,0,0c5.5-2.4,10.9-5,17.1-3.3
			c3.3,0.8,5,2.7,5.5,6.1c0.9,5.6-2.2,9.8-4.6,14.3c0,0,0-0.1,0-0.1c-6.4,3.3-12.3,3.1-17.8-2C42.7,114.4,41.3,113,39.9,111.6z"/>
		<path class="st4" d="M112.8,53.7c2.8,0.1,4.7-0.3,5.6,1.5c1,2-0.6,3.1-1.8,4.2c-4.2,4.2-8.4,8.4-12.1,13.1
			c-0.9,1.2-2.2,1.9-3.7,2.4c-3.7,1.2-7.8,0.6-11.4,2.6c-1.3,0.7-4.1,1-5.1-0.7c-1.2-2.2-1.3-5,0.2-7.1c2.7-3.8,5.8-6.9,10.1-9.6
			C100.9,56.2,107.5,55.5,112.8,53.7z"/>
		<path class="st4" d="M148.8,81.8c-2.5-0.6-5.8,1.6-7.7-1.4c-1.3-2,2.1-10.1,5-11.7c5.2-2.9,10.5-5.5,16.9-4.9c5,0.5,7.2,4.2,5,8.8
			C164.1,80.8,156.8,82,148.8,81.8z"/>
		<path class="st0" d="M260.4,67c1.2,4.7-0.9,8.6-3.6,12c-3.3,4.1-6.6,8.1-10.3,12c-3.2,3.4-5.1,8-8.2,11.5
			c-4.2,4.8-8.5,9.8-15.3,11.2c-0.5-1.6-0.2-3.2,1-4.1c8.5-6.9,12.4-17.5,20.2-25c4.9-4.7,10-9.2,12.7-15.7
			C257.5,67.5,258.5,66.2,260.4,67z"/>
		<path class="st4" d="M197.1,91.8c3.9-0.6,6.9,1.5,9.9,2.9c3,1.4,3.5,4.1,1.4,7c-4.2,5.8-14.2,6.9-19.5,2c-2.1-1.9-2.4-4.3-1.8-6.8
			c0.9-4.1,5.1-3.4,7.8-5C195.4,91.5,196.5,91.8,197.1,91.8z"/>
		<path class="st0" d="M73.8,162.8c-0.8,3.1-3.4,2.9-5.6,2.7c-2.1-0.2-4.2-0.8-6.2-1.7c-6.9-3.1-13.9-4.7-21.6-4.3
			c-5.1,0.3-9.8-1-12.8-5.9c-1.4-2.2-2.3-4.4-1.5-7c0.3,0.1,0.9,0,0.9,0.2c3.8,7.4,10.4,7.4,17.4,6.7c6.3-0.6,12.2,1.1,17.2,5.2
			C65.3,161.7,69.5,162.4,73.8,162.8z"/>
		<path class="st3" d="M125,27.9c-1,2.6-2.1,5.2-2.9,7.9c-1.3,4.8,0.1,7.5,5.1,8.2c14.6,2.2,22.5-0.9,28.1-11.9
			c1.4-2.8,2.1-5.5,0.9-8.6c5,1.7,4.2,5.4,2.7,8.9c-3.8,8.9-11.1,13.4-20.2,15.1c-5.8,1-11.8,2.1-17.7,0.3c-3.6-1.1-5.7-2.9-4-6.8
			C118.9,36.2,119.5,30.5,125,27.9z"/>
		<path class="st0" d="M159.1,57.9c-9.3,4.6-19.8,7.2-25.4,19.4c-0.5-5.6-2.3-5-4.9-3.5c-3.6,2.1-6.7,4.7-9.6,8.3
			c-1.1-5.3,2-8.2,5.1-9.7c6.5-3.1,12.4-7,18.2-11.3C147.1,57.8,152.8,56,159.1,57.9z"/>
		<path class="st4" d="M113.9,101.8c0-5.5,4-10.2,9.5-10.9c3.9-0.5,5.9,1.8,4.8,5.6c-1.4,5-5.2,7.5-9.6,9.2
			C115.6,106.7,113.9,105,113.9,101.8z"/>
		<path class="st3" d="M145.7,112.6c-0.1,0.3-0.1,0.7-0.3,0.9c-3.1,4.5-6,9.4-2.2,14.6c4.1,5.5,10.1,6.3,16.5,4.9
			c1.1-0.2,2.3-0.5,3.4-0.7c-4.8,5-16.2,4.4-21.7,1c-1.4-0.8-1.8-2.3-2.4-3.7C136.5,124.2,140.4,114.6,145.7,112.6z"/>
		<path class="st3" d="M61.9,117.8c2.4-4.5,5.5-8.6,4.6-14.3c-0.5-3.4-2.2-5.3-5.5-6.1c-6.3-1.6-11.7,0.9-17.1,3.3
			c0.9-3.7,4-4.4,7.1-4.7c3.1-0.3,6.3,0,9.4-0.3c5.1-0.4,7.8,2.2,8.3,7c0.5,4.7-0.7,9.2-3,13.3C64.8,117.6,63.4,117.9,61.9,117.8z"
			/>
		<path class="st0" d="M95.8,56c-8.3,3.3-15,8.6-20.2,17.3C76.5,62.3,87.6,52.8,95.8,56z"/>
		<path class="st0" d="M198.7,30.8c-7.2,0.7-13-2.7-19.3-2.3c-0.9,0.1-1.3-0.9-1.3-1.8c0-0.9,0.3-1.4,1.2-1.8
			C184.3,23.1,193.8,25.6,198.7,30.8z"/>
		<path class="st0" d="M190.8,86.1c1.9-4,4-5.3,7.9-3.9c3.3,1.2,6.6,2.1,9.3,4.5c0.6,0.5,1.2,1.3,0.7,2.2c-0.4,0.6-1,0.8-1.7,0.4
			C202,86.7,196.6,86.4,190.8,86.1z"/>
		<path class="st3" d="M39.9,111.6c1.4,1.4,2.8,2.8,4.3,4.1c5.4,5.1,11.4,5.3,17.8,2c-2.6,4.7-7.3,4.7-11.6,4.4
			c-4.8-0.3-8.7-3.2-11.2-7.4C38.5,113.8,38.8,112.5,39.9,111.6z"/>
		<path class="st0" d="M86.7,125.7c0-4.3,3.5-9.3,7.2-10.5c1-0.3,2.1-0.7,2.8,0.2c0.8,1.1-0.4,1.7-1.1,2.3c-2.7,2.4-4.2,5.5-5.7,8.7
			c-0.4,0.9-0.7,2.5-2.3,2C86.4,127.9,86.7,126.7,86.7,125.7z"/>
		<path class="st3" d="M156.1,23.5c-0.9-0.1-1.3-0.7-1.6-1.4C155.5,22,155.9,22.6,156.1,23.5z"/>
		<path class="st3" d="M146.5,111.6c-0.3,0.3-0.5,0.6-0.8,0.9C146,112.3,146.2,112,146.5,111.6z"/>
		<path class="st3" d="M147.4,110.8c-0.2,0.2-0.5,0.4-0.7,0.6C146.9,111.1,147.1,110.9,147.4,110.8z"/>
		<path class="st3" d="M43.8,100.7c-0.3,0.3-0.6,0.6-0.9,1C43.2,101.4,43.5,101.1,43.8,100.7z"/>
		<path class="st4" d="M350.4,119.8c5.6,0,11.3-0.1,16.2,3.4c4.8,3.5,4.9,8.7-0.3,11.6c-9.5,5.4-19.4,7.6-29.5,1
			c-6.3-4.1-6.5-8.2-0.4-12.3C342,119.8,342,119.8,350.4,119.8z"/>
		<path class="st0" d="M311.6,133.7c-0.3,0.1-0.5,0.3-0.6,0.6c-0.5,0-0.7,0.1-0.5,0.6c-9.8,7.7-18.9,6.5-25.9-3.5
			c-3.4-4.8-2.1-9.9,3.2-12.3c5.5-2.5,11.2-2.9,17-1.2c1.3,1.6,3.1,2.6,5.1,3c0,0,0,0,0,0C313,124.8,313.9,129,311.6,133.7z"/>
		<path class="st0" d="M410.3,106.9c-7.4,0-15.7-11.3-13.3-17.1c1.2-2.9,4.2-4.1,7.2-4.7c5.5-1,15.7,3.7,18.6,8.6
			c2.7,4.5,1.9,7.6-2.6,10.4C416.8,106.1,413.1,106.7,410.3,106.9z"/>
		<path class="st0" d="M430.8,118.8c0.1,5.3-2.9,8.7-7.1,10.9c-9.1,4.7-18.5,8.7-27.1,14.4c-5.3,3.5-11.5,5.2-18.1,3.6
			c0.3-0.4,0.6-1,1-1.1c14-4.1,23.6-16.5,38-19.8c3.5-0.8,6.2-3.2,8.7-5.6C427.5,119.9,428.6,118.3,430.8,118.8z"/>
		<path class="st0" d="M311.2,38.8c5.1-0.1,8.2,2.5,11,5.2c1.8,1.8,1.6,3.8,0,5.7c-4.9,6.1-18.3,5.9-23.1-0.4
			c-0.9-1.2-1.3-2.1-0.4-3.5C301.1,42.3,307.6,38.7,311.2,38.8z"/>
		<path class="st4" d="M322.4,88.8c4.5,0.2,8.7,1.7,12.3,4.4c2.5,1.9,2.8,4.1,0.1,6.1c-4.6,3.2-9.6,4.7-15.3,3.6
			c-1.1-0.2-2.2-0.9-3.3-0.9c-3.2-0.1-5.4-1.6-6.3-4.6c-1.1-3.7,2.2-4.8,4.5-6.2C316.8,89.5,319.4,88.3,322.4,88.8z"/>
		<path class="st0" d="M353,85.6c-3.2-0.6-6.4-1-9.2-3.2c-3.9-3.1-3.9-8.5,0.4-11.2c5.1-3.3,14.6-1.5,18.1,3.4
			c2.5,3.6,0.8,8.4-3.8,9.9C356.8,85.1,355,85.2,353,85.6z"/>
		<path class="st4" d="M361,40.9c6.9-0.4,12.9-0.1,17.6,4.4c1.4,1.3,3.3,3,2.8,5c-0.7,2.4-3.4,1.7-5.2,1.5c-8.1-1-16.5-1-23.6-6.1
			c-0.9-0.6-2.5-0.8-2.1-2.3c0.3-1.3,1.5-2.3,2.9-2.4C356.1,40.8,359,40.9,361,40.9z"/>
		<path class="st4" d="M343.8,61.7c-2.6,0.3-5-0.6-7.3-1.4c-1.8-0.6-3.4-2.1-3.5-4.4c-0.1-2.4,1.5-3.5,3.4-4.4
			c3.8-1.8,12.1-0.3,15,2.6c2.1,2.1,1.1,3.8-0.8,5.4C348.6,61.3,346.3,62,343.8,61.7z"/>
		<path class="st0" d="M374.1,56.4c5.8,0.6,10,4,13.5,8.4c0.5,0.6,0.7,1.5,0.2,2.3c-0.5,0.8-1.2,0.4-1.8,0.1
			c-4.9-2.4-8.9-6.3-14.1-8.3c-0.6-0.2-1-1-0.5-1.6C372,56.4,373.1,56.5,374.1,56.4z"/>
		<path class="st0" d="M376.1,122c-4.9-2.8-8.2-6.8-13-8.4c-0.8-0.3-1.5-0.9-1.1-1.8c0.2-0.5,0.9-0.9,1.5-1
			C368.8,109.3,376.1,115.4,376.1,122z"/>
		<path class="st0" d="M298.1,83.7c2.6-7.4,11.4-9.7,18.7-5.2C310.1,79.6,304,79.8,298.1,83.7z"/>
		<path class="st2" d="M311.6,133.7c2.4-4.7,1.4-8.9-1.7-12.9c3.5-0.4,5.2,2.5,5.2,4.7C315.1,128.3,315.6,132.3,311.6,133.7z"/>
		<path class="st2" d="M309.9,120.8c-2.1-0.4-3.8-1.3-5.1-3C307.1,117.8,309.6,117.4,309.9,120.8z"/>
		<path class="st2" d="M310.5,134.9c-0.2-0.5,0-0.7,0.5-0.6C310.9,134.5,310.7,134.7,310.5,134.9z"/>
		<path class="st3" d="M270.4,102.4c2.1,3.2-0.7,6.2,0,7.8C270.4,108.6,270.4,105.5,270.4,102.4z"/>
	</g>
</g>
</svg>
