<?xml version="1.0" encoding="utf-8"?>
<!-- Generator: Adobe Illustrator 19.2.1, SVG Export Plug-In . SVG Version: 6.00 Build 0)  -->
<svg version="1.1" id="Layer_1" xmlns="http://www.w3.org/2000/svg" xmlns:xlink="http://www.w3.org/1999/xlink" x="0px" y="0px"
	 viewBox="0 0 901.8 175.6" style="enable-background:new 0 0 901.8 175.6;" xml:space="preserve">
<style type="text/css">
	.st0{fill:#F6F2F1;}
	.st1{fill:#EF413A;}
	.st2{fill:#202020;}
</style>
<g id="_x31_dnKtV_1_">
	<g>
		<path class="st0" d="M597.6,59.3c3.6-3,6.9-5.4,10.6-7.1c19.9-9.5,44.3,0.1,51.2,20.2c2.4,7,2.9,14.4,3.3,21.8
			c0.9,15.6,0.5,31.2-2.5,46.7c-2.8,14.6-9.9,20.7-24.9,21.2c-4.5,0.1-9-0.2-13.5-1.2c-5.1-1.1-8.3-4.1-10.1-8.8
			c-2.8-6.9-3.5-14.2-3.7-21.6c-0.2-6.3-0.1-12.6,0.6-18.9c0.2-1.7-0.2-2.1-1.9-1.9c-2.3,0.2-4.6,0.6-6.8,1
			c-1.9,0.4-2.5,1.3-2.4,3.3c0.7,9.7,0.2,19.3-1.7,28.9c-1.1,5.8-3.7,10.8-7.2,15.5c-2.2,3-5.1,4.7-8.7,5
			c-5.9,0.4-11.9,0.3-17.8-0.7c-11.2-1.8-17.3-9.2-20.5-19.5c-2.1-6.7-2.6-13.6-2.7-20.5c-0.4-22.4,0.7-44.7,3-67
			c1.3-12.6,2.8-25.2,5.4-37.6c2.4-11.3,7.7-16.3,20.6-17.6c8.3-0.8,16.4,0.7,24,4.4c5.2,2.5,7.8,6.6,8.1,12.4
			c0.7,13.6-0.6,27.1-2.3,40.6C597.7,57.9,597.7,58.3,597.6,59.3z M632.4,112.3c-1.1-0.2-1.9-0.3-2.6-0.4c-4.7-1-9.3-2-14.1-2.6
			c-1.7-0.2-2.2,0.3-2.3,1.9c-0.5,6.8-0.8,13.6-0.6,20.5c0.1,6.1,0.6,12.2,2.9,18c1.3,3.2,3.5,5.5,7.1,6.2
			c5.6,1.1,11.2,1.5,16.9,0.6c9.3-1.5,12.9-4.7,14.8-14c4.4-21.4,4.8-42.9,1-64.5c-1.5-8.5-6-15.1-13.4-19.5
			c-15-8.9-36.2-5.6-47,12.2c-2.2,3.7-4.5,7.4-6.8,11c3.2-14.7,5-29.4,6.2-44.3c0.5-6.8,1.1-13.6,0.5-20.5c-0.4-4.3-2.6-6.6-6.2-8.1
			c-6.2-2.6-12.7-4.2-19.4-3.7c-12.1,1-15.4,5-17.4,14.3c-2.9,13.4-4.3,27-5.6,40.5c-2,20.7-3,41.4-2.4,62.2
			c0.2,5.6,0.5,11.2,1.8,16.6c2.2,9.1,6.5,16.4,16.5,18.5c5.1,1.1,10.4,1.2,15.6,0.8c3.1-0.2,5.6-1.5,7.4-4.1
			c2.5-3.4,4.5-7,5.4-11.2c1.7-8.3,1.9-16.7,2-25.2c0.1-6.3,0-6.3-5.6-3.1c-3.9,2.2-7.4,5-11.5,8.2
			C588.6,102.3,613.7,99.5,632.4,112.3z"/>
		<path class="st0" d="M58.4,121.3c4.3-1.7,8.5-3.1,12.9-3.5c10.5-1,20.2,0.6,27.9,8.7c7.6,8,8.2,20.8,1.5,28.1
			c-4.1,4.5-9.8,5.9-15.4,7c-13.1,2.6-26.3,1.9-39.5,1.7c-6.3-0.1-12.6-0.8-18.8-1.3c-11.2-1-18-7.3-22.3-17.2
			c-2.4-5.6-3.1-11.6-3.5-17.7C-0.5,106-0.2,84.8,1.3,63.6C1.9,54.4,2.7,45.2,3,36c0.3-7.8,3.9-13,10.5-16.6
			c7-3.7,14.6-5.4,22.4-6.2c17.5-1.9,34.8-1.2,52.3,1c17.6,2.2,21.8,12.8,23.4,27.2c0.3,2.8,0,5.7-0.5,8.5
			c-1.7,9.7-8.5,15-19.4,15.3c-11,0.3-21.7-1.6-32.4-3.9c-2.9-0.6-2.9-0.6-2.8,2.4c0.2,3,0.3,6,0.2,9c-0.1,2.3,0.8,2.5,2.6,2.1
			c5.2-1,10.4-1.1,15.6-1.2c11-0.2,15,7.4,15.8,14.8c1.3,11.9-5.3,19.8-17.2,21.1c-4.3,0.5-8.7,0.6-13,0.1c-1.9-0.2-2.3,0.5-2.3,2.1
			C58.5,114.8,58.4,117.9,58.4,121.3z M38.9,48.2c7.1,4.3,14.8,6.5,22.7,8.3c9.9,2.3,19.7,4.2,29.9,3.9c8.7-0.3,13.4-4,14.7-12.3
			c0.7-4.6,0.3-9.2-0.9-13.7c-2.1-7.7-6-13.1-14.7-14.7c-19.9-3.5-39.8-4-59.8-0.7c-5.9,1-11.8,2.6-16.8,6.1
			c-3.3,2.3-5.5,5.2-5.7,9.4c-0.5,8.9-1.1,17.7-1.7,26.5C5,82.3,4.5,103.5,5.8,124.7c0.3,5.8,0.9,11.7,3.1,17.2
			c3.9,9.4,9.9,15,20.9,15.4c14.6,0.5,29.2,2,43.8,0.8c6.5-0.6,13-1.4,19.2-4c4.2-1.7,6.7-4.9,7.2-9.4c0.3-2.6-0.9-5-1.4-7.5
			c-1.3-6.5-5.5-10.4-11.3-12.8c-8.5-3.5-17-2.5-25.3,1c-3,1.3-5.8,2.9-8.8,4.3c-0.1-0.4-0.1-0.7-0.1-0.9c0.1-6.5,0.2-13,0.4-19.4
			c0.2-5.7,0.2-5.6,6.1-4.8c5.8,0.8,11.7,1.1,17.4-0.7c7.1-2.2,10.2-8.3,8.7-16.6c-1.2-6.2-5.9-9.4-13.2-9.1
			c-6.1,0.3-12.1,1.4-18.1,2.8c-1.9,0.4-2.5,0.1-2.5-1.9c0-5.9-0.3-11.7-0.2-17.6c0-1.9-0.5-3-2.3-3.9
			C45.1,55.5,41.4,52.5,38.9,48.2z"/>
		<path class="st0" d="M462,164.8c-10.9-0.4-22.3-2.3-32.6-8.2c-19.5-11.3-19.3-33.1-11.7-46.3C424,99,433.7,95.2,446,99.3
			c3.8,1.3,7.4,2.9,11.1,4.4c3.3,1.3,6.5,2.9,10.1,3.4c1.5,0.2,2.8,0,4.2-0.4c3.1-1,4.2-3.6,2.7-6.5c-2.8-5.6-8.1-8.3-13.4-10.7
			c-5.3-2.4-11-3.4-16.4-5.5c-5.1-2-10.1-4.4-14.4-7.9c-9.3-7.7-10.9-17.9-9.2-29.1c2.2-14.5,10.7-24.5,23-31.4
			c19.1-10.8,39.5-13.9,60.8-8.1c10.5,2.9,19.1,8.6,24.2,18.6c6.5,12.6,4.3,26.7-5.9,37.6c-1.4,1.5-1.4,2.4-0.2,4.1
			c18.7,26.4,13.8,63.1-11.3,83.6c-8.2,6.7-17.9,10.2-28.3,12.2C476.3,164.5,469.6,165,462,164.8z M478.6,47.3
			c3.7-0.4,7.2-0.1,10.5,0.8c9.8,2.5,18.6,6.9,26.7,12.8c0.8,0.5,1.3,1.4,2.4,0.2c8.8-9.6,11.5-19.2,7-30.5
			c-4.3-10.9-13.1-16.6-24-19.1c-19.7-4.7-38.4-1.6-55.9,8.6c-10.1,5.9-17.3,14.3-19.5,26.3c-2.8,15,2.2,24.9,16.2,31.2
			c4.7,2.1,9.6,3.5,14.6,5c7.9,2.4,15.2,5.9,20.4,12.7c2.6,3.4,4,7.3,1.7,11.4c-2.4,4.1-6.3,5.8-11,5.6c-4.3-0.1-8.1-2-11.9-3.6
			c-5-2.2-9.8-4.6-15.2-5.6c-6.2-1.1-11.4,0.7-15.6,5.3c-7.7,8.2-9.4,22.8-4.1,32.8c4.3,8.2,11.6,12.5,20,15.2
			c11.5,3.7,23.4,4.1,35.3,2.8c9.8-1.1,19.2-3.7,27.6-9c20.9-13.1,30.7-42.3,22-65.3c-2.8-7.4-6.1-14.7-12.2-20
			c-9.1-8-19.7-13.5-31.6-16.4C481,48.2,479.7,48.5,478.6,47.3z"/>
		<path class="st0" d="M852.3,175.6c-17.4-0.8-31.9-8-42.9-21.8c-9.9-12.4-14.1-26.6-12.8-42.4c0.4-5.4,0.4-10.8,0.7-16.2
			c0.1-1.6-0.5-2.2-2-2.8c-7.2-2.5-13.1-6.5-14.8-14.6c-1.4-6.9,0-13.4,4-19.2c3.2-4.6,8-5.8,13.3-5.9c0.8,0,1.6,0,2.4,0.1
			c4.8,0.2,4.8,0.2,5.5-4.7c1.1-7,2.7-13.9,5.9-20.3c1.4-2.9,3.2-5.5,5.9-7.4c2.4-1.7,5-2.5,8-2c6.1,0.9,12.3,1.5,18.2,3.7
			c9.1,3.3,12.9,8.9,12.1,18.5c-0.3,3.8-1.1,7.5-1.8,11.3c-0.4,2-0.9,4-1.6,5.9c-0.5,1.4-0.2,1.9,1.3,1.8c4.2,0,8.3,0.6,12.3,1.7
			c4.8,1.3,8,4.3,9.3,9.2c1.6,5.9,1.6,11.8,0.1,17.6c-1.1,4.5-3.9,7.4-8.6,8.3c-6.6,1.4-13.3,2.2-20,2.6c-1.3,0.1-2,0.5-2.2,1.7
			c-0.9,7.2-2,14.4-0.4,21.7c0.8,3.5,2,6.8,5.1,9.1c3.5,2.5,6.3,2.1,9.1-1.2c2-2.3,3.1-5.1,4.3-7.9c0.9-2.2,1.8-4.4,2.8-6.6
			c4.6-10,10.6-11.9,20.5-9c10.7,3.2,16.7,13,15.4,24.1c-2.2,18.4-18.9,42.9-45.3,44.7C855.1,175.5,853.8,175.5,852.3,175.6z
			 M810.2,70.6c-5.2,6.8-7.2,14.6-7.8,22.9c-0.5,6.7-0.6,13.5-0.9,20.2c-0.8,17.9,5.6,33,19.2,44.5c12.3,10.4,26.8,15.1,42.6,10.7
			c18.3-5,28.3-18.6,32.8-36.2c2.7-10.5-2.7-18.9-12.4-21.9c-5.9-1.8-10.3,0-13,5.5c-0.6,1.2-1,2.4-1.6,3.6
			c-2.1,4.5-3.5,9.3-6.5,13.3c-3.1,4.2-6.8,5.5-11.9,4c-6-1.7-8.8-6.4-10.3-11.9c-2.7-9.6-1.5-19.2-0.1-28.8
			c0.3-2.2,1.4-2.8,3.5-2.8c7.5,0,14.8-1.1,22.1-2.7c2.4-0.5,3.8-2,4.6-4.2c1.3-3.6,1.4-7.3,1-11c-0.8-7.4-3.5-10.2-10.7-11.2
			c-4.5-0.6-9-0.8-13.5-0.3c-2.5,0.3-2.4-0.5-1.7-2.4c2.7-7.4,4.7-15,5.3-23c0.4-5.1-1.4-8.8-5.9-11.2c-3.8-2.1-8-2.9-12.1-3.9
			c-11.3-2.7-15.6-0.3-19.2,10.7c-2.4,7.2-3.3,14.7-3.9,22.2c-0.2,2.3-1.1,2.2-2.8,1.7c-2.9-0.9-5.9-1.3-8.9-1.4
			c-3.4-0.1-6.5,0.8-8.9,3.4c-8,9.1-4.7,22.2,6.5,26.4c2,0.8,3,0.6,3.5-1.7c0.3-1.4,1.1-2.8,1.7-4.2C803,76.9,805.8,73.1,810.2,70.6
			z"/>
		<path class="st0" d="M301.5,94.1c-2.5,0-5,0.1-7.4,0c-1.4-0.1-2.2,0.4-2.5,1.7c-1.5,7-3.3,14-2.4,21.3c0.4,3.5,1.3,6.8,3.9,9.4
			c3.1,3,6.5,2.9,9.6-0.2c2.6-2.6,4.1-6,5.9-9.1c0.9-1.6,1.7-3.1,2.6-4.7c5.6-9.8,12.3-10.6,21.6-6.5c11,4.8,15.9,15.8,11.7,28
			c-6.5,18.9-19,32.2-39.2,36.3c-15.1,3.1-28.8-1.3-40.6-10.7c-18.5-14.9-25.6-34.4-22-57.9c0.8-5.4,1.5-10.9,2.4-16.3
			c0.2-1.5-0.1-2.3-1.6-2.9c-3-1.2-5.7-2.9-8-5.2c-5.9-5.7-7.3-14.6-3.6-22.9c4.3-10,10.8-13.1,21.9-10.5c2.1,0.5,3,0.4,3.6-2
			c2.1-8.2,4.5-16.5,9.5-23.5c3.1-4.3,6.8-7.8,12.6-6.8c5,0.8,9.9,2,14.7,3.8c2.3,0.9,4.6,1.8,6.7,3.1c6.9,4.2,9.3,9.7,7.9,17.6
			c-1.1,5.8-2.6,11.4-4.9,16.8c-0.9,2.1-0.3,2.6,1.6,2.7c3.9,0.4,7.7,1.4,11.3,2.7c4.6,1.7,7.6,4.8,8.4,9.8c1.1,6.9,0.6,13.6-2.6,20
			c-1.5,3-3.9,4.7-7.3,5.2C310.7,93.9,306.1,94.1,301.5,94.1z M260.2,62.4c-4.7,5-7.3,11.1-9.1,17.6c-1.8,6.7-2.2,13.7-3.3,20.5
			c-1.4,8.5-1.7,16.9,0.3,25.4c5,21.2,23.6,37.9,44.9,40.2c21.1,2.2,44.3-15.9,47.6-37.1c1.5-9.6-5.6-19.2-15.3-20.2
			c-3.1-0.3-5.8,0.6-7.8,3.1c-1.6,1.8-2.6,4-3.8,6.1c-2.5,4.4-4.5,9.1-8.1,12.7c-2.6,2.6-5.6,3.9-9.4,3.1c-6-1.3-10.1-5.9-11.3-13
			c-1.8-10,0.2-19.7,2.7-29.4c0.6-2.3,1.9-2.4,3.9-2.3c7.4,0.7,14.9,0.4,22.3-0.5c2.4-0.3,3.8-1.6,4.8-3.6c2-4,2.2-8.4,2.1-12.7
			c-0.1-5.1-2.6-8.3-7.4-9.8c-4.9-1.6-9.9-2.1-14.9-2.3c-3.3-0.1-3.2-0.1-1.9-2.9c3.2-6.8,5.9-13.9,7.2-21.4
			c1.1-6.8-0.5-10.2-6.6-13.5c-5-2.7-10.5-4.1-16.1-5.4c-4.5-1-7.6,0.5-10.1,4c-0.9,1.3-1.8,2.6-2.5,4.1c-4,7.6-5.8,16-7.3,24.3
			c-0.3,1.7-0.9,1.8-2.2,1.3c-3-1.2-6-2.1-9.2-2.5c-3.4-0.4-6.6,0-9.2,2.4c-9,8.4-7,21.8,4,27.2c1.6,0.8,2.4,0.8,3.1-1
			c0.7-1.7,1.6-3.4,2.6-4.9C252.7,67.7,255.7,64.2,260.2,62.4z"/>
		<path class="st0" d="M743.2,31.5c4.3-4.3,8.5-8.5,13.7-11.8c7.3-4.6,12.2-4,18.3,1.9c2.4,2.3,4.4,4.9,5.7,7.9
			c1.4,3.1,1,5.7-1.6,8.1c-3.9,3.7-8.3,6.7-12.7,9.6c-4.7,3-9.4,5.9-14.4,9c4.7,3.3,9.3,6.5,13.6,10c2.9,2.4,5.8,4.9,8.3,7.8
			c1.5,1.8,2.2,3.7,1.9,6.1c-0.6,5.2-2.4,9.8-6.3,13.4c-3.7,3.4-7.8,4.3-12.5,2.3c-4.6-2-8.5-5-12.3-8.3c-0.6-0.6-1.1-1.5-2.1-1.5
			c0,2.4,0,4.9,0,7.3c0.1,5,0.2,9.9-0.4,14.9c-0.6,4.7-2.1,6.6-6.6,7.4c-7.8,1.4-15.5,1-23.3-0.5c-2.1-0.4-2.8-1.9-3.1-3.8
			c-1.1-6.5-0.4-12.9,0.3-19.3c0.1-1.4,0.3-2.8,0.6-4.7c-4.2,3.1-7.9,5.9-11.7,8.7c-2.3,1.7-4.7,3.2-7,4.8c-2.8,1.9-5.9,2.2-9.1,1.3
			c-5.9-1.6-10.9-4.5-15.1-8.9c-3.1-3.2-3.4-5.3-1.5-9.4c2.2-4.7,5.4-8.7,8.9-12.5c2.6-2.9,5.4-5.7,8.2-8.4c1.2-1.1,1.2-1.7-0.3-2.5
			c-4.5-2.5-8.8-5.3-12.7-8.7c-0.4-0.3-0.8-0.7-1.2-1c-6.5-5.8-6.9-9.7-1.5-16.7c3.9-5,8.7-9.1,14.2-12.2c4-2.3,8-2.4,12,0.1
			c4.3,2.7,8.2,5.9,11.9,9.3c0.7,0.6,1.2,1.5,2.6,1.7c-0.2-2.5-0.5-5-0.7-7.4c-0.2-2.7-0.2-5.5,0-8.2c0.2-3.2,1.9-5.3,4.8-6.3
			c8.5-2.8,17.1-2.7,25.7-0.4c2.4,0.6,3.4,2.6,4.1,4.8c1.4,4.5,1.1,9.1,0.9,13.7c0,0.6,0,1.2,0,1.8c0,0.2-0.1,0.4-0.1,0.6
			C742.8,31.5,743,31.5,743.2,31.5z M715.7,47.6c-3.5-3.3-7-6.6-10.5-10c-4.2-4.1-8.4-8.2-13.4-11.4c-1.3-0.8-2.7-2-4.4-1.3
			c-7.7,2.9-13.9,7.7-18.4,14.6c-1.3,2-1,4.1,0.7,5.8c0.9,0.9,1.8,1.8,2.7,2.5c5.7,4.7,12.2,8.2,18.8,11.5c1.4,0.7,1.9,1.1,0.4,2.4
			c-3.5,2.9-6.9,5.9-10.1,9.1c-4.1,4-8.1,8.2-11.2,13.1c-1.3,2-1.2,3.7,0.4,5.5c3.3,3.6,7.4,6,12,7.7c2.6,1,5,0.6,7.3-1
			c5.1-3.3,10-7.1,14.8-10.9c4-3.2,7.9-6.5,12.4-10.2c-0.8,5-1.4,9.3-2.1,13.6c-1,6.1-1.8,12.3-2.2,18.5c-0.1,1.9,0.3,3.3,2.7,3.7
			c6.4,0.9,12.7,1.2,19.1,0.1c1.8-0.3,3-1.3,3.2-3.3c1.1-8.6,0.2-17.2-0.3-25.8c-0.2-3.3-0.9-6.5-0.8-10.2c1.2,1.3,2,2.1,2.7,3
			c5,5.8,10.3,11.3,16.8,15.5c5,3.2,8,2.6,11.8-1.8c1-1.2,1.7-2.5,2.3-3.9c2-5.1,1.6-7.2-2.5-10.7c-5.4-4.7-11.2-8.7-17.1-12.7
			c-2.5-1.7-5-3.3-7.7-5.1c7-4.1,13.6-8,20.3-11.9c4.3-2.6,8.4-5.2,12.3-8.4c1.6-1.4,1.9-2.8,1-4.7c-1.2-2.3-2.8-4.3-4.8-6
			c-4.9-4.4-7.1-4.6-12.4-0.7c-8.4,6.2-15.8,13.5-20.9,22.7c-1.2,2.2-2.6,4.4-3.9,6.6c0.3-4.6,1.2-8.9,2-13.3
			c1.4-6.9,2.2-13.8,1.9-20.9c-0.1-2.7-1.3-4.2-4.1-4.7c-6.1-1.2-12.2-1.2-18.2,0.1c-3.3,0.7-4.1,1.8-4.2,5.1
			c-0.1,3.8,0.5,7.6,1.1,11.4C713.7,36.7,714.7,42.3,715.7,47.6z"/>
		<path class="st0" d="M219.9,93.6c0.2,3.4-1.1,7.3-0.4,10.8c0.7,3.3,4.4,5.5,6.2,8.6c3,5,5.3,10.4,7.4,15.8
			c2.6,6.7,0.7,12.2-3.7,17.4c-8.3,9.7-21.6,12.4-32.2,6.5c-3.9-2.1-7.1-5.1-9.1-9.1c-1.1-2.1-1.6-1.7-3-0.4
			c-10.1,9.6-22.1,14.5-36,14.6c-18.4,0.2-31.3-9.7-36.2-27.6c-4.8-17.2-1.5-33.4,7-48.7c9.9-17.8,24.4-30.2,44.2-35.7
			c9.2-2.5,18.6-2.2,27.9,0.5c15.3,4.5,22.9,15.7,26.3,30.5C219.5,82.3,220.1,87.8,219.9,93.6z M196.4,116.2
			c-0.5,5.8-1.9,11.4-4.5,16.4c-1.6,3.2-1.1,5.8,0.5,8.4c4.3,7.1,10.7,10.4,18.8,9.5c8.1-0.9,14.2-5.1,17.7-12.7
			c0.8-1.7,0.8-3.5,0.2-5.4c-2.2-6.8-5.2-13.2-9.2-19c-1.4-2-2.8-3.9-5.1-4.9c-1-0.4-1-0.9-0.8-1.9c1.6-8,1.5-16.1,0.2-24.1
			c-1.5-9.4-4.5-18.1-11.8-24.7c-9.5-8.4-20.9-9.6-32.7-7.8c-16,2.5-28.4,11.1-38.2,23.6c-11.5,14.6-17.6,30.9-14.8,49.7
			c1.3,8.4,4.2,16.2,10.8,22c9.1,7.9,19.8,8.9,31,6.5c15.8-3.3,26.7-12.9,33.8-27.1C193.7,121.9,195,119.1,196.4,116.2z"/>
		<path class="st1" d="M632.4,112.3c-18.7-12.8-43.8-10-56.9,10.5c4.1-3.2,7.5-6,11.5-8.2c5.6-3.1,5.6-3.1,5.6,3.1
			c-0.1,8.4-0.3,16.8-2,25.2c-0.9,4.2-2.9,7.8-5.4,11.2c-1.8,2.5-4.3,3.9-7.4,4.1c-5.2,0.3-10.5,0.3-15.6-0.8
			c-9.9-2.1-14.3-9.4-16.5-18.5c-1.3-5.5-1.6-11-1.8-16.6c-0.6-20.8,0.4-41.5,2.4-62.2c1.3-13.6,2.8-27.1,5.6-40.5
			c2-9.4,5.4-13.4,17.4-14.3c6.7-0.5,13.2,1,19.4,3.7c3.6,1.5,5.8,3.9,6.2,8.1c0.6,6.9,0,13.7-0.5,20.5c-1.2,14.8-3,29.6-6.2,44.3
			c2.3-3.7,4.5-7.3,6.8-11c10.8-17.8,32-21.1,47-12.2c7.4,4.4,12,11,13.4,19.5c3.7,21.6,3.3,43.1-1,64.5c-1.9,9.3-5.5,12.5-14.8,14
			c-5.7,0.9-11.3,0.5-16.9-0.6c-3.6-0.7-5.8-2.9-7.1-6.2c-2.3-5.8-2.8-11.9-2.9-18c-0.1-6.8,0.1-13.7,0.6-20.5
			c0.1-1.6,0.6-2.1,2.3-1.9c4.8,0.6,9.4,1.6,14.1,2.6C630.5,112,631.3,112.1,632.4,112.3z M548.9,84.1c0,2.4,0,4.8,0,7.2
			c0,1.8,0.8,2.8,2.8,2.7c1.8-0.1,2.5-1,2.5-2.7c0-0.8,0-1.6,0-2.4c-0.4-12.8,0.9-25.5,3-38.1c1-5.8,2-11.5,3.8-17.1
			c0.5-1.6-0.1-2.8-1.6-3.4c-1.6-0.7-2.5,0.3-3.1,1.6c-0.4,0.9-0.7,1.8-0.9,2.8C551.4,51,549.1,67.4,548.9,84.1z M552,102.1
			c1.8,0,2.8-0.9,2.8-2.6c0-1.8-1.3-2.5-2.8-2.6c-1.7-0.1-2.6,1-2.7,2.6C549.3,101.3,550.4,102,552,102.1z"/>
		<path class="st1" d="M38.9,48.2c2.5,4.3,6.1,7.3,10.4,9.4c1.8,0.9,2.3,2,2.3,3.9c0,5.9,0.2,11.7,0.2,17.6c0,2,0.7,2.3,2.5,1.9
			c6-1.4,12-2.5,18.1-2.8c7.3-0.4,12.1,2.9,13.2,9.1c1.5,8.2-1.7,14.3-8.7,16.6c-5.7,1.8-11.6,1.6-17.4,0.7
			c-5.8-0.8-5.9-0.9-6.1,4.8c-0.2,6.5-0.3,13-0.4,19.4c0,0.3,0.1,0.5,0.1,0.9c3-1.5,5.8-3.1,8.8-4.3c8.3-3.5,16.8-4.5,25.3-1
			c5.8,2.4,10,6.3,11.3,12.8c0.5,2.5,1.7,4.9,1.4,7.5c-0.6,4.5-3,7.7-7.2,9.4c-6.1,2.5-12.6,3.4-19.2,4c-14.6,1.2-29.2-0.3-43.8-0.8
			c-11-0.3-17.1-6-20.9-15.4c-2.3-5.5-2.8-11.4-3.1-17.2C4.5,103.5,5,82.3,6.6,61.1c0.7-8.8,1.2-17.7,1.7-26.5
			c0.3-4.2,2.4-7.1,5.7-9.4C19.2,21.6,25,20,30.9,19c20-3.2,39.9-2.7,59.8,0.7c8.7,1.5,12.7,6.9,14.7,14.7c1.2,4.5,1.6,9.1,0.9,13.7
			c-1.3,8.3-6,12.1-14.7,12.3c-10.2,0.3-20.1-1.7-29.9-3.9C53.7,54.7,46,52.6,38.9,48.2z M61.2,19.8c-10.5-0.1-20,0.9-29.5,2
			c-1.8,0.2-3.4,0.6-3.1,3c0.3,2.4,1.9,2.4,3.7,2.2c5.7-0.7,11.4-1.5,17.1-1.8c9.7-0.6,19.5-1.2,29,1.4c1.7,0.5,3,0.3,3.4-1.7
			c0.5-2-0.5-2.8-2.4-3.3C73.3,19.8,66.8,19.7,61.2,19.8z M89,25.8c0-1.9-0.8-2.8-2.6-2.9c-2-0.1-2.7,1.1-2.7,2.8
			c0,1.7,1,2.5,2.7,2.4C88.2,28.1,89.1,27.4,89,25.8z"/>
		<path class="st1" d="M478.6,47.3c1.1,1.2,2.4,0.9,3.5,1.2c11.9,2.8,22.5,8.3,31.6,16.4c6.1,5.4,9.4,12.6,12.2,20
			c8.8,23-1.1,52.2-22,65.3c-8.4,5.3-17.8,7.9-27.6,9c-11.9,1.3-23.8,0.9-35.3-2.8c-8.4-2.7-15.7-7-20-15.2
			c-5.3-10.1-3.6-24.7,4.1-32.8c4.3-4.5,9.4-6.4,15.6-5.3c5.4,1,10.2,3.4,15.2,5.6c3.8,1.7,7.6,3.5,11.9,3.6c4.7,0.1,8.6-1.5,11-5.6
			c2.3-4.1,0.9-8-1.7-11.4c-5.2-6.8-12.5-10.3-20.4-12.7c-4.9-1.5-9.9-2.9-14.6-5c-14-6.3-18.9-16.1-16.2-31.2
			c2.2-12,9.4-20.4,19.5-26.3c17.4-10.1,36.2-13.3,55.9-8.6c10.9,2.6,19.7,8.3,24,19.1c4.5,11.2,1.8,20.9-7,30.5
			c-1.1,1.2-1.6,0.3-2.4-0.2c-8.1-5.9-17-10.3-26.7-12.8C485.7,47.2,482.3,46.9,478.6,47.3z M523.8,110.3c-0.1-1.1-0.1-2.3-1.5-3.1
			c-0.9-0.5-1.7-0.3-2.5,0.1c-1.1,0.6-1.2,1.6-1.2,2.7c-1.2,17.9-14.2,36.4-33.9,38.3c-1.2,0.1-1.9,0.9-2.2,2
			c-0.6,2.2,0.9,3.4,3.8,3C508.7,150.7,522.1,129.6,523.8,110.3z M519.5,102.5c0.1,1.1,0.9,2.2,2.7,2c1.5-0.1,2.9-0.7,2.7-2.6
			c-0.2-1.5-0.7-2.8-2.6-2.7C520.6,99.3,519.3,100,519.5,102.5z"/>
		<path class="st1" d="M810.2,70.6c-4.4,2.4-7.1,6.3-9.3,10.6c-0.7,1.3-1.5,2.7-1.7,4.2c-0.4,2.3-1.5,2.5-3.5,1.7
			c-11.2-4.3-14.4-17.4-6.5-26.4c2.4-2.7,5.5-3.5,8.9-3.4c3,0.1,6,0.6,8.9,1.4c1.7,0.5,2.6,0.6,2.8-1.7c0.6-7.5,1.6-15,3.9-22.2
			c3.6-11,7.9-13.4,19.2-10.7c4.1,1,8.3,1.8,12.1,3.9c4.5,2.4,6.3,6.1,5.9,11.2c-0.6,8-2.5,15.6-5.3,23c-0.7,1.8-0.8,2.7,1.7,2.4
			c4.5-0.6,9-0.4,13.5,0.3c7.2,1,10,3.9,10.7,11.2c0.4,3.7,0.3,7.4-1,11c-0.8,2.3-2.2,3.7-4.6,4.2c-7.3,1.6-14.7,2.7-22.1,2.7
			c-2.1,0-3.1,0.6-3.5,2.8c-1.5,9.6-2.6,19.2,0.1,28.8c1.5,5.5,4.3,10.2,10.3,11.9c5.1,1.4,8.8,0.2,11.9-4c3-4,4.5-8.8,6.5-13.3
			c0.6-1.2,1-2.5,1.6-3.6c2.8-5.5,7.1-7.4,13-5.5c9.7,3,15.1,11.4,12.4,21.9c-4.5,17.6-14.6,31.2-32.8,36.2
			c-15.9,4.4-30.3-0.3-42.6-10.7c-13.6-11.6-20-26.6-19.2-44.5c0.3-6.7,0.4-13.5,0.9-20.2C803,85.3,805,77.4,810.2,70.6z
			 M851.8,167.5c1,0,2,0.1,2.9,0c1.3-0.1,2.7-0.2,4-0.5c15.2-3.4,25.1-13.3,32.3-26.4c0.8-1.5,0.2-2.6-1-3.4
			c-1.4-0.9-2.8-0.5-3.7,0.9c-1,1.7-1.9,3.4-3,5c-7.8,12.1-23.1,24-42.3,17.3c-1.6-0.5-2.8-0.1-3.4,1.6c-0.6,1.7-0.1,2.8,1.8,3.5
			C843.5,166.8,847.6,167.4,851.8,167.5z M832.4,162.4c1.9,0.1,2.8-1,3-2.5c0.1-1.7-0.9-2.9-2.7-2.9c-1.8-0.1-2.5,1.2-2.7,2.7
			C829.7,161.4,830.9,162.2,832.4,162.4z"/>
		<path class="st1" d="M260.2,62.4c-4.5,1.8-7.5,5.3-10,9.2c-1,1.6-1.9,3.2-2.6,4.9c-0.7,1.8-1.5,1.8-3.1,1
			c-11-5.4-13.1-18.8-4-27.2c2.6-2.4,5.8-2.8,9.2-2.4c3.2,0.4,6.2,1.3,9.2,2.5c1.3,0.5,1.9,0.4,2.2-1.3c1.5-8.4,3.3-16.7,7.3-24.3
			c0.7-1.4,1.6-2.8,2.5-4.1c2.5-3.5,5.6-5,10.1-4c5.6,1.3,11,2.7,16.1,5.4c6.1,3.3,7.8,6.7,6.6,13.5c-1.3,7.5-3.9,14.5-7.2,21.4
			c-1.4,2.9-1.4,2.8,1.9,2.9c5.1,0.2,10.1,0.7,14.9,2.3c4.9,1.6,7.3,4.7,7.4,9.8c0.1,4.4-0.1,8.7-2.1,12.7c-1,2-2.4,3.3-4.8,3.6
			c-7.4,0.9-14.8,1.2-22.3,0.5c-2-0.2-3.3,0-3.9,2.3c-2.5,9.7-4.5,19.4-2.7,29.4c1.3,7.1,5.3,11.7,11.3,13c3.8,0.8,6.8-0.4,9.4-3.1
			c3.6-3.7,5.6-8.4,8.1-12.7c1.2-2.1,2.2-4.2,3.8-6.1c2.1-2.4,4.7-3.4,7.8-3.1c9.6,1.1,16.8,10.6,15.3,20.2
			c-3.4,21.2-26.6,39.3-47.6,37.1c-21.3-2.2-39.9-18.9-44.9-40.2c-2-8.5-1.8-16.9-0.3-25.4c1.2-6.8,1.6-13.8,3.3-20.5
			C252.9,73.5,255.5,67.4,260.2,62.4z M296.8,163.1c1.4-0.2,3.5-0.3,5.6-0.7c13.5-2.7,23.1-10.9,30.9-21.8c1.2-1.6,1.5-3.1-0.4-4.3
			c-1.9-1.2-3.1-0.2-4.2,1.4c-1.5,2.1-3,4.1-4.7,6.1c-9,10.3-24.7,19-42,10.9c-1.5-0.7-2.8-0.3-3.5,1.3c-0.8,1.7-0.2,2.8,1.5,3.6
			C285.2,161.9,290.5,163.1,296.8,163.1z M273.7,150.4c-1.6,0.2-2.6,1.3-2.6,3c0,1.8,1.2,2.5,2.8,2.5c1.7,0,2.6-1.1,2.6-2.7
			C276.5,151.5,275.4,150.7,273.7,150.4z"/>
		<path class="st1" d="M715.7,47.6c-1-5.3-2-10.9-2.9-16.5c-0.6-3.8-1.2-7.5-1.1-11.4c0.1-3.4,1-4.4,4.2-5.1
			c6.1-1.3,12.1-1.3,18.2-0.1c2.7,0.5,3.9,2,4.1,4.7c0.3,7-0.5,14-1.9,20.9c-0.9,4.3-1.7,8.7-2,13.3c1.3-2.2,2.7-4.4,3.9-6.6
			c5.2-9.2,12.5-16.5,20.9-22.7c5.3-3.9,7.5-3.6,12.4,0.7c1.9,1.7,3.6,3.7,4.8,6c1,1.9,0.7,3.3-1,4.7c-3.8,3.2-8,5.9-12.3,8.4
			c-6.6,4-13.3,7.8-20.3,11.9c2.7,1.8,5.3,3.4,7.7,5.1c5.9,4,11.7,8,17.1,12.7c4.1,3.6,4.5,5.6,2.5,10.7c-0.6,1.4-1.3,2.7-2.3,3.9
			c-3.8,4.5-6.8,5-11.8,1.8c-6.5-4.2-11.7-9.7-16.8-15.5c-0.8-0.9-1.6-1.7-2.7-3c-0.2,3.7,0.5,7,0.8,10.2c0.6,8.6,1.4,17.2,0.3,25.8
			c-0.3,2-1.4,3-3.2,3.3c-6.4,1.1-12.7,0.8-19.1-0.1c-2.4-0.3-2.8-1.8-2.7-3.7c0.4-6.2,1.2-12.3,2.2-18.5c0.7-4.3,1.4-8.6,2.1-13.6
			c-4.5,3.7-8.4,7-12.4,10.2c-4.8,3.8-9.6,7.6-14.8,10.9c-2.3,1.5-4.7,1.9-7.3,1c-4.6-1.7-8.6-4-12-7.7c-1.6-1.8-1.7-3.5-0.4-5.5
			c3.1-4.9,7.1-9.1,11.2-13.1c3.2-3.2,6.6-6.2,10.1-9.1c1.6-1.3,1.1-1.7-0.4-2.4c-6.6-3.3-13.1-6.8-18.8-11.5
			c-1-0.8-1.8-1.7-2.7-2.5c-1.7-1.8-2-3.8-0.7-5.8c4.5-6.9,10.7-11.7,18.4-14.6c1.7-0.6,3.1,0.5,4.4,1.3c5,3.2,9.1,7.3,13.4,11.4
			C708.6,41,712.2,44.3,715.7,47.6z M688.1,27.9c-2.5,0-9,4.4-9.9,6.7c-0.5,1.1-0.5,2.1,0.6,2.9c1.1,0.8,2.3,1,3.4,0
			c1.2-1.1,2.3-2.2,3.4-3.4c1.2-1.3,2.2-1.4,3.8-0.2c6.6,5.5,13.3,10.9,19.1,17.3c0.8,0.9,1.8,1.4,3.1,0.8c1-0.5,1.4-1.3,1.4-2.4
			c-0.1-0.9-0.7-1.6-1.2-2.3c-6-7.1-13.1-12.9-20.6-18.4C690.1,28.4,689.2,27.8,688.1,27.9z M677.9,40c-0.4-1.5-1.3-2.5-3-2.4
			c-1.8,0.1-2.4,1.4-2.4,2.9c0,1.6,1.1,2.4,2.7,2.3C676.8,42.7,677.6,41.6,677.9,40z"/>
		<path class="st2" d="M743.2,31.5c-0.2,0-0.4,0-0.6,0.1c0-0.2,0.1-0.4,0.1-0.6C742.9,31.1,743,31.3,743.2,31.5z"/>
		<path class="st1" d="M196.4,116.2c-1.4,2.8-2.8,5.7-4.2,8.5c-7.1,14.2-18,23.8-33.8,27.1c-11.2,2.4-21.9,1.4-31-6.5
			c-6.6-5.8-9.6-13.6-10.8-22c-2.8-18.8,3.3-35.2,14.8-49.7c9.8-12.5,22.3-21.1,38.2-23.6c11.8-1.8,23.3-0.6,32.7,7.8
			c7.3,6.5,10.3,15.3,11.8,24.7c1.2,8,1.3,16.1-0.2,24.1c-0.2,0.9-0.1,1.4,0.8,1.9c2.3,1,3.8,2.9,5.1,4.9c4.1,5.9,7.1,12.3,9.2,19
			c0.6,1.9,0.6,3.7-0.2,5.4c-3.5,7.6-9.6,11.8-17.7,12.7c-8.1,0.9-14.5-2.4-18.8-9.5c-1.6-2.7-2.1-5.3-0.5-8.4
			C194.5,127.6,195.9,122.1,196.4,116.2z M176.9,95.3c0.7-7-5.7-12.6-14.1-10.4c-7.7,2-14,9.6-14.8,17.6c-0.3,3.4,0.4,6.3,3,8.6
			c5.1,4.4,14.4,4.3,19.3-0.4C174.4,106.7,176.9,101.7,176.9,95.3z M118.8,116.6c0.2,1.7,0.3,3.2,0.5,4.7
			c1.4,15.9,11.9,27.1,27.6,29.4c1.7,0.2,3.1,0.2,3.5-1.8c0.4-2.1-0.7-2.9-2.8-3.3c-10.7-2-18.3-7.8-21.7-18.4
			c-2-6.2-2.2-12.5-1-18.9c0.3-1.9-0.2-3-2-3.4c-1.9-0.4-2.8,0.8-3.1,2.5C119.3,110.6,119.1,113.7,118.8,116.6z M126.7,100.3
			c-0.3-1.5-1.1-2.4-2.8-2.5c-1.8-0.1-2.7,0.9-2.9,2.4c-0.2,1.7,1,2.6,2.5,2.8C125.3,103.1,126.2,102,126.7,100.3z"/>
		<path class="st0" d="M548.9,84.1c0.2-16.7,2.5-33.2,6.4-49.4c0.2-0.9,0.5-1.9,0.9-2.8c0.6-1.3,1.5-2.3,3.1-1.6
			c1.5,0.6,2.2,1.8,1.6,3.4c-1.8,5.6-2.8,11.3-3.8,17.1c-2.1,12.6-3.4,25.3-3,38.1c0,0.8,0,1.6,0,2.4c0.1,1.7-0.6,2.7-2.5,2.7
			c-1.9,0.1-2.8-0.9-2.8-2.7C548.9,88.9,548.9,86.5,548.9,84.1z"/>
		<path class="st0" d="M552,102.1c-1.6,0-2.7-0.8-2.7-2.5c0-1.6,1-2.8,2.7-2.6c1.5,0.1,2.8,0.8,2.8,2.6
			C554.8,101.2,553.8,102.1,552,102.1z"/>
		<path class="st0" d="M61.2,19.8c5.6-0.1,12,0,18.4,1.7c1.9,0.5,2.8,1.3,2.4,3.3c-0.5,2-1.7,2.2-3.4,1.7c-9.6-2.6-19.3-2-29-1.4
			c-5.7,0.3-11.4,1.2-17.1,1.8c-1.8,0.2-3.4,0.2-3.7-2.2c-0.3-2.4,1.4-2.8,3.1-3C41.3,20.7,50.8,19.7,61.2,19.8z"/>
		<path class="st0" d="M89,25.8c0.1,1.6-0.9,2.3-2.6,2.3c-1.8,0.1-2.7-0.7-2.7-2.4c0-1.7,0.8-2.8,2.7-2.8C88.2,23,89,23.9,89,25.8z"
			/>
		<path class="st0" d="M523.8,110.3c-1.6,19.3-15.1,40.4-37.6,43.1c-2.9,0.3-4.5-0.9-3.8-3c0.3-1.1,1-1.9,2.2-2
			c19.7-1.9,32.8-20.4,33.9-38.3c0.1-1.1,0.1-2.2,1.2-2.7c0.8-0.4,1.6-0.6,2.5-0.1C523.6,108,523.7,109.2,523.8,110.3z"/>
		<path class="st0" d="M519.5,102.5c-0.1-2.5,1.1-3.2,2.8-3.3c1.8-0.1,2.4,1.2,2.6,2.7c0.2,1.9-1.2,2.4-2.7,2.6
			C520.4,104.7,519.6,103.6,519.5,102.5z"/>
		<path class="st0" d="M851.8,167.5c-4.2-0.1-8.3-0.7-12.3-2c-1.9-0.6-2.4-1.7-1.8-3.5c0.5-1.7,1.8-2.2,3.4-1.6
			c19.1,6.7,34.4-5.2,42.3-17.3c1.1-1.6,1.9-3.4,3-5c0.9-1.4,2.2-1.8,3.7-0.9c1.3,0.8,1.9,1.9,1,3.4c-7.3,13.1-17.2,23-32.3,26.4
			c-1.3,0.3-2.6,0.4-4,0.5C853.8,167.5,852.8,167.5,851.8,167.5z"/>
		<path class="st0" d="M832.4,162.4c-1.5-0.2-2.6-1-2.4-2.7c0.2-1.5,1-2.8,2.7-2.7c1.8,0.1,2.8,1.2,2.7,2.9
			C835.2,161.4,834.3,162.5,832.4,162.4z"/>
		<path class="st0" d="M296.8,163.1c-6.3-0.1-11.6-1.2-16.7-3.5c-1.7-0.8-2.3-1.9-1.5-3.6c0.7-1.6,2-2,3.5-1.3
			c17.3,8.1,33-0.6,42-10.9c1.7-1.9,3.2-4,4.7-6.1c1.1-1.6,2.3-2.6,4.2-1.4c1.8,1.2,1.5,2.7,0.4,4.3c-7.8,10.8-17.4,19.1-30.9,21.8
			C300.3,162.9,298.2,163,296.8,163.1z"/>
		<path class="st0" d="M273.7,150.4c1.7,0.3,2.8,1.1,2.8,2.8c0,1.6-0.9,2.7-2.6,2.7c-1.6,0-2.8-0.8-2.8-2.5
			C271.1,151.7,272.1,150.6,273.7,150.4z"/>
		<path class="st0" d="M688.1,27.9c1.1-0.2,2,0.4,2.8,1.1c7.5,5.5,14.6,11.3,20.6,18.4c0.6,0.7,1.2,1.4,1.2,2.3
			c0.1,1.1-0.4,1.9-1.4,2.4c-1.2,0.6-2.3,0.1-3.1-0.8c-5.7-6.5-12.4-11.9-19.1-17.3c-1.6-1.3-2.5-1.1-3.8,0.2
			c-1.1,1.1-2.2,2.3-3.4,3.4c-1.1,1-2.3,0.8-3.4,0c-1-0.7-1-1.8-0.6-2.9C679.1,32.4,685.6,28,688.1,27.9z"/>
		<path class="st0" d="M677.9,40c-0.3,1.6-1.1,2.7-2.7,2.8c-1.6,0.1-2.6-0.7-2.7-2.3c0-1.5,0.6-2.8,2.4-2.9
			C676.6,37.5,677.5,38.5,677.9,40z"/>
		<path class="st0" d="M176.9,95.3c0,6.5-2.5,11.4-6.6,15.4c-4.8,4.7-14.2,4.8-19.3,0.4c-2.6-2.3-3.4-5.2-3-8.6
			c0.8-8,7.1-15.6,14.8-17.6C171.2,82.7,177.6,88.3,176.9,95.3z M160.7,109.2c2,0.3,3.7-0.2,5.2-1.4c3.8-3.2,5.7-7.5,5.9-12.3
			c0.2-4.5-2.9-6.9-7.3-5.9c-6.3,1.4-9.3,6-11.2,11.6c-1.4,4.1,0,6.5,4.2,7.5C158.6,109,159.7,109.1,160.7,109.2z"/>
		<path class="st0" d="M118.8,116.6c0.3-2.9,0.6-6,1-9.1c0.2-1.7,1.2-2.8,3.1-2.5c1.8,0.4,2.3,1.5,2,3.4c-1.2,6.4-1,12.7,1,18.9
			c3.4,10.6,11,16.4,21.7,18.4c2.1,0.4,3.2,1.2,2.8,3.3c-0.3,2-1.8,2-3.5,1.8c-15.7-2.3-26.2-13.5-27.6-29.4
			C119.1,119.8,118.9,118.3,118.8,116.6z"/>
		<path class="st0" d="M126.7,100.3c-0.4,1.8-1.4,2.9-3.1,2.7c-1.5-0.2-2.8-1.1-2.5-2.8c0.2-1.5,1.1-2.5,2.9-2.4
			C125.6,97.9,126.4,98.8,126.7,100.3z"/>
	</g>
</g>
</svg>
