<?xml version="1.0" encoding="utf-8"?>
<!-- Generator: Adobe Illustrator 19.2.1, SVG Export Plug-In . SVG Version: 6.00 Build 0)  -->
<svg version="1.1" id="Layer_1" xmlns="http://www.w3.org/2000/svg" xmlns:xlink="http://www.w3.org/1999/xlink" x="0px" y="0px"
	 viewBox="0 0 255.9 48.6" style="enable-background:new 0 0 255.9 48.6;" xml:space="preserve">
<style type="text/css">
	.st0{fill:#FFFFFF;}
</style>
<path class="st0" d="M181,31.4c-5.5-3.8-12.8-2.9-16.7,3.1c1.2-0.9,2.2-1.8,3.4-2.4c1.6-0.9,1.6-0.9,1.6,0.9c0,2.5-0.1,4.9-0.6,7.4
	c-0.3,1.2-0.9,2.3-1.6,3.3c-0.5,0.7-1.3,1.1-2.2,1.2c-1.5,0.1-3.1,0.1-4.6-0.2c-2.9-0.6-4.2-2.8-4.8-5.4c-0.4-1.6-0.5-3.2-0.5-4.9
	c-0.2-6.1,0.1-12.2,0.7-18.2c0.4-4,0.8-7.9,1.6-11.9c0.6-2.8,1.6-3.9,5.1-4.2c2-0.1,3.9,0.3,5.7,1.1c1.1,0.4,1.7,1.1,1.8,2.4
	c0.2,2,0,4-0.1,6c-0.4,4.3-0.9,8.7-1.8,13c0.7-1.1,1.3-2.1,2-3.2c3.2-5.2,9.4-6.2,13.8-3.6c2.2,1.3,3.5,3.2,3.9,5.7
	c1.1,6.3,1,12.6-0.3,18.9c-0.6,2.7-1.6,3.7-4.3,4.1c-1.7,0.3-3.3,0.1-5-0.2c-1.1-0.2-1.7-0.9-2.1-1.8c-0.7-1.7-0.8-3.5-0.9-5.3
	c0-2,0-4,0.2-6c0-0.5,0.2-0.6,0.7-0.6c1.4,0.2,2.8,0.5,4.1,0.8C180.5,31.3,180.7,31.3,181,31.4z M156.6,23.1c0,0.7,0,1.4,0,2.1
	c0,0.5,0.2,0.8,0.8,0.8c0.5,0,0.7-0.3,0.7-0.8c0-0.2,0-0.5,0-0.7c-0.1-3.8,0.3-7.5,0.9-11.2c0.3-1.7,0.6-3.4,1.1-5
	c0.1-0.5,0-0.8-0.5-1c-0.5-0.2-0.7,0.1-0.9,0.5c-0.1,0.3-0.2,0.5-0.3,0.8C157.3,13.4,156.6,18.2,156.6,23.1z M157.5,28.4
	c0.5,0,0.8-0.3,0.8-0.8c0-0.5-0.4-0.7-0.8-0.8c-0.5,0-0.8,0.3-0.8,0.8C156.7,28.2,157,28.4,157.5,28.4z"/>
<path class="st0" d="M9.9,12.6c0.7,1.3,1.8,2.1,3,2.8c0.5,0.3,0.7,0.6,0.7,1.1c0,1.7,0.1,3.4,0.1,5.2c0,0.6,0.2,0.7,0.7,0.6
	c1.8-0.4,3.5-0.7,5.3-0.8c2.1-0.1,3.5,0.9,3.9,2.7c0.4,2.4-0.5,4.2-2.6,4.9c-1.7,0.5-3.4,0.5-5.1,0.2c-1.7-0.2-1.7-0.3-1.8,1.4
	c-0.1,1.9-0.1,3.8-0.1,5.7c0,0.1,0,0.1,0,0.3c0.9-0.4,1.7-0.9,2.6-1.3c2.4-1,4.9-1.3,7.4-0.3c1.7,0.7,2.9,1.8,3.3,3.8
	c0.1,0.7,0.5,1.4,0.4,2.2c-0.2,1.3-0.9,2.3-2.1,2.8c-1.8,0.7-3.7,1-5.6,1.2c-4.3,0.4-8.6-0.1-12.8-0.2c-3.2-0.1-5-1.8-6.1-4.5
	c-0.7-1.6-0.8-3.3-0.9-5C-0.2,28.8,0,22.6,0.5,16.4c0.2-2.6,0.4-5.2,0.5-7.8C1,7.4,1.7,6.5,2.6,5.9c1.5-1.1,3.2-1.5,5-1.8
	c5.9-0.9,11.7-0.8,17.5,0.2c2.6,0.4,3.7,2,4.3,4.3c0.4,1.3,0.5,2.7,0.3,4c-0.4,2.4-1.8,3.5-4.3,3.6c-3,0.1-5.9-0.5-8.8-1.1
	C14.3,14.5,12,13.9,9.9,12.6z M16.5,4.3c-3.1,0-5.9,0.3-8.7,0.6C7.3,4.9,6.8,5,6.9,5.7S7.5,6.4,8,6.4c1.7-0.2,3.3-0.4,5-0.5
	c2.8-0.2,5.7-0.4,8.5,0.4c0.5,0.1,0.9,0.1,1-0.5c0.1-0.6-0.1-0.8-0.7-1C20,4.3,18.1,4.3,16.5,4.3z M24.6,6c0-0.6-0.2-0.8-0.8-0.9
	c-0.6,0-0.8,0.3-0.8,0.8c0,0.5,0.3,0.7,0.8,0.7C24.4,6.7,24.7,6.5,24.6,6z"/>
<path class="st0" d="M137.7,12.3c0.3,0.4,0.7,0.3,1,0.4c3.5,0.8,6.6,2.4,9.3,4.8c1.8,1.6,2.8,3.7,3.6,5.9c2.6,6.7-0.3,15.3-6.5,19.1
	c-2.5,1.6-5.2,2.3-8.1,2.6c-3.5,0.4-7,0.3-10.4-0.8c-2.5-0.8-4.6-2.1-5.9-4.5c-1.6-3-1.1-7.2,1.2-9.6c1.3-1.3,2.8-1.9,4.6-1.6
	c1.6,0.3,3,1,4.5,1.6c1.1,0.5,2.2,1,3.5,1.1c1.4,0,2.5-0.4,3.2-1.6c0.7-1.2,0.3-2.3-0.5-3.3c-1.5-2-3.7-3-6-3.7
	c-1.4-0.4-2.9-0.9-4.3-1.5c-4.1-1.8-5.5-4.7-4.8-9.1c0.6-3.5,2.8-6,5.7-7.7c5.1-3,10.6-3.9,16.4-2.5c3.2,0.8,5.8,2.4,7,5.6
	c1.3,3.3,0.5,6.1-2.1,8.9c-0.3,0.4-0.5,0.1-0.7-0.1c-2.4-1.7-5-3-7.8-3.8C139.8,12.3,138.8,12.2,137.7,12.3z M151,30.8
	c0-0.3,0-0.7-0.4-0.9c-0.3-0.1-0.5-0.1-0.7,0c-0.3,0.2-0.4,0.5-0.4,0.8c-0.4,5.2-4.2,10.7-9.9,11.2c-0.4,0-0.6,0.3-0.6,0.6
	c-0.2,0.6,0.3,1,1.1,0.9C146.5,42.7,150.5,36.5,151,30.8z M149.7,28.5c0,0.3,0.3,0.6,0.8,0.6c0.4,0,0.9-0.2,0.8-0.8
	c-0.1-0.4-0.2-0.8-0.8-0.8C150,27.6,149.6,27.8,149.7,28.5z"/>
<path class="st0" d="M230.5,19.2c-1.3,0.7-2.1,1.8-2.7,3.1c-0.2,0.4-0.4,0.8-0.5,1.2c-0.1,0.7-0.4,0.7-1,0.5
	c-3.3-1.3-4.2-5.1-1.9-7.7c0.7-0.8,1.6-1,2.6-1c0.9,0,1.8,0.2,2.6,0.4c0.5,0.1,0.8,0.2,0.8-0.5c0.2-2.2,0.5-4.4,1.1-6.5
	c1.1-3.2,2.3-3.9,5.6-3.1c1.2,0.3,2.4,0.5,3.5,1.1c1.3,0.7,1.8,1.8,1.7,3.3c-0.2,2.3-0.7,4.6-1.6,6.7c-0.2,0.5-0.2,0.8,0.5,0.7
	c1.3-0.2,2.6-0.1,4,0.1c2.1,0.3,2.9,1.1,3.1,3.3c0.1,1.1,0.1,2.2-0.3,3.2c-0.2,0.7-0.6,1.1-1.3,1.2c-2.1,0.5-4.3,0.8-6.5,0.8
	c-0.6,0-0.9,0.2-1,0.8c-0.4,2.8-0.8,5.6,0,8.4c0.4,1.6,1.3,3,3,3.5c1.5,0.4,2.6,0.1,3.5-1.2c0.9-1.2,1.3-2.6,1.9-3.9
	c0.2-0.4,0.3-0.7,0.5-1.1c0.8-1.6,2.1-2.2,3.8-1.6c2.8,0.9,4.4,3.3,3.6,6.4c-1.3,5.2-4.3,9.1-9.6,10.6c-4.7,1.3-8.9-0.1-12.5-3.1
	c-4-3.4-5.9-7.8-5.6-13c0.1-2,0.1-4,0.3-5.9C228.4,23.5,229,21.2,230.5,19.2z M242.7,47.6c0.3,0,0.6,0,0.9,0c0.4,0,0.8-0.1,1.2-0.1
	c4.5-1,7.4-3.9,9.5-7.7c0.2-0.4,0.1-0.8-0.3-1c-0.4-0.3-0.8-0.1-1.1,0.3c-0.3,0.5-0.6,1-0.9,1.5c-2.3,3.5-6.8,7-12.4,5.1
	c-0.5-0.1-0.8,0-1,0.5c-0.2,0.5,0,0.8,0.5,1C240.3,47.4,241.5,47.6,242.7,47.6z M237,46.1c0.6,0,0.8-0.3,0.9-0.7
	c0-0.5-0.3-0.9-0.8-0.9c-0.5,0-0.7,0.4-0.8,0.8C236.3,45.8,236.6,46,237,46.1z"/>
<path class="st0" d="M69,16.8c-1.3,0.5-2.2,1.6-2.9,2.7c-0.3,0.5-0.6,0.9-0.8,1.4c-0.2,0.5-0.4,0.5-0.9,0.3c-3.2-1.6-3.8-5.5-1.2-8
	c0.8-0.7,1.7-0.8,2.7-0.7c0.9,0.1,1.8,0.4,2.7,0.7c0.4,0.1,0.6,0.1,0.6-0.4c0.4-2.5,1-4.9,2.1-7.1c0.2-0.4,0.5-0.8,0.7-1.2
	c0.7-1,1.6-1.5,3-1.2c1.6,0.4,3.2,0.8,4.7,1.6c1.8,1,2.3,2,1.9,4c-0.4,2.2-1.1,4.3-2.1,6.3C79.2,16,79.2,16,80.2,16
	c1.5,0.1,3,0.2,4.4,0.7c1.4,0.5,2.1,1.4,2.2,2.9c0,1.3,0,2.6-0.6,3.7c-0.3,0.6-0.7,1-1.4,1.1c-2.2,0.3-4.3,0.4-6.5,0.1
	c-0.6-0.1-1,0-1.1,0.7c-0.7,2.8-1.3,5.7-0.8,8.6c0.4,2.1,1.6,3.4,3.3,3.8c1.1,0.2,2-0.1,2.8-0.9c1.1-1.1,1.6-2.5,2.4-3.7
	c0.4-0.6,0.6-1.2,1.1-1.8c0.6-0.7,1.4-1,2.3-0.9c2.8,0.3,4.9,3.1,4.5,5.9c-1,6.2-7.8,11.5-14,10.9c-6.2-0.6-11.7-5.5-13.2-11.8
	c-0.6-2.5-0.5-5-0.1-7.4c0.4-2,0.5-4,1-6C66.8,20,67.6,18.2,69,16.8z M79.7,46.3c0.4-0.1,1-0.1,1.6-0.2c4-0.8,6.8-3.2,9.1-6.4
	c0.4-0.5,0.4-0.9-0.1-1.3c-0.6-0.4-0.9-0.1-1.2,0.4c-0.4,0.6-0.9,1.2-1.4,1.8c-2.6,3-7.2,5.6-12.3,3.2c-0.4-0.2-0.8-0.1-1,0.4
	c-0.2,0.5-0.1,0.8,0.4,1.1C76.3,45.9,77.8,46.3,79.7,46.3z M72.9,42.6c-0.5,0.1-0.8,0.4-0.8,0.9c0,0.5,0.4,0.7,0.8,0.7
	c0.5,0,0.8-0.3,0.8-0.8C73.7,42.9,73.4,42.7,72.9,42.6z"/>
<path class="st0" d="M204,12.4c-0.3-1.6-0.6-3.2-0.9-4.8c-0.2-1.1-0.4-2.2-0.3-3.3c0-1,0.3-1.3,1.2-1.5c1.8-0.4,3.5-0.4,5.3,0
	c0.8,0.1,1.1,0.6,1.2,1.4c0.1,2.1-0.1,4.1-0.6,6.1c-0.3,1.3-0.5,2.6-0.6,3.9c0.4-0.6,0.8-1.3,1.1-1.9c1.5-2.7,3.7-4.8,6.1-6.7
	c1.6-1.1,2.2-1.1,3.6,0.2c0.6,0.5,1.1,1.1,1.4,1.8c0.3,0.6,0.2,1-0.3,1.4c-1.1,0.9-2.3,1.7-3.6,2.5c-1.9,1.2-3.9,2.3-6,3.5
	c0.8,0.5,1.6,1,2.3,1.5c1.7,1.2,3.4,2.3,5,3.7c1.2,1.1,1.3,1.6,0.7,3.1c-0.2,0.4-0.4,0.8-0.7,1.1c-1.1,1.3-2,1.5-3.5,0.5
	c-1.9-1.2-3.4-2.8-4.9-4.5c-0.2-0.3-0.5-0.5-0.8-0.9c-0.1,1.1,0.1,2.1,0.2,3c0.2,2.5,0.4,5,0.1,7.6c-0.1,0.6-0.4,0.9-0.9,1
	c-1.9,0.3-3.7,0.2-5.6,0c-0.7-0.1-0.8-0.5-0.8-1.1c0.1-1.8,0.4-3.6,0.6-5.4c0.2-1.3,0.4-2.5,0.6-4c-1.3,1.1-2.5,2.1-3.6,3
	c-1.4,1.1-2.8,2.2-4.3,3.2c-0.7,0.4-1.4,0.6-2.1,0.3c-1.3-0.5-2.5-1.2-3.5-2.3c-0.5-0.5-0.5-1-0.1-1.6c0.9-1.4,2.1-2.7,3.3-3.8
	c0.9-0.9,1.9-1.8,3-2.7c0.5-0.4,0.3-0.5-0.1-0.7c-1.9-1-3.8-2-5.5-3.4c-0.3-0.2-0.5-0.5-0.8-0.7c-0.5-0.5-0.6-1.1-0.2-1.7
	c1.3-2,3.1-3.4,5.4-4.3c0.5-0.2,0.9,0.1,1.3,0.4c1.5,0.9,2.7,2.1,3.9,3.3C201.9,10.5,203,11.5,204,12.4z M195.9,6.7
	c-0.7,0-2.6,1.3-2.9,2c-0.1,0.3-0.1,0.6,0.2,0.9c0.3,0.2,0.7,0.3,1,0c0.4-0.3,0.7-0.6,1-1c0.4-0.4,0.6-0.4,1.1-0.1
	c1.9,1.6,3.9,3.2,5.6,5.1c0.2,0.3,0.5,0.4,0.9,0.2c0.3-0.1,0.4-0.4,0.4-0.7c0-0.3-0.2-0.5-0.4-0.7c-1.8-2.1-3.8-3.8-6-5.4
	C196.5,6.8,196.2,6.6,195.9,6.7z M192.9,10.2c-0.1-0.4-0.4-0.7-0.9-0.7c-0.5,0-0.7,0.4-0.7,0.9c0,0.5,0.3,0.7,0.8,0.7
	C192.6,11,192.8,10.7,192.9,10.2z"/>
<path class="st0" d="M53.2,32.5c-0.4,0.8-0.8,1.7-1.2,2.5c-2.1,4.2-5.3,7-9.9,7.9c-3.3,0.7-6.4,0.4-9.1-1.9c-1.9-1.7-2.8-4-3.2-6.5
	c-0.8-5.5,1-10.3,4.3-14.6c2.9-3.7,6.5-6.2,11.2-6.9c3.5-0.5,6.8-0.2,9.6,2.3c2.1,1.9,3,4.5,3.5,7.2c0.4,2.3,0.4,4.7-0.1,7.1
	c-0.1,0.3,0,0.4,0.2,0.6c0.7,0.3,1.1,0.9,1.5,1.4c1.2,1.7,2.1,3.6,2.7,5.6c0.2,0.6,0.2,1.1-0.1,1.6c-1,2.2-2.8,3.5-5.2,3.7
	c-2.4,0.3-4.3-0.7-5.5-2.8c-0.5-0.8-0.6-1.6-0.1-2.5C52.6,35.9,53,34.3,53.2,32.5z M47.5,26.4c0.2-2.1-1.7-3.7-4.1-3
	c-2.3,0.6-4.1,2.8-4.3,5.2c-0.1,1,0.1,1.8,0.9,2.5c1.5,1.3,4.2,1.3,5.7-0.1C46.7,29.8,47.5,28.3,47.5,26.4z M30.4,32.7
	c0.1,0.5,0.1,0.9,0.1,1.4c0.4,4.7,3.5,7.9,8.1,8.6c0.5,0.1,0.9,0.1,1-0.5c0.1-0.6-0.2-0.9-0.8-1c-3.1-0.6-5.4-2.3-6.4-5.4
	c-0.6-1.8-0.6-3.7-0.3-5.5c0.1-0.6-0.1-0.9-0.6-1c-0.6-0.1-0.8,0.2-0.9,0.7C30.6,30.9,30.5,31.8,30.4,32.7z M32.7,27.9
	c-0.1-0.4-0.3-0.7-0.8-0.7c-0.5,0-0.8,0.3-0.9,0.7c-0.1,0.5,0.3,0.8,0.7,0.8C32.3,28.7,32.6,28.4,32.7,27.9z"/>
</svg>
