<?xml version="1.0" encoding="utf-8"?>
<!-- Generator: Adobe Illustrator 19.2.1, SVG Export Plug-In . SVG Version: 6.00 Build 0)  -->
<svg version="1.1" id="Layer_1" xmlns="http://www.w3.org/2000/svg" xmlns:xlink="http://www.w3.org/1999/xlink" x="0px" y="0px"
	 viewBox="0 0 442.6 416.1" style="enable-background:new 0 0 442.6 416.1;" xml:space="preserve">
<style type="text/css">
	.st0{fill:#5C2F1E;}
	.st1{fill:#FAF8F7;}
	.st2{fill:#F7C01B;}
	.st3{fill:#FEDD39;}
	.st4{fill:#FBE2B0;}
	.st5{fill:#E4E7EF;}
	.st6{fill:#E82025;}
	.st7{fill:#E39647;}
	.st8{fill:#D4D9E7;}
	.st9{fill:#C62126;}
	.st10{fill:#A71E22;}
	.st11{fill:#D32126;}
	.st12{fill:#5CAA46;}
	.st13{fill:#DF9D5C;}
	.st14{fill:#99796E;}
</style>
<g id="Kx3cFM.tif">
	<g>
		<path class="st0" d="M0,293.1c1.5-0.1,1.2-1.4,1.4-2.2c4.9-22.5,18.1-39.2,36.1-52.7c6.5-4.9,13.3-9.4,20.5-13.3
			c2.4-1.3,2.8-2.6,1.8-5.1c-6.2-14.8-3.9-29,3.6-42.6c0.9-1.7,2-3.1,1.3-5.5c-6.9-21.5-0.2-39.7,15.7-54.2
			c16.9-15.4,35.7-28.2,58.1-34.8c2-0.6,3.7-1.3,5.1-2.9c3.9-4.5,8-8.9,11.8-13.5c1.8-2.1,3.1-3.7-1.5-4.5
			c-9.7-1.7-18.9-5.1-27.2-10.5c-1.4-0.9-4-1.6-3.2-3.8c0.7-1.9,3-0.9,4.5-0.7c12.2,1,24.3-0.4,36.4-1.7c3.5-0.4,3.5-2,2.2-4.7
			c-4.2-8.9-8.2-17.8-12.3-26.7c-0.6-1.3-2.2-2.9-0.6-4c1.4-1,2.7,0.8,3.8,1.7c7.8,6.5,15.5,13.1,23.3,19.6c4.4,3.6,5.9,3.4,9-1.4
			c4.9-7.7,9-15.9,12.2-24.5c0.6-1.5,0.8-3.2,2.5-4.9c2.4,5.2,3,10.5,3.5,15.8c1,10.6,1,10.7,11.4,8.4c10.6-2.4,20.9-5.4,30.6-12.5
			c-0.2,5.7-3.1,9.1-5.2,12.9c-1.7,3-5.5,6-5.2,8.7c0.3,3,5.4,3.4,8.2,5.4c12.3,8.4,20.8,20,27.2,33.2c1.3,2.6,2.9,3.8,5.8,4.6
			c28.5,7.5,55.3,18.9,79.1,36.7c9.9,7.4,17.8,16.6,21.9,28.5c4.7,13.8,2.2,26.9-5.1,39.3c-1.3,2.2-1.6,4-0.7,6.4
			c3.1,8.4,2.9,17,0.9,25.6c-1.5,6.4-1,7.2,5,10.4c16.8,9.1,32.4,19.7,44.2,35.1c15.1,19.7,21.1,41.4,12.4,65.5
			c-6.5,18.1-19.2,31.7-34.5,43c-25.4,18.7-54.2,30.2-84.6,37.9c-32.8,8.4-66.2,11.5-100,11.3c-33.7-0.2-67.1-3.2-99.9-11.2
			c-27.4-6.7-54-15.8-77-32.5C24.5,359.2,10,342.7,2.8,320.8c-1-2.9-0.4-6.3-2.8-8.7C0,305.7,0,299.4,0,293.1z M360.9,291l-0.1-0.1
			c-1.3,0.2-3,0-3.8,0.7c-3.9,3.9-8.7,6.5-13.3,9.4c-12.1,5.2-24.4,9.9-37.2,12.8c-47.3,10.8-95,11.2-142.8,4.2
			c-25.6-3.7-50-11.1-71.7-25.6c-6.5-4.4-13.5-8.4-18.6-16.2c-0.4,3.4-0.7,5.7-1,7.9C72.5,295,77,304.1,84,312.1
			c8.7,9.8,19.8,16,31.7,21.2c21.6,9.5,44.3,13.8,67.6,16.1c40.1,4,79.8,2.6,119.1-6.5c18.6-4.3,36.6-10.2,51.8-22.2
			c11.8-9.3,19.1-21.1,19.5-36.6c0-1.6,0.5-3.2-0.8-4.8c-3.8,3.5-7.4,6.9-11,10.3C361.3,289.9,360.8,290.2,360.9,291z M126.8,188.9
			c-0.5-1.9-1.1-3.8-2.4-5.4c-1.4-1.7-2.6-3.7-5.1-3.4c-2.7,0.3-3.7,2.5-4.2,4.9c-2.5,5.5-1.9,11.4-2.3,17.2
			c-0.1,1.4,0.5,2.2,1.7,2.7c4.3,1.7,8.5,3.4,12.9,5.2C128.6,202.5,128.3,194.9,126.8,188.9z M275.2,93.7
			c-1.7-8.9-4.9-17.1-9.9-24.7c-2.6-5.4-5.9-10.3-9.7-14.9C242.8,38.7,223.9,33.3,207,40c-1.8,0.3-3.9-0.5-5.1,1.6
			c-1.6,0.6-3.3,1.3-4.9,1.9c-0.3,0.2-0.6,0.4-0.9,0.6c-0.8,0.1-1.6,0.1-2.1,1c-1.2,0-2,0.7-2.5,1.7c-2.1,1.3-4.2,2.5-6.2,4
			c-8.7,6.7-15,15.1-17.1,26.2c-1.7,1.3-0.8,3.3-1.3,4.9c-2.4,6.9-0.7,13.6,1.6,19.9c7.9,21.7,25.7,30.8,46.7,35.2
			c6.5,1.3,13.1,2.2,19.7,2.7c10.5,0.7,21,0.5,31-3c3.8-1.4,8.6-3.1,9.3-8.5c0.1-0.3,0.1-0.6,0.1-0.8c2.3-1.1,2.9-3,2.5-5.4
			c0.3-7,1.3-14-0.7-20.9c-0.5-2-1-4.1-1.5-6.1C275.4,94.6,275.3,94.1,275.2,93.7z M72.9,153.2c-2.3,10,5.9,27.9,15.8,34.4
			c1-5.2,2.1-10.3,3.1-15.5c0.9-3.6,0.7-7.3,0-10.9c-2.1-10.6-7.3-20.5-7-32.8C78.1,136.4,73,143.6,72.9,153.2z M362.3,145
			c-2.6,9.5-8.2,16.9-16.6,22.2c-2.9,1.9-5.8,3.9-8.1,6.6c-2.2,2.5-3.5,5.2-2.5,8.6c0,6.9,2.3,13.6,1,21.4
			c6.9-3.3,12.6-6.7,17.7-10.8c12.3-10,20-22.5,19.9-38.9c-0.2-4.6-1.2-9-3.5-13c-1.5-4.4-4.1-7.9-7.9-10.8
			C363.1,135.3,363.2,140.1,362.3,145z M121.9,277c0.1-11.2,0.1-11.2-10.3-15.1c-2-0.8-4-1.6-6-2.5c-11.4-4.7-21.7-11.2-31.6-19.5
			c0,2,0,3.1,0,4.2c-0.5,8.8,3,16.3,7.9,23.1c10.3,14.2,25.3,21.6,41.1,27.9c1,0.4,2,1.4,3.3,0.1C123.9,289.5,123.1,283.2,121.9,277
			z M67,199.1c-0.7,6.5,0.9,12.6,3.8,18.3c10.5,20.4,29.7,29.1,49.5,36.8c1.9,0.8,2.3-0.4,2.4-1.9c0.6-5.8,1.2-11.6,1.8-17.3
			c0.2-1.3,0.5-2.6,0.7-3.9c1.9-11.1,1.9-11.1-8.6-15.3c-0.9-0.4-1.9-0.7-2.7-1.2c-2.8-1.9-4.9-1.5-7,1.4c-3.1,4.3-7.4,4.3-12.1,2.7
			c-6.6-2.3-5.9-8.3-7.1-13.3c-0.4-1.9,0.7-4.3-1.2-5.6c-5.7-4.2-10.6-9.2-15.7-14.9C68.8,189.8,66.9,194.2,67,199.1z M369.7,197.2
			c-0.2-1.4-0.4-2.9-1.5-4.3c-0.8,0.6-1.7,1.1-2.4,1.8c-7.7,7.3-16.6,12.7-26.2,17c-3.9,1.8-7,3.8-9.4,7.5c-4,5.8-10.5,8.3-15.5,5.5
			c-4-2.3-7.4-1.7-11.2-0.7c-3.5,0.9-7.1,1.7-10.7,2.2c-2,0.3-3.1,1-2.7,3.2c0.7,3.6,1.2,7.1,1.9,10.7c0,7,0.3,14-2.1,21.3
			c4-0.9,7.1-1.5,10.1-2.3c18.2-4.7,36-10.5,50.9-22.7C363.1,226.3,370.3,213.6,369.7,197.2z M257.8,246c-0.2-0.8-0.3-1.6-0.5-2.4
			c-0.8-4,1.7-9.7-1.4-11.8c-2.8-1.9-8,0-12.1,0.1c-24.3,0.6-48.6,0.6-72.7-2.9c-4.6-0.7-6.9,0.2-6.2,5.4c0.5,3.4,0.2,7,0.3,10.5
			c0.4,5.3,1,10.6,1,15.9c0,3.7,1.9,4.7,5.1,5c6.6,0.5,13.2,1.2,19.9,1.6c23.1,1.6,46.1,1.4,69.1-1.2c2.8-0.3,2.9-1.2,1.8-3.4
			C259.7,257.5,258.4,251.8,257.8,246z M256.3,200c-0.5-3.8-3.2-5-6.4-4.8c-2.8,0.1-5.6,0.8-8.3,1.4c-15.6,3.4-30.9,4.6-45.7-3.3
			c-2.5-1.3-5.3-2-8-2.7c-8.8-2.4-13.1-0.4-17.6,7.7c-2.8,5.4-3.9,11.2-4.5,17.2c-0.3,3.1,0.3,4.4,3.7,4.7
			c7.6,0.5,15.2,1.7,22.8,2.4c20.6,1.7,41.2,1.9,61.8,0.2c1.7-0.1,3.9,0.1,3.8-2.7C257.8,213.4,259.2,206.5,256.3,200z M236,376.1
			c1.3,0.8,2.6,0.3,3.9,0.2c11.7-1.4,23.5-2.6,35.1-4.3c25.8-3.8,50.9-10.2,73.9-22.9c13.7-7.5,26.6-16,34.4-30.2
			c5.8-10.6,6.5-21.5,1.1-33.8c-0.4,3.5-0.5,5.8-0.9,8c-3.1,18.2-14.1,30.9-29.1,40.5c-26.2,16.8-55.8,22.6-86,26.5
			c-20.1,2.6-40.2,2.3-60.4,2.3c-0.7,0-1.4,0-2.1-0.1c-1.3,0-2.6-0.1-4-0.1c-12.1-1.5-24.4-1.5-36.5-3.4c-13-2.1-26-4.7-38.5-8.7
			c-13.2-4.2-25.9-10.1-37.3-18.1c-12.5-8.7-23-19.2-26.8-34.7c-1.4-5.8-0.8-11.7-1-18.9c-1.4,2.2-2.1,3.2-2.7,4.3
			c-9.1,17.3-5.2,36,10.9,50.3c17.4,15.5,38,24.8,60.2,31.1C164.9,373.9,200.2,377,236,376.1z M167,287.9c-1,6.2-2.7,12.2-6.3,17.8
			c2,0.2,3.5,0.3,5,0.5c46.7,7.1,93.2,6.5,139.3-4.3c19.5-4.6,38.5-10.6,53.8-24.4c10.2-9.1,16.6-20.2,16.2-34.5
			c0.5-5.3-1.4-10-4-14.9c-2.8,3.3-5.2,6.5-7.9,9.3c-14.2,14.7-32.2,22.7-51.3,28.5c-43.4,13-87.8,13.9-132.5,10.6
			C167.2,275.7,167.2,275.2,167,287.9z M380,370c0.4-0.3,0.9-0.5,1.3-0.8c14-6.9,26.3-16.3,36-28.4c14.4-17.9,19.5-38,11.5-60.3
			c-7.5-20.9-23.2-34.5-41.8-45.2c-0.8-0.5-1.9-0.7-2.7,0.1c2.2,9,1.5,17.8-1.7,26.3c-1.2,3.2-0.9,5.2,1.2,7.9
			c14.8,19,15.2,39.7,1.6,59c-4.3,6-10.1,10.5-15.4,15.5c-7.3,4.6-14.5,9.4-22.3,13c-36.8,16.8-75.7,24.2-116,25.2
			c-37.4,0.9-74.1-3.4-109.8-14.6c-21.4-6.7-41.6-15.9-58.3-31.5C43,316.9,41,289.7,59.6,269c4.5-5,6.5-8.8,4.4-15.3
			c-2.2-7.1,0-14.4,1.4-22.6c-21,12.6-40,25.8-50.9,47.7c-6.5,13-7,26.5-1.8,40.1c3.7,9.7,9.1,18.5,15.8,26.4
			c17.6,20.5,40.6,32.7,65.5,41.7c29.5,10.5,60,15.7,91.2,18.3c7.9,0.7,16,0,23.8,1.7c2.5,5.7,6.9,8,13.1,7.1
			c1.6-0.2,3.1-0.7,2.4-2.7c-0.3-1-1-2.6-2.4-1.6c-4,2.8-5.5-0.2-7.1-2.9c0.6-0.1,1.1-0.1,1.7-0.2c0.5,0,1,0.1,1.5,0.1
			c5.8-0.2,11.6-0.4,17.4-0.6c32.1-1,63.6-5.9,94.2-15.3c17.1-5.2,34.1-11.2,49.5-20.6l0.3,0L380,370z M161.2,107.9
			c-2.1-6.3-3.2-12.8-3.3-20.3c-5.9,4.3-12.3,4.7-17.9,7.4c-4.6,0.1-9.7-0.5-13.7,0.9c-9.7,3.4-18.6,8.8-25.7,16.8
			c-6.4,7.2-8.3,15.4-6.3,24.6c0.7,3.1,1.6,6.2,2.8,9.1c4.5,10.8,4.7,21.5,1,32.7c-1.9,5.7-2.9,11.6-3.9,17.5c-0.7,3.9-1.3,8,1,11.7
			c2.3,3.8,5.3,3.7,7.8,0c1.8-2.8,1.9-6,1.9-9.1c0-6.4,1.2-12.6,3.7-18.5c2-4.5,4.8-8,10.3-8.1c5.7,0,10,2.4,12.6,7.5
			c1.8,3.6,2.7,7.5,3.3,11.5c1.6,11.5,0.4,22.9-0.5,34.4c-1.2,16.3-3.8,32.4-3.9,48.8c-0.1,8.6,2.2,16.5,6.7,23.7
			c5.1,8.2,13.3,7.9,18-0.7c2.4-4.3,3.2-9,3.8-13.9c1.9-15.7-0.8-31.3-1.6-46.9c-0.8-15.4-0.4-30.7,7.3-44.7
			c3.9-7,9.6-10.7,17.9-10.3c6.4,0.3,11.9,3.1,17.5,5.6c10.9,4.7,21.9,6.2,33.5,2.9c5.7-1.6,11.4-3.2,17.4-3.3
			c7.1-0.2,10.6,2.4,12.9,9.2c2.1,6.3,1.9,12.7,1.4,19.2c-0.6,9-1.1,18-0.5,27c0.5,7.5,2,14.9,6.6,21.2c2.9,3.9,5.4,3.9,8.4,0.2
			c1.5-1.8,2.5-3.9,3.1-6.2c1.8-6.7,2-13.5,1.3-20.3c-0.9-8.9-2.8-17.8-2.6-26.8c0.2-7.7,3-14.3,7.9-20c4.3-5,12.4-3.6,16.9,2.9
			c3.7,5.3,4.3,11.8,6.9,17.6c1.1,2.5,2.3,5.1,5.3,5.4c3.2,0.3,4.4-2.5,5.9-4.7c4.5-6.8,3.9-14.4,2.6-21.8
			c-1.8-10.5,1.2-19,9.5-25.7c1.8-1.5,3.5-3.2,5.4-4.5c14.5-10,17-28.4,1.6-43.2c-9.8-9.4-21.3-15.9-33.5-21.3
			c-9.4-4.1-19-7.6-29.4-10.1c0.6,2.5,0.7,4.5,2.1,6.1c-0.1,6.2,1.9,12.1,3.1,18.1c0,2.2,0.1,4.3,0.2,6.5c0.7,17.8-5.6,26.3-23,29.9
			c-15.3,3.2-30.8,2.8-46-0.5C193.8,139.9,172.8,130.9,161.2,107.9z M137.4,51.2c0,0.4,0,0.9-0.1,1.3c8.8,2.9,17.9,4.7,26.9,7
			c2.1,0.5,2.5,0.5,3.6-1c7.7-10.7,17.8-18.3,30.2-22.7c3.9-1.4,6.2-2.5,5.6-7.4c-0.6-4.7,1-9.5-0.2-15.4c-0.7,1.8-1.1,2.6-1.4,3.3
			c-2.7,6.3-5.2,12.7-9.5,18c-4.4,5.4-8.6,5.9-13.8,1.5c-3.9-3.3-7.5-7-11.3-10.5c-1.1-1.1-2-2.9-4.3-1.6c3.7,5.9,7.5,11.8,10,18.3
			c1.8,4.6,0.9,6.6-3.8,7.7c-3.7,0.9-7.6,1.4-11.4,1.5C151.2,51.3,144.3,51.2,137.4,51.2z M287.9,211.9c1.3,1.5-2.4,6.1,2.6,5.8
			c4.6-0.2,9-1.9,13.5-2.8c1.3-0.3,2.2-0.9,1.9-2.3c-1.1-4.8-1.3-9.9-4.1-14.2c-3.1-4.9-7.4-5-10.5-0.2
			C288.6,202.1,287.7,206.7,287.9,211.9z M137.2,90.7c16.7-3.8,24.4-11.5,24.3-23.7C153.9,75.1,146.5,82.8,137.2,90.7z M241.7,21.3
			c-8.9,3.4-17.7,7-26.9,9.5c3.9,0.3,7.8-0.3,11.4,0.4C234.7,32.9,238.1,27.2,241.7,21.3z M201.2,413.2c1.8-0.6,6.1,1.1,6.1-0.9
			c0-3.5-4.3-3.1-7.1-3.5c-0.9-0.1-1.9,0-2.9,0.2c-1.8,0.4-4.2,1.1-3.9,3.1c0.3,1.9,2.8,0.9,4.3,1.1
			C198.7,413.3,199.7,413.2,201.2,413.2z"/>
		<path class="st1" d="M379.5,370.3c-15.5,9.3-32.4,15.3-49.5,20.6c-30.7,9.4-62.2,14.3-94.2,15.3c-5.8,0.2-11.6,0.4-17.4,0.6
			c-0.5-0.6-1-0.6-1.5-0.1c-0.6,0.1-1.1,0.1-1.7,0.2c-2,0-3.9,0.1-5.9,0.1c-7.9-1.7-15.9-1-23.8-1.7c-31.1-2.6-61.7-7.8-91.2-18.3
			c-24.9-8.9-47.9-21.2-65.5-41.7c-6.8-7.9-12.1-16.6-15.8-26.4c-5.3-13.6-4.7-27.1,1.8-40.1c10.9-21.9,29.9-35,50.9-47.7
			c-1.4,8.2-3.6,15.5-1.4,22.6c2,6.5,0,10.4-4.4,15.3C41,289.7,43,316.9,63.6,336.2c16.7,15.6,36.9,24.8,58.3,31.5
			c35.7,11.2,72.5,15.5,109.8,14.6c40.3-1,79.2-8.3,116-25.2c7.8-3.6,15.1-8.3,22.3-13c8.8,3.6,10.8,13.3,4.9,25.8
			C376.5,370,378,370.2,379.5,370.3z"/>
		<path class="st2" d="M283.1,91.1c-1.4-1.6-1.5-3.6-2.1-6.1c10.4,2.5,20,6,29.4,10.1c12.3,5.4,23.8,11.9,33.5,21.3
			c15.5,14.8,12.9,33.2-1.6,43.2c-1.9,1.3-3.6,3-5.4,4.5c-8.3,6.7-11.3,15.2-9.5,25.7c1.2,7.4,1.9,15-2.6,21.8
			c-1.4,2.2-2.7,5-5.9,4.7c-3-0.3-4.2-2.8-5.3-5.4c-2.6-5.8-3.2-12.3-6.9-17.6c-4.5-6.5-12.6-7.9-16.9-2.9c-4.9,5.7-7.7,12.3-7.9,20
			c-0.2,9.1,1.7,17.9,2.6,26.8c0.7,6.9,0.5,13.6-1.3,20.3c-0.6,2.3-1.6,4.4-3.1,6.2c-3,3.7-5.6,3.7-8.4-0.2
			c-4.6-6.3-6.1-13.6-6.6-21.2c-0.6-9-0.2-18,0.5-27c0.5-6.5,0.7-12.9-1.4-19.2c-2.3-6.8-5.8-9.3-12.9-9.2c-6,0.1-11.7,1.7-17.4,3.3
			c-11.6,3.3-22.7,1.8-33.5-2.9c-5.6-2.4-11.1-5.2-17.5-5.6c-8.3-0.4-14,3.2-17.9,10.3c-7.7,14-8.1,29.3-7.3,44.7
			c0.8,15.6,3.4,31.2,1.6,46.9c-0.6,4.8-1.5,9.6-3.8,13.9c-4.7,8.6-12.8,8.9-18,0.7c-4.5-7.2-6.8-15.1-6.7-23.7
			c0.1-16.4,2.6-32.5,3.9-48.8c0.9-11.5,2-22.9,0.5-34.4c-0.5-4-1.4-7.9-3.3-11.5c-2.6-5-6.9-7.5-12.6-7.5c-5.5,0-8.4,3.5-10.3,8.1
			c-2.5,5.9-3.7,12.1-3.7,18.5c0,3.2-0.1,6.3-1.9,9.1c-2.4,3.7-5.4,3.7-7.8,0c-2.3-3.7-1.7-7.8-1-11.7c1-5.9,2-11.9,3.9-17.5
			c3.6-11.1,3.5-21.9-1-32.7c-1.2-2.9-2.1-6-2.8-9.1c-2.1-9.2-0.1-17.4,6.3-24.6c7-7.9,15.9-13.3,25.7-16.8
			c3.9-1.4,9.1-0.8,13.7-0.9c-1.3,1.8-3.4,2.1-5.3,2.6c-9.3,2.5-16.9,7.7-24.1,14.1c-9.4,8.3-8,22.7,0.7,30.5
			c8,7.1,17.3,11.5,26.9,15.4c15.6,6.3,31.8,10.1,48.5,12.9c15,2.6,30.1,3,45,3.2c17.6,0.3,35.2-0.9,52.5-5.3
			c8.1-2.1,16.3-3.9,24.3-6.6c10.5-3.5,19.7-9.1,27.9-16.5c6.5-5.9,8.3-14.9,4.8-23c-3.2-7.3-9.5-11.5-15.8-15.4
			C312.4,99,297.8,94.7,283.1,91.1z M136,267.3c-0.4,9.3,0.3,17.7,5.1,25.1c1.2,1.9,2.9,3.6,5.2,3.3c2-0.3,2.4-2.4,3.1-4.2
			c1.2-3.2,1.6-6.4,1.7-9.7c0.2-6.2-0.3-12.3-1.2-18.3c-1.1-7-2.7-13.8-5.9-20.2c-1.2-2.3-2.6-2.8-3.7-0.2c-0.6,1.5-2.1,2.5-2.3,4.3
			C137.2,254.3,135.2,261,136,267.3z M280.9,247.5c0.6-2.8-0.4-5.5-1-8.3c-1.1-5.5-0.9-11.2-3.8-16.3c-1.5-2.6-3.6-2.9-4.8-0.5
			c-1.2,2.5-2.7,5.1-2.5,8.4c0.4,4.4,0.3,9-0.2,13.4c-0.6,5.2,1.6,9.4,4.4,13.2c2.1,2.9,5,2.1,6.3-1.2
			C280.5,253.5,281.4,250.7,280.9,247.5z M316.1,198.1c0,2.7-0.2,4.1,0,5.4c0.4,2.1,1,4.2,3.8,4.6c2.9,0.4,3.6-1.7,4.5-3.7
			c1.4-3.5-0.1-12.5-2.8-14.5c-1.6-1.2-3.9-1.8-4.5,1.3C316.6,193.9,316.3,196.7,316.1,198.1z"/>
		<path class="st3" d="M283.1,91.1c14.8,3.6,29.4,7.9,42.4,15.9c6.3,3.9,12.6,8,15.8,15.4c3.5,8.1,1.7,17.1-4.8,23
			c-8.2,7.4-17.4,12.9-27.9,16.5c-8,2.7-16.1,4.6-24.3,6.6c-17.4,4.4-35,5.5-52.5,5.3c-15-0.2-30-0.7-45-3.2
			c-16.6-2.9-32.9-6.6-48.5-12.9c-9.6-3.9-18.9-8.3-26.9-15.4c-8.7-7.7-10.1-22.1-0.7-30.5c7.2-6.4,14.8-11.6,24.1-14.1
			c1.9-0.5,4-0.8,5.3-2.6c5.5-2.7,11.9-3.1,17.9-7.4c0.1,7.5,1.2,14,3.3,20.3c-5.3,3.6-7.7,9.1-4.9,14.9
			c3.6,7.5,10.4,11.9,17.7,15.4c7.6,3.6,15.3,6.9,23.6,8.9c8,2,16,4.3,24.2,4.8c12.5,0.8,25.1,2.2,37.7,0.2
			c9.8-1.5,19.2-3.6,27.4-9.5c5.7-4.1,8.5-13.4,5.1-17.5c-3.3-3.9-5.6-7.9-4.8-13.3c0.1-1,0-2-0.8-2.8
			C285,103.1,282.9,97.3,283.1,91.1z"/>
		<path class="st4" d="M373.8,284.1c-0.4,15.5-7.7,27.3-19.5,36.6c-15.2,12-33.3,17.9-51.8,22.2c-39.3,9.1-79.1,10.5-119.1,6.5
			c-23.3-2.3-46.1-6.6-67.6-16.1c-11.8-5.2-22.9-11.4-31.7-21.2c-7.1-8-11.5-17-11.6-27.9c0.9,0.1,1.4,0.7,1.9,1.4
			c6.2,8.9,14.2,15.7,23.6,21.1c17,9.6,35.3,15.1,54.4,18.7c28.2,5.3,56.6,7,85.3,6c26.7-1,53-3.8,78.7-11.4
			c13.8-4,27.1-9.1,38.7-17.8c2.4-1.9,5.3-3.1,7-5.7C366.4,292.7,370.1,288.4,373.8,284.1z"/>
		<path class="st5" d="M379.5,370.3c-1.5-0.1-3-0.2-4.5-0.3c5.9-12.6,3.9-22.2-4.9-25.8c5.3-5,11.2-9.4,15.4-15.5
			c13.6-19.2,13.2-39.9-1.6-59c-2.1-2.8-2.4-4.7-1.2-7.9c3.1-8.5,3.9-17.3,1.7-26.3c0.8-0.8,1.9-0.6,2.7-0.1
			c18.6,10.7,34.2,24.3,41.8,45.2c8.1,22.3,2.9,42.4-11.5,60.3c-9.7,12.1-22,21.5-36,28.4c-0.4,0.3-0.9,0.5-1.3,0.8
			c0,0-0.2,0.3-0.2,0.3L379.5,370.3z"/>
		<path class="st6" d="M168.2,77.1c2.1-11.1,8.4-19.5,17.1-26.2c1.9-1.5,4.1-2.7,6.2-4c1.5,0.3,2.4-0.2,2.5-1.7
			c0.4-0.8,1.3-0.9,2.1-1c0.3-0.2,0.6-0.4,0.9-0.6c1.6-0.6,3.3-1.3,4.9-1.9c0.9,8.8,5.4-0.8,7.5,2.1c-0.4-1.9-2.7-1.8-2.4-3.7
			c17-6.7,35.8-1.2,48.5,14.1c3.8,4.6,7.2,9.5,9.7,14.9c-4.9,1-5,1.5-2.4,5.5c0.8,1.3,3.7,3.5-0.9,3.6c-1.5-1.4-2.9-4.5-5.3-1.6
			c-1.3,1.5-0.9,4,0.5,5.9c1.4,1.8,2.9,3.2,5.3,1.4c2.4,4.1,2.2,9.7-0.7,13c-1.1,1.3-2,2.6-1.8,4.3l0,0c-6.7,1-13.3,2-20,3
			c-2,0-4,0-6,0c-7.8-1.6-15.8-1.9-23.6-4.6c-10.1-3.6-19.1-7.7-23.6-17.7c-1.3-2.9-2.9-4.6-5.1-6.3c3.1-0.2,4.5-1.7,3.3-4.8
			c-0.9-2.3-1.7-5.2-5-4.2c-3.8,1.3-1.3,4-0.8,6.1c0.2,0.9,1,1.7,1.5,2.5C177.1,79.1,172.5,76.9,168.2,77.1z M212.5,85.8
			c0-3.2-3.5-6.6-6.4-6.7c-2.2-0.1-2.9,1-3,3c0,2.8,4.2,6.9,6.9,6.7C211.9,88.6,212.3,87.2,212.5,85.8z M235,81.1
			c-2,0-3.3,0.4-3.5,2.3c-0.3,2.4,3.5,6.2,6.1,6.4c1.9,0.1,3-1,2.8-2.7C240.1,83.7,237.8,82,235,81.1z M212,52.4
			c-0.7-2.1-2.1-4.2-5.3-4.2c-1.5,0-3.4,0.1-3,2.3c0.5,3.1,2.6,4.9,5.7,5.3C211.4,56,212.1,54.9,212,52.4z M241.3,57.1
			c-0.7-3.1-3.1-4.5-5.9-5c-1.4-0.3-2.7,0.1-3,1.8c-0.4,2,3.4,6,5.8,6C239.9,59.8,240.7,58.6,241.3,57.1z M176.6,65.8
			c-0.3-0.1-0.6-0.2-0.8-0.4c-0.1,0.3-0.4,0.6-0.3,0.8c0.1,0.2,0.6,0.4,0.8,0.3C176.4,66.5,176.5,66.1,176.6,65.8z"/>
		<path class="st4" d="M375,243.1c0.4,14.2-6,25.3-16.2,34.5c-15.3,13.8-34.3,19.8-53.8,24.4c-46.1,10.8-92.6,11.4-139.3,4.3
			c-1.5-0.2-2.9-0.3-5-0.5c3.6-5.7,5.3-11.6,6.3-17.8c10.1,1,20.1,2.4,30.2,2.9c23.7,1.2,47.4,1.1,71.1-1.5
			c23.6-2.6,46.6-6.9,68.5-16.3C352.2,266.5,365.9,257.7,375,243.1z"/>
		<path class="st7" d="M375,243.1c-9.1,14.6-22.7,23.3-38.1,29.9c-21.9,9.4-44.9,13.7-68.5,16.3c-23.7,2.6-47.4,2.7-71.1,1.5
			c-10.1-0.5-20.2-1.9-30.2-2.9c0.2-12.7,0.1-12.2,12.3-11.3c44.7,3.3,89.1,2.4,132.5-10.6c19.1-5.8,37.1-13.8,51.3-28.5
			c2.7-2.8,5.1-6,7.9-9.3C373.6,233.1,375.4,237.8,375,243.1z"/>
		<path class="st8" d="M206,362.3c0.7,0,1.4,0,2.1,0.1c0.8,2.5,3,1.7,4.6,1.7c8.1,0.1,16.3,0,24.4,0.1c1.2,0,3.6-0.5,3.3,1
			c-0.8,4.8,4.1,5.5,5.5,8.6c-3.1,1.5-7.4-1.6-10,2.3c-35.8,0.9-71.1-2.2-105.7-12.1c-22.1-6.3-42.8-15.6-60.2-31.1
			c-16.1-14.4-20-33-10.9-50.3c0.6-1.1,1.3-2.1,2.7-4.3c0.2,7.2-0.4,13.1,1,18.9c3.8,15.6,14.3,26,26.8,34.7
			c11.4,8,24.1,14,37.3,18.1c12.5,3.9,25.4,6.6,38.5,8.7c12.1,1.9,24.4,1.9,36.5,3.4C203.3,362.9,204.6,365.6,206,362.3z
			 M236.7,367.5c-0.1,0.3-0.2,0.6-0.4,0.8c0.3,0.1,0.6,0.4,0.8,0.3c0.2-0.1,0.3-0.5,0.4-0.8C237.3,367.7,237,367.6,236.7,367.5z"/>
		<path class="st7" d="M355.1,302.1c-11.6,8.7-25,13.8-38.7,17.8c-25.7,7.5-52,10.4-78.7,11.4c-28.7,1-57.1-0.7-85.3-6
			c-19.1-3.6-37.4-9.1-54.4-18.7c-9.4-5.3-17.4-12.2-23.6-21.1c-0.5-0.7-1-1.3-1.9-1.4c0.3-2.3,0.5-4.5,1-7.9
			c5,7.8,12.1,11.8,18.6,16.2c21.7,14.6,46.2,21.9,71.7,25.6c47.8,6.9,95.5,6.5,142.8-4.2c12.8-2.9,25.1-7.6,37.2-12.8
			C347.4,301.6,351.5,299.1,355.1,302.1z"/>
		<path class="st5" d="M236,376.1c2.6-3.9,6.8-0.8,10-2.3c-1.4-3.1-6.3-3.8-5.5-8.6c0.2-1.5-2.1-1-3.3-1c-8.1-0.1-16.3,0-24.4-0.1
			c-1.6,0-3.8,0.9-4.6-1.7c20.1,0,40.3,0.3,60.4-2.3c30.2-3.9,59.8-9.7,86-26.5c14.9-9.6,26-22.3,29.1-40.5c0.4-2.3,0.5-4.6,0.9-8
			c5.5,12.2,4.8,23.1-1.1,33.8c-7.8,14.2-20.8,22.7-34.4,30.2c-23,12.7-48.1,19.1-73.9,22.9c-11.7,1.7-23.4,2.9-35.1,4.3
			C238.6,376.4,237.3,376.9,236,376.1z"/>
		<path class="st4" d="M256.3,200c2.9,6.5,1.5,13.4,1.7,20.2c0.1,2.8-2.1,2.6-3.8,2.7c-20.6,1.7-41.2,1.5-61.8-0.2
			c-7.6-0.6-15.2-1.8-22.8-2.4c-3.5-0.2-4-1.6-3.7-4.7c0.6-6,1.7-11.8,4.5-17.2c0.8,0,1.7-0.2,2.5-0.1
			C200.6,202.1,228.4,202.1,256.3,200z"/>
		<path class="st4" d="M257.8,246c0.7,5.8,1.9,11.5,4.4,16.7c1,2.2,1,3.1-1.8,3.4c-23,2.6-46.1,2.8-69.1,1.2
			c-6.6-0.5-13.2-1.1-19.9-1.6c-3.2-0.2-5.1-1.3-5.1-5c-0.1-5.3-0.7-10.6-1-15.9c0.8-0.1,1.6-0.5,2.4-0.4
			c13.4,1.4,26.8,2.4,40.3,2.7C224.5,247.5,241.1,246.5,257.8,246z"/>
		<path class="st9" d="M234,104.1c2,0,4,0,6,0c0,2.2,2.9,3.7,1.7,6.2c-0.6-0.1-1.3-0.1-1.9-0.4c-1.9-1-3.8-1.7-5.3,0.3
			c-1.7,2.3,0.9,3.4,1.7,5c0.5,1.1,1.5,1.6,2.7,1.9c0.2,1,0.5,1.9,1.8,1.7c1-0.1,1.1-1,1.3-1.7c2.3-2.4-0.8-4.5-0.3-6.8
			c1.5,0,2.9-2.1,4.4,0.1c1.3,2,2.7,1.5,4,0.1c1.5-1.7,3.6-1.4,5.5-1.4c2.5,0,4.3-0.3,1.7-3.1c-1.3-1.4-1.6-2.6,0.9-2.9
			c1.2-0.1,1.7-0.9,1.8-2c0,0,0,0,0,0c3.5,0.7,0.5,2.9,1,4.3c0.5,1.2,0.5,3,2,3c1.5,0,0.8-1.9,1.4-2.8c1.2,0.5,1.3,1.6,1.8,2.7
			c1.4,3.5,3.4,4.7,5.9,0.8c2.5-0.4,2.7-2.4,2.9-4.4c0.2-1.5-0.3-3.4,2.1-3.6c1.9,6.9,1,13.9,0.7,20.9c-4,0.3-2.5,3.2-2.5,5.4
			c0,0.3,0,0.6-0.1,0.8c-2.4-0.6,0.2-5.7-2.9-4.3c-6,2.8-12.8,2.6-18.6,5.5c-2.9,0.4-7.8-3.5-7.5,3.6c-7.8-5-17-2.6-25.4-4.6
			c-5.6-1.4-11.1-3.5-17-4.3c-5.9-0.8-9.6-6-14.4-9.1c-2.7-1.7-6.6-1.8-7.3-5.9c0.3-0.3,1.3,0.4,1.1-0.7c-0.3,0.2-0.7,0.5-1,0.7
			c-4.6-0.4-7-3.1-7.1-8c1.3,0,2.6,0.1,3.3-1.3c1.9,2.8,4.3,4.9,7.8,5.4c0.3,1.8-0.7,3.9,1.4,6.1c0.4-4.1,2.2-4.1,5.1-3.3
			c13.1,3.3,26.2,0,39.2-1C233.3,106.8,233.9,105.6,234,104.1z M209.6,123.1c1.3-0.1,3.2-0.2,2.9-2.6c-0.4-4.1-3.9-4.6-7-5.1
			c-1.3-0.3-3.1,0.3-3.3,2.3C202.1,119.8,206.4,123.2,209.6,123.1z"/>
		<path class="st4" d="M369.7,197.2c0.6,16.4-6.6,29.1-18.9,39.2c-14.9,12.1-32.7,18-50.9,22.7c-3,0.8-6.1,1.4-10.1,2.3
			c2.5-7.3,2.1-14.3,2.1-21.3c13.6-1.9,26.4-6.3,38.9-11.8c15.3-6.7,28.9-15.5,37.6-30.5C368.6,197.4,369.2,197.4,369.7,197.2z"/>
		<path class="st7" d="M257.8,246c-16.6,0.4-33.2,1.5-49.9,1.2c-13.5-0.3-26.9-1.3-40.3-2.7c-0.8-0.1-1.6,0.3-2.4,0.4
			c-0.1-3.5,0.2-7-0.3-10.5c-0.7-5.2,1.5-6.1,6.2-5.4c24.1,3.5,48.4,3.5,72.7,2.9c4.1-0.1,9.3-1.9,12.1-0.1
			c3.1,2.1,0.6,7.7,1.4,11.8C257.4,244.4,257.6,245.2,257.8,246z"/>
		<path class="st2" d="M286.2,109.1c0.8,0.8,1,1.8,0.8,2.8c-0.8,5.3,1.6,9.4,4.8,13.3c3.4,4,0.6,13.3-5.1,17.5
			c-8.1,5.9-17.6,8-27.4,9.5c-12.6,1.9-25.2,0.6-37.7-0.2c-8.2-0.5-16.2-2.9-24.2-4.8c-8.3-2-16-5.3-23.6-8.9
			c-7.3-3.5-14.1-7.9-17.7-15.4c-2.7-5.7-0.4-11.3,4.9-14.9c11.6,23,32.7,32,56.1,37.1c15.2,3.3,30.7,3.6,46,0.5
			c17.4-3.6,23.8-12.1,23-29.9C286.2,113.4,286.2,111.3,286.2,109.1z"/>
		<path class="st10" d="M182,109.1c0.8,4.1,4.7,4.2,7.3,5.9c4.8,3,8.5,8.3,14.4,9.1c5.9,0.8,11.3,3,17,4.3
			c8.4,2.1,17.6-0.3,25.4,4.6c7.7,2.8,8.1,2.6,7.5-3.6c5.8-3,12.6-2.7,18.6-5.5c3.1-1.4,0.5,3.7,2.9,4.3c-0.6,5.5-5.5,7.2-9.3,8.5
			c-10,3.5-20.5,3.7-31,3c-6.6-0.5-13.2-1.4-19.7-2.7c-21-4.4-38.8-13.4-46.7-35.2c-2.3-6.3-3.9-13-1.6-19.9
			c0.2,0.9,0.4,1.9,0.7,2.8c2,5.6,4.1,11.2,7.2,16.3C175,106,177.5,108.7,182,109.1L182,109.1z"/>
		<path class="st4" d="M124.6,235c-0.6,5.8-1.2,11.6-1.8,17.3c-0.2,1.5-0.5,2.7-2.4,1.9c-19.9-7.8-39.1-16.5-49.5-36.8
			c-2.9-5.7-4.6-11.8-3.8-18.3c2.1,2.7,4.2,5.4,6.3,8.2c4,5.4,9.6,8.9,15.1,12.4C99.5,227.1,111.3,232.8,124.6,235z"/>
		<path class="st11" d="M174.9,101.1c-3.1-5.1-5.3-10.7-7.2-16.3c-0.3-0.9-0.5-1.9-0.7-2.8c0.4-1.6-0.4-3.6,1.3-4.9
			c4.3-0.2,8.9,2,12.6-1.9c0.2,0.2,0.5,0.3,0.9,0.3c2.2,1.7,3.8,3.4,5.1,6.3c4.5,10,13.5,14.1,23.6,17.7c7.8,2.8,15.8,3,23.6,4.6
			c-0.1,1.5-0.7,2.7-2.3,2.9c-13.1,1-26.1,4.3-39.2,1c-3-0.8-4.7-0.8-5.1,3.3c-2.1-2.3-1.1-4.3-1.4-6.1c0.5-1,0.9-2,1.4-3
			c0.6-0.2,1.4-0.4,1.2-1.2c-0.1-0.4-1-0.6-1.5-0.9c-1.3-2.8-2.9-5.5-6.5-5c-2.6,0.3-2.5,2.7-2.3,4.7
			C177.5,101.1,176.2,101.1,174.9,101.1z"/>
		<path class="st7" d="M369.7,197.2c-0.4,0.2-1.1,0.2-1.3,0.6c-8.6,14.9-22.3,23.8-37.6,30.5c-12.5,5.5-25.3,9.9-38.9,11.8
			c-0.6-3.6-1.2-7.2-1.9-10.7c-0.4-2.2,0.6-2.9,2.7-3.2c3.6-0.6,7.2-1.3,10.7-2.2c3.8-1,7.2-1.5,11.2,0.7c5.1,2.9,11.6,0.4,15.5-5.5
			c2.5-3.6,5.6-5.7,9.4-7.5c9.6-4.3,18.5-9.7,26.2-17c0.7-0.7,1.6-1.1,2.4-1.8C369.3,194.3,369.5,195.7,369.7,197.2z"/>
		<path class="st7" d="M124.6,235c-13.3-2.2-25.1-8-36.2-15.3c-5.5-3.6-11.1-7.1-15.1-12.4c-2.1-2.7-4.2-5.5-6.3-8.2
			c-0.1-5,1.8-9.3,4-14.4c5.1,5.7,10,10.7,15.7,14.9c1.8,1.4,0.7,3.7,1.2,5.6c1.2,5.1,0.5,11,7.1,13.3c4.7,1.7,9,1.6,12.1-2.7
			c2.1-2.9,4.2-3.3,7-1.4c0.8,0.5,1.8,0.8,2.7,1.2c10.4,4.2,10.4,4.2,8.6,15.3C125.1,232.4,124.9,233.7,124.6,235z"/>
		<path class="st4" d="M121.9,277c1.2,6.2,2,12.5,4.4,18.3c-1.3,1.3-2.3,0.3-3.3-0.1c-15.7-6.3-30.8-13.7-41.1-27.9
			c-5-6.8-8.4-14.3-7.9-23.1c4,3.9,6.8,8.8,11.2,12.5C96.2,265.9,108.7,272.1,121.9,277z"/>
		<path class="st4" d="M373.7,154.1c0.1,16.4-7.6,28.9-19.9,38.9c-5.1,4.2-10.8,7.6-17.7,10.8c1.2-7.8-1-14.5-1-21.4
			c10.2-3.2,18.8-9.1,27-15.8C366.6,162.9,369.3,157.7,373.7,154.1z"/>
		<path class="st12" d="M137.4,51.2c6.9,0,13.8,0.2,20.6-0.1c3.8-0.1,7.6-0.6,11.4-1.5c4.7-1.1,5.6-3.2,3.8-7.7
			c-2.6-6.5-6.4-12.4-10-18.3c2.3-1.3,3.1,0.6,4.3,1.6c3.8,3.5,7.4,7.2,11.3,10.5c5.2,4.3,9.3,3.9,13.8-1.5c4.4-5.3,6.9-11.7,9.5-18
			c0.3-0.8,0.6-1.5,1.4-3.3c1.2,5.8-0.3,10.7,0.2,15.4c0.6,4.9-1.8,6-5.6,7.4c-12.3,4.5-22.5,12-30.2,22.7c-1.1,1.5-1.5,1.6-3.6,1
			c-9-2.2-18.1-4.1-26.9-7C137.3,52,137.4,51.6,137.4,51.2z"/>
		<path class="st7" d="M373.7,154.1c-4.4,3.7-7.2,8.8-11.7,12.5c-8.2,6.7-16.8,12.6-27,15.8c-1-3.4,0.3-6.1,2.5-8.6
			c2.3-2.7,5.2-4.7,8.1-6.6c8.4-5.3,13.9-12.6,16.6-22.2c1.5-0.2,1.7-1.2,1.7-2.4c-0.2-5,1.9-4.7,4.9-2.1c0.3,0.3,0.9,0.4,1.3,0.6
			C372.5,145.1,373.6,149.5,373.7,154.1z"/>
		<path class="st7" d="M121.9,277c-13.3-4.9-25.7-11.2-36.7-20.4c-4.4-3.7-7.2-8.6-11.2-12.5c0-1.1,0-2.3,0-4.2
			c9.9,8.4,20.2,14.8,31.6,19.5c2,0.8,3.9,1.7,6,2.5C122.1,265.8,122.1,265.8,121.9,277z"/>
		<path class="st7" d="M72.9,153.2c0.1-9.6,5.2-16.8,11.9-24.8c-0.3,12.3,4.9,22.2,7,32.8c0.7,3.6,0.8,7.3,0,10.9
			C83.8,167.5,77.8,161,72.9,153.2z"/>
		<path class="st7" d="M256.3,200c-27.9,2.1-55.7,2.1-83.5-1.7c-0.8-0.1-1.7,0-2.5,0.1c4.5-8.2,8.8-10.1,17.6-7.7
			c2.7,0.7,5.5,1.4,8,2.7c14.8,7.8,30.1,6.7,45.7,3.3c2.7-0.6,5.5-1.3,8.3-1.4C253.2,195,255.8,196.2,256.3,200z"/>
		<path class="st11" d="M264.4,105.6c-0.5,0.9,0.1,2.8-1.4,2.8c-1.5,0-1.5-1.8-2-3c-0.5-1.4,2.5-3.7-1-4.3c-0.2-1.8,0.7-3,1.8-4.3
			c2.9-3.3,3.1-8.9,0.7-13c0.6-2,0.3-3.8-0.5-5.7c4.6-0.1,1.7-2.3,0.9-3.6c-2.6-4-2.4-4.5,2.4-5.5c5,7.6,8.1,15.9,9.9,24.7
			c0.1,0.4,0.2,0.8,0.3,1.2c0.5,2,1,4.1,1.5,6.1c-2.4,0.3-1.9,2.1-2.1,3.6c-0.2,1.9-0.4,3.9-2.9,4.4c0-3.9-0.8-7.3-5.9-6.9
			c-1.7-0.1-2.2,0.8-2,2.4C264.3,104.9,264.3,105.2,264.4,105.6z"/>
		<path class="st4" d="M287.9,211.9c-0.2-5.2,0.7-9.7,3.3-13.7c3.2-4.9,7.4-4.7,10.5,0.2c2.7,4.3,3,9.4,4.1,14.2
			c0.3,1.5-0.5,2.1-1.9,2.3c-4.5,1-9,2.6-13.5,2.8C285.5,217.9,289.2,213.3,287.9,211.9z"/>
		<path class="st4" d="M126.8,188.9c1.5,6,1.8,13.5,0.6,21.2c-4.4-1.7-8.6-3.4-12.9-5.2c-1.2-0.5-1.8-1.4-1.7-2.7
			c0.4-5.8-0.2-11.7,2.3-17.2C119,186.3,122.9,187.6,126.8,188.9z"/>
		<path class="st4" d="M72.9,153.2c4.9,7.7,10.9,14.3,18.9,18.9c-1,5.2-2.1,10.3-3.1,15.5C78.8,181.2,70.6,163.3,72.9,153.2z"/>
		<path class="st12" d="M137.2,90.7c9.3-7.8,16.7-15.6,24.3-23.7C161.7,79.1,153.9,86.9,137.2,90.7z"/>
		<path class="st12" d="M241.7,21.3c-3.6,5.9-7,11.6-15.5,9.9c-3.6-0.7-7.6-0.1-11.4-0.4C224,28.3,232.8,24.7,241.7,21.3z"/>
		<path class="st13" d="M355.1,302.1c-3.5-3-7.6-0.5-11.4-1.2c4.6-2.9,9.4-5.4,13.3-9.4c0.7-0.8,2.5-0.5,3.8-0.7
			c0.5,1.9,0.9,3.7,1.4,5.6C360.3,299.1,357.5,300.3,355.1,302.1z"/>
		<path class="st7" d="M362.1,296.4c-0.5-1.9-0.9-3.7-1.4-5.6c0,0,0.1,0.1,0.1,0.1c0.4-0.5,0.7-0.9,1.1-1.4c3.6-3.4,7.2-6.8,11-10.3
			c1.3,1.6,0.9,3.2,0.8,4.8C370.1,288.4,366.4,292.7,362.1,296.4z"/>
		<path class="st0" d="M209.1,407c2,0,3.9-0.1,5.9-0.1c1.7,2.7,3.1,5.7,7.1,2.9c1.4-1,2.1,0.6,2.4,1.6c0.7,2.1-0.8,2.5-2.4,2.7
			C216,415,211.6,412.7,209.1,407z"/>
		<path class="st7" d="M126.8,188.9c-3.9-1.3-7.8-2.6-11.7-3.9c0.5-2.4,1.5-4.6,4.2-4.9c2.5-0.3,3.8,1.7,5.1,3.4
			C125.6,185.1,126.3,187,126.8,188.9z"/>
		<path class="st0" d="M201.2,413.2c-1.5,0-2.5,0.1-3.4,0c-1.5-0.2-4,0.8-4.3-1.1c-0.3-2,2.1-2.6,3.9-3.1c0.9-0.2,1.9-0.4,2.9-0.2
			c2.8,0.4,7.1,0.1,7.1,3.5C207.3,414.2,203,412.5,201.2,413.2z"/>
		<path class="st13" d="M370.2,141c-0.4-0.2-1-0.3-1.3-0.6c-3-2.6-5.1-2.9-4.9,2.1c0,1.2-0.2,2.3-1.7,2.4c0.9-4.9,0.8-9.7,0-14.8
			C366.1,133.1,368.7,136.7,370.2,141z"/>
		<path class="st11" d="M207,40c-0.3,1.9,2,1.8,2.4,3.7c-2.1-2.9-6.6,6.7-7.5-2.1C203.1,39.4,205.2,40.3,207,40z"/>
		<path class="st10" d="M275.2,127.4c0-2.2-1.5-5.1,2.5-5.4C278.2,124.3,277.5,126.2,275.2,127.4z"/>
		<path class="st5" d="M206,362.3c-1.4,3.3-2.7,0.6-4-0.1C203.4,362.2,204.7,362.3,206,362.3z"/>
		<path class="st11" d="M194,45.1c-0.1,1.6-1,2.1-2.5,1.7C192,45.8,192.8,45.1,194,45.1z"/>
		<path class="st13" d="M361.9,289.6c-0.4,0.5-0.7,0.9-1.1,1.4C360.8,290.2,361.3,289.9,361.9,289.6z"/>
		<path class="st11" d="M197,43.5c-0.3,0.2-0.6,0.4-0.9,0.6C196.4,43.9,196.7,43.7,197,43.5z"/>
		<path class="st1" d="M380,370c0.4-0.3,0.9-0.5,1.3-0.8C380.9,369.5,380.5,369.7,380,370z"/>
		<path class="st14" d="M216.7,406.6c0.6-0.5,1.1-0.5,1.5,0.1C217.7,406.7,217.2,406.7,216.7,406.6z"/>
		<path class="st9" d="M275.5,95c-0.1-0.4-0.2-0.8-0.3-1.2C275.3,94.1,275.4,94.6,275.5,95z"/>
		<path class="st3" d="M136,267.3c-0.8-6.2,1.2-13,1.9-19.9c0.2-1.8,1.6-2.8,2.3-4.3c1.1-2.6,2.5-2.2,3.7,0.2
			c3.2,6.4,4.9,13.3,5.9,20.2c0.9,6,1.4,12.1,1.2,18.3c-0.1,3.4-0.5,6.6-1.7,9.7c-0.7,1.7-1.1,3.9-3.1,4.2c-2.3,0.3-4-1.4-5.2-3.3
			C136.3,284.9,135.7,276.6,136,267.3z"/>
		<path class="st3" d="M280.9,247.5c0.4,3.1-0.4,6-1.5,8.8c-1.3,3.3-4.3,4-6.3,1.2c-2.8-3.9-5-8-4.4-13.2c0.5-4.4,0.6-9,0.2-13.4
			c-0.3-3.3,1.3-5.9,2.5-8.4c1.1-2.4,3.2-2.1,4.8,0.5c2.9,5.1,2.7,10.8,3.8,16.3C280.5,242,281.5,244.7,280.9,247.5z"/>
		<path class="st3" d="M316.1,198.1c0.2-1.4,0.5-4.1,1-6.9c0.6-3.1,2.9-2.5,4.5-1.3c2.7,2,4.2,11,2.8,14.5c-0.8,2-1.5,4.1-4.5,3.7
			c-2.7-0.4-3.3-2.5-3.8-4.6C315.8,202.2,316.1,200.8,316.1,198.1z"/>
		<path class="st11" d="M260,101.1c-0.1,1.1-0.6,1.8-1.8,2c-2.5,0.3-2.2,1.5-0.9,2.9c2.6,2.8,0.7,3.1-1.7,3.1c-1.9,0-4-0.3-5.5,1.4
			c-1.3,1.5-2.7,1.9-4-0.1c-1.4-2.2-2.9,0-4.4-0.1l0.1-0.2l-0.2,0.2c1.2-2.6-1.7-4-1.7-6.2C246.7,103.1,253.3,102.1,260,101.1z"/>
		<path class="st0" d="M212.5,85.8c-0.2,1.3-0.6,2.7-2.5,2.9c-2.7,0.2-6.9-3.9-6.9-6.7c0-2,0.8-3.1,3-3
			C209,79.2,212.5,82.6,212.5,85.8z"/>
		<path class="st0" d="M235,81.1c2.8,0.9,5.1,2.6,5.4,6c0.2,1.7-0.9,2.8-2.8,2.7c-2.7-0.1-6.4-3.9-6.1-6.4
			C231.7,81.5,233,81.1,235,81.1z"/>
		<path class="st0" d="M181.7,75.5c-0.3,0-0.6-0.1-0.9-0.3c-0.5-0.8-1.3-1.6-1.5-2.5c-0.5-2.1-3-4.9,0.8-6.1c3.2-1.1,4.1,1.9,5,4.2
			C186.2,73.8,184.8,75.3,181.7,75.5z"/>
		<path class="st0" d="M212,52.4c0.2,2.5-0.6,3.6-2.6,3.3c-3.2-0.4-5.2-2.2-5.7-5.3c-0.4-2.2,1.5-2.3,3-2.3
			C209.9,48.2,211.2,50.3,212,52.4z"/>
		<path class="st0" d="M241.3,57.1c-0.6,1.5-1.4,2.8-3.2,2.7c-2.4,0-6.2-4-5.8-6c0.3-1.7,1.6-2,3-1.8
			C238.2,52.6,240.5,54,241.3,57.1z"/>
		<path class="st0" d="M262,78.1c0.8,1.8,1.1,3.7,0.5,5.7c-2.4,1.8-3.9,0.4-5.3-1.4c-1.5-1.9-1.8-4.4-0.5-5.9
			C259.1,73.5,260.5,76.6,262,78.1z"/>
		<path class="st11" d="M176.6,65.8c-0.1,0.3-0.2,0.7-0.4,0.8c-0.2,0.1-0.7-0.1-0.8-0.3c-0.1-0.2,0.2-0.5,0.3-0.8
			C176.1,65.6,176.3,65.7,176.6,65.8z"/>
		<path class="st5" d="M236.7,367.5c0.3,0.1,0.6,0.2,0.8,0.4c-0.1,0.3-0.2,0.7-0.4,0.8c-0.2,0.1-0.5-0.2-0.8-0.3
			C236.5,368.1,236.6,367.8,236.7,367.5z"/>
		<path class="st0" d="M178.2,99.7c-0.1-2-0.3-4.3,2.3-4.7c3.6-0.5,5.1,2.3,6.5,5c0.1,0.7,0.2,1.4,0.3,2c-0.5,1-0.9,2-1.4,3
			C182.5,104.6,180.1,102.5,178.2,99.7z"/>
		<path class="st0" d="M209.6,123.1c-3.2,0.1-7.5-3.3-7.3-5.4c0.2-2,2-2.6,3.3-2.3c3,0.6,6.5,1.1,7,5.1
			C212.8,123,210.9,123,209.6,123.1z"/>
		<path class="st0" d="M241.8,110.4c-0.6,2.3,2.6,4.4,0.3,6.8c-1,0-2.1,0-3.1,0.1c-1.2-0.2-2.2-0.8-2.7-1.9c-0.8-1.6-3.4-2.8-1.7-5
			c1.5-2,3.4-1.3,5.3-0.3C240.4,110.2,241.1,110.2,241.8,110.4c-0.1,0,0.1-0.2,0.1-0.2L241.8,110.4z"/>
		<path class="st0" d="M264.4,105.6c0-0.3-0.1-0.7-0.1-1c1.2-0.3,1.7-1.2,2-2.4c5.1-0.4,5.9,3,5.9,6.9c-2.5,3.9-4.5,2.7-5.9-0.8
			C265.7,107.2,265.6,106.1,264.4,105.6z"/>
		<path class="st0" d="M253.6,129.4c0.6,6.2,0.2,6.4-7.5,3.6C245.8,125.9,250.7,129.8,253.6,129.4z"/>
		<path class="st10" d="M238.9,117.2c1,0,2.1,0,3.1-0.1c-0.2,0.8-0.3,1.6-1.3,1.7C239.5,119.1,239.2,118.2,238.9,117.2z"/>
		<path class="st10" d="M182,109.1c0.3-0.2,0.7-0.5,1-0.7C183.3,109.5,182.3,108.8,182,109.1C182,109.1,182,109.1,182,109.1z"/>
		<path class="st9" d="M187.4,102.1c-0.1-0.7-0.2-1.4-0.3-2c0.5,0.3,1.3,0.5,1.5,0.9C188.8,101.7,188,102,187.4,102.1z"/>
		<path class="st9" d="M266.2,102.2c-0.2,1.2-0.8,2.1-2,2.4C263.9,103,264.5,102.1,266.2,102.2z"/>
	</g>
</g>
</svg>
