<?xml version="1.0" encoding="utf-8"?>
<!-- Generator: Adobe Illustrator 19.2.1, SVG Export Plug-In . SVG Version: 6.00 Build 0)  -->
<svg version="1.1" id="Layer_1" xmlns="http://www.w3.org/2000/svg" xmlns:xlink="http://www.w3.org/1999/xlink" x="0px" y="0px"
	 viewBox="0 0 442.9 415.9" style="enable-background:new 0 0 442.9 415.9;" xml:space="preserve">
<style type="text/css">
	.st0{fill:#5B2E1D;}
	.st1{fill:#96776B;}
	.st2{fill:#FCFBFA;}
	.st3{fill:#C4CFC5;}
	.st4{fill:#D9DAD8;}
	.st5{fill:#FCE2B1;}
	.st6{fill:#F3CA7B;}
	.st7{fill:#56A549;}
	.st8{fill:#BE5127;}
	.st9{fill:#D67729;}
	.st10{fill:#F5E049;}
	.st11{fill:#F0E5B6;}
	.st12{fill:#D22E28;}
	.st13{fill:#EFA826;}
	.st14{fill:#83BA42;}
	.st15{fill:#FAEA8D;}
</style>
<g id="wTyOY6.tif">
	<g>
		<path class="st0" d="M442.9,208.7c-2.1,1-1,2.9-1.2,4.4c-2.8,32.3-10.8,63.2-26,92c-14.3,27.2-33.7,49.8-60.6,65.3
			c-1.2,0.7-2.2,1.5-3,2.6c-16.5,22.9-39.5,35.5-66.6,40.1c-31,5.3-61.7,3.4-91.5-7.5c-18.3-6.7-33.4-17.7-44.1-34.2
			c-1.6-2.5-4.3-3.6-6.7-5c-19.6-11.5-35.7-26.8-48.1-45.7c-15.8-24.1-25.2-50.7-30.1-79c-2.3-13.4-3.7-27-4.8-41.4
			c-8.7,5.2-16.7,10-24.8,14.8c-4.4,2.6-8.8,5.3-13.3,7.8c-6.3,3.6-11.2,2.1-13.7-4.6c-1.1-2.8-2.5-4.7-4.7-6.6
			c-5.4-4.9-4.6-12.5,1.3-16.5c17.4-11.8,34.7-23.6,52.1-35.2c3.2-2.1,5-4.7,6.2-8.4c6-20.1,18.4-35.9,33.9-49.6
			c27.8-24.6,61.1-37.8,96.9-45.1c7.2-1.5,14.5-2.3,21.7-3.3c3.3-0.4,6.3-1.4,9.2-3.4c23.8-15.9,47.8-31.5,71.5-47.5
			c5.2-3.5,9.8-3.8,14.7-0.5c7,4.7,13.7,9.7,21.2,13.6c2,1,3.5,3.1,4.9,4.9c5.7,7.6,4.7,12.1-3.3,17.1c-9.6,5.9-19.1,11.9-29.6,18.4
			c13.6,2.9,26,6.1,38.1,10.7c31.7,12,59.8,28.9,80.3,56.7c11.6,15.7,17.5,33.4,19.2,52.7c0.1,1.5-1,3.4,1.1,4.4c0,1,0,2,0,3
			c-1.8,0.6-1.2,2.2-1.1,3.3c0.7,5.9-1.4,11.9,1.1,17.7C442.9,206,442.9,207.4,442.9,208.7z M371.1,248.8L371.1,248.8
			c3.7-1.1,6.3-3.6,8-7.1l-0.1,0.1c7.6-5.5,8.1-14.5,0.7-19.8c-11.2-8.1-23.3-8.4-35.7-3c-7.8,2.9-14,8.2-19.8,14
			c-1.3,1.3-1.9,2.3,0.6,3c4.5,1.3,8.4,3.9,12.4,6.1c1.6,2.3,3.2,4.6,4.8,6.9c0.8,3.3,2.4,6.5,2,10.1c-0.2,2.2,1,2.6,2.8,1.9
			c6.9-2.7,14-4.8,20.1-9.1C368.7,251.3,370.5,250.8,371.1,248.8z M354,106.6c-0.6-1.6-1.6-3-3-3.9c-7.8-8.5-19.4-10.5-31.1-4.9
			c-7.6,3.6-13.3,9.1-14.9,17.9c-0.1,0.7-0.1,1.3-0.2,2l0,0c-1.4,2.7-0.9,5.5-0.3,8.3c2.4,10.6,12.8,18.6,25.4,19.7
			c7.2,0.6,13.8,0.5,18-7.1c1.6-3,4.7-5.2,7.8-6.8c3.4-1.7,4.3-4.4,3.9-7.8c-0.4-3.4-0.5-7-2-10.2
			C356.8,111.2,356.2,108.5,354,106.6z M170.9,222.7c-0.5,2.1,2,3,2,4.9c-1.7,0.6-3.1-0.7-4.6-1.1c-3.4-0.9-5.3,0.1-6.3,3.3
			c-1.4,1.7-2.7,3.3-4.1,5c-3,3.4-2.4,7.1-1,10.9c1.1,3,4.1,4.6,5.3,7.5c-4.2-1.2-6.6-5.2-10.6-6.7c0-1.5-1-3.4-1.8-3
			c-3.9,1.8-6.7-2.2-10.3-1.4c-4.8-0.7-8-4.5-12.2-6.3c-12.5-5.3-17.8-16.3-22.7-27.7c-3.4-8-2.9-16.1,0.1-24.2
			c1.6-4.1,4.2-7.7,5.2-12.6c-4.4,2.7-8.8,5.5-13.2,8.2c-4,2-9.6,2.9-10.6,7.9c-3.1,15.7-0.6,30.6,7.3,44.7
			c7.6,13.6,19.9,22,32.6,29.9c-0.3,3.7-1.3,7.7,3.3,9.9c2.2,1,4.2-0.3,6.3-0.3c1.3,0,2.9-0.2,3.1,1.5c0.2,1.3-0.7,2.3-2,2.3
			c-3,0-2.9,2-2.9,4.1c-5.9-2.5-10.5-7.5-16.9-9.1c-5.3-4-10.6-7.9-15.8-12c-10-8-18.6-17.4-26.1-27.8c2.9,21.2,8.1,41.7,17,61.1
			c0,1,0,1.9,0.1,2.9c-2.6,3.1-1.6,6.4,0.4,9.1c3.3,4.4,7,8.5,10.5,12.7c0.8,1,1.8,1.5,3.1,1.1c0.3,0.1,0.5,0.2,0.8,0.2
			c7.1,10.5,15.7,19.8,25.5,27.7c21.9,17.8,47.3,27.7,74.6,33.3c16.5,3.4,33.1,5.2,49.9,4.5c1.6-0.1,3.3-0.1,4.9-0.2
			c0.4,0,0.8-0.1,1.2-0.1c6.5,0.3,12.9-0.5,19.4-1.2c25.1-2.8,48.7-9.9,70.4-23.1c33.3-20.2,53.1-50.8,65.9-86.6
			c4.7-13.1,8.2-26.4,10.1-40.2c1.4-2.7,0.8-5.5,0.5-8.4c-1.2,2.3-2.5,4.5-3.7,6.8c-1.3,1.6-2.1,3.9-3.3,5.2
			c-9.1,9.8-18.1,19.8-29.2,27.6c-38.2,26.8-81.2,39-127.2,41.6c-39.8,2.3-78.7-2.9-116.1-17.4c-4-1.8-8-3.7-12-5.5
			c-0.3-1.2,0.4-1.7,1.4-2.1c3.2-1.5,4.8-4.1,4.7-7.7c0.9,0.1,1.7,0.2,2.6,0.2c0.6,0.5,1.1,1.3,1.8,1.6c7.4,2.9,14.7,6,22.3,8.4
			c28.1,8.6,56.8,13,86.3,12c11.1-0.4,22.3-1,33.2-2.6c29.5-4.6,57.3-14.2,83.4-28.5c10.1-5.5,19.4-12.4,26.7-21.4
			c11.9-14.7,14.9-31.9,13.2-50.2c-0.2-2.7,0.1-6-3.3-8.7c-0.3,4.5-4.1,6.2-5.5,9.7c-7.3,4.9-14.8,9.9-24,9.9
			c-4.7,0-4.9,2.8-5.8,6.1c-1,3.8,1.8,4,3.8,5.2c10,5.6,13.4,11.5,12.2,20.6c-0.4,3.3-2.6,5.7-3.5,8.7c-0.8,0.6-1.7,1.1-2.3,1.8
			c-7.6,9.8-17.7,15.9-28.9,20.5c-9.2,3.7-18.9,6-26.9,12.3c-1.6,1.3-3.9,1.7-5.9,2.5c-18.5,6.8-37.9,7.9-57.3,9.2
			c-17.7,1.2-35.1,0.6-52.1-5.2c-4.7-8.2,4.5-8.4,7.6-12.8c-16.8-1-32.8-3.8-47.9-10.2c0-0.3,0-0.6-0.1-0.9c0.6-1.8-1-2.6-1.9-3.7
			c-3.6-4.2-3.6-4.2,2.1-5.6c15.8,8.1,32.8,11.4,50.2,12.9c2.8,0.2,7.2,1.8,8.1-0.7c0.8-2.2-2.8-5.2-5.4-7.1
			c-11.7-12.2-26.1-19.7-42.1-24.7c-2.3-1.2-4.7-2.3-7-3.5l0.1-0.4c0.3-1.4,0.7-2.8,1-4.2c7.2,1,13.8,4,20.7,6l0.1-0.1
			c0.4,0.9,1.2,0.8,2,1c13,6.4,25.3,13.8,34.7,25.2c0.8,1.1,1.7,2.1,2.3,3.2c2.1,4.5,5.1,4.6,9.3,2.6c5.1-2.4,10-5.1,15-7.8
			c2.8-1.6,2.6-3,0.1-4.6c-1.7-1.8-3.3-3.6-5.1-5.4c-3.4-3.3-6.7-5.9-12.3-5.9c-7.8,0-14.7-4.8-17.7-11.8c-1.9-4.5-4.8-5.8-8.1-7.4
			c-1.9-1-3.9-1.7-5.9-2.5c0-0.2-0.1-0.5-0.2-0.7c1.2-1.9,1.2-4,1.1-6.1c6.4,2,12.3,5,18.1,8.2c2.2,1.2,4.1,1.6,6.5,0.9
			c9.5-2.6,18,0,26,5.3c3.7,2.4,4.1,3.8-0.1,6.3c-6.7,4-6.6,4.3-1.1,9.5c1.7,1.6,3.4,3.2,4.8,5.1c2,2.5,3.9,3,6.6,1
			c3.4-2.4,6.9-4.6,10.7-6.4c5.1-2.5,5.2-2.3,1.3-6.6c-11.5-12.3-25.3-21.5-40.6-28.4c-4.6-2.1-9.3-4-14-6c3.2,0,5.8-0.9,6.9-4.2
			c0.6-0.4,1.3-0.7,1.9-1.1c11.8-2.1,20.9-9.2,29.8-16.4c8-6.4,16.5-11.5,25.9-15.4c7.4-3.1,15.3-4.5,23.3-5.5
			c-5.8-1.6-11-5.1-17.2-4.4c-12,1.4-23.5,4.3-33.8,11c-5.6,3.6-11,7.4-16.5,11.1c-2.3-2.2-5.2-0.9-7.7-1.3c0.4-1.9,2.1-2.4,3.3-3.5
			c0.4-0.3,1.3-0.8,0.2-1.2c-0.4-0.2-1,0.1-1.4,0.2c-0.8-2.3-2-4.4-4.9-3c-2.7,1.2-6.2,2.2-4.9,6.5c-0.3,0.2-0.6,0.4-0.9,0.6
			c-7.4,1.8-14.8,3.8-22.6,1.8c-1.3-0.3-2.3,0.3-3.1,1.1c-2.7,2.2-5.4,4.5-8,6.7c-0.7,0.6-1.9,1.1-1.3,2.4c0.5,1.1,1.8,0.7,2.7,0.7
			c5.5-0.3,10.9-0.7,16.4-1c-0.3,4.4-0.6,8.7,2.2,12.6c-2.8-0.6-5.6-1.1-8.4-1.7c-0.1-0.2-0.3-0.5-0.5-0.7c0.6-1.7,4.4-4.5,0.4-4.7
			c-3.4-0.2-5.6-1.6-8.3-3.1c-1.1,2.2-2.2,4.2-0.6,6.5c-3.1-0.3-6.2-0.5-9.3-1c-3.9-0.6-6.7,0.9-9,3.9c-2.3,3-2.4,4.8,1.9,5.5
			c2.3,0.4,4.4,1.3,6.6,1.9c-1,2-2,4-3,6.1c-2.6-0.5-5.2-1-7.8-1.6c-6.6-1.4-10.4,0.7-13.1,7.5c-0.4,0.4-0.8,0.8-1.2,1.2
			c-2.3-2.1-4.7-3.3-7.6-1c5.8-9.8,13.9-17.7,21.4-26.1c5.7-6.4,12.9-11.5,19.4-17.2c1-0.9,2.8-1.5,1.2-3.5
			c-1.4-1.8-2.6-1.4-4.3-0.6c-3.9,1.9-7.7,4.3-11.8,5.3c-14.2,3.4-21.8,14.9-31,24.4c-1,1-1.7,2.3,0.3,3.1c4.2,1.6,3.5,4,1.6,7
			c-1.9,2.9-3.5,6.1-4.9,9.2c-1.6,3.4-4.1,5.1-7.5,3.9c-6.2-2.2-7.2,1.9-8.6,6.1c-3.1,5-2.8,6.1,2.4,8.5c7.5,3.5,8.8,3.1,12.8-4.1
			c0.4-0.7,0.7-1.5,1-2.2c2.6-4.2,5.2-8.5,7.7-12.7C165.6,217.7,167,221.6,170.9,222.7C171,222.7,170.9,222.7,170.9,222.7z
			 M233.7,99.5c-0.5,0.2-1.6,0.7-0.9,1c5.4,2.6,10.5,7.7,17,2.1c1.3-1.1,3.3-1.4,5-2.1c6-1.8,12.1-3.5,18.6-5.4
			c-9.4-1.4-18.3-1.4-27.2-1.4C241,93.6,237.1,96,233.7,99.5z M166,139.8l0.2,0.1c-2.3-0.5-4,0.5-4.9,2.4c-1.8,3.7-3.8,7.4-5,11.3
			c-3.3,10.9,0.1,15.4,11.5,14.9c11.3-0.5,21.5-4.9,31.6-9.5c2.1-1,2.6-2.3,1.7-4.4c3.5-11.3,8-22,17.1-30.1
			c4.4-4,8.8-7.9,13.2-11.9c1.6-0.5,3.4-0.8,3.5-2.9c0.2-2.1-1.7-2.7-3.1-3.4c-5.2-2.8-9.6-1.9-14.7,2.9
			c-10.8,5.2-20.7,11.9-31.1,17.9c-6.3,3.7-13,6.7-18.6,11.5C166.9,139,166.4,139.4,166,139.8z M117.7,198.6
			c7.3-11.5,17-20.7,27.5-29.2c1.3-1.1,3.3-1.7,2.9-4.2c-0.6-4.6,0-9.2,1.7-14.3c-9.7,5.1-18.1,10.7-25.4,17.7
			c-4.3,4.2-7.8,9-9.6,14.9c-3.6,7.1-3.9,14.2-1.1,22.8C115.5,203,116.6,200.8,117.7,198.6z M233,393.1c-19.5-2-38.8-5.4-57.6-11.2
			c21.5,16.4,46.1,22.6,72.6,22.6c26.1,1.1,50.8-3,72.9-17.7c-2.9,0.1-5.8-0.1-8.7,0.7c-10.8,2.8-21.8,4.5-32.9,5.5
			C263.9,394.3,248.5,394,233,393.1z M120.6,209.5c-3.3,6.3-1.8,10.4,5,15.1c3.8,2.6,5.9,2.2,6.6-2.6c1.3-1.9,3.3-3.6,2.8-6.1
			c-1.9-10.9,1.9-16.9,12.5-19.3c0.6-0.1,1.5-0.2,1.9-0.6c5.2-6.6,11.2-12.5,17.2-18.9c-3-0.6-5.5-0.3-7.1-1.5
			c-8.5-5.9-13.3,0-18.3,5.4c-1,1.1-2.2,2.1-3.2,3.2C131,191.8,124,199.4,120.6,209.5z M423.4,200.5c-0.5,1.1-0.5,2.2-0.1,3.4
			c-0.1,1.6-0.1,3.2-0.2,4.7c-0.3,0.9-0.6,2.5,0.2,2.6c1.4,0.2,1.6-1.3,1.6-2.5c5.6-13.4,8.6-27.2,6.5-41.8
			c-4.6-31.1-23-52.8-48.1-69.9c-0.1-0.3-0.3-0.4-0.6-0.4c-0.3-0.2-0.5-0.4-0.8-0.7c-0.9-0.7-1.8-1.5-2.7-2.1
			c-25.2-16.5-53.2-25.4-82.5-31c-2.4-0.5-4.1,0.5-6,1.6c-10.4,6.3-20.8,12.5-31.2,18.8c-0.9,0.5-2.5,0.5-2,2.3
			c17.2,0.7,34.2,2.7,50.9,6.6c1.9,0.4,3.5,0.4,5.2-0.7c18-11.7,46.6-1.3,54,21.4c0.9,2.8,2.6,4.3,4.7,6.1c7.3,6,15.9,9.4,24.5,12.8
			c8.7,6.1,15.7,13.7,17.3,24.4c1.4,9.1,4.9,17.4,7,26.3c0.9,4,1.7,8.1,1.9,12.2c0.1,1.1,0.1,2.1,0.2,3.2
			C423.3,198.7,423.3,199.6,423.4,200.5z M5.8,202.8c0.8,4.3,3.2,3.4,5.8,1.8c6.9-4.3,13.8-8.7,20.7-13
			c57.1-35.7,114.4-71.3,171.4-107.3c35.3-22.3,69.4-46.5,105.3-68c4.7-2.8,4.7-2.9-0.1-6.2c-2.7-2.2-5.2-2-8.1,0
			c-4.2,3-8.7,5.4-13,8.3c-57.9,39.3-117.4,76.1-176.2,113.9c-34.2,22-68.4,44.1-102.6,66.2C7.6,199.4,4.5,199.6,5.8,202.8z
			 M330.3,268.1c1.2,0.5,1.9-0.3,2.6-0.9c7.4-6.9,4.2-18.8-6.4-23.3c-7.8-3.3-16.1-3.9-24.5-3.1c-7.1,0.4-13.5,2.7-19.5,6.6
			c-10.9,6.9-21.6,14.3-33.3,20c-6.4,3.1-13.6,4.4-19.6,8.4c-1.3,0.4-2.6,0.6-3.8,1.2c-1.4,0.7-3.8,0.5-3.6,2.6
			c0.2,1.6,2.3,1.5,3.8,1.8c0.6,0.1,1.3,0.1,2,0.2c27.8,2.5,55.6,3.2,82.9-4C317.9,275.6,325,273.5,330.3,268.1z M14.1,216.8
			c1.1,2.8,2.6,3.4,5.2,1.4c2.5-1.9,5.4-3.3,8.1-5c66.8-40.5,133.6-81.1,200.4-121.6c33-20,66-39.9,99-59.9c5.8-3.5,5.8-4.1,1-8.9
			c-0.8-0.8-1.3-2.1-2.7-1.9c-3.7-4.5-6.8-0.9-9.8,0.9c-28.2,17-54.7,36.6-82.6,54.1c-51.4,32.2-102.7,64.6-154,97
			c-20.7,13-41.2,26.2-61.7,39.5C15.4,213.2,12,213.5,14.1,216.8z M297.7,107.8c1.6-1.1,3.2-2.4,2.5-4.4c-0.5-1.6-2.7-0.8-4-1.3
			c-1.1-0.4-2.3-0.3-3.5-0.4c-20.9-1-39.7,5.7-56.9,16.8c-10.7,6.9-20,15.5-25.8,27.1c-4.9,9.8,1.5,19.8,12.5,20.1
			c7.7,0.2,15-1.7,21.8-4.5c17-7,31.5-18.2,46.5-28.7c2.9-2,3.8-4.4,2.7-7.7C293.9,119,296.1,113.5,297.7,107.8z M74.1,147.7
			c43.3-28.3,86.4-56.9,130.1-84.7c-2.3,0-4.5,0.3-6.5,0.7c-38.8,8.2-74.1,23.2-102.7,51.7C85.7,124.6,78.4,135.1,74.1,147.7z
			 M377.7,134.6c-16.8-0.1-30.8,13.9-30.9,30.7c0,15.8,12.3,27.4,28.8,27.1c16.5-0.2,30.1-12.6,30-27.3
			C405.5,149.3,392.1,134.6,377.7,134.6z M336.9,168.4c0-5.6,0-5.5-4.9-6.6c-14.4-3.3-27.2,1-39.4,8.2c-2.6,1.5-1.7,2.5,0.1,3.9
			c3.5,2.7,6.3,6,7.6,10.3c1.1,3.9,2.8,2.9,5.3,1.5c8.6-5,17.5-9.7,27.3-11.9C336.3,172.9,337.7,171.4,336.9,168.4z M317.7,208.1
			c0-4.1-1.2-9-2.8-12.4c-3.1-6.4-3.4-6.5-9.4-3.1c-1.6,0.9-3.1,2-4.8,2.6c-2.9,1.1-2.9,2.6-1.8,5.3c3.4,7.7,2.3,15.4-3.4,21.2
			c-3.9,4-3.4,6.1,0.3,9c0.8,0.6,1.4,1.4,2,2.2c1.7,2.1,3.6,2.2,5.6,0.5C311.6,226.6,317,218.2,317.7,208.1z M316.3,187.1
			c11.3,14.8,9.1,29.1-1.2,43.1c1.1,0.7,1.7,0.4,2.2-0.1c5.2-6,11.4-10.6,18.6-13.9c0.7-0.3,1.5-0.9,1.9-1.5
			c4.7-7.8,2.1-25.5-4.5-32c-1.2-1.1-2.2-1.8-3.9-1.2C324.8,183,320.5,184.5,316.3,187.1z M287.4,195.2c-6.7-1.5-12-3.3-14.6-9.2
			c-0.7-1.6-1.7-1.1-2.8-0.4c-5.9,4-12.1,7.7-18.9,10.1c-2,0.7-1.9,2.1-0.4,2.8c4,1.8,7.5,4.9,12.5,4.4
			C271.5,201.8,279.1,199.4,287.4,195.2z M269.1,208.1c5.5,4.1,10.5,7.9,15.4,11.7c1.6,1.3,2.8,0.5,4-0.3c4.6-3.1,6.8-11.8,4.1-16.6
			c-0.8-1.4-1.5-2.4-3.5-1.4C283,204.5,276.4,206.5,269.1,208.1z M282.9,175.4c-2.1,0.2-4.3,0.8-5.4,3.2c-1.2,2.7,0,4.9,1.6,6.7
			c4.1,4.5,10,4.7,15.4,6c1.2,0.3,1.7-0.5,1.8-1.7C296.9,184.4,288.7,175.4,282.9,175.4z M342.1,186.7c3.4,5.9,4.7,12.1,4.3,18.6
			c-0.4,6.4-0.4,6.5,5.8,4.5c1.8-0.5,4.4,0.3,4.3-3.4C356.3,197.7,351.1,190.3,342.1,186.7z M260.1,226.6
			c-7.4-5.5-15.2-4.9-23.2-2.5c-3.1,0.9-3.3,2.1-0.6,4.2C243.3,233.7,251.1,233.3,260.1,226.6z M147,214.6c3.2,0.4,7.3-4.9,7.7-9.7
			c0.3-3.2-2.6-2.9-4.5-3.2c-5.7-0.9-11,2.8-10.8,8.1C139.7,214.5,144.9,212.8,147,214.6z M75.7,207.6c0-5.2,0-10.5,0-16.5
			c-1.9,2.1-5.6,1.6-4.8,5.3C71.7,200.3,72.9,204.2,75.7,207.6z M96.8,313.2c-0.3-1.4-1.1-2.7-2.6-2.8c-0.8-0.1-1.2,1.1-1.1,1.9
			c0.2,1.5,0.7,3.1,2.4,3.2C96.6,315.6,96.8,314.3,96.8,313.2z"/>
		<path class="st1" d="M442.9,204.7c-2.5-5.7-0.4-11.8-1.1-17.7c-0.1-1.1-0.7-2.7,1.1-3.3C442.9,190.7,442.9,197.7,442.9,204.7z"/>
		<path class="st2" d="M150,287.2c37.4,14.5,76.3,19.6,116.1,17.4c46-2.6,89-14.8,127.2-41.6c11.1-7.8,20-17.8,29.2-27.6
			c1.2-1.3,2-3.6,3.3-5.2c1.2,2.3,1.2,2.3,2.1,0.9c0.3-0.4-0.3-1.5,0.7-1c0.3,0.1,0.3,1.2,0.4,1.8c-1.9,13.8-5.4,27.2-10.1,40.2
			c-12.9,35.8-32.6,66.4-65.9,86.6c-21.7,13.2-45.3,20.3-70.4,23.1c-6.4,0.7-12.9,1.6-19.4,1.2c-0.4,0-0.8,0.1-1.2,0.1
			c-1.6,0.1-3.3,0.1-4.9,0.2c-1.3-2.2-3.6-2.2-5.6-2.5c-17.1-2.7-33.4-8.1-49.1-15.1c-23-10.2-42.3-25.6-57.4-45.9
			c0.2-1.5-0.6-3.8,1.9-3.9c3.7-0.1,3.1-2.6,3.1-4.8c0-5.3,0.1-10.5,0-15.8C149.9,292.5,152.9,289.9,150,287.2z"/>
		<path class="st3" d="M144.9,319.7c15.1,20.3,34.5,35.7,57.4,45.9c15.6,7,32,12.4,49.1,15.1c2,0.3,4.3,0.4,5.6,2.5
			c-16.8,0.8-33.5-1.1-49.9-4.5c-27.3-5.6-52.8-15.5-74.6-33.3c-9.8-8-18.4-17.2-25.5-27.7c1.6-1.6,2.5-2.9,0-4.7
			c-3.1-2.2-4.6-4.5,0.4-6.7c2.5-1.1,4.4-3.5,5.3-6.3c1.3-4.3,4.7-6.3,8.7-7.5c6.3-1.9,7.9,1.8,9.8,6.3
			C134.6,306.5,139.3,313.4,144.9,319.7z"/>
		<path class="st4" d="M396.9,131.8c-8.6-3.4-17.2-6.9-24.5-12.8c-2.1-1.7-3.8-3.3-4.7-6.1c-7.4-22.7-36-33.2-54-21.4
			c-1.7,1.1-3.2,1.1-5.2,0.7c-16.7-3.9-33.7-5.9-50.9-6.6c-0.5-1.8,1.1-1.8,2-2.3c10.4-6.3,20.8-12.6,31.2-18.8
			c1.9-1.1,3.6-2.1,6-1.6c29.3,5.6,57.3,14.5,82.5,31c1,0.6,1.8,1.4,2.7,2.1c0.3,0.2,0.5,0.4,0.8,0.7c0.3,0,0.5,0.1,0.6,0.4
			c-0.6,2.2,0.6,4,1.7,5.5c2.8,3.9,4.7,8.3,6.3,12.8C393.2,120.8,396.3,125.9,396.9,131.8z"/>
		<path class="st5" d="M297.7,107.8c-1.7,5.6-3.8,11.1-4.3,17.1c-3.5,2.3-7,4.6-10.5,6.9c-0.5-2.4-1.7-2.8-3.2-0.8
			c-1.3,1.8-3.1,1.6-4.9,1.6c-0.5-0.7-1.1-1.1-1.9-0.8c-0.1,0-0.2,0.2-0.3,0.4c0.7,0.1,1.4,0.3,2.2,0.4c-0.2,1-0.3,1.9-1.8,1.6
			c-1-0.3-2.1-1.8-3-0.4c-1.2,1.9,1.1,2.1,1.9,3.2c0.4,0.5,0.6,1.1,0.9,1.7c-7.2,5.3-14.5,10.7-22.9,14.1c-0.2-0.5-0.3-0.9-0.4-1.4
			c-0.3-1.2,3.4-0.8,1.1-2.5c-1.2-0.9-2.4,0.2-3.3,1.3c-1.2,1.6-1.2,1.6,2.6,2.5c-5.8,3.8-12.4,5.5-19.2,6.5
			c-5.3,0.8-10.6-0.1-13.9-4.8c-3.4-4.8-1-9.5,1.4-14c0.6-1.2,1.4-2.3,2.2-3.3c12.2-16.6,29.3-25.2,48.8-29.5
			C278.7,105.7,288.3,103.5,297.7,107.8z M269.3,113.5c-1.9-0.7-3.9-1.4-6.5,0.3C265.5,115.1,267.4,114.9,269.3,113.5z"/>
		<path class="st6" d="M325,20.8c1.5-0.2,1.9,1.1,2.7,1.9c4.8,4.8,4.8,5.4-1,8.9c-33,20-66,39.9-99,59.9
			c-66.8,40.5-133.6,81-200.4,121.6c-2.7,1.6-5.6,3-8.1,5c-2.6,2-4.1,1.5-5.2-1.4c13.8-8.5,27.6-16.9,41.3-25.6
			c12.5-7.9,24.8-16,37.4-23.8c12.6-7.9,25.7-15,38-23.4c14.4-9.7,29.4-18.5,43.9-28c21.6-14.2,43.8-27.5,65.7-41.3
			c12-7.6,23.9-15.4,36-22.9C292.7,41.8,309.2,32,325,20.8z"/>
		<path class="st7" d="M229.6,275.6c6-4,13.2-5.2,19.6-8.4c11.7-5.7,22.3-13,33.3-20c6-3.8,12.4-6.1,19.5-6.6c1,1.2,2.4,1,3.7,0.9
			c6.2-0.3,11.8,1.7,17.1,4.6c7.6,4.1,14.3,10.3,7.5,21.9c-5.3,5.4-12.4,7.5-19.4,9.3c-27.3,7.2-55.1,6.5-82.9,4
			c9.5-2.7,19.3-3.8,28.9-5.9c1.7-0.4,3.3-0.7,5-1.1c1.7,0,3.4,0,5.1,0c2.2,0.4,4.3,0.8,7,0.1c-1.3-1.7-2.6-1.8-4.1-1.6
			c-1.8-2.5,0.6-1.8,1.5-1.8c4.9-0.2,9.7-0.2,14.6-0.3c0.5,0.6,1.1,0.7,1.8,0.2c1.1,0.1,2.1,0.3,3.2,0.4c4.4,0.8,8.9,1.5,13.3,2.3
			c-4.2-2.3-8.6-3.7-13.3-3.9c-2.3-0.6-4.6-1.1-7.4-1.8c2.2-2.3,5.6-1.2,7-3.9c-2.9-1.1-5.4,1.7-8.3,0.4c3.2-3.4,7.5-5.2,9.4-9.5
			c-5.6,4.2-11.8,7.2-17.8,10.8c-0.9-0.1-2,0.4-2.7-0.7c3.2-3.3,7.3-6,8.2-11.1c-5,6-11.1,10.6-17.6,14.7
			C251.4,272.3,240.7,274.8,229.6,275.6z M293.6,262.7c3.9,0.8,7.3-0.9,11.7-2.5C300.2,258.9,297.3,262.3,293.6,262.7z"/>
		<path class="st8" d="M214.2,283.7c17,5.8,34.4,6.4,52.1,5.2c19.4-1.3,38.8-2.4,57.3-9.2c2-0.7,4.3-1.2,5.9-2.5
			c8-6.3,17.8-8.6,26.9-12.3c11.2-4.5,21.3-10.7,28.9-20.5c0.6-0.8,1.5-1.2,2.3-1.8c2.2-0.8,3.3-2.6,4.6-4.3
			c10-13.8,13.8-29.3,12.7-46.2c1.3-3.4,5.1-5.2,5.5-9.7c3.4,2.7,3.1,6.1,3.3,8.7c1.6,18.3-1.3,35.6-13.2,50.2
			c-7.3,9-16.6,15.8-26.7,21.4c-26.1,14.3-53.9,24-83.4,28.5c-11,1.7-22.1,2.2-33.2,2.6c-29.5,1.1-58.2-3.3-86.3-12
			c-7.6-2.3-14.9-5.5-22.3-8.4c-0.7-0.3-1.2-1-1.8-1.6c0.2-0.2,0.4-0.5,0.6-0.7c4.3-0.3,5.4-2,2.4-5.5c1-1.3,2.1-1.2,3.5-0.4
			c8.7,4.8,17.9,8.5,27.3,11.2C191.5,279.8,202.5,283.3,214.2,283.7z"/>
		<path class="st4" d="M74.1,147.7c4.3-12.6,11.6-23.1,20.8-32.3c28.6-28.4,63.9-43.5,102.7-51.7c2.1-0.4,4.2-0.8,6.5-0.7
			C160.5,90.8,117.4,119.3,74.1,147.7z"/>
		<path class="st5" d="M377.7,134.6c14.4,0.1,27.8,14.7,27.9,30.5c0.1,14.7-13.5,27.1-30,27.3c-16.5,0.2-28.9-11.4-28.8-27.1
			C346.9,148.4,360.9,134.5,377.7,134.6z M376.9,165.8c6.5,0,11-2.1,13.8-6.2c3.3-4.7,3.1-11-0.5-14.4c-6.2-5.9-19.2-6.1-25.5-0.5
			c-5.9,5.3-5.4,15.2,1.4,18.4C369.6,164.7,373.3,166.9,376.9,165.8z"/>
		<path class="st6" d="M308.9,10.1c4.8,3.4,4.8,3.4,0.1,6.2c-35.8,21.5-69.9,45.7-105.3,68c-57,36-114.2,71.5-171.4,107.3
			c-6.9,4.3-13.8,8.7-20.7,13c-2.6,1.6-5,2.5-5.8-1.8c3.9-2.5,7.8-5,11.7-7.4c15.5-9.8,31.1-19.6,46.6-29.5
			c15.1-9.6,30.1-19.2,45.1-28.8c21-13.3,42-26.5,62.9-39.9c9.8-6.2,19.5-12.5,29.3-18.7c11.8-7.5,23.9-14.8,35.8-22.2
			c16.7-10.4,33.2-21.3,49.7-32C294.3,19.5,302.3,15.8,308.9,10.1z"/>
		<path class="st9" d="M214.2,283.7c-11.7-0.3-22.7-3.9-33.7-7.1c-9.5-2.7-18.7-6.4-27.3-11.2c-1.4-0.8-2.5-0.9-3.5,0.4
			c-2.9-3.5-6.1-6.9-8.7-10.6c-2.4-3.3-4.3-3.2-6.7-0.3c-0.7-1.5-3.5-1-3.2-3.4c2.4-0.5,3.3-2,2.8-4.3c-0.2-1.2-1.3-1.5-2.3-1.3
			c-2.6,0.5-2.8,2.3-2.4,4.5c-9.5-4.6-16.4-12.1-23.2-19.8c-5.7-6.4-9.5-13.7-11.1-22.3c-1.8-9.8-0.6-19.4,1.9-28.9
			c4.4-2.7,8.8-5.5,13.2-8.2c-1,4.9-3.6,8.4-5.2,12.6c-3.1,8.1-3.6,16.3-0.1,24.2c4.9,11.4,10.2,22.3,22.7,27.7
			c4.2,1.8,7.4,5.5,12.2,6.3c-0.8,3.6,1.1,7.7,3.2,8.7c4.8,2.3,7.1,6.7,10.6,10c2.6,2.5,6.9,2.3,9.3-0.4c0.7-0.8,1.4-1.5,0.6-2.5
			c-0.7-0.8-1.1-1.7-2.8-1.3c-3.6,1-10.1-3.9-10.5-7.5c-0.2-1.4,0.3-2.2,1.8-2.4c4,1.5,6.4,5.5,10.6,6.7c0.7,1.2,1.7,2.1,3.1,2.4
			c0.2,1,0.8,1.7,1.7,2.1l-0.1,0c1.6,2.5,2.7,6.4,6.9,3c15.2,6.4,31.1,9.2,47.9,10.2C218.6,275.3,209.4,275.5,214.2,283.7z"/>
		<path class="st5" d="M167.3,138.6c5.6-4.8,12.3-7.9,18.6-11.5c10.3-6,20.3-12.7,31.1-17.9c5.2-0.5,10.2-0.5,14.3,3.4
			c-4.4,4-8.8,7.9-13.2,11.9c-9,8.2-13.5,18.9-17.1,30.1c-1.8,0.8-3.7,1.5-5.5,2.3c-8.5,3.4-17,6.9-26.3,6.9
			c-7.4,0-9.7-3.2-8.2-10.5c1-4.8,3.8-8.8,5.2-13.4c0,0-0.2-0.1-0.2-0.1C166.9,139.9,167.2,139.3,167.3,138.6z M201.5,146.6
			c-2.2,1.4-3.8,3-3.4,5.8c0.1,0.7,0.8,1.3,1.4,0.8c1.9-1.6,2.2-3.8,2.3-6.1C201.8,146.9,201.7,146.8,201.5,146.6z"/>
		<path class="st3" d="M396.9,131.8c-0.6-5.9-3.7-11-5.6-16.4c-1.6-4.5-3.4-8.9-6.3-12.8c-1.1-1.5-2.3-3.3-1.7-5.5
			c25.1,17.1,43.5,38.8,48.1,69.9c2.1,14.5-0.9,28.4-6.5,41.8c-0.6,0-1.2-0.1-1.9-0.1c0.1-1.6,0.1-3.2,0.2-4.7
			c1-1.1,0.9-2.2,0.1-3.4c-0.1-0.9-0.1-1.8-0.2-2.7c0.8-1.1,0.6-2.2-0.2-3.2c-0.2-4.1-1-8.2-1.9-12.2c-2.1-8.8-5.6-17.2-7-26.3
			C412.6,145.5,405.5,137.8,396.9,131.8z"/>
		<path class="st10" d="M214.8,193.6c2.8,0.6,5.6,1.1,8.4,1.7c3.3,0.6,6.4,2.4,9.8,2.4c4.7,2,9.3,3.9,14,6
			c15.3,6.9,29.1,16.1,40.6,28.4c4,4.2,3.8,4.1-1.3,6.6c-3.7,1.8-7.3,4-10.7,6.4c-2.8,2-4.6,1.6-6.6-1c-1.4-1.8-3.1-3.5-4.8-5.1
			c-5.5-5.3-5.7-5.5,1.1-9.5c4.2-2.5,3.7-3.9,0.1-6.3c-8-5.3-16.4-8-26-5.3c-2.4,0.7-4.3,0.3-6.5-0.9c-5.8-3.2-11.7-6.3-18.1-8.2
			c-0.3-0.3-0.6-0.6-0.9-0.9c0-1,0-1.9-0.7-2.8c-4.6-6.5-10.6-5.6-16.9-3.5c-0.1,0.1-0.2,0.3-0.2,0.5c-2.2-0.6-4.4-1.5-6.6-1.9
			c-4.3-0.7-4.3-2.6-1.9-5.5c2.3-2.9,5.1-4.5,9-3.9c3.1,0.5,6.2,0.7,9.3,1c0.3,0.2,0.6,0.4,0.9,0.5c1.9,1-2.3,3.2,0.7,3.8
			c5.8,1.1,7.6,7,12,9.8c3.5,2.2,5.4,1.1,7.7-0.9c0.8-0.7,0.9-1.8,0.3-2.7c-0.4-0.8-1.1-1.1-2-1C220.4,201.3,217.2,199,214.8,193.6z
			"/>
		<path class="st7" d="M337.3,242.1c-4.1-2.2-8-4.8-12.4-6.1c-2.5-0.7-1.9-1.7-0.6-3c5.8-5.8,12-11,19.8-14c0.8,0.8,1.8,0.9,2.8,0.6
			c6.6-1.7,13.2-1.1,19.7,0.2c9.5,1.8,15.3,8,14.4,15.4c-0.3,2.2-1.2,4.4-1.9,6.6c0,0,0.1-0.1,0.1-0.1c-3.4,1.6-6.1,3.9-8.1,7.1
			c0,0,0.1,0,0.1,0c-2.2-0.1-3.3,1.3-4.1,3c-6.2,4.3-13.3,6.4-20.1,9.1c-1.8,0.7-3,0.3-2.8-1.9c0.4-3.6-1.3-6.7-2-10.1
			c5.9-0.5,11.9-1,17.8-1.5c1.8,0.2,3.6,0.5,6.2-0.5c-3.2-0.9-5.6-1.3-8-0.9c-4.6-1.2-9.5,1.1-14-1.2c4.2-2.5,8.3-4.9,13.2-7.9
			c-4.1,0-4.1,0.1-10.2,3.5c-1.2,0.7-2.6,2.8-4.1,0.3c1.9-2.4,5-4.1,4.8-8.4C343.9,235.8,340.6,238.9,337.3,242.1z"/>
		<path class="st11" d="M325,20.8c-15.7,11.1-32.3,20.9-48.6,31c-12.1,7.5-24,15.3-36,22.9c-21.9,13.8-44.1,27.1-65.7,41.3
			c-14.5,9.5-29.5,18.3-43.9,28c-12.3,8.3-25.4,15.5-38,23.4c-12.5,7.8-24.9,16-37.4,23.8c-13.7,8.6-27.5,17-41.3,25.6
			c-2.1-3.3,1.3-3.6,2.7-4.5c20.5-13.2,41.1-26.4,61.7-39.5c51.3-32.4,102.6-64.8,154-97c27.9-17.5,54.4-37.1,82.6-54.1
			C318.2,19.9,321.3,16.3,325,20.8z"/>
		<path class="st5" d="M357.7,113.7c1.4,3.3,1.6,6.8,2,10.2c0.4,3.4-0.5,6.1-3.9,7.8c-3.1,1.6-6.2,3.8-7.8,6.8
			c-4.1,7.6-10.8,7.7-18,7.1c-12.6-1.1-23-9.1-25.4-19.7c-0.6-2.8-1.1-5.5,0.3-8.3c0.2,0.7,0.1,1.6,1.2,1.5c0.1,0,0.3-0.2,0.3-0.3
			c0.1-1.1-0.8-1.1-1.5-1.2c0.1-0.7,0.1-1.3,0.2-2c3.3,0.5,3.8-2.7,4.2-4.3c0.9-3.4,2.6-4.1,5.5-3.7c-0.9,12.2,4.5,16.6,18.9,16.1
			c9.5-0.3,14-5.2,14.3-16.1c1.3,0,2.6,0,3.9,0C351.2,112.3,352.8,114.6,357.7,113.7z"/>
		<path class="st10" d="M236.5,255c-9.4-11.4-21.7-18.8-34.7-25.2c-0.3-1-1.2-1-2-1c0,0-0.1,0.1-0.1,0.1c2.3-2,3-3.3-0.4-5.3
			c-4.2-2.6-8.8-4.5-12.8-7.3c-3.8-2.6-6.7-1.6-9.7,1.2c-2.8,2.7-4.9,2.1-6-1.7c0-0.2,0.1-0.4,0.3-0.5c1.3,0.2,2-0.1,1.1-1.5
			c2.8-6.8,6.6-8.9,13.1-7.5c2.6,0.6,5.2,1.1,7.7,1.6c-0.1,0.2-0.1,0.5,0,0.7c-0.3,6.4,2.4,11.2,7.2,12.6c3.9,1.2,10.3,0.6,13.7-5.8
			c2,0.8,4,1.5,5.9,2.5c3.4,1.7,6.2,3,8.1,7.4c3,7,9.8,11.8,17.7,11.8c5.6,0,8.9,2.6,12.3,5.9c1.8,1.7,3.4,3.6,5.1,5.4
			C254.7,252.6,245.7,254.3,236.5,255z"/>
		<path class="st11" d="M308.9,10.1c-6.6,5.8-14.6,9.5-21.9,14.2c-16.5,10.7-33,21.6-49.7,32c-11.9,7.4-24,14.7-35.8,22.2
			c-9.8,6.2-19.6,12.5-29.3,18.7c-20.9,13.4-41.9,26.6-62.9,39.9c-15.1,9.6-30.1,19.2-45.1,28.8c-15.5,9.9-31.1,19.7-46.6,29.5
			c-3.9,2.5-7.8,5-11.7,7.4c-1.3-3.2,1.8-3.4,3.2-4.4c34.2-22.1,68.3-44.2,102.6-66.2c58.8-37.8,118.3-74.6,176.2-113.9
			c4.3-2.9,8.8-5.4,13-8.3C303.7,8,306.2,7.8,308.9,10.1z"/>
		<path class="st3" d="M144.9,319.7c-5.7-6.2-10.4-13.2-13.8-20.9c-2-4.5-3.5-8.2-9.8-6.3c-4,1.2-7.4,3.2-8.7,7.5
			c-0.9,2.8-2.8,5.2-5.3,6.3c-5,2.2-3.5,4.5-0.4,6.7c2.5,1.8,1.6,3.1,0,4.7c-0.3,0-0.5-0.1-0.8-0.2c-2.4-4.2-4.9-8.4-7.3-12.6
			c1.8-2,4.7-0.8,6.8-2.4c2.6-2,4.2-4.4,3.1-7.6c-1-3.2-3.6-4.3-7-4.2c-4,0.2-5.6,2.9-7.1,5.9c-0.8-0.7-0.9-2.1-2.4-1.8
			c0-1,0-1.9-0.1-2.9c0.9-0.1,1.5-0.6,2-1.3c2.6-3.8,5.8-5.7,10.6-3.8c1.4,0.6,3.1,0.4,5.1,0.7c-2.8-8.1,1.9-12.6,7.2-16.8
			c6.4,1.6,11,6.6,16.9,9.1c1.1,1.2,2.5,1.8,4,2.1c4,1.8,8,3.7,12,5.5c2.9,2.7-0.1,5.4-0.1,8c0.1,5.3,0,10.5,0,15.8
			c0,2.3,0.6,4.7-3.1,4.8C144.4,315.9,145.1,318.2,144.9,319.7z M112.9,281.8c0.9,2.1,0.5,5.1,3.8,6.1c2.3,0.7,4.7,1.5,6.4-0.5
			c2.1-2.4,0-4.6-1.1-6.7c-0.2-0.4-0.3-0.9-0.4-1.4c-0.7-2.1-1.4-4.3-4.3-3.4C114.7,276.7,113,278.5,112.9,281.8z"/>
		<path class="st8" d="M131.1,251.6c-0.3,2.4,2.5,1.9,3.2,3.4c4.3,5.5,8.7,10.9,13,16.4c-0.2,0.2-0.4,0.5-0.6,0.7
			c-0.9-0.1-1.7-0.2-2.6-0.2c-1.7-3.9-4.4-5.9-8.9-5.1c-1.4,0.3-3.2,0.2-3.7-1.6c-0.4-1.6,1-1.9,2.1-2c1.5-0.2,1.3-1.2,1.1-2.2
			c-0.3-1.3-1.2-2-2.5-1.8c-2.3,0.3-4.3,1.4-6.1,2.9c-12.7-8-25-16.3-32.6-29.9c-7.9-14.1-10.4-29-7.3-44.7c1-5,6.6-5.9,10.6-7.9
			c-2.4,9.5-3.7,19-1.9,28.9c1.6,8.5,5.4,15.9,11.1,22.3c6.8,7.7,13.8,15.2,23.2,19.8C129.8,250.8,130.4,251.2,131.1,251.6z"/>
		<path class="st3" d="M117,270.5c-5.4,4.2-10.1,8.7-7.2,16.8c-2-0.2-3.7-0.1-5.1-0.7c-4.8-1.9-8,0.1-10.6,3.8
			c-0.5,0.7-1.1,1.2-2,1.3c-9-19.4-14.2-39.9-17-61.1c7.6,10.5,16.1,19.9,26.1,27.8C106.4,262.6,111.8,266.5,117,270.5z"/>
		<path class="st12" d="M297.7,107.8c-9.4-4.4-19-2.2-28.4-0.1c-19.5,4.3-36.6,12.9-48.8,29.5c-0.8,1.1-1.6,2.2-2.2,3.3
			c-2.4,4.5-4.8,9.2-1.4,14c3.3,4.7,8.6,5.5,13.9,4.8c6.7-1,13.3-2.7,19.2-6.5l0,0c8.4-3.4,15.7-8.8,22.9-14.1
			c3.7-1.8,6.8-4.3,10-6.9c3.5-2.3,7-4.6,10.5-6.9c1.2,3.3,0.2,5.6-2.7,7.7c-14.9,10.5-29.4,21.7-46.5,28.7
			c-6.8,2.8-14.1,4.7-21.8,4.5c-11-0.2-17.4-10.3-12.5-20.1c5.8-11.6,15.2-20.2,25.8-27.1c17.2-11.2,36-17.8,56.9-16.8
			c1.2,0.1,2.4,0,3.5,0.4c1.4,0.5,3.5-0.3,4,1.3C300.9,105.4,299.3,106.8,297.7,107.8z"/>
		<path class="st10" d="M163,215.2c-2.6,4.2-5.2,8.5-7.7,12.7c-5.6,0.3-10.9-0.7-16.3-2.2c1.3-4.2,2.4-8.3,8.6-6.1
			c3.4,1.2,6-0.5,7.5-3.9c1.5-3.2,3.1-6.3,4.9-9.2c1.9-3,2.6-5.4-1.6-7c-2-0.7-1.3-2.1-0.3-3.1c9.2-9.5,16.8-21.1,31-24.4
			c4.1-1,7.9-3.4,11.8-5.3c1.7-0.8,2.9-1.2,4.3,0.6c1.6,2-0.2,2.6-1.2,3.5c-6.5,5.7-13.7,10.8-19.4,17.2
			c-7.4,8.4-15.6,16.3-21.4,26.1C163.2,214.4,163.1,214.8,163,215.2z"/>
		<path class="st10" d="M253.4,172.8c5.5-3.7,10.9-7.5,16.5-11.1c10.3-6.6,21.8-9.6,33.8-11c6.2-0.7,11.4,2.8,17.2,4.4
			c-8,1.1-15.9,2.4-23.3,5.5c-9.3,3.9-17.9,9-25.9,15.4c-8.9,7.1-18,14.3-29.8,16.4c-0.2-3.7,0.9-7.4-0.3-11c0.1-0.2,0.1-0.4,0-0.6
			c1.8-1.1,3.7-2.2,5.5-3.3c1-0.6,1.9-1.1,2.9-1.7c1.9,1.9,2.7,3.5-1.1,4c-1.4,0.2-2.9,0.8-2.9,2.8c0,1.2,0.6,1.9,1.8,1.9
			c3.1,0,5.9-0.8,7.2-4c1.2-2.9,1.5-5.4-2-6.9C253.1,173.4,253.2,173.1,253.4,172.8z"/>
		<path class="st10" d="M120.6,209.5c3.4-10.1,10.3-17.7,17.3-25.3c1-1.1,2.2-2.1,3.2-3.2c5.1-5.3,9.8-11.2,18.3-5.4
			c1.6,1.1,4.2,0.9,7.1,1.5c-6.1,6.4-12.1,12.3-17.2,18.9c-0.3,0.4-1.2,0.5-1.9,0.6c-10.6,2.4-14.4,8.4-12.5,19.3
			c0.4,2.5-1.5,4.2-2.8,6.1C127.3,218.8,125.1,213.1,120.6,209.5z"/>
		<path class="st10" d="M336.9,168.4c0.8,3-0.6,4.5-4,5.3c-9.8,2.2-18.7,6.9-27.3,11.9c-2.5,1.4-4.2,2.4-5.3-1.5
			c-1.2-4.2-4.1-7.6-7.6-10.3c-1.8-1.4-2.7-2.4-0.1-3.9c12.2-7.2,25-11.5,39.4-8.2C336.8,162.9,336.8,162.8,336.9,168.4z"/>
		<path class="st2" d="M233,393.1c15.5,0.9,30.9,1.2,46.3-0.1c11.1-1,22.1-2.7,32.9-5.5c2.9-0.8,5.7-0.5,8.7-0.7
			c-22.1,14.7-46.9,18.8-72.9,17.7c-0.2-2.1-2.1-2.2-3.4-3.1C240.7,398.8,236.9,395.9,233,393.1z"/>
		<path class="st9" d="M404.9,192.2c1.1,16.9-2.7,32.4-12.7,46.2c-1.3,1.8-2.4,3.6-4.6,4.3c1-3,3.1-5.4,3.5-8.7
			c1.2-9.1-2.2-15-12.2-20.6c-2-1.1-4.8-1.4-3.8-5.2c0.9-3.3,1.1-6,5.8-6.1C390.1,202,397.5,197,404.9,192.2z"/>
		<path class="st10" d="M317.7,208.1c-0.8,10.1-6.1,18.6-14.3,25.5c-2,1.7-3.9,1.6-5.6-0.5c-0.6-0.8-1.2-1.6-2-2.2
			c-3.7-2.9-4.2-5.1-0.3-9c5.7-5.8,6.8-13.5,3.4-21.2c-1.2-2.7-1.1-4.2,1.8-5.3c1.7-0.7,3.2-1.7,4.8-2.6c6-3.4,6.3-3.3,9.4,3.1
			C316.5,199.1,317.7,204,317.7,208.1z"/>
		<path class="st10" d="M316.3,187.1c4.2-2.6,8.6-4.1,12.9-5.7c1.7-0.6,2.8,0.1,3.9,1.2c6.6,6.5,9.2,24.2,4.5,32
			c-0.4,0.7-1.2,1.2-1.9,1.5c-7.2,3.3-13.4,7.9-18.6,13.9c-0.4,0.5-1,0.8-2.2,0.1C325.4,216.2,327.5,201.8,316.3,187.1z"/>
		<path class="st10" d="M114.8,183.6c1.8-5.8,5.3-10.7,9.6-14.9c7.3-7.1,15.7-12.6,25.4-17.7c-1.6,5.1-2.3,9.7-1.7,14.3
			c0.3,2.4-1.6,3.1-2.9,4.2c-10.5,8.5-20.2,17.7-27.5,29.2c-1.2-0.1-1.6-0.8-1.7-2C115.6,192.3,115.2,187.9,114.8,183.6z"/>
		<path class="st4" d="M233,393.1c3.9,2.8,7.7,5.6,11.6,8.4c1.3,0.9,3.2,1,3.4,3.1c-26.5,0-51.1-6.2-72.6-22.6
			C194.2,387.7,213.5,391.1,233,393.1z"/>
		<path class="st10" d="M184.9,231c15.9,5,30.4,12.5,42.1,24.7c-8.7,0.4-17.2-0.7-25.6-2.9c-7.9-2.1-15-5.9-22.4-9.2
			c0-0.3,0-0.6-0.1-1c0-2.5,0-5,0-7.6c2.3,0,2.7,1.9,3.7,3.4c0.8,1.1,1.8,4,3.9,1.8c1.2-1.3,3.9-3.4,0.2-5.4
			C185.3,234,184.8,232.6,184.9,231z"/>
		<path class="st13" d="M178.9,243.6c7.4,3.3,14.5,7.1,22.4,9.2c8.4,2.2,16.9,3.3,25.6,2.9c2.5,1.9,6.1,4.9,5.4,7.1
			c-0.9,2.5-5.3,1-8.1,0.7c-17.4-1.5-34.5-4.8-50.2-12.9c0-0.2-0.1-0.5-0.1-0.7C176.4,248.4,177.4,245.8,178.9,243.6z"/>
		<path class="st4" d="M267,274.4c-1.7,0-3.4,0-5.1,0c-2.4-0.4-4.9-0.9-7.4-1.3c0,2.1,2,1.3,2.4,2.4c-9.6,2.1-19.4,3.2-28.9,5.9
			c-0.7,0-1.3,0-2-0.2c-1.4-0.3-3.6-0.2-3.8-1.8c-0.2-2.1,2.2-1.9,3.6-2.6c1.2-0.6,2.5-0.8,3.8-1.2c11.1-0.9,21.8-3.4,32.2-7
			c4.3,0.3,8.5,0.1,12.1-2.9c5.9-3.5,12.1-6.6,17.8-10.8c-1.9,4.3-6.2,6.1-9.4,9.5c2.9,1.2,5.4-1.6,8.3-0.4c-1.4,2.7-4.8,1.6-7,3.9
			c2.8,0.7,5.1,1.2,7.4,1.8c0,0.6,0,1.1,0,1.7c-1.1-0.1-2.1-0.3-3.2-0.4c-0.6-0.1-1.2-0.2-1.8-0.2c-4.9,0.1-9.7,0.2-14.6,0.3
			c-0.9,0-3.3-0.6-1.5,1.8C268.9,273.4,268,273.9,267,274.4z"/>
		<path class="st10" d="M287.4,195.2c-8.3,4.2-16,6.7-24.1,7.6c-5,0.6-8.5-2.6-12.5-4.4c-1.5-0.7-1.6-2.1,0.4-2.8
			c6.8-2.4,12.9-6.1,18.9-10.1c1.1-0.7,2.1-1.2,2.8,0.4C275.4,191.8,280.8,193.6,287.4,195.2z"/>
		<path class="st12" d="M166.2,139.9c-1.4,4.6-4.2,8.6-5.2,13.4c-1.6,7.3,0.7,10.5,8.2,10.5c9.4,0,17.8-3.5,26.3-6.9
			c1.8-0.7,3.7-1.5,5.5-2.3c0.9,2,0.4,3.4-1.7,4.4c-10.1,4.6-20.3,9-31.6,9.5c-11.4,0.5-14.8-4-11.5-14.9c1.2-3.9,3.2-7.6,5-11.3
			C162.2,140.4,163.9,139.3,166.2,139.9z"/>
		<path class="st10" d="M269.1,208.1c7.3-1.6,13.9-3.6,20.1-6.6c2-1,2.7,0,3.5,1.4c2.7,4.8,0.5,13.6-4.1,16.6
			c-1.2,0.8-2.4,1.6-4,0.3C279.6,215.9,274.6,212.2,269.1,208.1z"/>
		<path class="st11" d="M351.9,107.7c-1.3,0-2.6,0-3.9,0c-2.9-4.1-6.9-6.6-11.7-8.1c-9.4-3-15.8,1.5-21.5,8.1
			c-2.9-0.4-4.7,0.3-5.5,3.7c-0.4,1.6-0.9,4.8-4.2,4.3c1.5-8.8,7.3-14.3,14.9-17.9c11.7-5.6,23.3-3.7,31.1,4.9
			C348.7,104.8,352.7,105.8,351.9,107.7L351.9,107.7z"/>
		<path class="st10" d="M221,182.7c-5.5,0.4-10.9,0.7-16.4,1c-0.9,0.1-2.1,0.5-2.7-0.7c-0.6-1.2,0.6-1.8,1.3-2.4
			c2.6-2.3,5.3-4.5,8-6.7c0.9-0.7,1.8-1.4,3.1-1.1c7.7,2,15.1-0.1,22.6-1.8c0.7,1.2,1.4,2.4,2.1,3.7c-0.1,0.2-0.1,0.5-0.1,0.7
			c-0.7,0.4-1.4,0.8-2,1.2c-0.4,0-0.8,0-1.2,0c-5.9-1.6-10.6-0.2-13.8,5.2C221.7,182.2,221.4,182.5,221,182.7z"/>
		<path class="st10" d="M170.8,215.9c1.1,3.8,3.1,4.3,6,1.7c3-2.8,5.8-3.8,9.7-1.2c4,2.8,8.6,4.7,12.8,7.3c3.4,2.1,2.7,3.4,0.4,5.3
			c-6.9-2-13.5-5-20.7-6c-2.7-0.1-5.4-0.2-8-0.3c0,0,0,0,0,0C169.2,220.5,167.9,218.2,170.8,215.9z"/>
		<path class="st14" d="M282.9,175.4c5.8,0,14,9,13.4,14.3c-0.1,1.2-0.6,2-1.8,1.7c-5.4-1.4-11.3-1.5-15.4-6
			c-1.7-1.9-2.9-4.1-1.6-6.7C278.6,176.2,280.8,175.6,282.9,175.4z"/>
		<path class="st10" d="M342.1,186.7c9,3.5,14.2,11,14.4,19.7c0.1,3.7-2.6,2.8-4.3,3.4c-6.2,1.9-6.2,1.9-5.8-4.5
			C346.8,198.8,345.5,192.7,342.1,186.7z"/>
		<path class="st8" d="M126.1,262c1.8-1.5,3.8-2.6,6.1-2.9c1.3-0.2,2.3,0.5,2.5,1.8c0.2,0.9,0.4,1.9-1.1,2.2c-1.1,0.2-2.5,0.5-2.1,2
			c0.5,1.8,2.3,1.9,3.7,1.6c4.5-0.8,7.2,1.1,8.9,5.1c0.1,3.6-1.4,6.2-4.7,7.7c-1,0.5-1.7,0.9-1.4,2.1c-1.5-0.4-3-0.9-4-2.1
			c0-2-0.2-4,2.9-4.1c1.3,0,2.2-1,2-2.3c-0.3-1.7-1.8-1.5-3.1-1.5c-2.1,0-4.1,1.3-6.3,0.3C124.7,269.8,125.8,265.8,126.1,262z"/>
		<path class="st14" d="M379,241.8c0.7-2.2,1.6-4.4,1.9-6.6c0.9-7.4-4.9-13.6-14.4-15.4c-6.5-1.3-13.1-1.9-19.7-0.2
			c-1,0.3-2,0.2-2.8-0.6c12.5-5.4,24.6-5.1,35.7,3C387.1,227.4,386.6,236.4,379,241.8z"/>
		<path class="st9" d="M151.6,246.5c-1.4,0.2-2,1.1-1.8,2.4c0.5,3.6,6.9,8.5,10.5,7.5c1.6-0.4,2.1,0.5,2.8,1.3
			c0.9,1,0.1,1.8-0.6,2.5c-2.4,2.7-6.7,2.9-9.3,0.4c-3.5-3.3-5.7-7.7-10.6-10c-2.1-1-3.9-5.1-3.2-8.7c3.5-0.7,6.4,3.2,10.3,1.4
			C150.7,243.1,151.7,245,151.6,246.5z"/>
		<path class="st8" d="M233.7,99.5c3.4-3.5,7.3-5.9,12.4-5.8c8.9,0,17.8,0,27.2,1.4c-6.5,1.9-12.5,3.7-18.6,5.4
			c-1.4-1.4-3.1-0.8-4.7-0.8C244.6,99.6,239.2,99.5,233.7,99.5z"/>
		<path class="st14" d="M260.1,226.6c-8.9,6.7-16.8,7.1-23.9,1.6c-2.7-2.1-2.4-3.2,0.6-4.2C244.9,221.7,252.7,221.1,260.1,226.6z"/>
		<path class="st10" d="M184.9,231c-0.1,1.6,0.4,3.1,1.8,3.8c3.7,2,1,4.2-0.2,5.4c-2.1,2.2-3.1-0.7-3.9-1.8c-1-1.4-1.4-3.4-3.7-3.4
			c0,2.5,0,5.1,0,7.6c-1.8,0-2.6-2.5-4.6-2c-0.6-3.6-3.8-4.5-6.4-6.1c-0.3-0.3-0.7-0.5-1-0.8c-0.3,0-0.6-0.1-0.9-0.1
			c-0.6-1.3-2.2-2.2-2-3.9c5.8-3.2,9.6,1.8,14.6,4.5c-0.7-2.8-3.6-4.7-0.6-6.7C180.2,228.7,182.5,229.8,184.9,231z"/>
		<path class="st13" d="M236.5,255c9.3-0.7,18.3-2.4,26.7-6.6c2.4,1.6,2.7,3.1-0.1,4.6c-4.9,2.7-9.9,5.3-15,7.8
			c-4.2,2-7.1,1.9-9.3-2.6C238.2,257.1,237.2,256.1,236.5,255z"/>
		<path class="st14" d="M330.3,268.1c6.8-11.5,0-17.7-7.5-21.9c-5.2-2.9-10.9-4.9-17.1-4.6c-1.3,0.1-2.7,0.3-3.7-0.9
			c8.4-0.9,16.7-0.3,24.5,3.1c10.7,4.6,13.9,16.4,6.4,23.3C332.2,267.8,331.5,268.5,330.3,268.1z"/>
		<path class="st0" d="M173.8,249.8c0.1,0.2,0.1,0.5,0.1,0.7c-5.8,1.4-5.7,1.3-2.1,5.6c0.9,1.1,2.5,1.8,1.9,3.7
			c-2.5-0.1-4.2-2.4-6.8-2.1c0,0,0.1,0,0.1,0c-0.2-1-0.3-2-1.7-2.1c-1.4-0.3-2.4-1.2-3.1-2.4c-1.2-2.9-4.2-4.5-5.3-7.5
			c-1.4-3.9-2-7.5,1-10.9c0.2,2.4-1.4,5.7,2.7,6.5c1.4,3.7,4.8,4.8,8.2,5.9C170.2,248.6,171.9,249.5,173.8,249.8z"/>
		<path class="st14" d="M147,214.6c-2.1-1.8-7.4-0.1-7.5-4.8c-0.2-5.3,5.1-9,10.8-8.1c1.9,0.3,4.8,0,4.5,3.2
			C154.3,209.7,150.2,215,147,214.6z"/>
		<path class="st13" d="M139,225.7c5.3,1.4,10.7,2.5,16.3,2.2c-0.3,0.7-0.6,1.5-1,2.2c-4,7.2-5.3,7.6-12.8,4.1
			C136.1,231.8,135.8,230.7,139,225.7z"/>
		<path class="st10" d="M214.8,193.6c2.3,5.4,5.6,7.6,10.7,7.4c1,0,1.6,0.3,2,1c0.6,1,0.5,2-0.3,2.7c-2.3,2.1-4.2,3.2-7.7,0.9
			c-4.5-2.8-6.2-8.7-12-9.8c-3-0.6,1.2-2.8-0.7-3.8c2.5,0.3,5,0.6,7.6,0.8C214.5,193.2,214.7,193.4,214.8,193.6z"/>
		<path class="st10" d="M214,215.5c-3.5,6.4-9.8,7-13.7,5.8c-4.8-1.4-7.5-6.2-7.2-12.6c1.4-0.1,2.8-0.1,3.9,1.1
			c0.1,3.6,1.5,6.6,5,7.7c3.3,1,5.3-1.4,7.2-3.6c1.5,0.3,3.1,0.7,4.6,1C213.9,215,214,215.2,214,215.5z"/>
		<path class="st0" d="M221,182.7c0.3-0.3,0.7-0.6,1-0.9c1.4,0,2.8,0,4.2,0c-0.2,1.7-1.7,3.1-1.2,4.9c-1.3,1.4-0.3,2.1,0.7,2.8
			c2.1,4,5.1,5.1,9.2,3.1c0.5,0,1,0,1.6-0.1c1.1,0.3,2.2,0.6,3.4,0.9c-1.1,3.3-3.8,4.2-6.9,4.2c-3.5,0-6.5-1.8-9.8-2.4
			C220.5,191.5,220.8,187.1,221,182.7z"/>
		<path class="st13" d="M120.6,209.5c4.5,3.6,6.6,9.3,11.6,12.5c-0.7,4.7-2.8,5.2-6.6,2.6C118.8,219.9,117.4,215.8,120.6,209.5z"/>
		<path class="st0" d="M92.2,294.6c1.5-0.3,1.6,1.2,2.4,1.8c1.4,2.8,2.8,5.6,4.2,8.4c2.4,4.2,4.9,8.4,7.3,12.6
			c-1.3,0.4-2.3-0.1-3.1-1.1c-3.5-4.2-7.2-8.3-10.5-12.7C90.6,301,89.6,297.8,92.2,294.6z"/>
		<path class="st4" d="M337.3,242.1c3.3-3.1,6.7-6.2,10.4-9.8c0.2,4.3-2.9,6-4.8,8.4c-4.1,2.6-0.1,3,1.1,4.1c4.5,2.4,9.4,0,14,1.2
			c0.6,0.5,1.2,0.9,1.9,1.4c-5.9,0.5-11.9,1-17.8,1.5C340.4,246.7,338.9,244.4,337.3,242.1z"/>
		<path class="st9" d="M233.7,99.5c5.5,0.1,10.9,0.1,16.4,0.2c1.6,0,3.4-0.6,4.7,0.8c-1.7,0.7-3.7,1-5,2.1c-6.5,5.6-11.6,0.5-17-2.1
			C232.1,100.1,233.2,99.7,233.7,99.5z"/>
		<path class="st12" d="M231.3,112.6c-4.1-4-9.1-4-14.3-3.4c5.1-4.8,9.4-5.7,14.7-2.9c1.4,0.7,3.3,1.3,3.1,3.4
			C234.7,111.7,232.9,112,231.3,112.6z"/>
		<path class="st13" d="M114.8,183.6c0.4,4.4,0.8,8.7,1.2,13.1c0.1,1.1,0.5,1.8,1.7,2c-1.1,2.2-2.2,4.4-4,7.7
			C110.9,197.8,111.2,190.6,114.8,183.6z"/>
		<path class="st3" d="M75.7,207.6c-2.8-3.4-4-7.3-4.8-11.2c-0.8-3.7,3-3.1,4.8-5.3C75.7,197.1,75.7,202.3,75.7,207.6z"/>
		<path class="st0" d="M214.3,193c-2.5-0.3-5-0.6-7.6-0.8c-0.3-0.2-0.6-0.4-0.9-0.5c-1.6-2.3-0.6-4.2,0.6-6.5
			c2.7,1.5,4.9,2.9,8.3,3.1C218.7,188.5,214.9,191.3,214.3,193z"/>
		<path class="st10" d="M177.9,227.5c-3,2,0,3.9,0.6,6.7c-5-2.6-8.8-7.6-14.6-4.5c-0.6,0-1.2,0-1.9,0c1-3.2,2.9-4.2,6.3-3.3
			c1.5,0.4,2.8,1.7,4.6,1.1c1.6-0.6,3.3-1,5-0.4L177.9,227.5z"/>
		<path class="st0" d="M239.1,175.5c0-0.2,0-0.5,0.1-0.7c1.3-0.1,2.2-0.9,3-1.8c1.2-0.3,2-1.8,3.5-1.4c2.6,0.5,5.5-0.8,7.7,1.3
			c-0.1,0.3-0.2,0.5-0.3,0.8c-1,0.7-2,1.5-3.1,2.2c-1,0.6-1.9,1.1-2.9,1.7C244.6,176.1,241.4,177.4,239.1,175.5z"/>
		<path class="st13" d="M162.1,229.7c0.6,0,1.2,0,1.9,0c-0.1,1.7,1.4,2.6,2,3.9c-3.3,1.4-4.2,4.5-5.3,7.5c-4.1-0.8-2.5-4-2.7-6.5
			C159.3,233.1,160.7,231.4,162.1,229.7z"/>
		<path class="st10" d="M240,193.5c-1.1-0.3-2.2-0.6-3.4-0.9c1.8-2.9,2.1-5.9,0.3-9c1.2-1.4,2.8-2.2,4.7-2.2c1.2,3.6,0.1,7.3,0.3,11
			C241.3,192.8,240.6,193.2,240,193.5z"/>
		<path class="st0" d="M237.9,170.5c-1.3-4.3,2.2-5.3,4.9-6.5c2.9-1.3,4.1,0.7,4.9,3c-1.6,1.6-4.8-0.1-5.8,2.8
			C240.6,170,239.2,170.3,237.9,170.5z"/>
		<path class="st0" d="M170.8,215.9c-2.9,2.3-1.6,4.6,0.2,6.8c-4-1.1-5.3-5-8-7.5c0.1-0.4,0.2-0.7,0.3-1.1c2.9-2.3,5.3-1,7.6,1
			c0,0,0.2,0.3,0.2,0.3C170.9,215.5,170.8,215.7,170.8,215.9z"/>
		<path class="st0" d="M213.8,214.8c-1.5-0.3-3.1-0.7-4.6-1c-0.1-0.2-0.2-0.4-0.2-0.6c2.1-2.2,0.2-4.4,0.1-6.6
			c1.6,0.4,3.2,0.8,4.8,1.2c0.3,0.3,0.6,0.6,0.9,0.9C215,210.8,215,212.9,213.8,214.8z"/>
		<path class="st0" d="M196.9,209.7c-1.1-1.1-2.4-1.2-3.9-1.1c-0.1-0.2-0.1-0.5,0-0.7c1-2,2-4,3-6.1c0-0.2,0.1-0.3,0.2-0.5
			c1.6,0.8,3.3,1.7,4.9,2.5c-0.8,2.1-4.1,2.6-3.3,5.6C197.5,209.7,197.2,209.7,196.9,209.7z"/>
		<path class="st0" d="M178,227.1c-1.7-0.5-3.4-0.1-5,0.4c0-1.9-2.5-2.8-2-4.9c2.7,0.1,5.4,0.2,8,0.3
			C178.6,224.3,178.3,225.7,178,227.1z"/>
		<path class="st11" d="M357.7,113.7c-4.9,0.9-6.6-1.4-5.8-6c0,0,0,0,0,0c0.9,0,1.7-0.2,2.1-1.1
			C356.2,108.5,356.8,111.2,357.7,113.7z"/>
		<path class="st4" d="M429,231.7c-0.1-0.6,0-1.6-0.4-1.8c-1.1-0.5-0.5,0.7-0.7,1c-0.9,1.3-0.9,1.4-2.1-0.9c1.2-2.3,2.5-4.5,3.7-6.8
			C429.8,226.2,430.4,229,429,231.7z"/>
		<path class="st10" d="M241.9,169.8c1-2.9,4.2-1.2,5.8-2.8c0.5-0.1,1-0.4,1.4-0.2c1.2,0.5,0.2,0.9-0.2,1.2c-1.2,1.1-3,1.6-3.3,3.5
			c-1.5-0.3-2.2,1.2-3.5,1.4C241.4,171.9,241.3,170.9,241.9,169.8z"/>
		<path class="st9" d="M166.9,257.6c2.6-0.3,4.3,2.1,6.8,2.1c0.1,0.3,0.1,0.6,0.1,0.9C169.6,264.1,168.6,260.1,166.9,257.6z"/>
		<path class="st14" d="M371,248.9c2-3.2,4.7-5.5,8.1-7.1C377.4,245.3,374.8,247.7,371,248.9z"/>
		<path class="st0" d="M96.8,313.2c0,1.1-0.2,2.4-1.3,2.3c-1.7-0.2-2.2-1.8-2.4-3.2c-0.1-0.8,0.3-2,1.1-1.9
			C95.8,310.5,96.5,311.8,96.8,313.2z"/>
		<path class="st10" d="M241.9,169.8c-0.6,1.1-0.5,2.2,0.3,3.2c-0.8,0.9-1.7,1.7-3,1.8c-0.7-1.2-1.4-2.4-2.1-3.7
			c0.3-0.2,0.6-0.4,0.9-0.6C239.2,170.3,240.6,170,241.9,169.8z"/>
		<path class="st5" d="M354,106.6c-0.4,0.9-1.2,1.1-2.1,1.1c0.7-1.9-3.2-2.9-0.9-5C352.5,103.6,353.4,104.9,354,106.6z"/>
		<path class="st14" d="M367,251.9c0.8-1.7,1.9-3.1,4.1-3C370.5,250.8,368.7,251.3,367,251.9z"/>
		<path class="st1" d="M423.1,208.6c0.6,0,1.2,0.1,1.9,0.1c0,1.2-0.3,2.7-1.6,2.5C422.4,211.1,422.8,209.5,423.1,208.6z"/>
		<path class="st15" d="M171.1,215.4c0,0-0.2-0.3-0.2-0.3c0.4-0.4,0.8-0.8,1.2-1.2C173.1,215.3,172.4,215.6,171.1,215.4z"/>
		<path class="st1" d="M423,194.6c0.8,1,0.9,2.1,0.2,3.2C423.1,196.8,423.1,195.7,423,194.6z"/>
		<path class="st1" d="M423.4,200.5c0.7,1.2,0.8,2.3-0.1,3.4C422.9,202.7,422.9,201.6,423.4,200.5z"/>
		<path class="st15" d="M199.8,228.8c0.9,0,1.7,0,2,1C201,229.7,200.1,229.7,199.8,228.8z"/>
		<path class="st3" d="M382.7,96.7c-0.3-0.2-0.5-0.4-0.8-0.7C382.2,96.2,382.5,96.4,382.7,96.7z"/>
		<path class="st12" d="M167.3,138.6c-0.1,0.7-0.4,1.3-1.4,1.2C166.4,139.4,166.9,139,167.3,138.6z"/>
		<path class="st3" d="M262,383c0.4,0,0.8-0.1,1.2-0.1C262.8,382.9,262.4,383,262,383z"/>
		<path class="st11" d="M283,131.8c-3.2,2.5-6.3,5.1-10,6.9c-0.3-0.6-0.6-1.2-0.9-1.7c-0.7-1-3.1-1.3-1.9-3.2c0.9-1.3,2,0.2,3,0.4
			c1.5,0.4,1.6-0.5,1.8-1.6l0,0c1.8,0,3.6,0.2,4.9-1.6C281.3,129,282.5,129.4,283,131.8z"/>
		<path class="st11" d="M250.1,152.8c-3.9-0.9-3.9-0.9-2.6-2.5c0.8-1.1,2.1-2.2,3.3-1.3c2.3,1.7-1.4,1.3-1.1,2.5
			C249.8,151.9,249.9,152.4,250.1,152.8C250.1,152.8,250.1,152.8,250.1,152.8z"/>
		<path class="st11" d="M269.3,113.5c-1.9,1.4-3.8,1.5-6.5,0.3C265.4,112.2,267.4,112.8,269.3,113.5z"/>
		<path class="st11" d="M274.9,132.7c-0.7-0.1-1.4-0.3-2.2-0.4c0.1-0.1,0.1-0.3,0.3-0.4C273.9,131.6,274.5,132,274.9,132.7
			C274.9,132.7,274.9,132.7,274.9,132.7z"/>
		<path class="st3" d="M273.9,265.7c-3.5,3-7.7,3.2-12.1,2.9c6.5-4.1,12.6-8.7,17.6-14.7c-1,5.1-5,7.8-8.2,11.1
			C272,266.2,273,265.6,273.9,265.7z"/>
		<path class="st3" d="M290.9,271.4c0-0.6,0-1.1,0-1.7c4.7,0.2,9.1,1.6,13.3,3.9C299.8,272.9,295.4,272.1,290.9,271.4z"/>
		<path class="st3" d="M293.6,262.7c3.6-0.5,6.6-3.8,11.7-2.5C300.9,261.8,297.6,263.5,293.6,262.7z"/>
		<path class="st3" d="M256.9,275.5c-0.4-1.1-2.4-0.3-2.4-2.4c2.5,0.5,5,0.9,7.4,1.3C260.2,274.8,258.5,275.1,256.9,275.5z"/>
		<path class="st3" d="M267,274.4c1-0.5,1.9-1,2.9-1.5c1.5-0.2,2.8-0.1,4.1,1.6C271.3,275.1,269.2,274.7,267,274.4z"/>
		<path class="st3" d="M286,270.7c0.6,0.1,1.2,0.2,1.8,0.2C287.1,271.4,286.5,271.3,286,270.7z"/>
		<path class="st9" d="M147.3,271.4c-4.3-5.5-8.7-10.9-13-16.4c2.4-3,4.3-3.1,6.7,0.3c2.6,3.7,5.8,7.1,8.7,10.6
			C152.7,269.3,151.6,271,147.3,271.4z"/>
		<path class="st2" d="M376.9,165.8c-3.6,1.1-7.3-1-10.7-2.6c-6.8-3.2-7.4-13-1.4-18.4c6.3-5.7,19.4-5.4,25.5,0.5
			c3.5,3.4,3.7,9.6,0.5,14.4C387.9,163.6,383.4,165.8,376.9,165.8z"/>
		<path class="st9" d="M131.1,251.6c-0.6-0.4-1.2-0.7-1.9-1.1c-0.4-2.1-0.3-4,2.4-4.5c1-0.2,2.1,0.1,2.3,1.3
			C134.3,249.6,133.4,251.1,131.1,251.6z"/>
		<path class="st9" d="M165.3,255.6c1.4,0,1.5,1.1,1.7,2.1C166.1,257.3,165.5,256.6,165.3,255.6z"/>
		<path class="st11" d="M201.5,146.6c0.1,0.2,0.3,0.4,0.3,0.5c-0.1,2.3-0.4,4.5-2.3,6.1c-0.6,0.5-1.3,0-1.4-0.8
			C197.7,149.6,199.3,147.9,201.5,146.6z"/>
		<path class="st10" d="M201.2,204c-1.6-0.8-3.3-1.7-4.9-2.5c6.3-2,12.4-3,17,3.5c0.6,0.9,0.7,1.8,0.7,2.8c-1.6-0.4-3.2-0.8-4.8-1.2
			c-1.6-1.1-3.4-1.8-5.3-2.1c-0.2-0.1-0.5-0.1-0.7-0.2C202.4,204.2,201.8,204.1,201.2,204z"/>
		<path class="st3" d="M344,244.8c-1.2-1.1-5.3-1.5-1.1-4.1c1.5,2.5,2.9,0.3,4.1-0.3c6.2-3.4,6.1-3.4,10.2-3.5
			C352.3,239.8,348.2,242.3,344,244.8z"/>
		<path class="st3" d="M359.9,247.5c-0.6-0.5-1.2-0.9-1.9-1.4c2.5-0.3,4.9,0,8,0.9C363.5,247.9,361.7,247.7,359.9,247.5z"/>
		<path class="st2" d="M314.8,107.7c5.7-6.6,12-11.1,21.5-8.1c4.8,1.5,8.8,4,11.7,8.1c-0.3,10.9-4.8,15.8-14.3,16.1
			C319.3,124.3,313.9,119.9,314.8,107.7z"/>
		<path class="st11" d="M304.9,117.7c0.7,0.2,1.6,0.1,1.5,1.2c0,0.1-0.2,0.3-0.3,0.3C305,119.2,305.1,118.4,304.9,117.7
			C304.9,117.7,304.9,117.7,304.9,117.7z"/>
		<path class="st3" d="M98.8,304.8c-1.4-2.8-2.8-5.6-4.2-8.4c1.5-3,3.1-5.7,7.1-5.9c3.4-0.1,5.9,1.1,7,4.2c1.1,3.2-0.5,5.6-3.1,7.6
			C103.5,304,100.6,302.8,98.8,304.8z"/>
		<path class="st3" d="M112.9,281.8c0-3.3,1.8-5.1,4.5-6c2.9-0.9,3.6,1.3,4.3,3.4c0.2,0.5,0.2,1,0.4,1.4c1.1,2.1,3.2,4.3,1.1,6.7
			c-1.8,2-4.1,1.2-6.4,0.5C113.4,286.8,113.8,283.9,112.9,281.8z"/>
		<path class="st10" d="M250,175.9c1-0.7,2-1.5,3.1-2.2c3.5,1.5,3.2,4.1,2,6.9c-1.4,3.3-4.1,4-7.2,4c-1.2,0-1.7-0.7-1.8-1.9
			c-0.1-2,1.4-2.6,2.9-2.8C252.7,179.4,251.9,177.8,250,175.9z"/>
		<path class="st0" d="M241.6,181.5c-1.9,0-3.4,0.8-4.7,2.2c-0.3,0-0.6-0.1-0.9-0.1c-1.1-4.2-4.6-2.3-7.2-2.9c2.1-1.7,5.3-1.6,7-4
			c0.4,0,0.8,0,1.2,0c1.2,1.8,2.5,3.3,4.6,4.1C241.6,181,241.6,181.2,241.6,181.5z"/>
		<path class="st0" d="M241.6,180.8c-2.1-0.8-3.4-2.4-4.6-4.1c0.7-0.4,1.4-0.8,2-1.2c2.4,1.9,5.6,0.7,8.1,2.1
			C245.3,178.6,243.5,179.7,241.6,180.8z"/>
		<path class="st13" d="M173.8,249.8c-2-0.3-3.6-1.2-5-2.7c3.6-0.6,5.2-2.9,5.4-6.4c2-0.5,2.8,2,4.6,2c0,0.3,0.1,0.6,0.1,1
			C177.4,245.8,176.4,248.4,173.8,249.8z"/>
		<path class="st10" d="M235.9,176.7c-1.7,2.4-4.9,2.3-7,4c-0.8,0.4-1.7,0.8-2.5,1.2c-1.4,0-2.8,0-4.2,0
			C225.3,176.5,230,175,235.9,176.7z"/>
		<path class="st13" d="M174.2,240.6c-0.1,3.5-1.7,5.8-5.4,6.4c-3.4-1.1-6.7-2.1-8.2-5.9c1.1-3,2-6.1,5.3-7.5c0.3,0,0.6,0.1,0.9,0.1
			c0.3,0.3,0.7,0.5,1,0.8C170.4,236.1,173.6,237,174.2,240.6z"/>
		<path class="st6" d="M167.9,234.5c-0.3-0.3-0.7-0.5-1-0.8C167.2,234,167.5,234.3,167.9,234.5z"/>
		<path class="st10" d="M196.9,209.7c0.3,0,0.6-0.1,1-0.2c3.7,1.2,7.4,2.4,11.1,3.6c0,0.2,0,0.5,0.2,0.6c-1.9,2.2-3.9,4.7-7.2,3.6
			C198.4,216.3,197,213.3,196.9,209.7z"/>
		<path class="st10" d="M236,183.5c0.3,0.1,0.6,0.1,0.9,0.1c1.9,3,1.5,6-0.3,9c-0.5,0-1,0-1.6,0.1c-2.9-1.5-6.1-2.3-9.2-3.1
			c-1.1-0.7-2.1-1.5-0.8-2.8C228.9,186.2,232.5,184.9,236,183.5z"/>
		<path class="st0" d="M236,183.5c-3.5,1.4-7.1,2.7-10.9,3.3c-0.5-1.9,1-3.2,1.2-4.9c0.9-0.4,1.7-0.8,2.6-1.2
			C231.4,181.2,234.9,179.3,236,183.5z"/>
		<path class="st0" d="M225.9,189.6c3.2,0.8,6.3,1.5,9.2,3.1C231,194.8,227.9,193.6,225.9,189.6z"/>
		<path class="st0" d="M209,213.2c-3.7-1.2-7.4-2.4-11.1-3.6c-0.8-3,2.6-3.5,3.3-5.6c0.6,0.1,1.2,0.2,1.8,0.3c0,0,0.3,0.3,0.3,0.3
			l0.4-0.1c1.9,0.3,3.7,0.9,5.3,2.1C209.2,208.7,211.1,211,209,213.2z"/>
		<path class="st1" d="M203.7,204.5l-0.4,0.1c0,0-0.3-0.3-0.3-0.3C203.2,204.3,203.5,204.4,203.7,204.5z"/>
	</g>
</g>
</svg>
