<?xml version="1.0" encoding="utf-8"?>
<!-- Generator: Adobe Illustrator 19.2.1, SVG Export Plug-In . SVG Version: 6.00 Build 0)  -->
<svg version="1.1" id="Layer_1" xmlns="http://www.w3.org/2000/svg" xmlns:xlink="http://www.w3.org/1999/xlink" x="0px" y="0px"
	 viewBox="0 0 509 345.2" style="enable-background:new 0 0 509 345.2;" xml:space="preserve">
<style type="text/css">
	.st0{fill:#5D311D;}
	.st1{fill:#C22726;}
	.st2{fill:#FDFDFC;}
	.st3{fill:#52A446;}
	.st4{fill:#F3D883;}
	.st5{fill:#D99E43;}
</style>
<g id="bBfZia.tif">
	<g>
		<path class="st0" d="M509,203c0,3.7,0,7.3,0,11c-0.3,0.3-0.9,0.6-1,1c-3.2,28.2-18.4,49.3-39.3,67.2c-19,16.1-40.7,27.6-63.6,36.9
			c-38.1,15.4-78,22.9-119,25.2c-61.5,3.5-122.1-1.5-180.6-22.3c-27.2-9.7-52.4-23-72.7-44.2C17.3,261.3,5,243,1.5,219.9
			c-0.3-2.3,1-5-1.5-6.9c0-2.3,0-4.7,0-7c1.5-0.6,1-1.9,1.1-3c0.8-11.8,4.2-22.9,9.4-33.4c10.7-21.3,27.7-36.7,47.3-49.5
			c6.3-4.1,12.9-7.5,15.7-15.6c1.9-5.4,5.4-5.8,9.8-2.3c2.1,1.7,3.6,1.5,5.7,0.5c9.4-4.3,18.9-8.2,28.8-11.1
			c4.7-1.4,8.6-3.1,10.3-8.6c1.3-4,4.9-7,8.2-9.9c4.9-4.3,10.5-7.6,16.1-10.9c13-7.8,26.1-15.4,41.2-18.3c3.3-0.6,2.3-2.4,1.6-4.3
			c-3.6-10-4.6-20.4-4.5-31c0-2.9,1.5-5.8,0.2-8.8c0.7,0,1.3,0,2,0c8.4,4.1,17.3,7.4,25.5,11.9c11.8,6.4,24.6,11.6,32.9,22.7
			c3.3,4.4,6.5,4.9,11.3,4c12.7-2.3,25.5-2.3,38.2,0.8c2.8,0.7,5.6,0.8,8.4,0.7c10.8-0.3,21.6-0.5,32.4-0.9c3.8-0.2,4.1,0.8,2.7,4.2
			c-1.4,3.5-6.2,7.1-4,10.2c1.8,2.7,7.1,3,10.8,4.3c0.8,0.3,1.6,0.4,2.4,0.7c16.6,5.3,30.8,13.5,36.5,31.5c0.7,2.2,2.7,2.6,4.6,3.3
			c25.9,9,50.5,20.6,71.8,38c20.8,17,36.2,37.5,40.8,64.8C507.9,198.4,506.7,201.1,509,203z M431,210c-9.8,3.7-10,4-9.2,12
			c4.3-3.1,8.1-6.4,9.5-11.7c0.1-0.1,0.2-0.2,0.2-0.3c0-0.1-0.1-0.2-0.2-0.3C431.2,209.8,431.1,209.9,431,210z M102,140.6
			c-9.5,1.4-17.3,5.8-23.4,13.3c7.5-4.2,15.4-7.2,23.6-9.8c2.1-0.4,4.2-0.7,6.2-1.2c1.2-0.2,1.6-1,1.4-2.1c-0.2-1.1-0.9-1.8-2-1.5
			C105.8,139.7,103.9,140.2,102,140.6z M350.1,188.1c-9.6-4.2-17.9,0.8-26.4,3.6c6.5,0.6,12.9,0.1,19.3,1.2c6,0.6,11.9,2.2,17.7,4
			C360.7,189.9,359.3,188.8,350.1,188.1z M220.1,258.2c-5.4-1.6-5.5-1.3-5.2,4.1c0.2,3.4,1.9,4.1,4.8,3.9c2.5-0.2,5-0.2,7.4-0.2
			c5.6,0.3,11.2-0.7,16.9-1.4c-2.5-1.2-2.2-5.4-6.1-5.1C231.9,259.8,226,258.9,220.1,258.2z M267.8,203.9c-0.9,0.2-1.9,1-1.1,1.5
			c3.7,2.1,8.2,5.1,11.9,3.4c5.1-2.3,10.2-5,14.6-8.8c4.9-0.6,9-3.3,13.6-4.7c-4.2-0.9-8.6,0.8-12.3,0.1
			C283.6,193.3,276,199.2,267.8,203.9z M104.7,149.4c-11.7,1.2-31.9,13-35.2,24.2c2.6-2.3,4.8-4.2,7-6.1c8.6-7.2,19-10.8,29.3-14.5
			c1.8-0.3,3.6-0.5,5.4-0.9c1.1-0.3,3.1,0.2,2.7-1.9c-0.3-1.6-1.6-2.4-3.4-2.2C108.5,148.2,106.5,148.3,104.7,149.4z M112.9,250.8
			c8.3,3.5,16.8,6.3,25.8,8.4c-0.4-3-0.7-5.3-0.9-7.6c-0.2-1.6-0.8-2.5-2.5-2.5c-6.1-0.1-11.5-2.8-17.2-4.2c-0.5-0.3-1.1-0.7-1.6-1
			c-3.1-1.4-7.8-0.1-8.4,3c-0.7,3.2,2.9,2.6,4.4,3.9C112.6,250.8,112.8,250.7,112.9,250.8z M138.1,170c2,8.9,2.9,17.9,2.2,27
			c-0.3,3.4,2.8,2.4,4.6,3c1.7,0.6,2.8,0,2.9-2.1c0.4-8.8,0.6-17.6-2.9-25.9c-0.4-1.4-0.8-2.9-1.4-4.2c-1.1-2.6-3.5-3.6-5.7-2.5
			C135.6,166.3,137.7,168.3,138.1,170z M113.8,161.7c3.7-0.8,7.4-1.5,11.6-2.3c-4.9-4.7-9.7-2.9-14.5-1.3c-3.1-0.1-5.9,1-8.7,2
			c-13.7,4.6-25.6,11.7-33.6,24.2c-1.8,2.8-2.3,5.7-0.3,8.9c3.3-4.2,6.5-8.1,9.4-12.2c1.8-2.5,2.9-5.8,6.1-6.9
			C93.9,170.2,103,163.9,113.8,161.7z M363.8,186.1c0.6,1.9,1.2,3.8,1.7,5.7c2.9,11.6,2,21.1-8.8,28.3c-0.2,0.1-0.2,0.5-0.3,1
			c2.6,0.7,3.6,4.6,7.1,3.4c7.1-2.5,13.6-11.7,13.3-19c-0.3-7.3-3.2-13.8-7.7-19.6c-0.7-1-1.3-1.9-2-2.9c-1.1-1.6-2.7-2.2-4.3-0.9
			C360.9,183.7,362.9,184.9,363.8,186.1z M374.8,184.2c0.4,0.7,0.7,1.5,1.2,2.2c9.1,15.4,8.8,32.2-8,41.8c-1.6,0.9-1.7,1.6-0.5,3
			c1.2,1.4,2.2,2.9,3,4.6c0.9,1.9,1.9,1.6,3.5,0.8c11.9-5.7,18.8-18.3,16.8-31.1c-1.4-9.1-5.3-17-11.6-23.8
			c-0.7-0.9-1.5-1.8-2.2-2.6c-1.2-1.4-2.6-1.4-4-0.5c-2.1,1.3-0.3,2.5,0.3,3.7C373.6,183,374.3,183.5,374.8,184.2z M383.8,178.1
			c1.4,2.1,2.8,4.1,4.1,6.2c6.9,10.8,10.4,22.3,7.1,35c-2.6,10.3-9.5,17.4-18.8,22c-4.5,2.2-2.5,5.7-1.6,7.9c0.9,2.4,3.5,0.1,5-0.7
			c12.5-7,21.2-16.6,23.7-31.7c2.8-16.7-2.6-32.2-16.1-41.1c-0.5-0.4-0.9-1-1.5-1.3c-1.5-1-3.2-2.8-4.7-0.7
			c-1.4,1.9,1.3,2.6,2.1,3.8C383.2,177.8,383.6,177.9,383.8,178.1z M236,271c-4.3,0.1-8.6,0-12.9,0.2c-1.3,0.1-3.5-1-3.8,0.9
			c-0.3,1.7,1.6,2.9,3,3.5c1.9,0.9,4,1.7,6.1,2c7.8,1.3,15.7,1.9,23.7,0.8c2-0.1,3.9-0.1,5.9-0.2c0.8,0.3,1.4,0.2,2.1-0.3
			c16.2-1.1,31.2-6.1,45.7-13.2c0.9-0.4,2.5-0.6,2-2.3c-0.7-2.4-8.1-6.3-10.7-5.5C277.2,263.8,256.9,268.7,236,271z M169.9,188.9
			c-5.1,2.3-8.1,6.7-11.2,10.9c-12.6,17.1-18.7,35.9-14.6,57.2c0.9,4.4,2.5,8.7,7.5,10.4c0.3,0,0.6,0.1,0.9,0.1
			c-0.1-0.2-0.2-0.5-0.3-0.7c-0.2-2.3-0.4-4.6-0.7-6.9c-1.3-10.6,0.2-21.1,3.4-30.9c4.5-13.9,10.1-27.6,21.3-37.9
			c1.2-0.8,2.7-1.3,3.2-3.4C176,187.4,172.7,185.2,169.9,188.9z M391.9,172.1c7.6,6.3,13.3,14,16,23.6c7.4,25.4-5.8,50.8-31.2,60.1
			c-2.2,0.8-4.6,1.2-4.2,4.4c0.3,0.1,0.7,0.3,1,0.2c20.6-2.3,41-23.6,43.6-45.5c2.3-19.5-6.5-37.7-22.2-46c-0.3-0.2-0.5-0.6-0.8-0.6
			c-2.4-0.3-5.3-4.1-6.9-1.2C385.6,170,390.3,170.3,391.9,172.1z M238.2,204c1-0.9,1.9-1.8,2.9-2.6c2.5-2.1,2-3-1-3.9
			c-3.9-1.2-5.6,1.7-8,3.4c-4.7,2.7-8.3,6.7-11.8,10.7c-11.6,13.3-19,28.3-18.3,46.5c0.3,6.3,2.1,12,5.4,17.4c1.6,2.6,3.9,3.4,6.3,2
			c2.8-1.6-0.2-3.1-0.8-4.5c-1.9-4.2-3-8.4-2.9-13c0.2-11.4,4.1-21.9,9.8-31.4C225,219.9,231.1,211.5,238.2,204z M225,198.9
			c1.8-1.4,3.6-2.7,5.4-4.1c-5.2-4-9.5-2.9-13.4,1.2c-5.5,3.6-10.2,8-13.9,13.3c-14,20.4-18.7,42.5-12,66.6c0.8,2.8,2.4,3.5,4.9,3.2
			c1.9-0.2,3.9-0.4,5.8-0.6c0.4-2.1-0.9-3.5-1.6-5.2c-4.2-10-4.8-20.4-2.4-30.7C202,225.2,211.6,210.8,225,198.9z M191.5,194.1
			c2-1.6,4-3.2,7.1-5.7c-6,0.2-10.7-1.4-13.9,3.5c-2,0.6-3.3,2.1-4.8,3.5c-11.9,10.8-16.8,25.3-20.9,40.1c-2.4,8.6-3.1,17.4-2,26.2
			c1.2,10.5,5.2,14.3,14.9,13.7c-7.1-16.8-6.1-33.8-0.5-50.5C175.3,213.1,182.7,203,191.5,194.1z M208,195.9
			c2.3-1.9,4.6-3.7,7.4-5.9c-6.5-2.3-10.7,0.3-14.4,4c-0.6,0.2-1.4,0.2-1.8,0.6c-16.3,14.1-25.3,31.8-26.5,53.4
			c-0.5,9.3,1.1,18.2,5,26.7c1.5,3.2,4.2,4.1,7,3.2c2.9-1,0.5-3.5,0.2-5.1C179.5,243.1,186.6,217.4,208,195.9z M231.7,74.5
			c-12.2-3.1-21.4-9.3-28.1-18.8c-2.7-3.8-5.8-4.2-9.9-2.9c-16.6,5-31.3,13.7-45.6,23.3c-8.7,5.8-14.4,13.9-14.8,24.7
			c-0.3,6.1-3.3,10-7.7,13.8c-9,7.8-12,21.8-2.5,31.3c3.7,3.7,8.4,6.2,13.2,7.8c9.6,3.3,18.2,7.6,24.7,15.6c3.2,4,7.7,6.1,12.6,7.7
			c8,2.6,16.1,1.9,24.3,2.2c12.5,0.4,24.9,1.7,36.5,6.8c10.3,4.5,20.8,6.3,32.1,4.3c10.4-1.9,21-3.3,31.7-3.4
			c6.4-0.1,12.9-1.3,19-3.6c6.5-2.5,13.1-4.3,19.9-5.9c7-1.6,14.2-1.5,21.1-3.3c9.6-2.5,19.3-5.4,23-15.9c3-8.5,8.7-13.7,16.7-17.3
			c9.3-4.2,11.4-10.6,7.3-19.9c-2-4.5-5.7-7.4-9.3-10.2c-5.7-4.6-10.2-9.9-12.6-16.9c-4-12.1-11.4-20.7-24.3-24.1
			c-8-2.1-16.2-3.6-23.8-7.2c-2.1-1-3.3,0.6-4.7,1.9c-7.2,6.8-15.4,12-24.9,14.9c-11.9,3.6-23.8,1.9-35.5-0.7
			c-3.8-0.8-5.6-0.5-6.7,3.9c-3.1,12.8-11.5,20.3-24.4,22.5c-6.1,1.1-12.2,1.1-18.4,0.3c-2.6-0.3-4-1.2-3.1-4.2
			C220.3,91.3,223.7,82,231.7,74.5z M68.8,126.2c-19.2,12.7-36.3,26.4-47.9,46c-11.3,19.2-13,39.1-4.3,59.8
			c7.1,16.9,17.7,31.1,31.4,43.2c22.5,19.9,49.1,32.2,77.5,40.7c47.1,14.2,95.4,19.3,144.5,17.4c43.4-1.7,85.6-9.2,126.3-24.6
			c26.6-10,51.9-22.6,72.6-42.6c14-13.5,24-29.3,27-48.9c3.9-25.3-4.6-47-21.1-65.7c-18-20.3-41.6-32.2-66.2-42.5
			c-0.3-0.1-0.8,0.2-1.5,0.3c2.4,1.9,4.6,4.1,5.4,6.7c2.4,8.3,8.7,13,14.9,18c0.5,0.4,1,0.9,1.4,1.4c2,2.6,4.3,2.8,7.4,2.2
			c7.6-1.4,15.3-1.4,22.2,3c4.7,2.9,6.7,7.9,5,11.8c-1.7,3.7-6.4,5.3-11.7,4.2c-2.1-0.5-4.2-2-6.6-0.9c1.8,5.6,5.3,10,8.6,14.6
			c14,19.2,17.3,39.6,6.1,61.3c-5.8,11.2-14.5,19.9-24.7,27c-29.5,20.6-62.9,31.4-97.6,38.5c-41.3,8.5-82.9,9.8-124.7,5.2
			c-39.7-4.4-78.5-12.5-114.3-31.1c-2.5-1.3-3.2-0.8-4.1,1.7c-1.4,4-4.5,4.9-8.5,4.2c-6.4-1.3-9-5.2-7.7-13.2
			c0.6-3.6-0.5-5.4-3.2-7.3c-5.7-4.1-10.7-9-15.2-14.4c-17.5-20.6-18.7-48-2.5-69.4c5.8-7.7,12.1-15,17.2-23.1
			c0.8-1.2,2.2-1.9,0.8-3.8C71.4,140.3,70,133.7,68.8,126.2z M337.1,289.5c-4.5-5.1-9.6-3.6-14.7-3c-14.7,1.6-29.5,3.4-44.1,0.6
			c-18.9-3.7-38.2,0.8-57-3.8c-0.3-0.1-0.7,0-1,0.1c-10.5,2.5-21.1,2.1-31.6,1.2c-17.4-1.4-34.4-4.1-47.6-17.2
			c-0.7-0.7-1.6-1-2.7-1.2c-10.3-2.2-20.1-5.9-29.5-10.4c-6.4-3-7.2-2.7-9.8,3.9c-0.8,1.9-0.6,3,1.4,3.9c5.1,2.4,10,5.2,15.2,7.5
			c39.7,17.6,81.8,23.6,124.7,25.8c23,1.2,45.9,0,68.7-2.9C318.3,292.6,327.5,290.9,337.1,289.5z M196.4,7.1
			c-1.1,7.3,0.5,13.5,1.7,19.7c2.1,10.8,6.4,20.6,14.4,28.4c11.4,11.1,24.9,15.2,40.6,12.5c2.9-0.5,2.9-2.3,2.8-4.3
			c-0.9-10-5.1-18.4-11.7-25.8c-7.5-8.4-17.4-13.1-26.8-18.5C210.6,15.1,203.8,11.3,196.4,7.1z M454.5,189.3
			c-1.2,2.4-2.4,3.9-2.4,6.1c-0.1,21.7-10.9,36.5-30,45.5c-7,3.3-13,7.7-18.7,13c-9,8.4-19.6,13.8-32.2,13.9c-4.2,0-6.1,2.8-8.6,5.7
			c6,0.7,7.7,0.9,8.6,3c1.7,4.1,4.2,3,7,1.8c1.5-0.6,3.1-1.1,4.7-1.7c20.9-8.1,41-17.8,57.2-33.6C455.4,228.3,462.4,211,454.5,189.3
			z M336.6,44.9c-16.2-0.1-31.8,0-47,4.2c-7.5,2.1-14.2,5.6-19.7,11.1c-7.7,7.8-7.4,8.4,2.8,11.7C298.8,80.2,326.2,65.1,336.6,44.9z
			 M279.7,234.8c4.4-0.6,8.6,2.4,12.7,1c9.2-3.2,18.4-6,28.2-7.2c8.3-1.1,16.2-1.3,24,1.8c10.4,4.1,16.2,14.9,14.2,25.8
			c-0.9,4.9-3.3,9-6.4,12.7c-0.5,0.6-1.8,1.1-0.7,2.4c1,1.2,2,0.1,2.6-0.2c13.8-8.4,18.9-23,9-37.3c-7.6-11.1-18.8-14.6-31.7-14
			C313.1,220.5,296.6,228.1,279.7,234.8z M268,245c3.1,0,5.1,0.1,7,0c15.2-1.2,27.6,4.7,38.2,15.1c4.9,4.8,9.6,9.7,14.5,14.5
			c8.5,8.2,18.6,12.1,30.5,10.9c2.7-0.3,7.2,0.9,7.3-3.2c0.1-4.3-4.5-3.6-7.4-3.8c-10.4-0.6-19.3-4.5-27.3-11
			c-5.6-4.5-10.3-10-15.3-15C302,238.8,283.3,235.7,268,245z M249.8,72.9c-6.7-0.1-12.6,2-16.5,7.5c-4,5.7-7.4,11.8-10.9,17.8
			c-1.6,2.7-0.4,3.6,2.4,3.3c5.5-0.5,10.9-1.1,16.2-2.4c8.2-1.9,13.4-6.9,16.5-14.5C261.1,76.2,259,72.9,249.8,72.9z M304.4,237.3
			c3,1.9,5.7,3.1,7.6,4.9c2.6,2.5,5.2,2.8,8.6,1.8c5.3-1.5,10.9-1.9,16.3-0.3c6.1,1.7,8.7,6.8,6.7,12.8c-0.9,2.8-2.5,5.1-4.5,7.2
			c-2.1,2.2-1,3,1,4.4c4.4,3.1,6.3-0.4,8.4-3c8.6-10.8,5.4-26.7-6.5-30.4C329.5,230.7,317.2,233.7,304.4,237.3z M84,264.6
			c-0.6,2.7,1.3,3.8,3.2,4.4c2.3,0.7,2.6-1.4,3.2-2.9c1.9-5.3,4-10.6,6.8-15.5c8.1-14,22.3-21.8,36.4-19.1c5.6,1.1,4.8-2.2,5.8-5.3
			c1.4-4.6-2.5-3.8-4.2-4.1c-11.9-1.7-22.6,1.2-31.8,9.1C93,240.1,86.9,251.5,84,264.6z M122.8,100.8c-12.5,4.1-23.8,9.3-35,14.7
			c-1.5,0.7-3,1.4-3,3.5c-0.1,5.6,0.6,10.9,4.9,15.1c2,1.9,3.5,2.5,5.9,0.5c2.9-2.4,6.2-4.4,9.6-6.1c2.4-1.2,3.8-2.6,4.5-5.4
			c1.3-6,4-11.2,8.9-15.2C120.7,106.3,122,104,122.8,100.8z M59.2,188.4c-2.7,5.1-3.7,9.6-4,14.2c-1.2,20.3,9.7,34.5,24.1,46.9
			c1.5,1.3,2.2,0.9,3.2-0.9c3.7-6.8,3.8-6.7-2-12.3c-1.1-1-2.1-2.2-3.1-3.3C66.4,220.6,62.3,205.3,59.2,188.4z M222,242
			c0.4,3,1.1,7,5.3,9c3.9,1.8,5-2,7-4c2.9-2.9,5.1-1.8,7.6,0.7c2.1,2.2,2.2,4.7,2.1,7.4c-0.1,2.3,0.9,3.9,3.1,4.5
			c2.6,0.7,4.2-0.8,5.1-2.9c0.6-1.5,0.6-3.2,0.8-4.9c0.4-5.1,3-8.6,7.6-10.7c1.8-0.8,5.3-0.6,4.6-3.4c-0.7-2.8-4-1.4-6.2-1.5
			c-1.1,0-2.3,0.5-3.3,1c-7.8,3.6-15.5,5-22.6-1.6c-0.5-0.4-1.1-0.7-1.7-1C226.1,232.5,222.1,235.1,222,242z M286.6,211
			c4.3,0.9,8.2,2.8,12.8,0.3c5.2-2.8,11.1-4.2,17-5.5c13.5-2.8,27.1-2.5,40.6,0c1.3,0.2,3.2,1.9,4-0.9c0.8-2.9-1.5-2.7-3.1-3.4
			c-0.2-0.1-0.3-0.1-0.5-0.2c-14.6-4.8-29.4-5-44.3-1.9C303.6,201.6,294.8,205.4,286.6,211z M147.8,206c-1.8-0.3-3.6-0.8-5.3-1
			c-12.3-1.8-20.8-10.3-28.8-18.5c-3.6-3.7-6.5-9-9.4-13.7c-1.3-2.2-3-2.2-5.1-1c-2.1,1.3-1.9,2.8-0.6,4.6c2,2.8,3.8,5.9,6,8.5
			c9.3,11,18.7,22.1,33.3,26.6C145.1,213.7,145.1,213.8,147.8,206z M283.6,226.5c-15.2-0.6-28.5-3.4-40.8-10.2
			c-6.2-3.5-6.1-3.5-10.3,2.3c-1.3,1.7-1.1,2.6,0.5,4c4.2,3.5,9,5.4,14.1,6.7C259.1,232.5,271.1,233.8,283.6,226.5z M108.7,204.9
			c0.8,0,1.7,0.1,2.5,0c1.6-0.2,3.7,0.9,4.5-1.1c0.6-1.7-1.5-2.5-2.6-3.2c-6.5-3.8-10.2-9.7-13.7-16.1c-1.2-2.1-3.2-3.8-5.1-5.4
			c-2.6-2.1-5.6-1.6-8.5-0.7c-1.3,0.4-1.8,1.6-1.6,2.8c0.7,3.5,4,2.1,6.1,3.1c0.1,0.1,0.3,0.1,0.5,0.1c5.5,1.5,6.6,3.8,4.6,9.2
			c-1.3,3.3-2.9,6.3-4.8,9.2c-1.4,2.2-2,4.9,0.5,6.8c2.4,1.8,5.1,0.8,6.6-1.3C100.5,204.6,104.5,204.7,108.7,204.9z M299.7,220.6
			c0-0.5,0.1-1,0.1-1.4c-2.6-0.4-5.2-0.8-7.7-1.1c-13.6-1.9-26.9-5.1-38.3-13c-4.4-3.1-6.5-1.5-9.6,0.9c-2.7,2.1-2.8,3.4,0.4,5.2
			c7.5,4.2,15.4,6.9,23.8,8.5C278.8,221.5,289.3,221.7,299.7,220.6z M412.7,175.1c0.4-0.9,0.8-1.5,1-2.1
			c8.4-19.4,20.2-25.8,40.8-22.2c1.4,0.2,2.7,0.6,3.4-1c0.9-1.8,0.2-3.2-1.4-4.3c-5.3-3.5-11.1-4.2-17.2-3.2
			c-14,2.4-21.4,12.8-28.4,23.7C408.7,169.6,408.8,172.5,412.7,175.1z M72.1,197.8c-1.7,4.3-1.6,8.6-0.2,12.9
			c2.9,8.9,8.2,16.2,15,22.5c1.5,1.4,2.8,4,5.4,0.8c1.9-2.4,2.9-3.9,0-6.2c-3.7-2.9-6.4-6.7-9.2-10.4
			C78.4,211.6,75.6,204.7,72.1,197.8z M420.6,192.9c2.3-1.4,4.1-3,6.3-3.7c7-2.3,10.7-7.7,13.7-13.7c1.8-3.7,3-7.8,1.5-12.1
			c-0.4-1.1-0.6-2.4-2.1-2.3c-1.4,0.1-1.1,1.5-1.4,2.3c-3.4,9.1-8.7,16.5-17.5,20.8c-2.8,1.4-3.2,2.7-1.8,5.2
			C419.8,190.4,420.1,191.5,420.6,192.9z M277.2,280.4c0.6,0.6,0.8,1.1,1.1,1.1c13.4,2.4,26.1-0.4,38.2-6.2c0.7-0.3,1.6-0.6,1.5-1.7
			c-0.2-2.7-5.8-6-8.2-4.8C299.5,274,288.7,277.8,277.2,280.4z M292.3,252.7c-7-1.6-14-4-21-1.7c-6.5,2.1-14.9,2.2-16.3,12.2
			C267.7,260.5,280.3,258,292.3,252.7z M74.1,122.7c0.5,6.5,1.8,12.6,4.7,18.4c1.7,3.5,3.3,1.9,5.3,0.5c1.8-1.2,4-1.7,1.5-4.5
			c-3.3-3.7-4.4-8.4-4.7-13.3c-0.3-4.8,0.2-9.6,1.2-14.3c0.4-2.1,0-3.8-2.1-4.3c-2.3-0.5-2.5,1.7-3,3.2
			C75.4,113.1,74.7,118,74.1,122.7z M357.6,211.7c-17.7-4.1-33-3.4-49.4,2.1c5.6,1.1,10.5,1.2,15.4,0.6c7.5-0.9,15.1-1.3,22.2,1.6
			C351.2,218.2,354.2,215.8,357.6,211.7z M439.9,196.2c0-0.3,0-0.7,0-1c-0.1-7,0.9-7.8,7.5-5.9c0.6,0.2,1.5,0.3,1.9,0
			c1.3-1.1,1-2.8,0.7-4.2c-0.4-1.9-0.8-4-3-4.9c-1.8-0.7-2.8,0.3-3.6,1.8c-3.7,6.4-9.3,10.1-16.4,11.9c-2.7,0.7-6.2,2.2-4.5,5.7
			c1.6,3.2,3.9-0.1,5.8-0.9c4-1.8,6.7-1.1,7.6,2.2c0.3,1.3-0.7,3.6,1.6,3.4c1.7-0.2,2.1-2.4,2.3-4
			C440,198.9,439.9,197.6,439.9,196.2z M415.4,235.8c17.1-3.4,31.4-22.3,28.7-38.3c-1.1,5.6-4.5,9.9-7.1,14.7
			c-4,7.1-8.8,12.9-16.1,16.6C417.8,230.3,416.2,232.5,415.4,235.8z M124,165.8c3.6,6.6,5.5,13.8,3.8,21c-1.2,4.9,1.1,6.5,4.4,8.5
			c2.1,1.2,2.9,0.9,3-1.6c0.2-8-0.2-15.9-2.8-23.6C130.9,166,128.8,163.8,124,165.8z M321.6,249.8c-0.5,0.7-1,1.5-1.5,2.2
			c3.6,2.9,7.5,5.6,10.8,8.9c2.8,2.9,4.2,2.2,5.6-1c0.6-1.3,1.4-2.7,1.8-4.1c1.4-4.6,0.3-6.4-4.5-7.3
			C329.5,247.7,325.6,248.9,321.6,249.8z M84.8,210.6c0.1-3.6-0.2-6.3,1.2-8.3c3.1-4.2,1.4-7.8-0.4-11.9c-1.2-2.8-3.7-4-5.7-3.4
			c-2.2,0.7-3.3,3.5-2.6,6.3C78.7,199,80.8,204.5,84.8,210.6z M122.5,186.9c1.2-6.3,0.2-11.7-2.5-16.8c-1.9-3.5-7.8-4.1-10.6-1.2
			c-0.6,0.6-0.7,1.1-0.2,1.6C113.6,175.8,116.8,181.9,122.5,186.9z M109.7,219.4c-4.7-2.2-7.7-8.4-13.8-3.5c-0.8,0.6-1.9,1-3-0.3
			c-0.6-0.8-1.9-0.8-2.6,0.1c-0.7,0.9-0.4,1.9,0.3,2.7c2.4,2.5,4.8,5,7.3,7.4c0.7,0.7,1.4,1,2.5,0.2
			C103.3,223.9,106.3,221.9,109.7,219.4z M130.1,214.5c-7.8-4.9-15.7-7.5-24.8-6.3C111.5,219.2,120.8,216.2,130.1,214.5z
			 M434.5,157.4c-9.5,5-14,12-15.8,21.9C427.5,174.3,432.1,167.4,434.5,157.4z M151.4,172.6c2,8.4,1.7,16.2,1.8,24.7
			C160.7,189.4,159.9,179.7,151.4,172.6z M275.6,47.8c-0.1-0.5-0.2-1-0.3-1.6c-4.9,0.6-10.2,0.3-14.6,2.1c-2.1,0.8,0.9,5.4,0.8,8.3
			c0,0.2,0.4,0.5,0.8,1C266.3,53.8,270.5,50.1,275.6,47.8z M393.8,161.9c0.4-0.1,0.8,0,1-0.2c3.8-3.8,8.2-7.1,11.3-11.7
			c0.6-0.9,0.2-2-1.2-2c-2.8-0.1-12.6,7.7-13.6,10.5C390.5,161.1,392.4,161.2,393.8,161.9z M417.9,135.9c-1.3,5.4-3.3,10.4-6.2,15.4
			c3.7-0.6,4.9-3.6,7-5.3C425.2,141,425.1,140.9,417.9,135.9z M120.1,238.9c4.9,3,9.5,3.6,13.9,4.7c1.3,0.3,3.1,1.1,3.4-1.3
			c0.2-1.7,0.1-3-2.2-3.6C130.5,237.5,125.8,237.6,120.1,238.9z M248.2,235.7c-6.4-3.2-13.1-4.9-18.7-9c-0.8-0.6-1.6-1.4-2.6-0.3
			c-0.4,0.5-1,1.2-0.9,1.7c0.3,1.4,1.6,0.8,2.5,0.9c3.7,0.7,6.6,3.1,9.7,4.9C241.2,235.7,244.2,237.5,248.2,235.7z M410.3,155.5
			c-0.2-0.2-0.5-0.4-0.7-0.7c-2.2,2.4-4.2,5-6.8,7c-3.3,2.6-2.9,4.2,0.9,5.5C405.9,163.5,408.1,159.5,410.3,155.5z M217.7,244.2
			c-2.5,7.6-2.5,7.6,2.6,7.5C219.5,249.5,218.8,247.3,217.7,244.2z M236.9,253.5c0.9-0.2,2.3,0.2,2.1-1.7c-0.1-1-0.2-2.2-1.5-2
			c-1.4,0.2-2.2,1.4-2.4,2.7C234.9,253.6,235.9,253.6,236.9,253.5z M407.5,146.2c-0.1,0.1-0.3,0.2-0.3,0.3c0,0.1,0.2,0.2,0.3,0.3
			c0.1-0.1,0.3-0.2,0.3-0.3C407.8,146.5,407.6,146.4,407.5,146.2z"/>
		<path class="st1" d="M231.7,74.5c-8,7.5-11.5,16.8-14.3,26.4c-0.9,3,0.5,3.9,3.1,4.2c6.1,0.7,12.3,0.7,18.4-0.3
			c12.9-2.2,21.3-9.7,24.4-22.5c1-4.3,2.9-4.7,6.7-3.9c11.8,2.6,23.6,4.3,35.5,0.7c9.6-2.9,17.7-8.1,24.9-14.9
			c1.3-1.3,2.6-2.9,4.7-1.9c7.6,3.6,15.8,5.1,23.8,7.2c12.8,3.4,20.2,12,24.3,24.1c2.3,7,6.8,12.3,12.6,16.9
			c3.6,2.9,7.3,5.7,9.3,10.2c4,9.3,2,15.8-7.3,19.9c-8,3.6-13.7,8.7-16.7,17.3c-3.7,10.5-13.3,13.4-23,15.9
			c-6.9,1.8-14.1,1.7-21.1,3.3c-6.8,1.6-13.4,3.4-19.9,5.9c-6.1,2.3-12.6,3.5-19,3.6c-10.7,0.1-21.2,1.5-31.7,3.4
			c-11.3,2-21.7,0.3-32.1-4.3c-11.6-5.1-24-6.4-36.5-6.8c-8.1-0.3-16.3,0.4-24.3-2.2c-4.9-1.6-9.3-3.7-12.6-7.7
			c-6.5-8-15.1-12.3-24.7-15.6c-4.8-1.6-9.5-4.1-13.2-7.8c-9.5-9.4-6.5-23.4,2.5-31.3c4.4-3.8,7.4-7.7,7.7-13.8
			c0.5-10.8,6.1-18.9,14.8-24.7c14.3-9.5,29-18.2,45.6-23.3c4.2-1.3,7.3-0.9,9.9,2.9C210.4,65.2,219.5,71.4,231.7,74.5z
			 M348.2,129.5c1.8,0.9,2.9-0.2,4.3-0.7c4-1.4,7.6-7.6,12.4-1.2c0.2,0.2,1.2-0.1,1.9-0.3c2.1-0.4,4.2-0.8,6.3-1.4
			c2.1-0.6,6.1,0.5,5.8-1.9c-0.4-2.9-4.4-1.7-6.9-1.7c-1.6,0-3.2,0.7-4.8,1c-0.8,0.2-2.1,0.5-2.3,0.2c-2.8-4.3-6.3-1.8-9.3-0.8
			C352.2,123.7,349.3,125.7,348.2,129.5z M314.1,130.5c-7.7-5.8-16.1-5.1-24.6-2.5c-1.2,0.4-2.8,1.3-2.2,2.8
			c0.8,1.7,2.3,0.6,3.4,0.1c3-1.4,6.2-0.8,9.3-1C304.8,129.4,309.4,130.7,314.1,130.5z M189.4,101.9c1.1-0.2,3.7,1.3,4.1-1.1
			c0.3-2.1-2.5-1.8-3.9-2.1c-2.9-0.7-5.6-1.1-7.8-3.7c-1.7-2-4.5-2-7-1.8c-1.2,0.1-2.4,0.5-2.5,2c-0.1,1.8,1.4,1.6,2.5,1.6
			c2-0.1,3.6,0.5,5,1.9C182.3,101.1,185.4,102,189.4,101.9z M288.5,179.5c2.6,2.4,4.6,2.3,6.6,2.6c6.4,1.1,12.1-1.4,18-3
			c1.1-0.3,2.7,0,2.7-1.6c0-1.9-1.8-1.5-3-1.6c-3.3-0.4-6.2,1.1-9.2,1.9C299,179.1,294.1,178.3,288.5,179.5z M215.5,173.1
			c-1.8,0-4.6-0.3-4.7,1.5c-0.2,2.6,2.7,1.2,4.2,1.7c1.4,0.5,2.9,0.7,4.3,1.2c4.5,1.6,9,3.3,13.5,4.9c0.9,0.3,2,1,2.7,0
			c0.8-1.1-0.3-1.8-1.2-2.2C228.3,177.2,222.7,173.2,215.5,173.1z M227.2,155.7c1.7-0.1,4.3,0.5,4.3-2c0-2.3-2.6-1.2-4-1.6
			c-1.4-0.4-2.8-0.9-4.3-1.2c-3-0.8-5.9-2.2-9.2-1.7c-1.1,0.2-1.9,0.6-1.9,1.8c0,1,0.7,1.5,1.6,1.6
			C218.4,152.8,222.4,155.9,227.2,155.7z M362.8,87.2c-1.3,0.2-3.2-0.5-4.1,1.5c-0.3,0.7,0.4,1.2,1.1,1.3c4.5,0.5,8,3,11.3,5.8
			c0.8,0.6,1.8,1.2,2.7,0.3c1.3-1.2,0.2-2-0.4-3C370.9,89.5,367.5,87.3,362.8,87.2z M383.6,142.9c-0.5-1.9-1.9-2.1-3.4-1.5
			c-4.6,2-8,5.2-9.8,9.9c-0.4,1.2-0.1,3.1,1.2,2.1c4.2-3,8-6.6,11.9-10C383.6,143.4,383.6,143.2,383.6,142.9z M266.2,100.3
			c6.9-1.9,12.8-1.2,19.3-1.3C279.8,93.4,271.3,93.7,266.2,100.3z M299.6,104.6c-6.2-5.2-14.3-4.9-17.8,0.6
			C287.9,104.2,293.7,103.3,299.6,104.6z M169.6,135.9c-1.7,0.3-4.5-0.3-4.7,1.6c-0.2,2.6,2.7,2,4.5,2.3c0.8,0.1,1.6,0.2,2.4,0.4
			c1.7,0.5,3.9,2.8,4.7-0.5c0.6-2.5-2.2-2.8-4-3.4C171.7,136,170.6,136,169.6,135.9z M247.4,158.4c1,0.1,2,0.3,2.4-1
			c0.3-0.9-0.1-1.7-0.9-2c-2.8-1-5.6-2-8.4-2.8c-1.2-0.3-2.4,0.1-2.8,1.4c-0.3,1.2,0.8,1.7,1.6,2.2
			C241.8,157.6,244.5,158.1,247.4,158.4z M346.5,94.3c1.3-0.3,4.6,1.9,4.7-1.4c0.1-2.6-3.5-2.5-5.7-2.6c-2.1-0.1-5.3,0.6-5,2.9
			C341,96.3,344.1,94.1,346.5,94.3z M191.4,62.2c-1,0.2-2.4,0.3-3.6,0.6c-1.5,0.4-3.8,0.7-3.3,2.9c0.6,2.3,2.6,1,4.1,0.7
			c1.1-0.2,2.3-0.2,3.4-0.4c1.4-0.3,3.9,0.6,3.7-2C195.5,61.6,193.2,62.6,191.4,62.2z M158.1,157.6c-0.4-1.7-1.9-2.9-3.6-4
			c-1.7-1.1-3.4-2.2-5.5-1.3c-1.3,0.6-1.7,2.1-0.6,2.8c2.4,1.7,5.1,3,7.7,4.3C157.4,160.1,157.9,159.2,158.1,157.6z M321.2,176.2
			c3.3-0.1,8.7-3.4,8.4-5.1c-0.2-1.1-1.2-1.3-1.9-1c-3.2,1.4-7.4,1.3-9.1,4.9C318.1,176.1,320.1,176.1,321.2,176.2z M199.5,105.9
			c-1.4,0.2-3.5-0.4-3.3,1.4c0.4,2.9,3.5,1.5,5.3,2.5c0.8,0.4,2.4,0.4,2.3-0.9C203.7,106.1,201.1,106.6,199.5,105.9z"/>
		<path class="st2" d="M68.8,126.2c1.3,7.5,2.6,14.1,6.7,19.6c1.4,1.8,0,2.6-0.8,3.8c-5.2,8.1-11.5,15.4-17.2,23.1
			c-16.2,21.4-15,48.8,2.5,69.4c4.5,5.4,9.5,10.3,15.2,14.4c2.7,1.9,3.8,3.7,3.2,7.3c-1.3,8,1.3,11.9,7.7,13.2
			c3.9,0.8,7.1-0.2,8.5-4.2c0.8-2.5,1.5-3,4.1-1.7c35.9,18.6,74.6,26.7,114.3,31.1c41.8,4.6,83.5,3.3,124.7-5.2
			c34.7-7.1,68.1-17.9,97.6-38.5c10.2-7.1,18.9-15.9,24.7-27c11.2-21.7,7.9-42.1-6.1-61.3c-3.3-4.6-6.8-8.9-8.6-14.6
			c2.4-1,4.4,0.5,6.6,0.9c5.3,1.1,10-0.5,11.7-4.2c1.7-3.9-0.3-8.9-5-11.8c-6.9-4.4-14.6-4.4-22.2-3c-3.1,0.6-5.5,0.4-7.4-2.2
			c-0.4-0.5-0.9-1-1.4-1.4c-6.2-5-12.5-9.7-14.9-18c-0.7-2.6-2.9-4.7-5.4-6.7c0.7-0.2,1.2-0.5,1.5-0.3
			c24.6,10.3,48.2,22.2,66.2,42.5c16.5,18.7,25,40.4,21.1,65.7c-3,19.5-13,35.4-27,48.9c-20.8,20-46,32.6-72.6,42.6
			c-40.7,15.4-82.9,22.9-126.3,24.6c-49.1,1.9-97.4-3.2-144.5-17.4c-28.4-8.6-55-20.9-77.5-40.7c-13.7-12.1-24.3-26.3-31.4-43.2
			c-8.7-20.7-7-40.5,4.3-59.8C32.4,152.6,49.6,138.9,68.8,126.2z"/>
		<path class="st2" d="M337.1,289.5c-9.5,1.5-18.8,3.1-28.1,4.3c-22.8,3-45.8,4.1-68.7,2.9c-42.8-2.2-85-8.2-124.7-25.8
			c-5.2-2.3-10.1-5.1-15.2-7.5c-1.9-0.9-2.1-2-1.4-3.9c2.6-6.6,3.4-6.9,9.8-3.9c9.5,4.5,19.2,8.2,29.5,10.4c1,0.2,1.9,0.5,2.7,1.2
			c13.2,13.1,30.2,15.9,47.6,17.2c10.6,0.8,21.2,1.3,31.6-1.2c0.3-0.1,0.7-0.1,1-0.1c18.8,4.6,38.1,0.1,57,3.8
			c14.6,2.9,29.4,1,44.1-0.6C327.4,285.9,332.5,284.3,337.1,289.5z"/>
		<path class="st3" d="M196.4,7.1c7.4,4.2,14.2,8,20.9,11.9c9.4,5.4,19.4,10.1,26.8,18.5c6.6,7.4,10.8,15.8,11.7,25.8
			c0.2,2,0.2,3.8-2.8,4.3c-15.7,2.8-29.2-1.4-40.6-12.5c-8-7.8-12.3-17.6-14.4-28.4C196.9,20.7,195.3,14.5,196.4,7.1z"/>
		<path class="st2" d="M454.5,189.3c7.9,21.7,0.9,39-14.3,53.8C424,259,403.9,268.7,383,276.8c-1.5,0.6-3.2,1-4.7,1.7
			c-2.8,1.2-5.3,2.3-7-1.8c-0.9-2.1-2.6-2.3-8.6-3c2.5-2.9,4.4-5.6,8.6-5.7c12.7-0.1,23.2-5.5,32.2-13.9c5.6-5.3,11.6-9.7,18.7-13
			c19.1-9.1,29.9-23.9,30-45.5C452.1,193.3,453.3,191.7,454.5,189.3z"/>
		<path class="st3" d="M336.6,44.9c-10.4,20.2-37.8,35.3-63.9,27c-10.3-3.3-10.6-3.9-2.8-11.7c5.5-5.5,12.2-9,19.7-11.1
			C304.8,44.8,320.4,44.8,336.6,44.9z"/>
		<path class="st4" d="M279.7,234.8c16.9-6.7,33.4-14.3,51.8-15.1c13-0.6,24.1,2.9,31.7,14c9.8,14.4,4.7,28.9-9,37.3
			c-0.6,0.4-1.5,1.5-2.6,0.2c-1.1-1.3,0.3-1.8,0.7-2.4c3.1-3.8,5.5-7.9,6.4-12.7c1.9-11-3.9-21.8-14.2-25.8c-7.7-3-15.7-2.9-24-1.8
			c-9.8,1.3-19,4-28.2,7.2C288.3,237.2,284.1,234.2,279.7,234.8z"/>
		<path class="st4" d="M208,195.9c-21.3,21.5-28.5,47.3-23.2,76.9c0.3,1.6,2.7,4.1-0.2,5.1c-2.8,0.9-5.5,0-7-3.2
			c-4-8.5-5.5-17.4-5-26.7c1.2-21.5,10.2-39.3,26.5-53.4c0.4-0.4,1.2-0.4,1.8-0.6C203.2,194.6,205.6,195.2,208,195.9z"/>
		<path class="st4" d="M191.5,194.1c-8.8,8.9-16.2,19-20.2,30.9c-5.6,16.7-6.6,33.7,0.5,50.5c-9.6,0.6-13.6-3.2-14.9-13.7
			c-1-8.9-0.4-17.7,2-26.2c4.2-14.8,9.1-29.3,20.9-40.1c1.5-1.3,2.9-2.8,4.8-3.5C186.7,193.7,189.4,193.2,191.5,194.1z"/>
		<path class="st4" d="M225,198.9c-13.4,11.9-23,26.3-27.1,43.8c-2.4,10.3-1.8,20.8,2.4,30.7c0.7,1.6,2,3.1,1.6,5.2
			c-1.9,0.2-3.9,0.4-5.8,0.6c-2.6,0.3-4.1-0.4-4.9-3.2c-6.7-24.2-2-46.2,12-66.6c3.7-5.4,8.4-9.8,13.9-13.3
			C219.7,197,222.4,197.9,225,198.9z"/>
		<path class="st4" d="M268,245c15.3-9.3,34-6.1,47.4,7.3c5,5.1,9.7,10.5,15.3,15c8,6.5,16.9,10.4,27.3,11c2.9,0.2,7.5-0.4,7.4,3.8
			c-0.1,4.1-4.6,3-7.3,3.2c-11.8,1.3-22-2.7-30.5-10.9c-4.9-4.8-9.6-9.7-14.5-14.5c-10.6-10.4-23-16.2-38.2-15.1
			C273,245.1,271.1,245,268,245z"/>
		<path class="st4" d="M238.2,204c-7.1,7.5-13.2,15.8-18.4,24.6c-5.7,9.5-9.6,20-9.8,31.4c-0.1,4.6,1,8.8,2.9,13
			c0.6,1.3,3.5,2.8,0.8,4.5c-2.5,1.4-4.8,0.6-6.3-2c-3.2-5.4-5.1-11.1-5.4-17.4c-0.7-18.2,6.7-33.2,18.3-46.5
			c3.5-4,7.1-7.9,11.8-10.7C234.1,201.8,236.8,201.6,238.2,204z"/>
		<path class="st4" d="M394.8,169c15.7,8.3,24.5,26.5,22.2,46c-2.6,21.9-23,43.2-43.6,45.5c-0.3,0-0.6-0.2-1-0.2
			c-0.4-3.2,2.1-3.6,4.2-4.4c25.4-9.4,38.6-34.7,31.2-60.1c-2.8-9.6-8.4-17.3-16-23.6C392.4,170.7,393.5,169.7,394.8,169z"/>
		<path class="st4" d="M176.1,191.1c-11.2,10.3-16.8,24-21.3,37.9c-3.2,9.8-4.6,20.3-3.4,30.9c0.3,2.3,0.5,4.6,0.7,6.9
			c-0.2,0.2-0.4,0.4-0.6,0.6c-4.9-1.7-6.6-6-7.5-10.4c-4.1-21.3,1.9-40.2,14.6-57.2c3.1-4.2,6.2-8.6,11.2-10.9
			C171.8,190,173.9,190.8,176.1,191.1z"/>
		<path class="st4" d="M258,278.4c-2,0.1-3.9,0.1-5.9,0.2c-4.9-3.4-11.3-3.8-16.1-7.6c20.9-2.3,41.1-7.2,61-13.9
			c2.5-0.9,10,3,10.7,5.5c0.5,1.7-1.1,1.8-2,2.3c-14.4,7.1-29.5,12.1-45.7,13.2C259.4,278.2,258.7,278.3,258,278.4z"/>
		<path class="st3" d="M249.8,72.9c9.1,0,11.3,3.3,7.7,11.8c-3.1,7.5-8.3,12.5-16.5,14.5c-5.4,1.3-10.8,1.9-16.2,2.4
			c-2.8,0.2-4-0.7-2.4-3.3c3.5-6,6.9-12.2,10.9-17.8C237.2,74.9,243.1,72.8,249.8,72.9z"/>
		<path class="st4" d="M387.2,175.8c13.6,8.9,18.9,24.4,16.1,41.1c-2.5,15.1-11.1,24.7-23.7,31.7c-1.4,0.8-4,3.1-5,0.7
			c-0.9-2.2-2.9-5.7,1.6-7.9c9.3-4.6,16.2-11.7,18.8-22c3.2-12.8-0.2-24.3-7.1-35c-1.3-2.1-2.8-4.1-4.1-6.2
			C385,177.3,386.1,176.6,387.2,175.8z"/>
		<path class="st4" d="M304.4,237.3c12.8-3.6,25-6.6,37.6-2.6c11.9,3.8,15.1,19.6,6.5,30.4c-2.1,2.7-4,6.1-8.4,3c-2-1.4-3-2.2-1-4.4
			c1.9-2.1,3.5-4.4,4.5-7.2c2-6-0.6-11.1-6.7-12.8c-5.4-1.5-11-1.2-16.3,0.3c-3.4,0.9-5.9,0.7-8.6-1.8
			C310.1,240.3,307.4,239.2,304.4,237.3z"/>
		<path class="st4" d="M84,264.6c2.9-13.1,9-24.5,19.3-33.3c9.2-7.8,19.9-10.8,31.8-9.1c1.7,0.3,5.7-0.5,4.2,4.1
			c-1,3.1-0.2,6.3-5.8,5.3c-14.1-2.7-28.4,5.1-36.4,19.1c-2.8,4.9-4.9,10.2-6.8,15.5c-0.6,1.6-0.9,3.6-3.2,2.9
			C85.3,268.4,83.5,267.3,84,264.6z"/>
		<path class="st2" d="M122.8,100.8c-0.8,3.2-2.1,5.5-4.2,7.2c-4.9,3.9-7.6,9.2-8.9,15.2c-0.6,2.7-2,4.1-4.5,5.4
			c-3.4,1.7-6.7,3.8-9.6,6.1c-2.5,2-4,1.4-5.9-0.5c-4.3-4.2-5-9.5-4.9-15.1c0-2.2,1.5-2.8,3-3.5C98.9,110.1,110.2,105,122.8,100.8z"
			/>
		<path class="st2" d="M59.2,188.4c3.1,16.9,7.2,32.2,18.3,44.5c1,1.1,2,2.2,3.1,3.3c5.8,5.5,5.7,5.5,2,12.3c-1,1.8-1.7,2.2-3.2,0.9
			c-14.4-12.3-25.3-26.5-24.1-46.9C55.4,198,56.5,193.5,59.2,188.4z"/>
		<path class="st4" d="M379.2,181.7c6.3,6.7,10.2,14.7,11.6,23.8c2,12.8-4.9,25.4-16.8,31.1c-1.6,0.8-2.6,1.1-3.5-0.8
			c-0.8-1.6-1.8-3.2-3-4.6c-1.2-1.4-1-2.1,0.5-3c16.8-9.6,17.1-26.4,8-41.8c-0.4-0.7-0.8-1.5-1.2-2.2
			C375.9,182.6,377.5,182.1,379.2,181.7z"/>
		<path class="st1" d="M222,242c0-6.9,4-9.5,9.4-7.3c0.6,0.3,1.3,0.5,1.7,1c7.1,6.6,14.8,5.2,22.6,1.6c1-0.5,2.2-1,3.3-1
			c2.2,0.1,5.5-1.3,6.2,1.5c0.7,2.8-2.8,2.6-4.6,3.4c-4.7,2.1-7.2,5.6-7.6,10.7c-0.1,1.6-0.1,3.4-0.8,4.9c-0.9,2.1-2.6,3.6-5.1,2.9
			c-2.2-0.6-3.2-2.1-3.1-4.5c0.1-2.7,0-5.2-2.1-7.4c-2.4-2.5-4.7-3.7-7.6-0.7c-1.9,2-3.1,5.8-7,4C223.2,249.1,222.5,245.1,222,242z"
			/>
		<path class="st4" d="M286.6,211c8.2-5.7,17-9.4,26.6-11.4c14.9-3.1,29.7-2.9,44.3,1.9c0.2,0.1,0.3,0.1,0.5,0.2
			c1.6,0.6,3.9,0.5,3.1,3.4c-0.8,2.8-2.7,1.1-4,0.9c-13.6-2.5-27.1-2.8-40.6,0c-5.9,1.2-11.8,2.7-17,5.5
			C294.8,213.9,290.9,212,286.6,211z"/>
		<path class="st4" d="M147.8,206c-2.7,7.8-2.7,7.7-10,5.4c-14.6-4.5-23.9-15.6-33.3-26.6c-2.2-2.6-4-5.7-6-8.5
			c-1.3-1.8-1.5-3.3,0.6-4.6c2-1.2,3.7-1.2,5.1,1c2.9,4.8,5.9,10.1,9.4,13.7c7.9,8.2,16.4,16.6,28.8,18.5
			C144.3,205.3,146,205.7,147.8,206z"/>
		<path class="st4" d="M283.6,226.5c-12.5,7.3-24.4,6-36.5,2.8c-5.1-1.4-10-3.3-14.1-6.7c-1.6-1.4-1.8-2.2-0.5-4
			c4.2-5.8,4.1-5.8,10.3-2.3C255,223.1,268.4,225.8,283.6,226.5z"/>
		<path class="st1" d="M108.7,204.9c-4.2-0.2-8.2-0.3-11.2,3.7c-1.5,2-4.3,3.1-6.6,1.3c-2.5-1.9-1.8-4.6-0.5-6.8
			c1.9-3,3.6-6,4.8-9.2c2.1-5.4,0.9-7.7-4.6-9.2c-0.2,0-0.3-0.1-0.5-0.1c-2.1-1-5.4,0.4-6.1-3.1c-0.2-1.2,0.3-2.4,1.6-2.8
			c2.9-0.9,6-1.4,8.5,0.7c1.9,1.6,4,3.3,5.1,5.4c3.5,6.3,7.2,12.3,13.7,16.1c1.1,0.6,3.3,1.4,2.6,3.2c-0.7,1.9-2.9,0.9-4.5,1.1
			C110.4,205,109.5,204.9,108.7,204.9z"/>
		<path class="st4" d="M299.7,220.6c-10.5,1.1-20.9,1-31.3-1c-8.4-1.6-16.3-4.3-23.8-8.5c-3.2-1.8-3.1-3.1-0.4-5.2
			c3.1-2.4,5.2-4,9.6-0.9c11.4,7.9,24.7,11.1,38.3,13c2.6,0.4,5.2,0.7,7.7,1.1C299.8,219.6,299.8,220.1,299.7,220.6z"/>
		<path class="st4" d="M412.7,175.1c-3.9-2.6-3.9-5.4-1.7-9c6.9-11,14.4-21.3,28.4-23.7c6.1-1.1,11.9-0.3,17.2,3.2
			c1.6,1,2.3,2.4,1.4,4.3c-0.8,1.6-2.1,1.2-3.4,1c-20.6-3.6-32.4,2.9-40.8,22.2C413.4,173.6,413.1,174.2,412.7,175.1z"/>
		<path class="st4" d="M369.1,185.9c4.5,5.8,7.4,12.3,7.7,19.6c0.3,7.3-6.2,16.5-13.3,19c-3.5,1.2-4.5-2.7-7.1-3.4
			c0.1-0.5,0.1-0.9,0.3-1c10.8-7.2,11.6-16.8,8.8-28.3c-0.5-1.9-1.1-3.8-1.7-5.7C365.6,186,367.4,185.9,369.1,185.9z"/>
		<path class="st4" d="M113.8,161.7c-10.8,2.2-19.8,8.5-30,12.2c-3.2,1.2-4.3,4.4-6.1,6.9c-2.9,4.1-6.2,8.1-9.4,12.2
			c-2-3.2-1.5-6,0.3-8.9c8-12.5,19.9-19.6,33.6-24.2c2.8-0.9,5.6-2.1,8.7-2C111.1,159.9,113.1,160.3,113.8,161.7z"/>
		<path class="st4" d="M72.1,197.8c3.5,6.9,6.3,13.7,10.9,19.7c2.8,3.7,5.6,7.5,9.2,10.4c2.9,2.3,2,3.8,0,6.2
			c-2.6,3.2-3.9,0.6-5.4-0.8c-6.8-6.3-12.1-13.6-15-22.5C70.5,206.5,70.4,202.2,72.1,197.8z"/>
		<path class="st4" d="M420.6,192.9c-0.5-1.4-0.8-2.5-1.4-3.5c-1.4-2.5-1-3.8,1.8-5.2c8.8-4.3,14.2-11.8,17.5-20.8
			c0.3-0.8,0-2.2,1.4-2.3c1.5-0.1,1.7,1.2,2.1,2.3c1.4,4.3,0.3,8.3-1.5,12.1c-3,6-6.7,11.4-13.7,13.7
			C424.8,189.9,423,191.5,420.6,192.9z"/>
		<path class="st4" d="M277.2,280.4c11.4-2.6,22.2-6.4,32.5-11.6c2.4-1.2,8,2.1,8.2,4.8c0.1,1.1-0.8,1.3-1.5,1.7
			c-12.1,5.8-24.7,8.6-38.2,6.2C278.1,281.5,277.9,281.1,277.2,280.4z"/>
		<path class="st4" d="M292.3,252.7c-11.9,5.3-24.6,7.8-37.3,10.4c1.4-10,9.9-10,16.3-12.2C278.3,248.7,285.3,251.1,292.3,252.7z"/>
		<path class="st4" d="M74.1,122.7c0.6-4.7,1.3-9.7,2.8-14.4c0.5-1.5,0.7-3.6,3-3.2c2.2,0.5,2.6,2.2,2.1,4.3
			c-1,4.7-1.5,9.5-1.2,14.3c0.3,4.9,1.5,9.6,4.7,13.3c2.5,2.8,0.3,3.3-1.5,4.5c-2,1.3-3.6,3-5.3-0.5
			C75.9,135.3,74.6,129.3,74.1,122.7z"/>
		<path class="st4" d="M357.6,211.7c-3.4,4.1-6.5,6.5-11.8,4.3c-7.1-2.8-14.7-2.5-22.2-1.6c-5,0.6-9.9,0.5-15.4-0.6
			C324.7,208.3,340,207.7,357.6,211.7z"/>
		<path class="st1" d="M439.9,196.2c0,1.3,0.1,2.7,0,4c-0.2,1.7-0.6,3.8-2.3,4c-2.3,0.2-1.3-2.1-1.6-3.4c-0.9-3.2-3.6-3.9-7.6-2.2
			c-1.9,0.8-4.2,4.1-5.8,0.9c-1.7-3.5,1.8-5,4.5-5.7c7.1-1.8,12.7-5.5,16.4-11.9c0.8-1.4,1.8-2.5,3.6-1.8c2.2,0.9,2.6,2.9,3,4.9
			c0.3,1.4,0.6,3.1-0.7,4.2c-0.4,0.3-1.3,0.1-1.9,0c-6.6-1.9-7.6-1.1-7.5,5.9C439.9,195.6,439.9,195.9,439.9,196.2z"/>
		<path class="st4" d="M144.9,171.9c3.5,8.4,3.2,17.1,2.9,25.9c-0.1,2.1-1.2,2.7-2.9,2.1c-1.8-0.6-4.9,0.3-4.6-3
			c0.7-9.1-0.1-18.1-2.2-27C140.5,170.2,142.4,172.2,144.9,171.9z"/>
		<path class="st5" d="M415.4,235.8c0.7-3.3,2.4-5.5,5.5-7.1c7.2-3.6,12.1-9.5,16.1-16.6c2.7-4.8,6-9.1,7.1-14.7
			C446.9,213.5,432.5,232.4,415.4,235.8z"/>
		<path class="st4" d="M124,165.8c4.9-1.9,6.9,0.3,8.3,4.3c2.7,7.7,3,15.6,2.8,23.6c-0.1,2.5-0.9,2.8-3,1.6
			c-3.3-1.9-5.5-3.5-4.4-8.5C129.5,179.5,127.6,172.3,124,165.8z"/>
		<path class="st4" d="M118.1,244.9c5.7,1.4,11.2,4.1,17.2,4.2c1.6,0,2.3,0.9,2.5,2.5c0.2,2.3,0.6,4.6,0.9,7.6
			c-9-2.1-17.5-4.9-25.8-8.4C114.7,248.8,116.4,246.9,118.1,244.9z"/>
		<path class="st5" d="M236,271c4.8,3.7,11.2,4.1,16.1,7.6c-7.9,1.1-15.8,0.4-23.7-0.8c-2.1-0.3-4.1-1.2-6.1-2
			c-1.5-0.7-3.4-1.8-3-3.5c0.4-1.9,2.5-0.9,3.8-0.9C227.4,271.1,231.7,271.1,236,271z"/>
		<path class="st4" d="M105.9,152.9c-10.3,3.8-20.7,7.4-29.3,14.5c-2.3,1.9-4.4,3.8-7,6.1c3.3-11.3,23.5-23,35.2-24.2
			C104.4,150.8,104.8,152,105.9,152.9z"/>
		<path class="st4" d="M321.6,249.8c4-0.8,8-2.1,12.2-1.3c4.8,0.9,5.9,2.7,4.5,7.3c-0.4,1.4-1.2,2.7-1.8,4.1c-1.4,3.1-2.8,3.8-5.6,1
			c-3.2-3.3-7.1-5.9-10.8-8.9C320.5,251.2,321,250.5,321.6,249.8z"/>
		<path class="st5" d="M267.8,203.9c8.2-4.8,15.9-10.6,26.6-8.4c3.7,0.7,8.1-1,12.3-0.1c-4.6,1.3-8.7,4.1-13.6,4.7
			c-7,0.3-13.5,2.9-20.2,4.2C271.1,204.6,269.4,205.5,267.8,203.9z"/>
		<path class="st4" d="M84.8,210.6c-4-6.1-6.1-11.5-7.5-17.3c-0.7-2.7,0.4-5.6,2.6-6.3c2-0.6,4.5,0.6,5.7,3.4
			c1.8,4,3.5,7.6,0.4,11.9C84.6,204.2,84.9,207,84.8,210.6z"/>
		<path class="st4" d="M122.5,186.9c-5.7-4.9-9-11.1-13.3-16.4c-0.5-0.6-0.3-1,0.2-1.6c2.8-2.9,8.8-2.3,10.6,1.2
			C122.7,175.1,123.7,180.5,122.5,186.9z"/>
		<path class="st4" d="M109.7,219.4c-3.4,2.5-6.4,4.4-9.2,6.6c-1.1,0.9-1.9,0.5-2.5-0.2c-2.5-2.4-4.9-4.9-7.3-7.4
			c-0.7-0.8-1.1-1.8-0.3-2.7c0.7-0.9,2-0.8,2.6-0.1c1,1.3,2.2,0.9,3,0.3C102,211.1,105,217.3,109.7,219.4z"/>
		<path class="st4" d="M220.1,258.2c5.9,0.7,11.9,1.6,17.9,1.2c3.8-0.3,3.6,3.8,6.1,5.1c-5.7,0.7-11.3,1.8-16.9,1.4
			C224.5,263.6,221.7,261.4,220.1,258.2z"/>
		<path class="st4" d="M130.1,214.5c-9.3,1.7-18.6,4.7-24.8-6.3C114.4,207,122.3,209.7,130.1,214.5z"/>
		<path class="st4" d="M434.5,157.4c-2.4,10-7,16.9-15.8,21.9C420.5,169.4,425,162.4,434.5,157.4z"/>
		<path class="st4" d="M151.4,172.6c8.5,7.2,9.3,16.8,1.8,24.7C153.2,188.7,153.4,180.9,151.4,172.6z"/>
		<path class="st4" d="M267.8,203.9c1.6,1.6,3.3,0.7,5.1,0.3c6.8-1.3,13.3-3.9,20.2-4.2c-4.3,3.8-9.5,6.5-14.6,8.8
			c-3.7,1.7-8.2-1.3-11.9-3.4C265.8,205,266.9,204.1,267.8,203.9z"/>
		<path class="st5" d="M343,192.8c-6.4-1.1-12.8-0.5-19.3-1.2c8.6-2.8,16.8-7.8,26.4-3.6C348.2,190.4,344,189.3,343,192.8z"/>
		<path class="st1" d="M275.6,47.8c-5.1,2.4-9.3,6-13.3,9.8c-0.4-0.5-0.8-0.7-0.8-1c0.1-2.9-2.9-7.4-0.8-8.3
			c4.4-1.8,9.7-1.5,14.6-2.1C275.4,46.7,275.5,47.2,275.6,47.8z"/>
		<path class="st4" d="M343,192.8c1.1-3.6,5.2-2.5,7.1-4.8c9.2,0.7,10.6,1.8,10.6,8.8C354.8,195,349,193.4,343,192.8z"/>
		<path class="st5" d="M393.8,161.9c-1.4-0.7-3.3-0.8-2.4-3.3c1-2.8,10.8-10.7,13.6-10.5c1.3,0.1,1.8,1.1,1.2,2
			c-3.1,4.5-7.5,7.9-11.3,11.7C394.6,161.9,394.2,161.8,393.8,161.9z"/>
		<path class="st4" d="M102.1,144.1c-8.1,2.6-16.1,5.6-23.6,9.8c6.1-7.5,14-11.8,23.4-13.3C102,141.8,102.1,142.9,102.1,144.1z"/>
		<path class="st4" d="M417.9,135.9c7.2,5,7.3,5.1,0.8,10.2c-2.1,1.7-3.3,4.6-7,5.3C414.6,146.3,416.6,141.3,417.9,135.9z"/>
		<path class="st4" d="M120.1,238.9c5.7-1.3,10.3-1.4,15.1-0.3c2.3,0.6,2.4,1.9,2.2,3.6c-0.3,2.4-2.1,1.7-3.4,1.3
			C129.6,242.5,125,241.9,120.1,238.9z"/>
		<path class="st5" d="M220.1,258.2c1.7,3.2,4.4,5.4,7,7.7c-2.5,0.1-5,0-7.4,0.2c-2.9,0.2-4.6-0.4-4.8-3.9
			C214.5,256.9,214.7,256.6,220.1,258.2z"/>
		<path class="st4" d="M248.2,235.7c-4,1.8-7,0-10-1.8c-3.1-1.9-6-4.2-9.7-4.9c-0.9-0.2-2.2,0.4-2.5-0.9c-0.1-0.5,0.5-1.2,0.9-1.7
			c0.9-1.1,1.8-0.2,2.6,0.3C235.1,230.8,241.8,232.5,248.2,235.7z"/>
		<path class="st5" d="M431.3,210.3c-1.4,5.3-5.2,8.5-9.5,11.7c-0.8-8-0.6-8.3,9.2-12L431.3,210.3z"/>
		<path class="st5" d="M208,195.9c-2.4-0.6-4.7-1.3-7.1-1.9c3.8-3.7,7.9-6.3,14.4-4C212.6,192.1,210.3,194,208,195.9z"/>
		<path class="st5" d="M113.8,161.7c-0.7-1.4-2.7-1.8-2.9-3.6c4.8-1.7,9.6-3.5,14.5,1.3C121.2,160.2,117.5,160.9,113.8,161.7z"/>
		<path class="st5" d="M191.5,194.1c-2.2-0.9-4.8-0.3-6.7-2.1c3.1-4.9,7.9-3.4,13.9-3.5C195.5,190.9,193.5,192.5,191.5,194.1z"/>
		<path class="st5" d="M225,198.9c-2.7-1-5.3-1.9-8-2.9c3.9-4.1,8.2-5.2,13.4-1.2C228.6,196.2,226.8,197.5,225,198.9z"/>
		<path class="st5" d="M118.1,244.9c-1.7,2-3.5,3.9-5.2,5.9c-0.2,0-0.4,0-0.5-0.1c-1.5-1.3-5.1-0.6-4.4-3.9c0.7-3,5.3-4.4,8.4-3
			C117.1,244.2,117.6,244.6,118.1,244.9z"/>
		<path class="st4" d="M410.3,155.5c-2.2,4-4.4,7.9-6.5,11.9c-3.8-1.4-4.2-2.9-0.9-5.5c2.5-2,4.5-4.7,6.8-7
			C409.8,155.1,410,155.3,410.3,155.5z"/>
		<path class="st5" d="M238.2,204c-1.4-2.5-4.1-2.2-6.2-3.1c2.4-1.7,4.1-4.6,8-3.4c3.1,0.9,3.6,1.8,1,3.9
			C240.1,202.2,239.2,203.1,238.2,204z"/>
		<path class="st5" d="M144.9,171.9c-2.5,0.3-4.4-1.7-6.8-2c-0.4-1.6-2.5-3.6-0.2-4.8c2.2-1.1,4.6,0,5.7,2.5
			C144.1,169.1,144.5,170.5,144.9,171.9z"/>
		<path class="st5" d="M105.9,152.9c-1.1-1-1.4-2.2-1.1-3.6c1.8-1.1,3.8-1.1,5.8-1.4c1.8-0.2,3.1,0.5,3.4,2.2
			c0.4,2.2-1.6,1.7-2.7,1.9C109.5,152.5,107.7,152.7,105.9,152.9z"/>
		<path class="st5" d="M102.1,144.1c0-1.2-0.1-2.3-0.1-3.5c1.9-0.4,3.8-0.9,5.7-1.3c1.2-0.2,1.8,0.4,2,1.5c0.2,1.2-0.2,1.9-1.4,2.1
			C106.3,143.4,104.2,143.7,102.1,144.1z"/>
		<path class="st5" d="M176.1,191.1c-2.2-0.3-4.3-1.1-6.3-2.2c2.8-3.8,6.1-1.5,9.5-1.2C178.8,189.8,177.3,190.3,176.1,191.1z"/>
		<path class="st5" d="M394.8,169c-1.3,0.8-2.4,1.7-3,3.2c-1.6-1.8-6.3-2.1-4.7-5c1.6-2.9,4.5,0.9,6.9,1.2
			C394.4,168.4,394.6,168.8,394.8,169z"/>
		<path class="st5" d="M379.2,181.7c-1.7,0.4-3.3,0.9-4.3,2.5c-0.5-0.6-1.2-1.2-1.6-1.9c-0.6-1.2-2.4-2.4-0.3-3.7
			c1.4-0.9,2.8-0.9,4,0.5C377.7,179.9,378.5,180.8,379.2,181.7z"/>
		<path class="st4" d="M217.7,244.2c1.1,3.2,1.8,5.3,2.6,7.5C215.2,251.8,215.2,251.8,217.7,244.2z"/>
		<path class="st5" d="M369.1,185.9c-1.8,0.1-3.5,0.1-5.3,0.2c-0.9-1.2-2.9-2.3-0.9-4c1.5-1.2,3.1-0.6,4.3,0.9
			C367.8,184,368.5,184.9,369.1,185.9z"/>
		<path class="st5" d="M387.2,175.8c-1.1,0.8-2.2,1.6-3.4,2.3c-0.3-0.2-0.6-0.3-0.8-0.6c-0.8-1.3-3.5-1.9-2.1-3.8
			c1.5-2,3.3-0.2,4.7,0.7C386.3,174.8,386.7,175.3,387.2,175.8z"/>
		<path class="st4" d="M236.9,253.5c-1,0.1-2,0.1-1.8-1c0.2-1.3,1-2.5,2.4-2.7c1.3-0.2,1.4,1,1.5,2
			C239.2,253.6,237.7,253.2,236.9,253.5z"/>
		<path class="st5" d="M258,278.4c0.7-0.1,1.4-0.2,2.1-0.3C259.4,278.6,258.8,278.7,258,278.4z"/>
		<path class="st5" d="M431,210c0.1-0.1,0.2-0.2,0.3-0.3c0.1,0.1,0.2,0.2,0.2,0.3c0,0.1-0.2,0.2-0.2,0.3
			C431.3,210.3,431,210,431,210z"/>
		<path class="st4" d="M152.2,266.9c0.1,0.2,0.2,0.5,0.3,0.7c-0.3,0-0.6-0.1-0.9-0.1C151.8,267.3,152,267,152.2,266.9z"/>
		<path class="st5" d="M407.5,146.2c0.1,0.1,0.3,0.2,0.3,0.3c0,0.1-0.2,0.2-0.3,0.3c-0.1-0.1-0.3-0.2-0.3-0.3
			C407.2,146.4,407.4,146.3,407.5,146.2z"/>
		<path class="st0" d="M348.2,129.5c1.1-3.8,4-5.8,7.2-6.9c3-1,6.5-3.5,9.3,0.8c0.2,0.3,1.5,0,2.3-0.2c1.6-0.3,3.2-1.1,4.8-1
			c2.5,0,6.5-1.2,6.9,1.7c0.3,2.4-3.7,1.3-5.8,1.9c-2.1,0.6-4.2,1-6.3,1.4c-0.6,0.1-1.7,0.5-1.9,0.3c-4.8-6.4-8.4-0.2-12.4,1.2
			C351.1,129.3,350,130.4,348.2,129.5z"/>
		<path class="st0" d="M314.1,130.5c-4.7,0.1-9.3-1.1-14-0.7c-3.1,0.3-6.3-0.3-9.3,1c-1.1,0.5-2.7,1.7-3.4-0.1
			c-0.7-1.5,1-2.4,2.2-2.8C298,125.5,306.4,124.7,314.1,130.5z"/>
		<path class="st0" d="M189.4,101.9c-4,0.1-7.1-0.8-9.6-3.3c-1.3-1.3-3-2-5-1.9c-1.1,0.1-2.6,0.2-2.5-1.6c0.1-1.4,1.3-1.9,2.5-2
			c2.5-0.2,5.3-0.2,7,1.8c2.2,2.5,4.9,3,7.8,3.7c1.4,0.3,4.2,0,3.9,2.1C193.1,103.2,190.5,101.7,189.4,101.9z"/>
		<path class="st0" d="M288.5,179.5c5.6-1.2,10.5-0.3,15.1-1.7c3-0.9,5.9-2.3,9.2-1.9c1.3,0.1,3-0.3,3,1.6c0,1.6-1.6,1.3-2.7,1.6
			c-5.9,1.6-11.7,4-18,3C293.1,181.7,291.1,181.8,288.5,179.5z"/>
		<path class="st0" d="M215.5,173.1c7.1,0.1,12.8,4.1,18.8,7.1c0.9,0.4,2,1.1,1.2,2.2c-0.7,1-1.8,0.4-2.7,0c-4.5-1.6-9-3.3-13.5-4.9
			c-1.4-0.5-2.9-0.7-4.3-1.2c-1.5-0.5-4.4,0.9-4.2-1.7C211,172.8,213.8,173.1,215.5,173.1z"/>
		<path class="st0" d="M227.2,155.7c-4.8,0.2-8.8-2.8-13.5-3.1c-0.9-0.1-1.5-0.6-1.6-1.6c0-1.3,0.8-1.7,1.9-1.8
			c3.3-0.5,6.2,1,9.2,1.7c1.4,0.4,2.8,0.8,4.3,1.2c1.4,0.4,4-0.7,4,1.6C231.5,156.2,228.9,155.5,227.2,155.7z"/>
		<path class="st0" d="M362.8,87.2c4.8,0.1,8.1,2.3,10.6,5.9c0.7,1,1.7,1.8,0.4,3c-0.9,0.9-1.9,0.3-2.7-0.3
			c-3.4-2.8-6.8-5.3-11.3-5.8c-0.7-0.1-1.4-0.6-1.1-1.3C359.5,86.6,361.4,87.3,362.8,87.2z"/>
		<path class="st0" d="M383.6,142.9c0,0.3,0,0.5-0.1,0.6c-3.9,3.4-7.7,7-11.9,10c-1.3,1-1.6-1-1.2-2.1c1.8-4.8,5.2-8,9.8-9.9
			C381.7,140.8,383.1,141.1,383.6,142.9z"/>
		<path class="st0" d="M266.2,100.3c5.1-6.6,13.6-6.9,19.3-1.3C279,99.1,273.1,98.4,266.2,100.3z"/>
		<path class="st0" d="M299.6,104.6c-5.9-1.3-11.7-0.4-17.8,0.6C285.3,99.7,293.3,99.4,299.6,104.6z"/>
		<path class="st0" d="M169.6,135.9c1,0.1,2,0.1,3,0.4c1.8,0.6,4.6,0.9,4,3.4c-0.8,3.3-3,1-4.7,0.5c-0.8-0.2-1.6-0.3-2.4-0.4
			c-1.8-0.3-4.7,0.3-4.5-2.3C165.1,135.6,167.9,136.2,169.6,135.9z"/>
		<path class="st0" d="M247.4,158.4c-2.8-0.3-5.6-0.8-8.1-2.2c-0.8-0.5-1.9-1-1.6-2.2c0.4-1.3,1.6-1.8,2.8-1.4
			c2.8,0.8,5.6,1.8,8.4,2.8c0.9,0.3,1.2,1.1,0.9,2C249.4,158.7,248.3,158.5,247.4,158.4z"/>
		<path class="st0" d="M346.5,94.3c-2.4-0.2-5.5,2-5.9-1.1c-0.3-2.3,2.8-3,5-2.9c2.2,0.1,5.7,0,5.7,2.6
			C351.2,96.2,347.9,94,346.5,94.3z"/>
		<path class="st0" d="M191.4,62.2c1.7,0.5,4.1-0.6,4.3,1.8c0.2,2.6-2.2,1.7-3.7,2c-1.1,0.2-2.3,0.2-3.4,0.4
			c-1.5,0.3-3.5,1.6-4.1-0.7c-0.5-2.1,1.8-2.4,3.3-2.9C189.1,62.4,190.4,62.3,191.4,62.2z"/>
		<path class="st0" d="M158.1,157.6c-0.3,1.5-0.7,2.5-2,1.9c-2.6-1.3-5.3-2.7-7.7-4.3c-1.1-0.7-0.7-2.2,0.6-2.8
			c2.1-0.9,3.8,0.2,5.5,1.3C156.3,154.7,157.7,155.9,158.1,157.6z"/>
		<path class="st0" d="M321.2,176.2c-1.1-0.1-3.2-0.1-2.6-1.3c1.7-3.6,5.9-3.5,9.1-4.9c0.7-0.3,1.7-0.1,1.9,1
			C329.9,172.8,324.5,176.1,321.2,176.2z"/>
		<path class="st0" d="M199.5,105.9c1.6,0.6,4.1,0.2,4.3,2.9c0.1,1.3-1.5,1.4-2.3,0.9c-1.8-0.9-4.9,0.4-5.3-2.5
			C196,105.6,198.2,106.2,199.5,105.9z"/>
	</g>
</g>
</svg>
