<?xml version="1.0" encoding="utf-8"?>
<!-- Generator: Adobe Illustrator 19.2.1, SVG Export Plug-In . SVG Version: 6.00 Build 0)  -->
<svg version="1.1" id="Layer_1" xmlns="http://www.w3.org/2000/svg" xmlns:xlink="http://www.w3.org/1999/xlink" x="0px" y="0px"
	 viewBox="0 0 531 293.6" style="enable-background:new 0 0 531 293.6;" xml:space="preserve">
<style type="text/css">
	.st0{fill:#5B2E1E;}
	.st1{fill:#95776B;}
	.st2{fill:#FBF9F8;}
	.st3{fill:#AD5C2C;}
	.st4{fill:#7C3A1B;}
	.st5{fill:#E9EAE1;}
	.st6{fill:#75BE44;}
	.st7{fill:#D32026;}
	.st8{fill:#D6CCA7;}
	.st9{fill:#9AC83D;}
	.st10{fill:#C6D545;}
	.st11{fill:#C9844C;}
	.st12{fill:#F7E533;}
	.st13{fill:#F2B11F;}
	.st14{fill:#A8CC77;}
	.st15{fill:#DEA269;}
</style>
<g id="PQxnbV.tif">
	<g>
		<path class="st0" d="M0,163.9c0-0.7,0-1.3,0-2c1.6-5.7,1.6-11.3,0-17c0-0.7,0-1.3,0-2c1.4-0.3,1.1-1.5,1.2-2.4
			c1-6.4,2.7-12.7,5.1-18.7C14.6,100.7,29,84.5,46.8,71c1.5-1.1,2.7-1.9,2.5-4.3c-0.8-8.8,3-14.1,11.4-16.7c3.2-1,6.4-1.7,9.6-2.6
			c6.6-1.9,8.7-4.9,8.2-11.7c-0.3-4.3-1.1-8.6-1.1-12.9c-0.1-6.6,3.9-12.1,9.8-14.2c6.2-2.2,10-0.9,15.1,5.3
			c1.1,1.3,2.1,2.6,3.1,3.9c3.5,4.1,5.4,3.9,8.3-0.8c1.9-3.1,3.5-6.5,5.5-9.5c7.1-10.5,21.1-9.8,27.4,1.3c3.3,5.8,5.4,6.6,11.5,4.1
			c2.3-1,4.5-2.2,6.8-3.1c7.6-2.9,15.2-3.4,21.3,2.9c2.6,2.6,4.8,2.7,7.9,1.9c17.1-4,34.5-5.3,52-5.1c12.7,0.1,25.1,3,37.7,3.5
			c39.7,1.7,79,6.3,117.1,18c38.8,11.9,75.3,28.1,103.2,59.4c12.5,14,21.1,29.5,24.8,48c0.8,3.8-0.1,7.9,2.1,11.4c0,2.3,0,4.7,0,7
			c-0.8,0.2-1,0.8-1.1,1.5c-2.3,24.4-14,44-31,60.9c-24.9,24.7-55.4,39.8-87.9,51.4c-39,14-79.5,20.2-120.7,22.2
			c-58.5,2.9-116-2.8-171.6-22.4c-28.4-10-55.6-22.3-78.7-42.1c-19.7-16.8-34.6-36.8-38.9-63.1C1,164.6,0.8,164.1,0,163.9z
			 M432.7,146.7c-0.5,0.7-1.1,1.4-1.6,2.1c-1,0.2-1.9,0.5-2.2,1.6c-1.9,1.4-4.1,2.8-2.9,5.8c-0.3,0.7-0.6,1.4-0.9,2.1
			c-2.2-0.9-4.3-0.6-6.1,1c-0.7-0.9-1.5-1.7-2.1-2.7c-2.6-3.9-6.2-6.4-10.9-5.3c-5.3,1.1-9.3,4.3-10.6,9.9c-1.3,5.2,1,8.5,5.6,10.7
			c0.6,0.3,0.9,0.9,1.4,1.4c-1.3,2-2.6,4-2.5,6.6c-8.4-6.1-14.3-6.6-21.3-1.8c-7.1,4.9-9,11.1-6.4,21c-3.9,3.8-8.6,7.2-6.2,13.8
			c-0.7,0.2-1.3,0.4-2,0.7c-1.8-4-5.8-6.4-8-10.1c-1.8-3-4.1-3.3-6.8-1.2c-1.1-3.6,2.8-3.4,4.1-5.4c6.1-9.4,11.5-19.1,14.9-29.9
			c0.4-1.4,2.6-2.7,0.7-4.4c-1.5-1.3-3.1-0.3-4.7,0.1c-9.4,1.9-18.5,5.2-28.3,4.3c-1-0.1-1.9,0.4-2.9,0.5
			c-7.3,0.6-14.5,2.1-21.8,1.2c-5.8-0.6-11.5-1.4-17.3-1.7c-13.9-0.9-27.7-2.8-41.4-5.2c-10.1-1.8-20.2-3.9-30.4-4.7
			c-16.4-1.4-32.6-3.7-48.9-5.7c-5.4-0.7-10.6-1.9-15.9-3c-1.9-0.4-3.1,0-2.6,2.2c1.2,5.3,0.6,10.6,0.5,15.9
			c-0.1,4.2,1.5,5.4,5.5,5.6c10.8,0.6,19.4,5.3,24.9,14.8c1.3,2.3,2.6,2.9,5.2,2.2c8-2.2,15.8-1.5,23,2.9c1,0.6,2.2,0.9,3.3,1
			c12.1,1.9,23.6,5.9,35.5,8.5c13.5,2.9,27.1,4.2,40.8,5.5c10.6,1,21.2,0.8,31.8,0.1c8.1-0.6,16.2-1.5,24.1-3.1
			c1.6,1.8,3.1,3.9,4.9,5.5c2.7,2.3,2.5,4.1-0.2,6.1c-1.6,0.6-3.2,1.1-4.7,1.7c-1.2,0-2.3-0.1-3.5,0c-12,1.7-24.1,2.3-36.3,2.4
			c-25.3,0.1-49.9-4.7-74.3-10.8c-3.4-0.8-7.5-3.1-10-1.6c-2.5,1.5-1.3,6.3-2.3,9.6c-3.7,7.4-9.2,13.1-17.8,17.7
			c7.1,0.8,12.5,1.3,17.9,1.9c33.6,3.9,67.1,2.5,100.5-1.6c7.9-1,15.7-2.7,23.5-4c2.9,1.4,5.2,3.5,7.1,6
			c-19.9,4.3-39.9,7.2-60.2,8.4c-42,2.5-83.5-0.8-124.4-10.3c-22.3-5.1-43.7-12.7-63.9-23.4c-3.4-1.8-6.8-2.2-10.5-2.5
			c-22.2-1.9-42-12.8-47.4-38.9c-2.2-10.5-3.9-21.7,4-30.5c5.8-6.4,9.3-14,14-21c2.1-3.2,0.9-4.4-1.8-5.5c-1.2-0.5-2.5-0.8-3.8-1.2
			c-10.4-3.4-13.2-10.7-7.7-20c1.7-2.9,3.7-5.5,5.3-8.4c0.7-1.3,0.9-3.1-0.5-4.2c-1.4-1.1-2.4,0.7-3.3,1.4
			C42.3,89.5,32,99.4,24,111.5c-14.6,21.9-17.3,44.8-6.1,69.1c9.1,19.7,22.6,35.5,39.7,48.5c25.3,19.2,54.2,30.8,84.7,38.8
			c52.8,13.8,106.5,17.8,160.9,13.3c30.8-2.6,61-8.1,90.5-17.3c18.2-5.7,36.2-12.2,52.9-21.7l0.3,0.1l0.1-0.3
			c0.3-0.1,0.6-0.2,0.9-0.3c19.6-9.9,37.4-22.3,51.3-39.6c22.9-28.5,25.1-61.6,6.9-92.9c-2.5-4.4-6.1-8.1-8.3-12.6
			c2.6-2.9,4-0.2,5.5,1.3c2.6,2.6,4,6.4,8.7,7.8c-3.1-8.2-9.4-13.1-14.7-18.8c-0.4-0.5-1.3-0.7-1.7-0.1c-0.3,0.4-0.3,1.4,0,1.8
			c1.8,2.4,1.8,5.1,2.1,7.8c-0.7-0.4-1.5-0.7-2-1.3c-7.8-9-17.1-16.2-27-22.6c-6-3.9-12.1-7.8-19.1-10.8c1.8,7.5,0.7,13.3-5.2,17.9
			c-2.7,2.1-5.1,4.7-7.6,7.2c-0.9,0.9-2.6,1.6-2.1,3c0.7,1.8,2.6,0.9,4,0.8c6.3-0.5,12.6-1.5,18.8-1.6c6.7-0.1,11.5,6.1,12.9,15.9
			c1,6.9-0.1,8.5-7,11c-0.2,0.1-0.3,0.1-0.5,0.2c-1.1-0.2-1.6-0.9-2.3-1.7c-1.4-1.4-2.1-5.1-5.2-2.2c-3,2.8,0.6,4,1.7,5.6
			c2.4,3.5,5.9,6.2,7,10.5c-2.7,1.1-5.3-3.5-8.1-0.3c-2-0.1-4,0-5.9-0.3c-12.3-1.8-24.6-3.6-36.8-5.6c-4.5-0.8-6.6,0.2-5.2,5
			c0,1.5,0.2,3,0,4.5c-0.7,5,1.4,7.1,6.4,7.3c5.4,0.3,10.8,1.4,16.2,2.1C428.5,143.8,432.4,144.6,432.7,146.7z M414.1,85.9
			c1,1.7,2,3.4,2.9,5.2c1,1.9,2,2.3,3.8,0.8c7-5.9,14.1-11.5,21-17.6c3.4-3,2.8-7.1-0.8-9c-4.2-2.1-8-1.1-11.6,1.6
			c-4.8,3.6-9.3,7.5-14.3,10.7C410.8,80.3,410.7,82.7,414.1,85.9z M464.2,101.8c-1.4-6.3-3.1-7.6-9.1-7.2
			c-13.8,0.9-27.4,3.5-41.1,5.4c-8.6,1.2-8.6,1.1-7,9.9c0,1.4-0.8,3.5,1,3.9c5.3,1.2,11.1,3.7,16,2.6c11.8-2.8,23.7-4.7,35.6-7.3
			C464.1,108.1,465.8,106.2,464.2,101.8z M92.8,202.1c8.7,2,17.1,0.2,25.5-2c4.1-1.1,6.7-3,6.7-7.7c0-3.4,2.3-6.1,3.8-9.4
			c-5.4,1.1-10.5,2.2-15.7,3.3c-11.8,1.5-23.3,0.6-34.9-2.1c-7.5-1.8-14.2-5.4-21.3-8.1c0.4-0.3,0.4-0.5,0-0.7
			c-0.1,0-0.3,0.1-0.5,0.1c0.2,0.2,0.4,0.3,0.6,0.5c0.1,0.8,0.1,1.7,0.5,2.4C64.6,193.1,76.8,200.5,92.8,202.1z M111,140.8
			c1.6,0.5,3.1,0.9,4.8,1.2c13,2.5,25.2,6.1,28.5,21.6c5.2-9.4,2.9-18.7-5.9-25.7c-7.7-6.1-17.1-7.6-26.3-9.7
			c-2.3-0.3-4.6-0.8-6.9-0.9c-16.7-0.6-32.4,2.2-45.6,13.5c-7.8,6.7-9.1,13.7-3.9,22.5c2.4-11.5,11.3-15.9,20.9-19.3
			C87.8,140.2,99.4,139.8,111,140.8z M66.8,86.1c-2.4,2.8-4,6.2-6.8,8.9c-4.4,4.2-3.6,7.5,2.1,10.3c3.8,1.9,7.9,3.3,10.9,6.6
			c1.6,3.1,3.2,6.2,2.1,9.9c-0.8,2.8,0.9,2.6,2.7,2.1c4.2-1.1,8.4-2.1,12.7-2.3c2.7-0.1,3.4-1.7,3.3-4c-0.5-11.9,2.5-23.3,4.2-34.9
			c1.4-9.3,5.7-17.4,10.9-25.1c12-13.5,26.7-23.1,43.2-30.2c8.8-3,17.6-6,26.3-9.1c0.9-0.3,2.2-0.1,2.4-1.3c0.2-1.5-1.2-1.8-2.2-2.4
			c-5-2.8-9.6-1.4-14.1,1.2c-2.9,1.7-5.5,3.7-8.5,5.2c-7.4,3.6-12.9,1.5-15.8-6.2c-1.6-4.1-4.8-5.4-8.5-5.8
			c-3.5-0.4-5.2,2.4-6.6,5.1c-1,1.9-1.8,3.9-2.8,5.9c-3,6.1-7.7,8.3-14.4,7c-4.2-0.8-7.6-3.1-10.8-5.8c-1.8-1.5-3.6-3-5.6-4.2
			c-2.2-1.3-3.8-1.8-4.9,2c-1.2,4.2-0.7,8.1,0,12.2c2.2,14.2-2.1,20.9-15.9,24.6c-0.8,0.2-1.6,0.4-2.4,0.7
			c-9.7,2.7-11.1,6.2-5.5,14.5C66,75.7,67.8,80.5,66.8,86.1z M312.8,157.9c20.9-0.1,38.3-1.2,55.1-6.9c20.5-7,32.8-22.3,29.6-44.7
			c-2.1-14.7-10.1-26.2-21.1-35.7c-10.8-9.3-22.9-17-34.9-24.7c-16.3-10.4-33.9-17.8-52.4-22.5c-24.2-6.2-48.8-8.1-73.7-4.7
			c-26.5,3.7-51.7,10.7-74.6,24.9c-12.3,7.6-23.1,16.9-29.7,30.2c-5.7,11.6-5.1,23.1,1.4,34.3c9.2,15.8,24.7,22.7,40.9,28.4
			c15.2,5.3,31.2,6.7,47.1,7.6c16.8,1,33.4,2.7,49.9,6.1C272.1,154.6,293.9,158.5,312.8,157.9z M325.7,25.9
			c14.4,7,28.2,14.7,40.9,24.2c1.7,1.3,3.1,1.1,5,0.5c11.3-3.3,17.3-1.3,24.3,8c2.5,3.3,4.9,6.7,7.2,10.2c3.9,5.9,3.7,5.8,9.6,1.6
			c9-6.4,17-15.4,30.1-12C405.6,40.4,366.4,30.7,325.7,25.9z M187.1,230.9c9.3,0.6,16.8-3.6,23.4-9.5c5-4.4,7.2-12.6,4.9-17.7
			c-3-6.5-8.3-9.7-15.4-9.8c-12.1-0.2-21.8,4.1-29,14.2c-4.5,6.4-4.5,12.3,1.1,17.7C176.3,229.9,181.4,231.3,187.1,230.9z
			 M157.5,177.7c-6.2,0-12.1,1.2-16.8,3.2c-8.5,3.8-11.4,13.6-6.3,21.3c4.3,6.4,17.1,11.7,24.7,10.3c1.8-0.4,2.9-1.5,3.5-3.1
			c2.6-7.3,8-12.2,14.6-15.5c4.5-2.2,3.5-4.4,1.1-7.1C172.7,180.3,165.3,177.4,157.5,177.7z M100.8,179.8c8.7-0.4,18.3-0.9,27.4-4.9
			c5.4-2.4,10.6-5.4,10.7-11.8c0.1-6.2-4.7-9.7-9.8-12.1c-19.9-9.1-39.9-7.1-59.4,1.3c-10,4.3-10.5,12.9-1.8,19.7
			c2.7,2.1,5.6,3.5,8.8,4.5C84.3,178.9,92,179.8,100.8,179.8z M377,56.8c0,1.4,0.6,1.9,1.3,2.5c5.4,4.9,10.6,10.1,15,16
			c4,5.4,7.3,11.1,9.7,17.3c1.7,4.4,5.3,2.6,7.5,1.7c2.1-0.9-0.2-3-0.9-4.4c-5.6-10.2-12.1-19.8-19.3-29
			C386.5,56.3,381.9,56.4,377,56.8z M161.7,225.7c0.2-4.6-1.3-6-5.6-6.1c-9.9-0.1-19.4-2.7-26.2-10.1c-3.3-3.6-5.9-4.3-9.9-2.5
			c-1.1,0.5-2.4,0.8-4.1,1.5C130.6,216.2,145.7,221.4,161.7,225.7z M456,122.3c-3.5-7-7.7-3-11.6-1.9C448,121,451.7,121.6,456,122.3
			z M103.4,119.3c-0.1,2.1,1.3,2.5,2.9,2.5c0.9,0,2.4,0,2-1.4c-0.5-1.5-1.2-3.4-2.8-3.8C103.6,116.1,104.1,118.3,103.4,119.3z
			 M424.9,147.3c0.1-1.4-0.7-2.2-2-2.3c-1.8-0.2-2.8,0.7-2.9,2.5c-0.1,1.3,0.2,2.4,1.8,2.4C423.5,149.9,424.5,148.9,424.9,147.3z
			 M448.8,61.3c-0.3-0.1-0.6-0.3-0.8-0.3c-0.2,0-0.3,0.3-0.5,0.5c0.3,0.1,0.5,0.3,0.8,0.3C448.5,61.8,448.6,61.5,448.8,61.3z"/>
		<path class="st1" d="M0,144.9c1.6,5.7,1.6,11.3,0,17C0,156.2,0,150.6,0,144.9z"/>
		<path class="st2" d="M446.6,242.1c-16.7,9.4-34.7,16-52.9,21.7c-29.5,9.2-59.7,14.7-90.5,17.3c-54.4,4.6-108.1,0.6-160.9-13.3
			c-30.5-8-59.3-19.6-84.7-38.8c-17.1-13-30.7-28.9-39.7-48.5c-11.2-24.3-8.5-47.2,6.1-69.1c8-12,18.3-21.9,29.7-30.8
			c0.9-0.7,1.9-2.5,3.3-1.4c1.4,1,1.2,2.9,0.5,4.2c-1.6,2.9-3.6,5.6-5.3,8.4c-5.5,9.3-2.7,16.6,7.7,20c1.3,0.4,2.6,0.7,3.8,1.2
			c2.7,1.1,3.9,2.3,1.8,5.5c-4.6,7-8.2,14.6-14,21c-7.9,8.8-6.2,20-4,30.5c5.4,26.1,25.2,37,47.4,38.9c3.7,0.3,7.2,0.7,10.5,2.5
			c20.2,10.8,41.7,18.3,63.9,23.4c41,9.5,82.4,12.8,124.4,10.3c20.3-1.2,40.4-4.1,60.2-8.4c4.4-1.1,8.8-2.2,13.2-3.3
			c14-3.7,27.4-8.7,40.9-13.9c5.9-2.3,11.3-6.4,17.9-6.8c5.2-0.3,10.2-1.4,14.8-4c1.4,0.8,4.1,1.8,3.4,3.1c-2,3.7,0.5,7.2,0,10.7
			c-0.5,3.7-0.7,7.5,2.3,10.8c1.2,1.3,1.1,3.5-0.5,5.4c-1.7,1.9-3.1,1.6-5,0.6c-1-0.5-2.2-0.9-3.2,0.5
			C440.3,242.3,443.4,242.4,446.6,242.1z M440.1,213.2l-0.4,0.2l0.4,0.2L440.1,213.2z"/>
		<path class="st3" d="M312.8,157.9c-18.9,0.6-40.7-3.3-62.4-7.8c-16.5-3.4-33.2-5.2-49.9-6.1c-16-0.9-31.9-2.3-47.1-7.6
			c-16.1-5.6-31.6-12.5-40.9-28.4c-6.5-11.2-7.2-22.7-1.4-34.3c6.6-13.3,17.4-22.5,29.7-30.2c22.9-14.2,48.1-21.2,74.6-24.9
			c25-3.5,49.6-1.5,73.7,4.7c18.5,4.7,36.1,12.1,52.4,22.5c12.1,7.7,24.1,15.4,34.9,24.7c10.9,9.5,19,20.9,21.1,35.7
			c3.2,22.4-9.1,37.7-29.6,44.7C351.1,156.7,333.7,157.9,312.8,157.9z M141.1,79.9c-0.3,0.3-0.7,0.6-1,0.9c-0.5,1.1-1.5,1.7-2.5,2.4
			c-4,2.9-8.1,5.8-11.9,9c-1,0.9-3.1,2.4-1.8,4.1c1.1,1.4,2.8-0.2,4-0.9c4.7-2.8,9.3-5.7,13.9-8.6c2.3,11,8.5,18.8,19,23
			c0.7,1.1,1.8,1.2,3,1.2c0.3,1,1,1.6,2,2c15.2,5.8,30.9,9.4,47.2,9.9c-1.1,0.7-2.3,1.3-3.2,2.1c-0.9,0.9-3,1.7-1.8,3.4
			c0.9,1.3,2.3,0.1,3.5-0.3c2.7-1,4.9-3.4,8.1-3.2c8.5-1.1,16.8,0.7,25,2.1c11.3,1.8,22.4,4.1,33.6,6.1c0.7,2.6,2.6,1.9,4.3,1.4
			c1.5-0.4,3-1,4.6-1.6c5.5,1.1,11.1,1.6,16.7,0.2c6.3,2.9,12.5,5.8,18.9,8.7c0.9,0.4,2.3,1.4,3.1,0c0.7-1.3-0.6-2.2-1.4-2.8
			c-2.4-1.8-4.8-3.4-7.2-5.1c0.9-0.3,1.8-0.8,2.8-0.9c16-1.1,30.9-5,42.5-17.2c3.4,0.4,5.9,4,10,2.8c-1.5-3.6-5.1-4.8-7.2-7.5
			c0.5-2.2,2.5-4.1,0.9-6.6c3.1-0.9,6.3-1.8,9.4-2.7c0.9-0.3,2.1-0.6,2-1.8c-0.1-1.3-1.4-1.2-2.3-1.2c-2.3,0-4.6,0.2-6.9,0.3
			c-1.5-17.2-10-30.3-23.1-40.9c-8.6-6.9-18-12.1-27.8-17c-22.5-11.1-46.3-16.3-71.1-17.1c-18.6-0.6-36.4,3.9-53.9,10.4
			c-13.2,4.9-26.1,9.8-36.9,18.9c-4.9,4.1-10,8.4-11.2,15.3c-2.3-0.3-4.5-0.8-6.8-0.8c-1.5-0.1-3.9-1-4.4,0.9
			c-0.7,2.3,2.1,1.9,3.3,2.6c1.6,0.8,3.3,1.4,5,2.1C141.1,75.7,141.1,77.8,141.1,79.9L141.1,79.9z"/>
		<path class="st4" d="M349.1,203.8c-8,1.6-16,2.6-24.1,3.1c-10.6,0.7-21.2,0.9-31.8-0.1c-13.7-1.3-27.3-2.6-40.8-5.5
			c-11.9-2.5-23.4-6.6-35.5-8.5c-1.1-0.2-2.3-0.5-3.3-1c-7.3-4.4-15-5.1-23-2.9c-2.6,0.7-3.8,0.1-5.2-2.2
			c-5.5-9.5-14.2-14.2-24.9-14.8c-4.1-0.2-5.6-1.4-5.5-5.6c0.1-5.3,0.7-10.6-0.5-15.9c-0.5-2.2,0.6-2.6,2.6-2.2
			c5.3,1.1,10.6,2.3,15.9,3c16.3,2.1,32.5,4.4,48.9,5.7c10.2,0.8,20.3,2.9,30.4,4.7c13.7,2.4,27.5,4.3,41.4,5.2
			c5.8,0.4,11.5,1.1,17.3,1.7c7.4,0.8,14.6-0.6,21.8-1.2c1-0.1,2-0.6,2.9-0.5c9.8,0.9,18.9-2.4,28.3-4.3c1.6-0.3,3.2-1.4,4.7-0.1
			c1.9,1.7-0.3,3-0.7,4.4c-3.3,10.8-8.8,20.5-14.9,29.9c-1.3,1.9-5.2,1.8-4.1,5.4C349.1,202.8,349.1,203.3,349.1,203.8z"/>
		<path class="st5" d="M446.6,242.1c-3.2,0.3-6.4,0.2-9-2.1c1-1.5,2.2-1,3.2-0.5c1.9,1,3.3,1.3,5-0.6c1.7-1.9,1.7-4.1,0.5-5.4
			c-2.9-3.3-2.7-7.1-2.3-10.8c0.5-3.6-2-7,0-10.7c0.7-1.3-1.9-2.3-3.4-3.1c2.6-2.6,5.5-5,6.6-8.6c1.3-4,4-6.7,6.8-9.5
			c7.7-7.5,13.8-16.1,17-26.5c1.4-4.4,1.2-9.8,7.3-11.2c0.4-0.1,0.7-0.7,1.1-1c6.2-7.1,0.7-24-8.5-26.4c-5.2-1.2-5.5-6.3-7.9-9.7
			c0.2-0.1,0.3-0.2,0.5-0.2c6.9-2.5,8-4.1,7-11c-1.4-9.8-6.2-16-12.9-15.9c-6.3,0.1-12.6,1.1-18.8,1.6c-1.4,0.1-3.3,1-4-0.8
			c-0.6-1.4,1.2-2.1,2.1-3c2.5-2.4,4.9-5,7.6-7.2c5.8-4.6,7-10.4,5.2-17.9c7,3,13.1,7,19.1,10.8c9.9,6.4,19.2,13.6,27,22.6
			c0.5,0.6,1.3,0.9,2,1.3c0,0,0.2,0.1,0.2,0.1c2.2,4.5,5.7,8.2,8.3,12.6c18.2,31.4,16,64.4-6.9,92.9c-13.9,17.3-31.6,29.7-51.3,39.6
			c-0.3,0.1-0.6,0.2-0.9,0.3l-0.1,0.3L446.6,242.1z"/>
		<path class="st5" d="M349,217.1c1.6-0.6,3.2-1.1,4.7-1.7c3.6,0.2,6.9-0.9,10.2-1.9c0.7-0.2,1.3-0.4,2-0.7c1.4-0.4,2.7-0.7,4.1-1.1
			c1,0.1,1.9,0.1,2.9,0.2c1.3,1.3,3.2,1.5,4.8,2.1c0.4,0.3,0.8,0.6,1.1,1c2.3,1.1,4.7,1.6,7.2,1.7c2.3,0,4.6,0,6.9,0
			c0,0.3-0.1,0.7-0.1,1c-7.7,2.6-15.4,5.3-23,7.9c-1.6,0.4-3.3,0.8-4.9,1.3c-3.6,0.7-7.2,1.5-10.8,2.2c-2.4,0.5-4.9,1-7.3,1.6
			c-7.8,1.4-15.7,3.1-23.5,4c-33.4,4.1-67,5.5-100.5,1.6c-5.4-0.6-10.8-1.2-17.9-1.9c8.6-4.7,14.1-10.3,17.8-17.7
			c7,2.8,14.3,4.6,21.6,5.9c13,2.4,26.1,4.8,39.4,5.5c20.1,1.2,40.1,1.3,60.1-1.3c1.3-0.2,3.2-0.1,3.1-1.7
			C346.6,222.1,349.2,220,349,217.1z M354.3,225.8c2.1-0.6,4.4-1.2,6.6-1.9c1.5-0.4,3.8-0.2,3.7-2.4c-0.1-1.8-2-2.5-3.5-3.2
			c-3-1.2-8.7,1.5-9.3,4.5C351.3,224.8,352.4,225.7,354.3,225.8z"/>
		<path class="st6" d="M109,57.7c-5.2,7.7-9.6,15.7-10.9,25.1c-1.7,11.6-4.7,23-4.2,34.9c0.1,2.3-0.6,3.9-3.3,4
			c-4.3,0.2-8.5,1.2-12.7,2.3c-1.8,0.5-3.5,0.7-2.7-2.1c1-3.7-0.6-6.8-2.1-9.9c0.7-4.4-2.8-6.2-5.3-8.4c-2.8-2.5-3-4.6-0.9-7.5
			c1.9-2.6,4.7-4.7,5-8.2c0.9-4.5-0.5-8.9-1-13.2C69.5,64.8,69.9,64,79,60.9c0.4-0.3,0.7-0.5,1.1-0.8c0.6-0.1,1.3-0.2,1.9-0.2
			c0.1,1.5,0.2,3.2,2.3,2.8c2.3-0.4,1.6-2.3,1.5-3.9l0-0.1c5.7,3.3,11,2,16.7-0.6C103.9,57.4,106.8,54.7,109,57.7z"/>
		<path class="st5" d="M325.7,25.9c40.7,4.8,79.9,14.5,117.1,32.6c-13.1-3.4-21.1,5.6-30.1,12c-5.9,4.2-5.7,4.3-9.6-1.6
			c-2.3-3.5-4.7-6.9-7.2-10.2c-7-9.3-13-11.3-24.3-8c-1.9,0.5-3.3,0.7-5-0.5C353.9,40.6,340.1,32.9,325.7,25.9z"/>
		<path class="st7" d="M187.1,230.9c-5.7,0.4-10.8-1-15.1-5.1c-5.5-5.4-5.6-11.4-1.1-17.7c7.2-10.1,17-14.4,29-14.2
			c7.1,0.1,12.4,3.3,15.4,9.8c2.3,5.1,0.1,13.2-4.9,17.7C203.9,227.3,196.4,231.5,187.1,230.9z M185.3,204.3
			c-0.1-1.1-0.8-1.3-1.7-1.3c-1.6,0.1-3.1,0.5-3.5,2.1c-0.4,1.4,0.8,1.5,1.8,1.5C183.6,206.7,184.5,205.5,185.3,204.3z"/>
		<path class="st8" d="M349,217.1c0.2,2.9-2.4,5-2.2,8.1c0.1,1.7-1.8,1.6-3.1,1.7c-20,2.6-40,2.5-60.1,1.3
			c-13.3-0.8-26.3-3.2-39.4-5.5c-7.3-1.3-14.6-3.2-21.6-5.9c1-3.3-0.2-8.1,2.3-9.6c2.6-1.6,6.7,0.7,10,1.6
			c24.4,6.1,49,10.9,74.3,10.8c12.1,0,24.2-0.6,36.3-2.4C346.7,216.9,347.9,217.1,349,217.1z"/>
		<path class="st9" d="M109,57.7c-2.2-3-5.1-0.3-6.5,0.3c-5.7,2.6-11,3.9-16.7,0.6c5.7-5.8,7.2-12.6,5.3-20.5
			c-0.6-2.5-0.2-5.3-0.2-8c0-4,1.7-5,5.4-3.2c4,1.9,7.5,4.9,11.9,6.2c8.7,2.5,14.6-0.2,17.9-8.6c0.9-2.3,1.1-4.8,2.5-7
			c2-3,4.4-3.4,6.4-0.8c4.4,5.9,9.3,10.4,17.1,10.7C135.7,34.7,121,44.3,109,57.7z"/>
		<path class="st7" d="M157.5,177.7c7.8-0.3,15.2,2.6,20.9,9.1c2.4,2.7,3.4,4.8-1.1,7.1c-6.6,3.3-12,8.2-14.6,15.5
			c-0.6,1.7-1.7,2.8-3.5,3.1c-7.6,1.5-20.4-3.8-24.7-10.3c-5.2-7.7-2.3-17.6,6.3-21.3C145.4,178.9,151.3,177.7,157.5,177.7z
			 M150.6,185.1c-0.4-1.6-1.7-2.1-3.1-1.8c-1.4,0.3-3.3,0.5-3,2.5c0.3,1.5,1.9,1.7,3.3,1.5C149.1,187.2,150.4,186.7,150.6,185.1z"/>
		<path class="st10" d="M152.2,27.6c-7.8-0.3-12.7-4.8-17.1-10.7c-2-2.7-4.4-2.3-6.4,0.8c-1.4,2.2-1.6,4.7-2.5,7
			c-3.3,8.4-9.1,11.1-17.9,8.6c-4.4-1.3-7.9-4.2-11.9-6.2c-3.7-1.8-5.4-0.8-5.4,3.2c0,2.7-0.4,5.4,0.2,8c1.9,7.9,0.4,14.7-5.3,20.5
			c0,0,0,0.1,0,0.1c-1.3,0.1-2.8-0.1-3.8,1.1c-0.6,0.1-1.3,0.2-1.9,0.2c-0.4,0.3-0.7,0.5-1.1,0.8c-9.1,3.1-9.5,3.9-8.2,13.6
			c0.6,4.4,1.9,8.7,1,13.2c-2.2,1.2-4.4,2.2-5-1.6c1-5.6-0.8-10.4-3.9-15c-5.6-8.3-4.2-11.8,5.5-14.5c0.8-0.2,1.6-0.4,2.4-0.7
			c13.8-3.7,18.1-10.5,15.9-24.6c-0.6-4.1-1.1-7.9,0-12.2c1-3.8,2.7-3.2,4.9-2c2,1.2,3.8,2.7,5.6,4.2c3.2,2.7,6.6,5,10.8,5.8
			c6.7,1.3,11.3-0.9,14.4-7c1-1.9,1.8-3.9,2.8-5.9c1.4-2.7,3.1-5.5,6.6-5.1c3.7,0.4,6.9,1.8,8.5,5.8c2.9,7.6,8.4,9.7,15.8,6.2
			c3-1.4,5.6-3.5,8.5-5.2c4.5-2.6,9.2-4,14.1-1.2c1,0.6,2.4,0.9,2.2,2.4c-0.2,1.2-1.6,1-2.4,1.3C169.7,21.5,161,24.5,152.2,27.6z"/>
		<path class="st11" d="M100.8,179.8c-8.8-0.1-16.5-0.9-24-3.2c-3.2-1-6.2-2.4-8.8-4.5c-8.7-6.8-8.3-15.4,1.8-19.7
			c19.5-8.4,39.4-10.5,59.4-1.3c5.1,2.3,9.9,5.9,9.8,12.1c-0.1,6.5-5.3,9.5-10.7,11.8C119.1,178.9,109.5,179.4,100.8,179.8z
			 M98.3,176.8c2.7-0.3,5-0.6,7.3-0.7c6.1-0.2,11.9-1.4,17.3-4c3.8-1.8,7.5-4.3,7.7-9c0.2-4.5-3-7.3-6.7-9.1
			c-15.3-7.3-30.9-6.7-46.4-0.6c-3.9,1.5-7.3,4.4-7.4,9.2c0,4.6,3.4,7,7,8.9C83.8,175,91.3,175.9,98.3,176.8z"/>
		<path class="st5" d="M111,140.8c-11.7-1-23.2-0.7-34.4,3.2c-9.6,3.3-18.5,7.8-20.9,19.3c-5.2-8.8-3.9-15.8,3.9-22.5
			c13.2-11.3,28.9-14.1,45.6-13.5c2.3,0.1,4.6,0.6,6.9,0.9c1.5,2.6,0.2,3.6-2.3,3.6c-3.3,0.1-6.6,0.1-10,0.1c-2.6,0-4.8,0.6-6.3,3
			c5.6,2.6,5.7,2.6,15.4,1l0,0c1.1,3.1,4,3.1,7.9,3.4C114.1,140.1,112.3,139.4,111,140.8z"/>
		<path class="st2" d="M56.9,176c7.1,2.7,13.8,6.4,21.3,8.1c11.6,2.7,23.1,3.6,34.9,2.1c1,1.8-0.3,2.9-1.2,3.9
			c-5.3,5.7-11.8,9.3-19,12c-16-1.6-28.3-9-35.4-23.9c-0.3-0.7-0.3-1.6-0.5-2.4L56.9,176z"/>
		<path class="st2" d="M111,140.8c1.2-1.4,3.1-0.7,5.9-1.5c-3.9-0.3-6.8-0.3-7.9-3.4c1.1-0.3,2.7,0.6,3.4-1.2
			c-1.6-0.8-2.4,0.3-3.4,1.2c-9.7,1.5-9.8,1.5-15.4-1c1.5-2.4,3.7-3,6.3-3c3.3,0.1,6.6,0,10-0.1c2.5-0.1,3.7-1,2.3-3.6
			c9.2,2.1,18.5,3.6,26.3,9.7c8.8,7,11.1,16.3,5.9,25.7c-3.4-15.5-15.6-19.2-28.5-21.6C114.2,141.7,112.6,141.3,111,140.8z
			 M116.1,134.6l0-0.4l-0.4,0.2L116.1,134.6z"/>
		<path class="st12" d="M408.2,127.1c-1.3-4.9,0.7-5.8,5.2-5c12.2,2.1,24.5,3.8,36.8,5.6c2,0.3,4,0.2,5.9,0.3
			c2.6,0.5,5.1,1.1,7.7,1.6c0.7,0.3,1.4,0.5,2.1,0.8c1,1,2.2,0.5,3.4,0.4c0.4,0.4,0.8,0.8,1.2,1.1c-0.2,0.1-0.3,0.1-0.4,0.2
			c-0.1,0.1-0.2,0.4-0.1,0.4c2,1.1,2.4,4.1,5.1,4.3c0,0,0,0,0,0c0,0.8,0.1,1.5,0.1,2.3c-1.8,0-3.5,0-5.3,0c-1.6-0.1-3.3-0.1-4.9-0.2
			c-3.8-2.3-8.1-2.2-12.3-2.7c-1.9-0.1-3.7-0.1-5.6-0.2c-0.5-0.4-1-1-1.6-1c-9.8-1.4-19.6-2.8-29.4-4.2
			C413.1,130.4,409.6,130.8,408.2,127.1z"/>
		<path class="st12" d="M407.1,109.9c-1.6-8.8-1.6-8.7,7-9.9c13.7-1.8,27.3-4.4,41.1-5.4c6-0.4,7.7,0.9,9.1,7.2
			c-3.8,0.5-7.6,1-11.3,1.6C437.6,105.6,422.4,107.7,407.1,109.9z"/>
		<path class="st13" d="M407.1,109.9c15.3-2.2,30.5-4.3,45.8-6.5c3.8-0.5,7.6-1,11.3-1.6c1.5,4.3-0.1,6.3-4.5,7.2
			c-11.8,2.6-23.8,4.5-35.6,7.3c-4.9,1.2-10.7-1.4-16-2.6C406.3,113.4,407.1,111.3,407.1,109.9z"/>
		<path class="st13" d="M377,56.8c5-0.4,9.5-0.5,13.2,4.2c7.2,9.2,13.7,18.8,19.3,29c0.7,1.3,3.1,3.5,0.9,4.4
			c-2.2,0.9-5.9,2.6-7.5-1.7c-2.4-6.2-5.7-12-9.7-17.3c-4.4-5.9-9.6-11-15-16C377.6,58.7,376.9,58.2,377,56.8z"/>
		<path class="st6" d="M372.2,199.1c-2.6-9.8-0.7-16,6.4-21c6.9-4.8,12.8-4.3,21.3,1.8c0.1,0.5,0.1,1.1,0.2,1.6
			c0.4,6.4-3.1,3.8-6,2.7c0.2-4.4-2.8-6.4-6.3-6.9c-3.3-0.4-6.5,1.5-7.9,4.7c-1.5,3.4-1.2,6.8,2.3,9.1c-1.8,6.2,0,11.3,5,15.3
			c1,0.8,1.1,2,1.2,3.2c-0.5,0.2-1.1,0.4-1.6,0.5c-0.8-0.1-1.6-0.2-2.5-0.3c-1.6-1.2-3.4-1.7-5.3-2.2c-0.1-0.3-0.2-0.5-0.3-0.8
			c0.9-8.3,0.9-8.3-5.5-7.5C372.8,199.1,372.5,199.1,372.2,199.1z"/>
		<path class="st6" d="M402.4,173.3c-0.5-0.5-0.8-1.1-1.4-1.4c-4.6-2.2-6.9-5.5-5.6-10.7c1.4-5.6,5.4-8.8,10.6-9.9
			c4.7-1,8.3,1.5,10.9,5.3c0.6,0.9,1.4,1.8,2.1,2.7c-0.1,3.4-0.2,6.8-0.3,10.2c-1.1,0.4-1.6,1.1-1.7,2.3c-0.3,0-0.6,0.1-1,0.2
			c-4.7-2.9-9-2.8-13,1.3C402.8,173.2,402.6,173.2,402.4,173.3z M405.6,154.8c-2.1-0.1-4.1,1.3-4.1,4.3c0,3.4,2,5.8,5.5,5.7
			c3.1-0.1,5.6-2.5,5.5-5.4C412.5,156.2,409.7,154.8,405.6,154.8z"/>
		<path class="st8" d="M92.8,202.1c7.2-2.7,13.8-6.3,19-12c0.9-1,2.3-2.1,1.2-3.9c5.1-1.1,10.3-2.1,15.7-3.3c-1.4,3.3-3.7,6-3.8,9.4
			c0,4.7-2.6,6.6-6.7,7.7C109.9,202.3,101.5,204.1,92.8,202.1z"/>
		<path class="st13" d="M408.2,127.1c1.4,3.7,4.9,3.3,7.9,3.8c9.8,1.5,19.6,2.8,29.4,4.2c0.6,0.1,1.1,0.7,1.6,1
			c-0.3,2.1-0.5,4.1-0.8,6.2c-1.7,0-3.6-0.9-5.2,0.3c-3.4-0.6-6.8-1.1-10.3-1.7c-5.4-0.7-10.8-1.8-16.2-2.1c-5-0.3-7.1-2.3-6.4-7.3
			C408.4,130.1,408.2,128.5,408.2,127.1z"/>
		<path class="st13" d="M441,65.2c3.6,1.9,4.2,6,0.8,9c-6.9,6-14,11.7-21,17.6c-1.8,1.5-2.8,1.2-3.8-0.8c-0.9-1.8-1.9-3.4-2.9-5.2
			c3.6-2.1,6.8-4.7,9.9-7.2C429.6,74.1,436.3,70.9,441,65.2z"/>
		<path class="st12" d="M441,65.2c-4.7,5.7-11.4,8.8-16.9,13.4c-3.1,2.6-6.3,5.2-9.9,7.2c-3.4-3.2-3.3-5.6,0.9-8.3
			c5-3.2,9.6-7.1,14.3-10.7C432.9,64.1,436.7,63.1,441,65.2z"/>
		<path class="st5" d="M161.7,225.7c-16-4.3-31.1-9.5-45.9-17.3c1.8-0.6,3-1,4.1-1.5c4-1.8,6.6-1,9.9,2.5c6.8,7.4,16.3,10,26.2,10.1
			C160.4,219.7,161.9,221.1,161.7,225.7z"/>
		<path class="st9" d="M66.8,86.1c0.6,3.9,2.7,2.9,5,1.6c-0.3,3.5-3.1,5.6-5,8.2c-2.1,3-1.9,5.1,0.9,7.5c2.5,2.2,6,4,5.3,8.4
			c-3-3.3-7.1-4.7-10.9-6.6c-5.6-2.8-6.5-6.1-2.1-10.3C62.8,92.3,64.4,88.9,66.8,86.1z"/>
		<path class="st1" d="M470.5,131.9c-0.4-0.4-0.8-0.8-1.2-1.1c-1-0.6-2.1-1.2-3.1-1.8c-0.7-0.2-1.4-0.3-2.1-0.5l0.2-0.3
			c-1.1-4.3-4.6-7.1-7-10.5c-1.1-1.6-4.7-2.8-1.7-5.6c3.1-2.9,3.8,0.8,5.2,2.2c0.7,0.7,1.3,1.5,2.3,1.7c2.4,3.4,2.8,8.5,7.9,9.7
			c0.6,3.8,4.4,5,6.3,7.9c1.6,2.4,1.7,3.7-0.6,5.2c-0.6-0.6-1.1-1.2-1.7-1.9c0,0,0,0,0,0C474.3,134.5,473,132.7,470.5,131.9z"/>
		<path class="st1" d="M418.7,169.5c0.1-3.4,0.2-6.8,0.3-10.2c1.8-1.6,3.9-1.9,6.1-1c0.3,0.1,0.5,0.3,0.5,0.6c0.3,1.2,0.2,2.6-1,3
			c-1.6,0.6-4.3,0.3-3.2,2.9c0.8,2,3.2,0.8,4.9,0.4c0.6-0.2,1.3-0.2,2-0.3c1.8,0.9,3.6,1.9,5.3,2.8c1.6,3,1.5,5.8-1,8.3
			c-2.5,0.2-5.1,0.5-7.6,0.7c0-1.4,0.2-2.7,2-2.8c1.7-0.2,3.1-0.7,2.5-2.7c-0.6-1.9-2.4-1.5-3.8-1
			C423.1,171.1,420.8,171.3,418.7,169.5z"/>
		<path class="st14" d="M426,156.2c-1.2-3,1-4.4,2.9-5.8c1.5,3,3.8,5.3,6.1,7.6c2,2.6,3.5,5.6,6.6,7.3c-0.4,5-0.9,5.2-6.2,2.3
			c-1.2-4.3-5.5-5.9-8.1-8.9C426.8,157.8,426.4,157,426,156.2z"/>
		<path class="st1" d="M346.9,230.8c2.4-0.5,4.9-1,7.3-1.6c3.8,3.8,7.1,3.2,10.8-2.2c1.6-0.4,3.3-0.8,4.9-1.3c0.2,3-2.1,5.1-2.7,7.8
			c-4.4,1.1-8.8,2.2-13.2,3.3C352,234.3,349.8,232.1,346.9,230.8z"/>
		<path class="st1" d="M364,213.5c-3.3,1-6.6,2.1-10.2,1.9c2.8-1.9,2.9-3.8,0.2-6.1c-1.9-1.6-3.3-3.6-4.9-5.5c0-0.5,0.1-1,0.1-1.6
			c2.7-2.2,5-1.9,6.8,1.2C358.2,207.1,362.2,209.5,364,213.5z"/>
		<path class="st1" d="M402.4,173.3c0.2-0.1,0.5-0.1,0.7,0c0.7,1,1.3,2,2,3c-2.5,8.4,0.4,11.7,9.1,10.6c0,1.3,0,2.7,0,4
			c-3.5,2-6.8,1.3-9.8-1.1c-0.8-3.1-2.5-5.8-4.3-8.4c-0.1-0.5-0.1-1.1-0.2-1.6C399.8,177.3,401,175.3,402.4,173.3z"/>
		<path class="st1" d="M497.7,96.4c-0.2-2.7-0.3-5.5-2.1-7.8c-0.3-0.4-0.3-1.3,0-1.8c0.4-0.6,1.3-0.4,1.7,0.1
			c5.3,5.7,11.6,10.6,14.7,18.8c-4.6-1.4-6.1-5.2-8.7-7.8c-1.5-1.5-2.9-4.2-5.5-1.3C497.8,96.5,497.7,96.4,497.7,96.4z"/>
		<path class="st14" d="M431.1,148.8c0.5-0.7,1.1-1.4,1.6-2.1c2.4,0.1,4.7,0.2,7.1,0.4c2.6,2.5,5,5.2,6.3,8.7
			c-0.3,1.2,0,2.6-1.1,3.6c-2.6-0.2-3.1-3.7-5.9-3.7C439.2,150.2,433.6,151.3,431.1,148.8z"/>
		<path class="st1" d="M372.2,199.1c0.3,0,0.6,0.1,0.9,0.3c-0.5,1.6,0.8,2.8,1.1,4.3c-2.7,2.1-4.7,4.4-4.1,8.2
			c-1.4,0.4-2.7,0.7-4.1,1.1C363.6,206.3,368.2,202.8,372.2,199.1z"/>
		<path class="st9" d="M431.1,148.8c2.5,2.6,8.1,1.4,8.2,6.9c-1,1.5-2.9,1.4-4.2,2.3c-2.3-2.3-4.6-4.6-6.1-7.6
			C429.2,149.3,430.1,148.9,431.1,148.8z"/>
		<path class="st1" d="M439.8,147.1c-2.4-0.1-4.7-0.2-7.1-0.4c-0.3-2-4.2-2.9-1.9-5.8c3.4,0.6,6.8,1.1,10.3,1.7
			C441.4,144.3,440.8,145.7,439.8,147.1z"/>
		<path class="st5" d="M456,122.3c-4.3-0.7-8-1.3-11.6-1.9C448.3,119.4,452.5,115.3,456,122.3z"/>
		<path class="st4" d="M103.4,119.3c0.6-1,0.1-3.2,2.1-2.7c1.6,0.4,2.4,2.3,2.8,3.8c0.4,1.4-1,1.4-2,1.4
			C104.8,121.8,103.4,121.4,103.4,119.3z"/>
		<path class="st1" d="M424.9,147.3c-0.4,1.6-1.4,2.6-3.1,2.6c-1.6,0-1.9-1.1-1.8-2.4c0.1-1.8,1.1-2.7,2.9-2.5
			C424.2,145.1,425,145.9,424.9,147.3z"/>
		<path class="st4" d="M464.3,128.2c0,0-0.2,0.3-0.2,0.3c-0.1,0.3-0.1,0.7-0.2,1c-2.6-0.5-5.1-1.1-7.7-1.6
			C459,124.7,461.6,129.3,464.3,128.2z"/>
		<path class="st6" d="M426,156.2c0.4,0.8,0.9,1.6,1.3,2.4c-0.1,0.1-0.3,0.3-0.4,0.4c-0.4,0-0.8-0.1-1.3-0.1
			c-0.1-0.3-0.2-0.5-0.5-0.6C425.4,157.6,425.7,156.9,426,156.2z"/>
		<path class="st5" d="M448.8,61.3c-0.2,0.2-0.3,0.5-0.5,0.5c-0.3,0-0.5-0.2-0.8-0.3c0.2-0.2,0.3-0.5,0.5-0.5
			C448.2,61,448.5,61.2,448.8,61.3z"/>
		<path class="st2" d="M57,175.9c-0.2-0.2-0.4-0.3-0.6-0.5c0.2,0,0.3-0.2,0.5-0.1c0.5,0.2,0.5,0.4,0,0.7C56.9,176,57,175.9,57,175.9
			z"/>
		<path class="st2" d="M447,241.9c0.3-0.1,0.6-0.2,0.9-0.3C447.6,241.7,447.3,241.8,447,241.9z"/>
		<path class="st0" d="M404.3,189.8c3,2.4,6.3,3.1,9.8,1.1c0,0,0.4,0.2,0.4,0.2l0.4,0c2,11.6,10.8,17,19.8,12.4
			c5.1-2.6,8.1-6.8,7.9-12.3c-0.2-6.7-3.3-12.1-10.1-14.5c0-0.2,0.1-0.3,0-0.5c2.4-2.5,2.5-5.3,1-8.3c0.6-0.1,1.2-0.2,1.8-0.3
			c5.3,2.8,5.8,2.7,6.2-2.3c1.8-1,2.7-2.7,3.6-4.4c2.1,0,4.2,0.1,6.3,0.1c-1,5.9-4.1,10.3-9.5,13.4c2.7,3,5.2,6,6.6,10.1
			c8-8,12.9-16.7,15.7-26.8c0.9-3.2-0.1-4.7-3.4-4.8c-1.3-1.3-1.7-2.3,0.6-3c2.4-0.8,4.7-1.8,5.6-4.4c0.5-0.2,1.1-0.4,1.6-0.6
			c6.6,1.3,6.6,1.3,7.9-5.4c0-0.2,0.1-0.5,0-0.7c2.3-1.5,2.2-2.8,0.6-5.2c-1.9-2.8-5.7-4.1-6.3-7.9c9.2,2.4,14.7,19.4,8.5,26.4
			c-0.3,0.4-0.6,0.9-1.1,1c-6.1,1.3-5.9,6.8-7.3,11.2c-3.2,10.4-9.3,19-17,26.5c-2.9,2.8-5.6,5.5-6.8,9.5c-1.1,3.6-4,6-6.6,8.6
			c-4.6,2.6-9.5,3.7-14.8,4c-6.6,0.4-11.9,4.5-17.9,6.8c-13.5,5.2-27,10.2-40.9,13.9c0.6-2.7,2.8-4.8,2.7-7.8
			c7.7-2.6,15.4-5.3,23-7.9c2.7-0.9,4.7-2.6,6.1-4.9c-0.2,0.8-0.4,1.5,0.3,2.1c0.2-0.4,0.4-0.7,0.6-1.1c5.7-0.1,9.9-3.8,14.9-5.9
			c-2-2.3-3.6-4.2-5.5-6.3c-2.5,4.5-4.7,8.9-9.3,11.4c-0.4,0-0.7,0-1.1-0.1c-1.3-1.5-2.3-3.2-4.1-4.2
			C400.9,203.9,405.6,198.3,404.3,189.8z"/>
		<polygon class="st5" points="440.1,213.2 440.1,213.6 439.7,213.4 		"/>
		<path class="st0" d="M141.8,86.7c-4.6,2.9-9.2,5.8-13.9,8.6c-1.2,0.7-2.8,2.3-4,0.9c-1.3-1.6,0.8-3.2,1.8-4.1
			c3.8-3.2,7.9-6.1,11.9-9c0.9-0.7,2-1.2,2.5-2.4c0.3-0.3,0.7-0.6,1-0.9c0,0,0,0.1,0,0.1c3.1-0.3,5.1-2.5,8.1-4.4
			c-3.2-0.9-5.4-2.2-7.9-2c-1.7-0.7-3.4-1.2-5-2.1c-1.3-0.7-4-0.3-3.3-2.6c0.5-1.9,2.9-0.9,4.4-0.9c2.3,0.1,4.5,0.5,6.8,0.8
			c4.6,0.7,8.9,4.5,13.7,1.6c15.3-9,31.4-16.6,47.6-23.9c0.9-0.4,2.5-0.3,2.4-2c-4.9-2.9-11-2.9-16.4-6.9c3.6-1.2,6.4-1,8.6,0
			c11.3,5.2,22,3.6,32.8-1.6c3.2-1.6,7-2.2,10.5-3c1.9-0.5,3.9-0.7,5.9-0.9c1-0.1,2.2-0.1,2.3,1.2c0,0.6-0.8,1.5-1.4,1.8
			c-3.2,1.4-6.5,2.6-9.7,3.9c-5,2-10.3,3.1-15.5,6.5c2.4,0.7,4.1,1.2,5.9,1.7c9.3,3.5,18.6,7.1,27.9,10.6c1.9,0.7,3.5,0.5,5.3-0.2
			c9.6-3.6,19.3-7.2,28.9-10.8c3.8,0,7.4-3.1,11.7-1c-1.6,2.2-4,2.2-5.7,3.5c-10.7,2.8-20.8,7-31.6,11.8c12.8,5.7,24.7,11,36.6,16.3
			c1.5,1,2.8,0.1,4.2-0.5c6-2.4,12-4.9,18.1-7c7.1-2.4,14-6,23.4-4.9c-12.5,7.3-25.8,9.4-37.6,16.4c13.5,7.2,26.9,13.6,39.4,21.4
			c1.1,0.7,2.1,0.7,3.3,0.3c4.4-1.5,8.8-2.8,13.3-4.2c2.3-0.1,4.6-0.2,6.9-0.3c0.9,0,2.2-0.1,2.3,1.2c0.1,1.2-1.1,1.5-2,1.8
			c-3.1,0.9-6.3,1.8-9.4,2.7c-2.2,0.8-4.8,0.7-6.7,3c1.9,1.4,3.5,2.9,5.8,3.6c2.1,2.7,5.8,3.9,7.2,7.5c-4.1,1.3-6.6-2.3-10-2.8
			c-5.5-5.4-11.2-6.8-18.6-3c-10.8,5.5-22.3,9.3-34,12.4c-1.5,0.4-3.3,0.3-4.7,2.5c4.1,2.1,8.1,4.2,12.2,6.3
			c2.4,1.7,4.9,3.3,7.2,5.1c0.9,0.7,2.1,1.5,1.4,2.8c-0.8,1.4-2.1,0.4-3.1,0c-6.3-2.8-12.6-5.8-18.9-8.7c-5.5-4.2-11.1-3.8-16.7-0.2
			c-1.5,0.5-3,1.1-4.6,1.6c-1.7,0.5-3.6,1.1-4.3-1.4c3-2.9,7.2-3.9,11.3-6.9c-8.3-3.4-15.9-6.5-23.6-9.6
			c-18.6-7.5-18.7-7.5-36.7,1.7c-3.4,1.8-7.5,2.8-9.7,6.5c-3.2-0.2-5.3,2.3-8.1,3.2c-1.2,0.4-2.6,1.6-3.5,0.3
			c-1.2-1.7,0.9-2.5,1.8-3.4c0.9-0.9,2.1-1.4,3.2-2.1c9.2-5.2,18.4-10.3,28.4-15.9c-12.3-4.5-23.8-8.6-35.3-13
			c-4.1-1.6-7.6-1.4-11.4,0.7c-10.2,5.6-20.6,10.9-30.9,16.3c-1.1,0-2.3-0.1-3-1.2c2.6-3.4,6.2-5.4,9.7-7.4
			c7.3-4.2,14.6-8.2,23.1-12.8c-12.5-4-23.9-7.7-35.4-11.4c-1.2-0.4-2.3-0.1-3.3,0.5C150.5,81.3,145.6,83.1,141.8,86.7z M226.1,73.4
			c8.8-3.7,17.6-7.5,26.9-11.4c-1-0.7-1.3-1-1.7-1.1c-9.4-3.8-18.4-8.3-28.2-11.1c-3.4-3.1-6.7-1.7-10.1-0.1
			c-10.3,5-20.6,10-30.9,15.1c-5.7,2.8-11.4,5.7-18.3,9.2c13,4,24.6,7.5,36.1,11c1.3,0.4,2.7,0,3.9-0.6
			C211.2,80.8,218.6,77.1,226.1,73.4z M237.9,74.8c-9.3,4.2-18.5,8.4-28.8,13.1c13.7,5.2,26.2,10,38.7,14.7c1.2,0.4,2.3,0.1,3.4-0.4
			c14.2-7.2,29-13.2,43.5-19.8c4.2-1.9,0.2-1.9-0.7-2.5c-10.7-4.8-21.4-9.6-32.1-14.5c-1.7-0.8-3.2-0.6-4.8,0.1
			C250.8,68.7,244.3,71.7,237.9,74.8z M346.9,105.8c-13.7-7-26-13.2-38.2-19.5c-2.7-1.4-5.1-1.5-8-0.2
			c-13.5,6.3-27.2,12.4-40.8,18.6c-0.7,0.3-1.6,0.5-1.4,1.8c12.3,5.5,24.8,11,37.2,16.5c1.6,0.7,2.9,0,4.3-0.5
			c9.7-3.5,19.3-7.1,29-10.6C334.4,110.1,339.8,108.3,346.9,105.8z"/>
		<path class="st11" d="M298.9,49.3c1.7-1.3,4.1-1.3,5.7-3.5c-4.3-2.2-7.9,1-11.7,1c-16.8-8.9-34.3-11.8-52.4-4.9
			c-3.3,1.3-7.6,1.4-9.6,5.2c-1.7-0.5-3.4-1-5.9-1.7c5.2-3.4,10.5-4.5,15.5-6.5c3.2-1.3,6.5-2.5,9.7-3.9c0.6-0.3,1.5-1.2,1.4-1.8
			c-0.1-1.3-1.4-1.3-2.3-1.2c-2,0.2-4,0.5-5.9,0.9c-3.5,0.9-7.3,1.5-10.5,3c-10.8,5.3-21.5,6.8-32.8,1.6c-2.3-1-5-1.2-8.6,0
			c5.4,4,11.6,4,16.4,6.9c0.1,1.7-1.5,1.6-2.4,2c-16.2,7.3-32.3,14.9-47.6,23.9c-4.9,2.9-9.2-0.9-13.7-1.6
			c1.2-6.9,6.3-11.2,11.2-15.3c10.8-9.1,23.8-14,36.9-18.9c17.5-6.5,35.2-11,53.9-10.4c24.8,0.8,48.6,6.1,71.1,17.1
			c9.9,4.8,19.3,10.1,27.8,17c13.2,10.6,21.6,23.8,23.1,40.9c-4.4,1.4-8.9,2.7-13.3,4.2c-1.2,0.4-2.2,0.3-3.3-0.3
			c-12.5-7.9-25.9-14.2-39.4-21.4c11.7-7,25.1-9.1,37.6-16.4c-9.4-1.1-16.3,2.4-23.4,4.9c-6.1,2.1-12.1,4.6-18.1,7
			c-1.4,0.5-2.7,1.5-4.2,0.5c0.9-3,4.9-3.9,5.1-7.6c0.3-6.6-1.3-12.3-6.8-16.5C300.8,52.3,298.9,51.5,298.9,49.3z"/>
		<path class="st11" d="M163.7,110.9c10.3-5.4,20.6-10.8,30.9-16.3c3.8-2.1,7.3-2.3,11.4-0.7c11.4,4.4,23,8.5,35.3,13
			c-10,5.6-19.2,10.8-28.4,15.9c-16.3-0.5-32-4.2-47.2-9.9C164.7,112.5,164,111.9,163.7,110.9z"/>
		<path class="st11" d="M141.8,86.7c3.8-3.6,8.7-5.4,13.1-8.1c1-0.6,2.2-0.9,3.3-0.5c11.4,3.7,22.9,7.3,35.4,11.4
			c-8.4,4.7-15.8,8.7-23.1,12.8c-3.6,2-7.2,4.1-9.7,7.4C150.3,105.5,144.1,97.6,141.8,86.7z"/>
		<path class="st11" d="M219.5,124.8c2.2-3.7,6.3-4.7,9.7-6.5c18-9.3,18.1-9.2,36.7-1.7c7.6,3.1,15.3,6.2,23.6,9.6
			c-4.1,3-8.3,3.9-11.3,6.9c-11.2-2.1-22.4-4.3-33.6-6.1C236.3,125.6,228,123.7,219.5,124.8z"/>
		<path class="st11" d="M317,133.8c-4-2.1-8.1-4.1-12.2-6.3c1.4-2.2,3.3-2.1,4.7-2.5c11.7-3.1,23.3-6.9,34-12.4
			c7.5-3.8,13.1-2.4,18.6,3c-11.5,12.2-26.4,16.1-42.5,17.2C318.8,133,317.9,133.5,317,133.8z"/>
		<path class="st11" d="M287.1,132.9c5.6-3.6,11.2-4,16.7,0.2C298.2,134.5,292.6,134,287.1,132.9z"/>
		<path class="st11" d="M141.2,73.5c2.6-0.2,4.8,1.1,7.9,2c-3,2-5,4.2-8.1,4.4C141.1,77.8,141.1,75.7,141.2,73.5z"/>
		<path class="st11" d="M365,111.1c-2.3-0.6-3.9-2.2-5.8-3.6c1.9-2.3,4.5-2.2,6.7-3C367.5,107,365.4,108.9,365,111.1z"/>
		<path class="st11" d="M141.1,79.9c-0.3,0.3-0.7,0.6-1,0.9C140.4,80.5,140.7,80.2,141.1,79.9z"/>
		<path class="st8" d="M354.3,225.8c-1.9-0.1-2.9-1-2.5-2.8c0.6-3,6.3-5.8,9.3-4.5c1.5,0.6,3.4,1.4,3.5,3.2c0.1,2.2-2.2,1.9-3.7,2.4
			C358.6,224.6,356.4,225.2,354.3,225.8z"/>
		<path class="st1" d="M394.9,208.7c1.8,1,2.8,2.7,4.1,4.2c0,0,0.1-0.1,0.1-0.1c-1.5,2.4-3.5,4.1-6.1,4.9c0-0.3,0.1-0.7,0.1-1
			c2-3.3-2.5-4.1-2.6-6.6C391.8,209.4,393.2,208.7,394.9,208.7z"/>
		<path class="st0" d="M390.4,210.2c0.1,2.5,4.6,3.3,2.6,6.6c-2.3,0-4.6,0-6.9,0c-0.2-2.3,3.4-4.2,0.5-6.7c0.5-0.2,1.1-0.4,1.6-0.5
			C388.9,209.8,389.7,210,390.4,210.2z"/>
		<path class="st1" d="M386.6,210.1c2.9,2.5-0.7,4.4-0.5,6.7c-2.5-0.2-4.9-0.6-7.2-1.7c3.2-0.3,4.1-2.9,5.3-5.3
			C385,209.9,385.8,210,386.6,210.1z"/>
		<path class="st0" d="M370.1,211.8c-0.7-3.7,1.4-6.1,4.1-8.2c0.4,0.4,0.8,0.8,1.1,1.1c-1.3,2.2,1.4,5.8-2.3,7.3
			C372,211.9,371,211.8,370.1,211.8z"/>
		<path class="st0" d="M364.9,227c-3.7,5.4-6.9,6-10.8,2.2C357.7,228.5,361.3,227.7,364.9,227z"/>
		<path class="st1" d="M372.9,212c3.7-1.5,1-5,2.3-7.3c1.1,0.7,2.2,1.4,3.2,2.1c0.2,0.3,0.3,0.5,0.3,0.8c-0.4,2.2-0.7,4.3-1.1,6.5
			C376.1,213.5,374.3,213.3,372.9,212z"/>
		<path class="st0" d="M377.7,214.1c0.4-2.2,0.8-4.3,1.1-6.5c1.9,0.5,3.7,1,5.3,2.2c-1.2,2.4-2,5-5.3,5.3
			C378.5,214.7,378.1,214.4,377.7,214.1z"/>
		<path class="st9" d="M82,59.9c1-1.2,2.5-1,3.8-1.1c0.1,1.5,0.7,3.5-1.5,3.9C82.2,63,82.1,61.4,82,59.9z"/>
		<path class="st9" d="M79,60.9c0.4-0.3,0.7-0.5,1.1-0.8C79.7,60.4,79.3,60.6,79,60.9z"/>
		<path class="st11" d="M185.3,204.3c-0.8,1.2-1.7,2.4-3.4,2.4c-1,0-2.2-0.1-1.8-1.5c0.5-1.6,2-2.1,3.5-2.1
			C184.5,202.9,185.2,203.2,185.3,204.3z"/>
		<path class="st11" d="M150.6,185.1c-0.2,1.7-1.5,2.1-2.8,2.3c-1.3,0.2-3,0-3.3-1.5c-0.4-2,1.6-2.2,3-2.5
			C148.9,183,150.1,183.4,150.6,185.1z"/>
		<path class="st13" d="M98.3,176.8c-7.1-0.9-14.5-1.7-21.3-5.3c-3.6-1.9-7-4.3-7-8.9c0-4.8,3.4-7.7,7.4-9.2
			c15.5-6.1,31.1-6.7,46.4,0.6c3.7,1.8,6.9,4.5,6.7,9.1c-0.2,4.7-3.9,7.2-7.7,9c-5.4,2.6-11.3,3.8-17.3,4
			C103.3,176.1,101,176.5,98.3,176.8z"/>
		<path class="st5" d="M109,135.9c0.9-0.9,1.8-2,3.4-1.2C111.7,136.5,110.1,135.6,109,135.9C109,135.9,109,135.9,109,135.9z"/>
		<polygon class="st5" points="116.1,134.6 115.7,134.4 116.1,134.2 		"/>
		<path class="st13" d="M452.7,136.3c4.2,0.5,8.5,0.4,12.3,2.7c-0.6,1.9-1.2,3.8-1.9,5.8c-3.9,0.7-7.4-0.3-10.9-1.9
			C451.7,140.6,451.6,138.4,452.7,136.3z"/>
		<path class="st13" d="M476.7,139.4c-1.3,6.7-1.3,6.7-7.9,5.4c0.1-1.9-0.1-3.9,1-5.7c1.8,0,3.5,0,5.3,0
			C475.7,139.2,476.2,139.3,476.7,139.4z"/>
		<path class="st15" d="M452.7,136.3c-1.1,2.1-1,4.3-0.4,6.6c-1.5,0.1-3.1,0.2-4.6,0.3c-0.4-0.3-0.9-0.6-1.3-0.9
			c0.3-2.1,0.5-4.1,0.8-6.2C449,136.2,450.8,136.2,452.7,136.3z"/>
		<path class="st15" d="M469.9,139.1c-1.1,1.8-0.9,3.7-1,5.7c-0.5,0.2-1.1,0.4-1.6,0.6c-1.4-0.2-2.8-0.4-4.1-0.6
			c0.6-1.9,1.2-3.8,1.9-5.8C466.6,139,468.2,139.1,469.9,139.1z"/>
		<path class="st8" d="M470.5,131.9c2.5,0.8,3.8,2.6,4.6,4.9c-2.7-0.2-3.2-3.1-5.1-4.3c0,0,0-0.3,0.1-0.4
			C470.2,132,470.4,132,470.5,131.9z"/>
		<path class="st4" d="M466.2,129c1.1,0.6,2.1,1.2,3.1,1.8c-1.2,0.1-2.4,0.5-3.4-0.4C466,129.9,466.1,129.4,466.2,129z"/>
		<path class="st8" d="M476.7,139.4c-0.5-0.1-1.1-0.2-1.6-0.3c0-0.8,0-1.5-0.1-2.3c0.6,0.6,1.1,1.2,1.7,1.9
			C476.8,138.9,476.8,139.2,476.7,139.4z"/>
		<path class="st0" d="M466.2,129c-0.1,0.5-0.2,0.9-0.2,1.4c-0.7-0.3-1.4-0.5-2.1-0.8c0.1-0.3,0.1-0.7,0.2-1
			C464.8,128.6,465.5,128.8,466.2,129z"/>
		<path class="st14" d="M390.4,210.2c-0.7-0.2-1.5-0.4-2.2-0.6c-0.1-1.2-0.2-2.4-1.2-3.2c-5-4-6.9-9-5-15.3c3.6-3,6.6-7,12-7
			c2.9,1.1,6.5,3.8,6-2.7c1.8,2.6,3.5,5.3,4.3,8.4c1.3,8.5-3.4,14-9.4,18.9C393.2,208.7,391.8,209.4,390.4,210.2z M399.1,195
			c0.6-3.4-1.6-5.2-4.9-5.6c-3.5-0.4-8.3,3.7-8,6.7c0.3,3.5,2.2,6.1,5.8,6.4C395.7,202.8,399.1,199.1,399.1,195z"/>
		<path class="st10" d="M394,184.1c-5.4-0.1-8.4,3.9-12,7c-3.5-2.4-3.8-5.7-2.3-9.1c1.4-3.2,4.6-5.1,7.9-4.7
			C391.1,177.7,394.1,179.8,394,184.1z"/>
		<path class="st14" d="M378.5,206.8c-1.1-0.7-2.2-1.4-3.2-2.1c-0.4-0.4-0.8-0.8-1.1-1.1c-0.3-1.4-1.6-2.6-1.1-4.3
			C379.4,198.5,379.4,198.5,378.5,206.8z"/>
		<path class="st10" d="M405.6,154.8c4.1,0,6.9,1.4,6.9,4.6c0.1,2.9-2.4,5.2-5.5,5.4c-3.6,0.2-5.5-2.3-5.5-5.7
			C401.5,156.1,403.5,154.7,405.6,154.8z"/>
		<path class="st0" d="M418.7,169.5c2.2,1.7,4.5,1.6,7,0.8c1.4-0.5,3.2-0.8,3.8,1c0.7,2-0.8,2.6-2.5,2.7c-1.8,0.2-2,1.4-2,2.8
			c-0.6,0.5-1.3,1-1.9,1.6c-0.6,0.1-1.2,0.2-1.8,0.2c-0.5-2.9-2.4-4.9-4.3-6.9C417,170.6,417.6,169.9,418.7,169.5z"/>
		<path class="st14" d="M405.1,176.3c-0.7-1-1.3-2-2-3c3.9-4.1,8.3-4.2,13-1.3c-0.4,1-0.9,2-1.3,3
			C411.5,175.4,408.3,175.9,405.1,176.3z"/>
		<path class="st1" d="M414.7,175c0.4-1,0.9-2,1.3-3c0.3-0.1,0.6-0.1,1-0.2c1.9,2,3.8,4,4.3,6.9c-0.1,0.3-0.2,0.5-0.3,0.8
			c-1.9,0.5-2.6,2.3-4,3.4C417.4,179.8,415.5,177.6,414.7,175z"/>
		<path class="st0" d="M446.3,142.3c0.4,0.3,0.9,0.6,1.3,0.9c-0.2,3.5,5.1,4.9,3.6,9c-0.1,1.2-0.3,2.5-0.4,3.7
			c-1.6,0.1-3.1,1.3-4.7-0.1c-1.3-3.5-3.7-6.2-6.3-8.7c1-1.3,1.6-2.8,1.3-4.5C442.7,141.4,444.5,142.3,446.3,142.3z"/>
		<path class="st10" d="M423.1,178.4c0.6-0.5,1.3-1,1.9-1.6c2.5-0.2,5.1-0.5,7.6-0.7c0,0.2,0,0.3,0,0.5c-2.3,2-0.7,3.2,0.8,4.7
			c2.5,2.7,2.2,5.9-0.2,8.5c-2.4,2.6-5.5,2.4-8.2,0.6c-3.3-2.2-2.3-7.7,2.1-11.3C425.6,178.9,424.3,178.7,423.1,178.4z"/>
		<path class="st6" d="M435.4,167.5c-0.6,0.1-1.2,0.2-1.8,0.3c-1.8-0.9-3.6-1.9-5.3-2.8c-0.6-2-1.6-3.8-1.4-6
			c0.1-0.1,0.3-0.3,0.4-0.4C429.9,161.6,434.2,163.2,435.4,167.5z"/>
		<path class="st0" d="M426.9,159c-0.3,2.2,0.8,4,1.4,6c-0.7,0.1-1.3,0.1-2,0.3c-1.7,0.4-4,1.7-4.9-0.4c-1.1-2.7,1.6-2.4,3.2-2.9
			c1.1-0.4,1.3-1.8,1-3C426,158.9,426.5,159,426.9,159z"/>
		<path class="st6" d="M445.2,160.8c-0.9,1.7-1.9,3.4-3.6,4.4c-3-1.7-4.6-4.6-6.6-7.3c1.3-0.9,3.2-0.8,4.2-2.3
			c2.7,0,3.3,3.4,5.9,3.7C445.1,159.8,445.2,160.3,445.2,160.8z"/>
		<path class="st0" d="M414.7,175c0.8,2.6,2.7,4.9,2.3,7.9c-0.9,1.4-1.9,2.8-2.8,4.2c-8.7,1.1-11.6-2.3-9.1-10.6
			C408.3,175.9,411.5,175.4,414.7,175z"/>
		<path class="st14" d="M414.1,187c0.9-1.4,1.9-2.8,2.8-4.2c1.4-1,2.1-2.9,4-3.4c1.3,5.6-1.3,9.2-6,11.6l-0.4,0c0,0-0.4-0.2-0.4-0.2
			C414.1,189.6,414.1,188.3,414.1,187z"/>
		<path class="st1" d="M445.2,160.8c0-0.5-0.1-1-0.1-1.5c1.1-1,0.7-2.4,1.1-3.6c1.5,1.3,3.1,0.2,4.7,0.1c0,1.7,1.6,3.2,0.7,5.1
			C449.4,160.8,447.3,160.8,445.2,160.8z"/>
		<path class="st6" d="M415,191.1c4.7-2.5,7.3-6,6-11.6c0.1-0.3,0.2-0.5,0.3-0.8c0.6-0.1,1.2-0.2,1.8-0.2c1.2,0.2,2.5,0.5,3.9,0.7
			c-4.4,3.6-5.4,9.1-2.1,11.3c2.7,1.8,5.8,2,8.2-0.6c2.4-2.6,2.8-5.8,0.2-8.5c-1.5-1.6-3.1-2.7-0.8-4.7c6.8,2.4,9.9,7.8,10.1,14.5
			c0.2,5.5-2.8,9.7-7.9,12.3C425.8,208.1,417,202.7,415,191.1z"/>
		<path class="st5" d="M451.5,160.9c0.9-1.9-0.7-3.4-0.7-5.1c0.1-1.2,0.3-2.5,0.4-3.7c3.3,0.3,6.5,0.5,9.8,0.8
			c3.3,0.1,4.2,1.6,3.4,4.8c-2.8,10.1-7.7,18.9-15.7,26.8c-1.4-4.2-3.9-7.1-6.6-10.1C447.4,171.2,450.5,166.8,451.5,160.9z"/>
		<path class="st1" d="M461,152.8c-3.3-0.3-6.5-0.5-9.8-0.8c1.5-4.1-3.8-5.4-3.6-9c1.5-0.1,3.1-0.2,4.6-0.3c3.5,1.5,7,2.6,10.9,1.9
			c1.4,0.2,2.8,0.4,4.1,0.6c-0.9,2.7-3.3,3.7-5.6,4.4C459.3,150.6,459.7,151.5,461,152.8z"/>
		<path class="st5" d="M400.1,213c4.6-2.4,6.8-6.9,9.3-11.4c1.9,2.1,3.5,4,5.5,6.3c-5,2.1-9.1,5.9-14.9,5.9
			C400,213.6,400,213.3,400.1,213z"/>
		<path class="st1" d="M400.1,213c-0.1,0.3-0.1,0.6-0.1,0.9c-0.2,0.4-0.4,0.7-0.6,1.1c-0.7-0.6-0.5-1.4-0.3-2.1c0,0-0.1,0.1-0.1,0.1
			C399.3,212.9,399.7,213,400.1,213z"/>
		<path class="st11" d="M346.9,105.8c-7,2.4-12.5,4.3-17.9,6.2c-9.7,3.5-19.4,7-29,10.6c-1.4,0.5-2.6,1.2-4.3,0.5
			c-12.4-5.6-24.9-11-37.2-16.5c-0.2-1.3,0.7-1.5,1.4-1.8c13.6-6.2,27.3-12.3,40.8-18.6c2.9-1.4,5.3-1.2,8,0.2
			C320.9,92.6,333.2,98.9,346.9,105.8z"/>
		<path class="st11" d="M294,79.9c0.9,0.7,4.9,0.7,0.7,2.5c-14.5,6.5-29.3,12.6-43.5,19.8c-1.1,0.5-2.2,0.8-3.4,0.4
			c-12.5-4.7-25-9.5-38.7-14.7c10.3-4.7,19.6-8.9,28.8-13.1c1,1.4,2.5,1.6,4,1.7c9.9,0.7,19.7,2.3,29.5,3.8
			C278.8,81.5,286.5,81.9,294,79.9z"/>
		<path class="st11" d="M226.1,73.4c-7.4,3.7-14.9,7.4-22.3,11c-1.2,0.6-2.5,1-3.9,0.6c-11.6-3.5-23.1-7-36.1-11
			c6.9-3.5,12.6-6.4,18.3-9.2c10.3-5.1,20.6-10.1,30.9-15.1c3.4-1.7,6.8-3,10.1,0.1c-0.1,1.1-0.4,2.1-1.1,3.2
			c-4.5,6.7-3.8,11.6,2.3,17.1C225.4,71,226.1,72,226.1,73.4z"/>
		<path class="st15" d="M230.8,47.1c2.1-3.8,6.3-4,9.6-5.2c18.2-6.9,35.6-4,52.4,4.9c-9.6,3.6-19.3,7.1-28.9,10.8
			c-1.8,0.7-3.4,0.9-5.3,0.2C249.4,54.1,240.1,50.6,230.8,47.1z"/>
		<path class="st15" d="M298.9,49.3c0,2.2,1.8,3,3.2,4.1c5.5,4.2,7.2,9.9,6.8,16.5c-0.2,3.6-4.2,4.6-5.1,7.6
			c-11.9-5.3-23.8-10.6-36.6-16.3C278.1,56.3,288.3,52.1,298.9,49.3z"/>
		<path class="st15" d="M294,79.9c-7.5,2-15.2,1.6-22.6,0.4c-9.8-1.6-19.6-3.1-29.5-3.8c-1.4-0.1-3-0.3-4-1.7
			c6.4-3.1,12.8-6.1,19.2-9.2c1.6-0.8,3.1-0.9,4.8-0.1C272.6,70.3,283.3,75.1,294,79.9z"/>
		<path class="st15" d="M226.1,73.4c0-1.4-0.7-2.4-1.7-3.3c-6.2-5.5-6.9-10.5-2.3-17.1c0.7-1,1-2,1.1-3.2
			c9.7,2.8,18.8,7.3,28.2,11.1c0.4,0.2,0.7,0.5,1.7,1.1C243.7,65.9,234.9,69.6,226.1,73.4z"/>
		<path class="st6" d="M399.1,195c0,4.2-3.4,7.9-7.2,7.5c-3.6-0.4-5.5-3-5.8-6.4c-0.3-3,4.6-7.1,8-6.7
			C397.4,189.8,399.7,191.5,399.1,195z"/>
	</g>
</g>
</svg>
